<svg width="30" height="30" viewBox="0 0 30 30" xmlns="http://www.w3.org/2000/svg"><g fill="none" fill-rule="evenodd"><circle fill="#FFF" cx="15" cy="15" r="15"/><path d="M15.74 21.059c-1.565.2-3.308.017-4.66-.566V9.58c1.065-.449 2.685-.49 3.64-.25 2.586.658 2.041 2.881-.087 4.932 2.587.25 4.743 1.583 4.743 3.533 0 1.926-1.774 2.96-3.636 3.264zm2.716-8.001c1.59-1.577 1.262-5.05-1.72-5.99-2.332-.734-6.355-.281-8.5.356V23.69l2.562-.753c1.653.495 3.296.75 5.166.644 1.85-.104 3.611-.686 4.534-1.601a5.796 5.796 0 0 0 1.72-4.038l.002-.029v-.035-.024c0-2.156-1.445-4.34-3.764-4.795z" fill="#C4D92D" fill-rule="nonzero"/></g></svg>