<svg width="30" height="30" viewBox="0 0 30 30" xmlns="http://www.w3.org/2000/svg"><g fill="none" fill-rule="evenodd"><circle fill="#FFF" cx="15" cy="15" r="15"/><path d="M9.589 18.39c-1.691 0-1.952-.305-1.952-2.265 0-1.668.533-1.9 1.881-1.9 1.361 0 1.894.232 1.894 1.9 0 1.96-.297 2.264-1.823 2.264zm6.5-1.462v2.618h-1.633v-9.227h1.645v5.15h.308c.484 0 .65-.086.994-.44l1.928-1.947h1.892l-2.921 3.08 3.146 3.384h-2.106l-2.01-2.216c-.344-.365-.474-.402-.959-.402h-.284zm-6.476 2.703c2.343 0 3.502-.718 3.502-3.3 0-2.336-.864-3.383-3.183-3.383-1.017 0-1.715.086-2.224.524V10.32H6.064v6.17c0 2.363 1.006 3.142 3.549 3.142zm14.148-.085h-1.656v-1.647h1.656v1.647z" fill="#F58426"/></g></svg>