<svg version="1.1" id="Capa_1" xmlns="http://www.w3.org/2000/svg" x="0" y="0" viewBox="0 0 40 26" xml:space="preserve"><style>.st0{fill:#005bab}</style><g id="onBoardingV2"><g id="H2-ListadoEntidades-Copy-3" transform="translate(-224 -235)"><g id="Logo_Carrefour" transform="translate(224 235)"><path id="path15-9" class="st0" d="M11.6 1.1L.9 11.3c-.6.4-.9.9-.9 1.7 0 .7.3 1.3.9 1.7l10.8 10.2c.1.1.1.1.2.1s.2-.1.2-.2 0-.1-.1-.2C9.4 21.5 7.5 18 7.5 13s1.8-8.6 4.4-11.6c.1-.1.1-.1.1-.2s-.1-.2-.2-.2c0 0-.1 0-.2.1"/><path id="path17-4" class="st0" d="M20.8 0C16.6 0 15 5.9 15 13s1.6 13 5.8 13c2.5 0 4.6-1.5 4.6-2.7 0-.3-.1-.5-.3-.7-1.2-1.2-1.6-2.3-1.6-3.3 0-1.9 1.7-3.4 3.2-3.4 2.1 0 3.4 1.7 3.4 3.9 0 2.1-.9 3.8-1.8 5.1 0 .1-.1.1-.1.2s.1.2.2.2.1 0 .2-.1l10.6-10.4c.5-.5.9-1 .9-1.8s-.3-1.3-.9-1.8L28.5.9c-.1-.1-.1-.1-.2-.1s-.2.1-.2.2 0 .1.1.2c.9 1.3 1.8 3 1.8 5.1 0 2.2-1.2 3.9-3.4 3.9-1.5 0-3.2-1.4-3.2-3.4 0-1 .5-2.2 1.6-3.3.2-.2.3-.5.3-.7.1-1.3-2-2.8-4.5-2.8"/></g></g></g></svg>