<svg width="30" height="30" viewBox="0 0 30 30" xmlns="http://www.w3.org/2000/svg"><g fill="none" fill-rule="evenodd"><circle fill="#FFF" cx="15" cy="15" r="15"/><path d="M19.196 12.678s9.933 13.282 2.131 7.606c0 0-3.936-3.406-6.031-4.768 0 0-7.44 17.33-2.89-.719 0 0-15.855-2.194-.072-2.913 0 0-4.55-6.509 3.25-1.135 0 0 12.786-9.271 3.396 1.854l.216.075z" fill="#4090CE"/><path d="M10.745 16.008c0 .53-.506.946-1.12.946-.614 0-1.083-.416-1.083-.946 0-.492.47-.908 1.083-.908.614 0 1.12.416 1.12.908z" fill="#FFC226"/><path d="M10.275 20.322c0 1.135-.722 2.081-1.589 2.081-.903 0-1.589-.946-1.589-2.081s.686-2.044 1.59-2.044c.866 0 1.588.909 1.588 2.044z" fill="#F04924"/></g></svg>