<svg version="1.1" id="Capa_1" xmlns="http://www.w3.org/2000/svg" x="0" y="0" viewBox="0 0 215 52" xml:space="preserve"><style>.st0{fill:#bdbdbd}</style><path id="Shape" class="st0" d="M120.3.5c0 .3.1.7.1 1 .2 2 .3 4 .5 6 .1 1.7.3 3.3.4 5 .1 1.6.3 3.3.4 4.9 0 .6.1 1.3.1 1.9 4.1-.3 7.1 1.2 8.9 5 .6-.8 1.4-1.4 2.3-1.8 1.7-.7 3.4-.9 5.2-.1 1.4.6 2.3 1.7 3 3.1s1.1 3 1.2 4.6c.1 2.2.1 4.3.1 6.5v.7h-5.8v-.4-6.2c0-.6-.1-1.2-.4-1.7-.4-.7-1-1.1-1.8-1.1s-1.4.4-1.7 1.1c-.2.4-.3.9-.3 1.4v8.2H127c0-.4-.1-.8-.1-1.1-.1-2.3-.2-4.6-.4-6.9 0-.6 0-1.3-.1-1.9-.3-1.4-1.2-2.3-2.6-2.7-.8-.2-1.4.2-1.5 1.1 0 .3 0 .6.1.9.2 1.7.4 3.3.5 5 .1 1.8.2 3.6.2 5.4 0 2.7-.3 5.3-1.1 7.8-.4 1.3-.9 2.5-1.8 3.6-.8 1-1.8 1.7-3.1 2H115.9c-1-.2-1.8-.7-2.5-1.4-1-1-1.6-2.2-2-3.4-.5-1.5-.8-3-.9-4.6s-.1-3.1 0-4.7c.4-4.6 1.5-8.9 3.9-12.9.6-.9 1.3-1.8 2-2.6.1-.2.2-.3.2-.5-.1-1.4-.2-2.8-.3-4.3l-.3-3.6c-.1-1.1-.2-2.3-.3-3.4-.1-1.5-.2-2.9-.4-4.4-.1-.8-.1-1.6-.2-2.4-.1-1-.1-2-.2-3.1.7 0 1.3 0 2-.1 1 0 2-.1 3-.1.2.2.3.2.4.2zm-2.2 36.1c-.1-1-.1-1.9-.2-2.9-.1-.6-.2-1.1-.4-1.7-.1-.3-.4-.3-.5 0l-.3.6c-.4 1.2-.5 2.5-.6 3.8-.1 1.6-.1 3.3.1 4.9.1.6.3 1.2.4 1.8 0 .1.2.2.3.2.1 0 .3-.1.3-.2.1-.3.3-.6.3-.9.4-1.8.5-3.7.6-5.6z"/><path id="Shape_1_" class="st0" d="M.6 17.8c.1-.6.2-1.3.4-1.9 1-3.2 3.1-5.5 6.1-6.9 2-1 4.1-1.4 6.3-1.3 1.4 0 2.8.3 4.2.9.2.1.3.1.3.3V15.1c-.1 0-.2-.1-.3-.1-1.3-.6-2.7-.9-4.2-.8-2.8.1-5.2 1.6-6.1 4.2-.5 1.4-.4 2.8 0 4.2.1-.1.2-.1.3-.2 1.2-.8 2.5-1.4 4-1.4 1.7 0 3.1.7 4.2 2 .9 1.1 1.4 2.4 1.4 3.9 0 2.1-1 3.5-2.9 4.4-.9.4-1.9.7-2.9.7H9.6c.5.8 1 1.3 1.8 1.6 1.1.5 2.2.5 3.4.3 1.5-.3 2.9-.9 4.3-1.7.2-.1.2-.2.2-.4-.3-1.8-.5-3.7-.5-5.6 0-2.6.3-5.1 1.4-7.5.6-1.5 1.5-2.8 2.8-3.8.8-.6 1.8-1 2.9-1s2 .6 2.7 1.4c.8 1 1.2 2.2 1.4 3.5.3 2.3.1 4.5-.4 6.7-.8 2.5-1.6 4.8-2.6 7-.1.1-.1.2-.2.4-.2.4-.1.7.3.9.3.1.5.2.8.2 1.4.1 2.6-.3 3.7-1.1h.1v4.6c0 .2 0 .3-.2.4-2.5 1.5-5.2 1.8-7.9.5-.5-.2-1-.6-1.4-1-.7.4-1.3.8-2 1.1-1.7.8-3.5 1.4-5.4 1.6-2.2.3-4.4.1-6.4-.8C5.3 38 3.5 35.6 3 32.2c-.2-1.2-.1-2.4.1-3.6v-.4c-1-1.9-1.8-3.9-2.2-6-.1-.5-.6-2.1-.3-4.4zm24.8 5.6c0-.3-.1-.8-.2-1.3-.1-.3-.1-.7-.5-.7s-.5.3-.7.6c-.8 1.7-1 3.4-.7 5.2 0 .2.1.5.2.7.2.3.5.4.7.1.2-.2.3-.4.4-.6.6-1.2.7-2.5.8-4zm-14.6 4.8c.7 0 1.3-.6 1.3-1.3 0-.7-.6-1.3-1.3-1.3s-1.3.6-1.3 1.3.6 1.3 1.3 1.3z"/><path id="Shape_2_" class="st0" d="M77.6 26.6c.6-1.3 2.4-2 3.7-1.8.1 0 .3 0 .3.2v5c-.3.1-.7.1-1 .2-1.3.3-1.9 1.2-1.9 2.5v5.1h-4.6v-.3-4.4c0-1.5-.9-2.2-2.1-2.4-.3 0-.6 0-.9-.1-.1.4-.1.7-.1 1-.4 1.7-1.4 3-2.7 4.1-1.5 1.3-3.3 2-5.3 2-1.7 0-3.2-.4-4.7-1.3-.3-.2-.6-.2-.9 0-2.3 1.4-4.7 2.6-7.3 3.2-3 .7-5.9.5-8.6-.8-2.1-1-3.6-2.6-4.9-4.5-1.4-2.1-2.1-4.5-2.4-7-.4-3.2 0-6.3 1.3-9.3 2-4.5 5.4-7.3 10.1-8.4 2.4-.6 4.8-.7 7.2-.4.4 0 .7.1 1.1.1v5.8c-.5-.1-1-.2-1.4-.3-2.1-.4-4.2-.4-6.3.2-3 .9-5 2.8-5.9 5.8-1.1 3.6-.7 7 1.3 10.1 1.1 1.7 2.7 2.8 4.8 3.2 1.5.2 2.9 0 4.3-.6 1.3-.5 2.5-1.2 3.7-2.1.1-.1.1-.2.1-.3-.2-1.4-.1-2.7.7-3.8.9-1.3 2.1-2 3.7-1.9 1.1.1 1.9.9 1.9 2 0 .7 0 1.4.1 2.1.1.6.2 1.1.4 1.7.6 1.8 2.4 1.9 3.6 1.2.3-.2.6-.5.8-.8.4-.7.2-1.3-.6-1.6-.5-.1-.9-.3-1.4-.4-1-.4-1.8-1-2.4-1.9-.8-1.1-.9-2.3-.6-3.6.4-1.7 1.2-3 2.6-3.9 1.7-1.2 3.8-1.1 5.4.2 1.1.9 1.9 2 2.6 3.3.1.2.2.3.4.3 1.9.1 3.6.5 5 1.9.4.1.7.4.9.7zM67 24.8c0-.5-.4-.9-.9-.9s-1 .4-1 .9.4.9.9.9c.6 0 1-.4 1-.9z"/><path id="Shape_3_" class="st0" d="M83.1 30.1v-5h1.7c.2-3.8.5-7.5.7-11.3h5c-.3 4-.6 7.9-.9 12H91c.1 0 .2-.1.2-.2.8-1.5 1.6-2.9 2.8-4 1.3-1.3 2.7-2.3 4.5-2.6 2.9-.5 5.8 1.1 6.4 4 .3 1.6-.1 3-.9 4.3-1 1.6-2.4 2.7-4 3.6-.7.4-1.4.7-2.2 1.1-.1 0-.1.1-.2.1.7 1 1.6 1.6 2.8 1.7 1.4.2 2.6-.3 3.8-1l1.5-.9V37.3c0 .3-.1.5-.3.6-1.2 1-2.5 1.5-4 1.7-2 .3-3.9 0-5.7-1-2.1-1.1-3.5-2.9-4.3-5.1-.2-.5-.4-.9-.7-1.3-.1-.2-.4-.4-.7-.5-.5-.2-.8.1-.8.6V38.4h-5v-8.2c-.3-.1-.6-.1-1.1-.1zm16.3-5.6c0-.6-.4-.9-.9-.6-.3.1-.6.4-.8.6-.5.6-1 1.2-1 2.1 0 .5.3.8.8.6.9-.4 1.9-1.7 1.9-2.7z"/><path id="Shape_4_" class="st0" d="M188.8 31.1c.4-.2.8-.3 1.2-.5 1.7-.7 3.2-1.7 4.7-2.6 2.5-1.6 5-3.2 7.6-4.5 1.5-.7 2.9-1.4 4.5-1.6 1.5-.2 3-.2 4.5.4 2 .8 3.1 2.4 3.4 4.5.4 2.9-.4 5.5-2.1 7.8-2.2 2.9-5.1 4.6-8.6 5.3l-2.4.3v-.4-5.1c0-.2.1-.3.3-.4 1.9-.6 3.7-1.3 5.2-2.5.5-.4 1-.7 1.2-1.4.4-1.2-.2-2.4-1.2-2.7-.6-.2-1.2-.1-1.7.1-.8.4-1.6.9-2.4 1.3-3.7 2.3-7.5 4.6-11.2 6.9-1.9 1.2-4 1.7-6.2 1.6-.7 0-1.4-.2-2-.6-.1 0-.2-.1-.3 0-1.7 1.2-3.6 1.9-5.7 2.3-1.2.2-2.4.4-3.6.3-1.9-.1-3.7-.4-5.3-1.6-.5-.4-1-1-1.5-1.5-.2.1-.5.3-.8.6l-4.8 3.3c-.1.1-.2.2-.2.4.2 2.1.1 4.2-.7 6.2-.9 2.2-2.4 3.5-4.7 3.9-2.1.3-4.1 0-5.7-1.6-1-.9-1.5-2.1-1.6-3.4-.3-2.9 1-5.2 3.1-7.1 1-.9 2.2-1.6 3.5-2.1.2-.1.3-.2.3-.4v-1.5c-.4.2-.7.5-1 .6-1.4.8-2.9 1.4-4.5 1.5-1.5.2-3 0-4.2-.9-1.1-.8-1.6-1.9-1.9-3.1-.6-2.4 0-4.5 1.3-6.4 1.4-2.2 3.3-3.7 5.6-4.9 2.4-1.2 5-1.9 7.7-2.2.6-.1 1.1-.1 1.7-.2v5.7c-.8.1-1.5.2-2.2.3-2.2.3-4.3.9-6.1 2.2-.9.7-1.7 1.5-1.9 2.6v1c.1.4.2.5.6.5.7 0 1.3-.4 1.9-.8 1.7-1.1 2.9-2.6 3.6-4.5.1-.1.1-.3.3-.3h5.1v7.5l3.3-1.2c-.2-.7-.4-1.3-.6-2-.6-2.1-.8-4.2-.7-6.4.1-2.3.7-4.5 1.9-6.5.7-1.2 1.6-2.2 2.9-2.8 1.4-.7 2.7-.6 4.1-.1 2.3.9 3.5 2.6 3.9 4.9.3 2.1 0 4.1-.7 6.1-.7 2.4-1.9 4.5-3.3 6.6-.1.1-.1.2 0 .4.6.7 1.3 1.1 2.2 1.2.9.2 1.7 0 2.5-.3.2-.1.2-.1.2-.4-.5-1.4-.8-2.8-.8-4.3 0-2.1.6-4 2.1-5.5 1.1-1 2.3-1.6 3.8-1.8 1.8-.3 3.4.1 4.9 1.1 1.4 1 2.2 2.4 2.3 4.2.1 1.4-.2 2.7-.7 3.9 0 .1-.1.2-.1.2v.4zm-18-8.5v-.2c-.1-.5-.1-1-.3-1.4-.2-.5-.5-.5-.8-.1l-.3.6c-.6 1.4-.8 2.8-.7 4.3 0 .3.1.7.3 1 .1.3.4.3.7.1.1-.1.3-.3.4-.5.5-1.3.7-2.5.7-3.8zm13.9 6.1c0-.7-.1-1.2-.4-1.6-.5-.8-1.4-.8-1.9 0s-.6 2.1 0 2.9c.5.8 1.4.8 1.9 0 .3-.5.4-1 .4-1.3zM154 43.8v.2c.1.5.3.9.8 1.1.4.1.8 0 1.1-.3.4-.5.5-1.2.2-1.8-.4-.7-1.2-.9-1.8-.3-.2.4-.3.7-.3 1.1z"/><path id="Shape_5_" class="st0" d="M203.3 16c-3.7 2.4-7.4 4.7-11.1 7.1-1.2-1.4-2.3-2.9-3.5-4.3 3.9-2.5 7.8-5.1 11.7-7.6 1 1.6 1.9 3.2 2.9 4.8z"/></svg>