<svg width="30" height="30" viewBox="0 0 30 30" xmlns="http://www.w3.org/2000/svg"><g fill="none" fill-rule="evenodd"><circle fill="#FFF" opacity=".6" cx="15" cy="15" r="15"/><path d="M11.562 13.239c-.06-.12-.209 0-.356-.06 0 .06 0 .117.089.18a.48.48 0 0 1 .267-.12zm.236-1.559c0-.055-.06-.115-.146-.177h-.713c0 .122.087.177.178.177 0 .122.09.145.118.177.091.06.118.06.21 0 .087.06.117-.055.149 0 0 .18 0 .257-.032.401-.03.208-.209.18-.356.269 0 .088-.09.238 0 .326.089-.059.147-.088.296-.15 0-.088.092-.176.208-.237 0-.266.088-.52.088-.786zm1.338 1.704v-.145h-.298l-.027.03.325.115zm-1.75-2.706c-.033-.29-.36-.317-.507-.434h-.12c-.233.085-.284.324-.31.519.077.265.25.09.37.265.12-.087.416-.296.566-.35zm.65.322c-.056-.06-.238.028-.326.06-.116.029-.208.119-.208.207h.328c.029-.088.15-.207.206-.267zm1.462.625s.058 0 0-.032l-.63-.09c-.057.09-.204.09-.204.177h-.062c.062.236.062.49.062.758.117.028.234.089.234.266.12.06.238.09.353.18.054-.031.08-.12.107-.209-.107-.148-.372-.06-.372-.327l-.175-.06c0-.174 0-.342-.03-.463l.03-.023c0 .023.027.055.087.114.12 0 .238.03.353-.06.054-.031.054-.176.107-.176s.11 0 .14-.055zm-.451-.358c0-.088-.03-.088-.06-.088-.15 0-.15-.238-.267-.18-.056 0-.118-.058-.207 0 0 .03 0 .03.059.03.148 0 .092.207.209.238h.266zm.986-.178c.056-.148.056-.411-.063-.552-.058-.118-.206-.176-.352-.293l-.207.117c-.106.058-.16.176-.16.317.188.085.394.322.482.5h.09c.089-.09.147 0 .21-.09zm-6.088 8.183c-.03 0-.118-.088-.208-.088-.084.177 0 .295 0 .504 0 .09-.03.178-.03.178-.054 0-.16-.12-.187-.237v-.476l.247-.319c.178.111.237.29.178.438zm.76-.327a.587.587 0 0 1-.086.327c-.03-.119-.115-.266-.259-.266-.12.235-.148.325-.028.682-.092.09-.15.118-.265.178-.063-.12-.063-.325-.063-.444 0-.21.031-.416.09-.588.088-.09.146-.238.238-.303h.314c-.142 0-.142.126-.142.213.085.03.2.06.2.201zm1.041.179c0 .237-.388.564-.388.564 0-.147.092-.327.092-.504 0 0-.118-.12-.24-.12-.088.06-.088.12-.118.208-.09.179-.267.357-.296.534-.029 0-.029-.028-.029-.028 0-.299.03-.801.207-1.004.148-.178.268-.178.444-.208l.152.03-.12.178c.12.06.296.171.296.35zm.808-.29l-.079.29-.195-.528c-.239-.21-.505-.24-.654-.36-.119-.03-.119.06-.176 0 0-.057 0-.15.089-.237h.176l.18.086c.088.094.296.094.296.27 0 .032-.028.058.06.176l.275.065.028.238zm.443-.421l-.208.183c-.06-.065 0-.21-.09-.3 0-.06.06-.09.03-.117-.03-.062-.362-.18-.362-.18-.116-.088-.265-.181-.384-.296-.117-.029-.208.03-.357.058v-.058c.06-.121.06-.27.24-.27.087 0 .207 0 .263.09.122 0 .18.119.265.151.132.144.25.205.336.264 0 .09.03.147.088.18.179 0 .121.177.179.295zm.148-.919c0 .088-.028.444-.028.444-.059-.205-.209-.415-.387-.415-.087-.09-.176-.177-.204-.266-.077-.089-.16 0-.275-.089-.122 0-.268 0-.385.09v-.09l.207-.24c.207.032.453 0 .509.15.148.09.297.18.326.237v.092c.059.027.18.056.237.087zm-.148-1.498l-.118.434c-.15.114-.353.058-.512.058.215-.058.392-.315.512-.492.03-.03.06 0 .118 0zm-.415-.354c0 .118-.056.266-.188.415-.027.028-.114.087-.114.087 0-.179.087-.325.087-.474.082-.028.159-.088.215-.028zm-.331-.45c-.149.152-.298.21-.357.39a.573.573 0 0 0-.057-.238c.029-.12.116-.178.146-.204.09.026.146.026.268.052zm2.143 2.242c-.12.09-.21.09-.358.06l-.177-.237h.446l.089.177zm-.596-1.349c-.088.177-.174.345-.354.403-.09 0-.238.056-.418 0 .09-.058.18-.087.3-.165l.236-.238h.236zm2.708 3.099l-.09.088c-.088-.088-.03-.327-.177-.355-.15 0-.269-.143-.327-.173l.121-.06s.056-.027.12 0c.057.06.116.09.116.15.059.083.147 0 .211.083.026.09.057.207.026.267zm-2.172-2.861c-.029.165-.12.22-.267.43-.087.059-.269.09-.443.175.028-.085.115-.116.174-.206.06-.089.182-.234.21-.32.148-.08.206-.08.326-.08zm-1.426-1.038a.994.994 0 0 1-.459-.37.954.954 0 0 1-.082-.357c.108 0 .187.088.215.148v.03c.148.178.297.311.326.55zm2.287 2.122h-.06a.974.974 0 0 1-.297-.15c-.027-.089-.027-.179-.027-.179h.236l.148.329zm2.34 1.367c-.03.06-.09.232-.119.35-.062-.179-.118-.44-.327-.44-.03-.118-.06-.153-.18-.24l-.226-.031c.03.118.198.118.086.272.112.09.203.09.26.232.06.09 0 .207.03.267l-.178.088c0-.148.028-.438-.167-.498-.177.06-.208-.178-.328-.243-.058 0-.058-.144-.147-.086-.15.086-.327 0-.475.086l.148-.236c.121-.089.24-.059.357-.089l.237-.027c.238 0 .437.116.673.208.12.058.175.144.175.27.062.028.18.028.18.117zm-4.24-3.948l-.089.366c-.09-.177-.18-.337-.21-.546l.299.18zm.564.844c-.177-.177-.327-.326-.327-.504.092 0 .178 0 .266.057 0 .15.06.27.06.447zm3.378 2.509c-.119-.094-.294-.094-.356-.24-.112-.028-.198-.028-.344-.028-.12.027-.268.027-.385.027-.031 0 0-.027-.063-.06-.177.06-.356.06-.533.24l.148-.357c.119 0 .208-.058.266-.058.119-.029.21-.029.3-.029v.03c.326 0 .702-.03.94.234l.027.24zm-1.77-1.691a.583.583 0 0 1-.331.118c-.18-.147-.298-.313-.472-.55l.472.088c.087.062.25.257.332.344zm-.982-1.296c0 .21-.032.478-.241.568l-.06-.299c.09-.058.18-.117.3-.269zm2.694 2.39c-.15 0-.27 0-.357-.148-.029 0-.078-.088-.108-.027-.147.116-.298-.092-.475-.061a.579.579 0 0 1-.327.177v-.029c0-.087.058-.179.177-.237.18.058.327-.329.507-.118.087.03.173.03.226.03.207.088.267.265.357.413zm.683 1.103h-.03c-.062-.09-.09-.154-.149-.154.087-.325-.09-.593-.148-.857v-.092c.09.15.327.297.298.447.03.266.03.502.03.656zm-2.726-3.015c-.15-.088-.416-.118-.355-.297.057-.15.148-.18.205-.233.032.204.06.353.15.53zm-3.034-3.813l-.15.18c.031.283-.086.49-.086.757l-.15-.474c.03-.12.06-.229.15-.374l.236-.09zm4.404 4.466h-.09c-.327.107-.593-.09-.86-.266.148-.061.356-.092.533-.092l.09.179c.09.03.237.118.327.179zm-1.52-2.388c-.03.178-.088.445-.266.566 0-.121-.056-.18-.118-.268-.03 0 0 .089-.03.089 0 .058-.059.179-.059.296-.06.028-.179.088-.3.028v-.088c-.028-.057-.028-.178-.028-.236l-.029-.031c-.09.03-.09.089-.09.15-.03.06-.086.117-.086.205a.414.414 0 0 1-.27-.088v-.267c0-.058 0-.058-.028-.058l-.15.147c-.119-.089-.147-.326-.147-.472.474-.27 1.068-.18 1.426-.032.056.032.118.032.175.059zm.837 1.617c-.12.03-.325.09-.384-.06-.16-.269-.081-.504 0-.697.059.17.088.345.117.49.03.118.208.176.267.267zm-3.782-4.108l-.204.06.029-.15c.057-.087.087-.175.175-.265v.355zM15 15.996c-.119 0-.317 0-.433-.088a.992.992 0 0 1-.328-.238c.12-.088.267-.088.328-.118.116.118.226.325.433.444zm-.82-.83c-.147.026-.268-.119-.416-.178-.06-.162-.06-.342-.119-.43.119.088.388.088.325.356 0 .074.119.133.21.252zm2.429 2.091c0 .177-.117.325-.147.504 0-.18-.03-.327-.146-.446 0-.058.084-.058.028-.147 0 0-.166-.09-.166-.208 0-.117.11-.207.166-.295 0-.032.118.057.118.236 0 .027 0 .119-.03.177-.032.09.177.09.177.18zm.684.325c0 .15-.18.329-.238.447.059-.15.059-.447 0-.447-.062-.027-.181 0-.181-.059 0-.09.033-.208.033-.266 0-.118-.093-.179-.093-.237 0-.177.21-.208.27-.327.03.119.03.235.03.385 0 .06.088.237 0 .385 0 .092.179.031.179.119zm-2.412-2.756c-.167 0-.375.088-.465-.09.064-.03.121-.118.18-.178l.285.268zm.832.667l-.148.059c-.328 0-.476-.09-.622-.208.117 0 .267-.152.267-.152.144.152.355.27.503.3zm-1.207-1.854c-.354-.196-.742-.343-1.174-.37 0 .09 0 .174-.027.203.34.167.665.315.964.582v.268c-.299-.296-.624-.594-.99-.683-.028.06-.143.118-.172.237-.21-.148-.443-.297-.683-.326-.09 0-.15-.311-.15-.311.15-.06.24-.15.298-.299h.118c.09 0 .09-.056.09-.146 0-.18-.386-.18-.566-.18-.206 0-.355 0-.475.09-.057 0-.029.09-.029.149 0 .03.088.087.088.087.06 0 .12-.056.182-.056-.032.178.028.266.205.355l-.029.288c-.358 0-.594.14-.861.26a.788.788 0 0 1-.208-.237c-.357.118-.958.592-.958.592v-.207c.265-.236.6-.356.868-.492v-.204c-.118-.06-.238 0-.354 0-.25.03-.514.145-.69.288a1 1 0 0 0-.03-.2c.328-.177.72-.325 1.103-.265v-.122c-.03-.056-.03-.146-.087-.146-.18-.18-.357-.446-.357-.624l.118-.056c-.057-.168-.118-.61 0-.76-.174-.087-.333-.237-.392-.354-.057-.148-.117-.237-.145-.402.088-.179.145-.237.23-.412.056 0 .133-.031.161-.09.146-.03.235-.176.413-.088.12 0 .24.058.328.087 0 .06 0 .09.058.149.179 0 .179.175.271.324.086.03.174.03.235.03.177.054.326.054.385.134.24-.134.476-.164.742-.134.032-.091.089-.21.121-.354.029.085.029 0 .088 0 .11-.09.244-.236.45-.178.119.089.325.03.444.178.09.117.15.293.239.434-.09.174 0 .41-.176.5l-.182.176c-.058 0-.058.062-.147.062.089.209.03.5-.059.698.059-.023.148-.023.148-.108.031.031 0 .085 0 .108v.086c0 .148-.09.297-.208.415-.059.179-.206.416-.399.447v.057c.428 0 .784.12 1.2.324v.196zm2.28 2.849c0 .056-.087.118-.119.118 0 0-.148-.147-.175-.283-.03-.117.087-.327.087-.327.03 0 .06.06.088.06.032.03 0 .117.032.206.086.06.146.168.086.226zm2.386 2.043a.322.322 0 0 1-.056.065.782.782 0 0 0-.399-.094c0-.115-.088-.266-.15-.266-.174 0-.149.12-.295.12l.267-.27c.029-.057.029-.057.09-.057.088.056.119.088.205.088 0 .062 0 .09-.03.178.092.06.148-.03.205.06.081.032.163.058.163.176zM16.4 15.849c0 .09-.056.116-.113.18 0 0-.11-.152-.11-.21 0-.12 0-.177.027-.267.083.09.196.208.196.297zm1.16.873c0 .18-.03.389-.03.593-.09 0-.09-.058-.09-.176-.028-.179-.089-.327-.147-.506-.06-.232-.209-.427-.327-.695-.029-.119-.18-.178-.299-.268.147 0 .299 0 .417.117 0 .062.03.09.118.178.21 0 .149.268.328.39-.09.075-.118.133-.179.189.09.062.179.09.209.178zm-1.52-1.675c-.09.093-.327.12-.505-.032l.235-.1c.092.073.212.1.27.132zm-.654-.667c-.032.12-.15 0-.176 0h-.267c-.034-.058-.062-.089-.062-.147.119-.03.208-.09.298-.03.058.088.12.177.207.177zm2.589 2.313c0 .119-.06.208-.03.327-.06-.177-.178-.355-.238-.532 0-.029-.03-.029.03-.058.03 0 .149 0 .149.029.03.058.089.147.089.234zm1.49 1.218c0 .118-.03.15-.062.295-.204-.027-.204-.268-.23-.295-.14-.178-.339-.032-.486-.032-.058-.176.03-.176.03-.297.088 0 .18-.059.262 0 .137-.059.22.092.368.092.03.059.088.205.118.237zm.595.833c-.061.09-.061.09-.09.173 0-.143-.18-.232-.297-.472l.116-.209c.091.06.21.15.21.295 0 0-.03.065 0 .126 0 .028.06.028.06.087zm-4.88-5.016c-.18 0-.27-.09-.358-.256 0-.088-.029-.204 0-.353.06.12.06.177.121.24.117-.063.117.084.146.113.03.078.09.167.09.256zm2.527 2.18c-.266-.148-.414-.415-.652-.685.238 0 .296.238.475.27.06.059.116.089.177.177v.238zm1.849 1.674c-.21 0-.09-.414-.524-.414-.08 0-.136.147-.254.178 0-.03.027-.207.027-.207 0-.061.03-.179.147-.238.22 0 .164.087.334.147.09.03.149.09.27.09v.444zm.711.386c0 .178 0 .238-.09.388l-.178-.27c.06-.087.06-.207.15-.353.028 0 .118.205.118.235zm-5.7-5.648c0 .028-.061.295-.061.295l-.237.06.147-.638c.064.103.15.221.15.283zm5.138 4.608c-.093-.027-.302-.058-.302-.143 0-.12-.056-.152-.204-.152-.109 0-.19.032-.365.089 0 0-.086-.116-.117-.234.061-.029.292-.087.4-.087.198 0 .407 0 .407.087 0 .118.18.145.18.44zm.264-.635c-.208 0-.413-.06-.445-.15-.059-.058 0-.178-.147-.178-.062 0-.149.092-.149.092-.056.028-.22-.092-.22 0 0 .149-.112.205-.26.205-.061 0-.119 0-.18-.03v-.294c.384 0 .356-.119.522-.119.11 0 .196.058.287.058.147 0 .058-.058.206-.058s.206.12.297.146c0 .092.09.208.09.328zm-.089-.651a1.754 1.754 0 0 0-.79-.24c-.111 0-.46.15-.581.268l-.06-.267c.18-.03.18-.18.299-.18.086 0 .204-.03.284-.03.084 0 .14-.053.167-.053.148 0 .087.145.178.145.088 0 .147-.062.206-.062.148 0 .267.238.297.419zm-.68-.654c-.168 0-.191-.022-.304-.022-.148 0-.328.05-.417.2-.06-.119-.03-.178 0-.252.089-.088.238-.208.355-.208.198 0 .365.15.365.282zm.028-.43c-.196-.057-.304-.149-.48-.149-.061 0-.33.092-.355.15-.091-.118.057-.356.175-.417.119-.06.18-.029.237 0 0 .18.204.091.311.149.056.089.083.15.112.267zm.71-3.38h-.326c-.056-.09-.147 0-.209 0-.056 0-.088 0-.204-.09.178 0 .266-.088.413-.147.119.087.238.119.326.238zm.893.624a.31.31 0 0 0-.268-.177c-.087-.122-.207-.27-.327-.27.09 0 .209-.088.356-.088.06.15.18.236.207.358l.032.177zm-7.756 7.44c-.028 0 .032.061-.264-.236-.062 0-.147.178-.147.235 0 .238.056.565.147.8h.236c0-.263.028-.562.028-.8zm.629.03c0-.119-.086-.148-.206-.148-.059 0-.193.088-.193.148 0 .12-.054.77-.054.77h.188c.088-.264.265-.62.265-.77zm3.885-.355l-.296.028c.119.061.119.208.119.239 0 .088-.061.177-.12.238-.058-.06-.058-.15-.12-.238-.058 0-.088.147-.088.207 0 .269.118.475.209.65h.267c-.03-.235-.092-.445-.092-.71 0-.147.092-.325.121-.414zm6.383-2.684a5 5 0 0 0-1.487-3.53c-.411-.414-.862-.612-1.22-1.023a2.128 2.128 0 0 1-.434-.591c-.15-.148-.24-.237-.416-.326.03.09.061.178.089.265h-.028c-.15 0-.3-.087-.416-.176l.117-.12c-.029-.054-.117-.054-.178-.054-.475-.08-.909.174-1.37.263V11c.295.089.35.444.514.625h.172c.062 0 .15.055.209.055 0-.055-.059-.177-.059-.177.059-.059.118-.059.178 0 .146.09.356-.059.505.177-.179 0-.359 0-.505.09 0 .032.088.087.062.146-.149-.06-.328 0-.39-.114l-.03.023c.18.212.446.375.714.464.389.059.712-.12 1.088-.03 1.34.653 2.292 2.182 2.292 3.706 0 2.181-1.249 3.041-2.025 3.041a.832.832 0 0 1-.463-.172c.086-.303.143-.655.143-1.192 0-1.26-.5-2.627-1.184-3.32-.326-.329-.678-.594-1.045-.594-.176 0-.355 0-.476.148-.146.117-.237.357-.205.504-.238.178-.624.266-.922.266-.328 0-.74-.118-1.108-.413v-.446c-.084-.03-.381-.208-.232-.344.089.029.148.084.178.107-.03-.192-.03-.43-.178-.61-.06 0-.15 0-.237-.056-.09-.09-.18-.209-.18-.357.09.148.238.088.325.177-.145-.356-.087-.504-.354-1.024-.062-.264-.327-.413-.507-.591-.087-.06-.116-.148-.226-.148-.116-.03-.116-.178-.116-.263.029 0 .116.054.177.085-.177-.402-.296-.843-.683-1.083l-.09.06h-.473c.058-.06.176-.09.266-.148-.09-.09-.146-.12-.325-.12-.081.03-.188.12-.303.12h-.029c0-.09-.032-.21.144-.267a1.573 1.573 0 0 0-.531 0c-.03.148-.118.234-.118.355-.089.06-.117.148-.208.24 0-.18.09-.36.12-.539-.12.033-.27.122-.33.122-.236-.122-.532-.236-.652-.236.178.114.092.325.12.473l-.12-.06c-.03-.12-.179-.207-.206-.355-.181 0-.3.056-.447.148v.03c.088 0 .208.089.266.177-.206 0-.356-.088-.563-.088 0 0 0-.033-.028-.033a.717.717 0 0 0-.214.181c-.211.18-.357.326-.446.59.059 0 .147 0 .179.031-.12.027-.179.176-.298.207V11c-.09.089-.205.179-.268.354-.149.47-.175.994-.175 1.586-.03.122-.09.15-.151.18v.459s.177-.166.269-.22v.369c-.118 0-.208.148-.208.24 0 .114.03.235.03.354 0 .058 0 .058.03.12 0-.062.056-.12.148-.151 0 0 .057-.058.176-.058-.087.089-.119.208-.176.325l-.092.088s-.026.06-.026.09c.118.608.294 1.141.534 1.723-.24.384-.508 1.123-.685 1.836-.15-.149-.356-.178-.535-.178-.167.03-.341.09-.464.27-.178-.092-.415-.062-.53.058-.245.212-.245.33-.245.5a.6.6 0 0 0-.18.416c0 .268.031.445.18.68h4.452a.783.783 0 0 0-.149-.263c-.086-.182-.028-.417-.028-.594.088-.178.177-.35.298-.5.028-.088 0-.088.028-.118l.206-.035c.12 0 .21-.086.358-.086.092.12.092-.09.24-.15.324-.059.627 0 .806.236 0 .035.027.035.027.065h-.147c-.166-.065-.362-.151-.57-.065 0 .065-.03.065-.03.154v.15c.12 0 .21.11.325.171a.455.455 0 0 1 .333-.172c.148 0 .356.083.356.32v.325c.121.117.268.15.416.209-.059.118-.148.118-.24.118h-.236c-.03-.028-.088-.028-.088-.118-.09.118-.146.238-.208.354h3.437c-.056-.116-.12-.203-.148-.264-.06-.182-.06-.417-.06-.594l.329-.44c.179 0 .327-.06.653-.087.061-.091 0-.126.266-.126.21 0 .36.035.417.065.029.06.029.06 0 .117-.057.061-.178-.056-.267-.028-.059.06.028.09.028.15.061.05-.265-.06-.265-.06s-.06.17-.089.231l.176.178c.06.088-.087.177-.087.267-.06-.03-.18-.12-.18-.09-.059.235 0 .445-.03.68h.327l.03-.5c.031-.3.386-.828.594-.828.118 0 .21.061.292.121.053.111.193.172.193.23 0 .06-.082.09-.22.09-.056 0-.056-.09-.147-.148l-.176.178s.205.177.205.295c0 .15-.03.209-.117.299l-.178-.356c-.09 0-.237.174-.237.266 0 .118-.06.178-.06.354h1.818c.207 0 .385-.056.592-.176h.355c.731 0 1.3-.206 1.837-.742.714-.68 1.128-1.809 1.128-2.891zm-11.4 3.809c-.148-.264-.178-.68-.178-.77 0-.148 0-.355.09-.498l-.328.06c-.09.111-.12.172-.12.23l.149-.058c.029 0 .059.058.088.118-.03.148-.206.148-.265.207-.09.298.177.475.206.71h.358z" fill="#F60" fill-rule="nonzero"/></g></svg>