<svg width="30" height="30" viewBox="0 0 30 30" xmlns="http://www.w3.org/2000/svg"><g fill="none" fill-rule="evenodd"><circle fill="#FFF" cx="15" cy="15" r="15"/><path d="M12.462 15.538c.252-.242.511-.48.759-.73.56-.566 1.115-1.137 1.672-1.706.742-.757 1.48-1.517 2.227-2.268.378-.38.823-.651 1.36-.747 1.078-.194 2.252.543 2.33 1.799.04.65-.166 1.223-.63 1.685-.888.886-1.783 1.765-2.678 2.643-.063.062-.054.095-.017.16 1.078 1.856 2.153 3.713 3.228 5.571.272.47.437.969.409 1.52a2.085 2.085 0 0 1-2.268 1.974c-.874-.074-1.506-.522-1.927-1.267-.873-1.546-1.73-3.1-2.595-4.652-.062-.113-.062-.112-.152-.022-.55.541-1.098 1.084-1.648 1.624a.216.216 0 0 0-.072.17c.003.602.006 1.204 0 1.806-.005.648-.18 1.238-.642 1.714-.446.458-1.006.646-1.634.63-.64-.017-1.196-.24-1.62-.735-.367-.427-.533-.935-.545-1.49-.014-.584-.006-1.168-.006-1.752V6.918c0-.55.115-1.067.445-1.516.46-.625 1.1-.888 1.857-.867 1.145.032 1.98.81 2.118 1.944.02.161.029.322.029.484v8.48c0 .037-.012.077 0 .095zm7.343 7.706a.893.893 0 0 0-1.786.003.9.9 0 0 0 .896.894c.49 0 .893-.406.89-.897zM10.236 6.012a.738.738 0 0 0-.745.736.743.743 0 0 0 .74.734.74.74 0 0 0 .737-.733.737.737 0 0 0-.732-.737zm-.01 16.49a.735.735 0 0 0-.739.731c0 .403.331.738.733.74a.74.74 0 0 0 .742-.74.733.733 0 0 0-.737-.73zm7.849-10.449c0 .404.33.738.731.74.4.002.739-.332.74-.733a.736.736 0 1 0-1.471-.007z" fill="#0D0D0D"/><path d="M19.805 23.244a.896.896 0 0 1-.89.897.9.9 0 0 1-.896-.894.893.893 0 1 1 1.786-.003z" fill="#E1001B"/><path d="M10.236 6.012c.403.001.737.337.732.737a.74.74 0 0 1-.738.733.743.743 0 0 1-.739-.734.738.738 0 0 1 .745-.736zM10.225 22.503c.408 0 .735.325.737.73a.74.74 0 0 1-.742.74.744.744 0 0 1-.733-.74c0-.403.331-.73.738-.73zM18.075 12.053a.736.736 0 1 1 1.47.008.744.744 0 0 1-.739.732.742.742 0 0 1-.731-.74z" fill="#FFF"/></g></svg>