<svg version="1.1" id="Capa_1" xmlns="http://www.w3.org/2000/svg" x="0" y="0" viewBox="0 0 19 24" xml:space="preserve"><style>.st0{fill:#253b80}</style><g id="onBoardingV2"><g id="H2-ListadoEntidades-Copy-3" transform="translate(-235 -373)"><g id="PayPal" transform="translate(212 353)"><g id="Shape"><path class="st0" d="M5.3 23l.4-2.6H.8L3.6 1.2c0-.1 0-.1.1-.1 0-.1.1-.1.1-.1h6.9c2.3 0 3.9.5 4.7 1.5.4.5.6 1 .7 1.5.1.6.1 1.2 0 2.1v.6l.4.2c.3.2.6.4.8.6.3.4.5.9.6 1.5.1.6.1 1.4-.1 2.2-.2 1-.5 1.8-.8 2.5-.4.6-.8 1.2-1.3 1.6-.5.4-1.1.7-1.8.9-.7.2-1.4.3-2.2.3h-.5c-.4 0-.8.1-1 .4-.3.3-.5.6-.5 1v.2L9 22.7V23H5.3z" transform="translate(23 20)"/><path d="M16.9 6.2c0 .1 0 .3-.1.4-.9 5-4 6.7-8 6.7h-2c-.5 0-.9.4-1 .9l-1 7-.3 2c0 .3.2.6.5.6h3.6c.4 0 .8-.3.8-.8v-.2l.7-4.6V18c.1-.4.4-.8.8-.8h.5c3.5 0 6.2-1.5 7-5.8.3-1.8.2-3.3-.7-4.4-.1-.3-.4-.6-.8-.8z" fill="#179bd7" transform="translate(23 20)"/><path d="M15.9 5.8c-.1 0-.3-.1-.4-.1-.1 0-.3-.1-.5-.1-.5-.1-1.1-.1-1.8-.1H7.9c-.1 0-.3 0-.4.1-.2.1-.4.3-.5.6L5.9 14v.2c.1-.5.5-.9 1-.9h2c4 0 7.1-1.7 8-6.7 0-.1 0-.3.1-.4-.2-.1-.5-.2-.7-.3-.2-.1-.3-.1-.4-.1z" fill="#222d65" transform="translate(23 20)"/><path class="st0" d="M7 6.2c0-.3.2-.6.5-.7.1-.1.2-.1.4-.1h5.4c.6 0 1.2 0 1.8.1.2 0 .3.1.5.1.1 0 .3.1.4.1.1 0 .1 0 .2.1.3.1.5.2.7.3.3-1.8 0-3.1-.9-4.2C15 .7 13.1.1 10.8.1h-7c-.5 0-.9.4-1 .9L0 20.4c-.1.4.2.7.6.7h4.2L5.9 14 7 6.2z" transform="translate(23 20)"/></g></g></g></g></svg>