<svg width="30" height="30" viewBox="0 0 30 30" xmlns="http://www.w3.org/2000/svg"><g fill="none" fill-rule="evenodd"><circle fill="#FFF" cx="15" cy="15" r="15"/><g fill="#D92A5B"><path d="M19.44 12.154l-.077-.043-1.129.141v.361l.45.099v3.539l-.414.098v.337h1.579v-.337l-.408-.098v-4.097M17.472 13.49l-.079-.044-1.074.11v.356l.396.098v2.027c-.156.067-.324.146-.63.146-.409 0-.511-.177-.511-.556v-2.138l-.078-.043-1.087.11v.356l.415.098v1.824c0 .57.258.919.894.919.433 0 .763-.16.997-.392h.036v.242l.078.083h1.051v-.337l-.408-.1v-2.76M8.928 16.3c-.402 0-.762-.294-.762-1.231 0-.912.342-1.176.738-1.176.397 0 .757.288.757 1.231 0 .906-.342 1.176-.733 1.176m-.018-2.866c-.852 0-1.537.643-1.537 1.678 0 1.004.589 1.653 1.55 1.653.846 0 1.537-.649 1.537-1.69 0-1.016-.601-1.64-1.55-1.64M25.454 13.434c-.349 0-.631.233-.799.478h-.036v-.43l-.078-.042-1.063.147v.362l.414.097v2.205l-.408.098v.337h1.645v-.337l-.474-.098v-1.96c.192-.116.42-.177.708-.177.073 0 .18.006.253.024v-.68a.568.568 0 0 0-.162-.024M21.92 16.098a.796.796 0 0 1-.492.184c-.33 0-.474-.178-.474-.484 0-.294.12-.466.474-.49l.493-.037v.827zm1.015.25c-.156 0-.258-.036-.258-.22v-1.714c0-.668-.33-.98-1.05-.98-.445 0-.901.116-1.16.227v.404a5.87 5.87 0 0 1 .793-.062c.564 0 .66.154.66.582v.264l-.702.146c-.625.123-1.027.319-1.027.901 0 .526.378.87.937.87.402 0 .678-.172.84-.362h.03c.06.251.241.349.523.349.234 0 .41-.045.546-.067v-.337h-.132zM5.6 14.438c-.162 0-.312-.012-.425-.024v-1.669h.455c.492 0 .748.336.748.88 0 .532-.214.813-.778.813m-.018-2.188h-1.72v.38l.485.11v3.453l-.486.11v.379h1.89v-.379l-.576-.11V14.83c.167.03.365.048.581.048.918 0 1.467-.415 1.467-1.296 0-.758-.466-1.332-1.64-1.332M12.422 16.305c-.293 0-.42-.08-.527-.153v-2.016c.12-.055.33-.129.575-.129.48 0 .755.276.755 1.082 0 .94-.318 1.216-.803 1.216m.414-2.872c-.426 0-.725.171-.947.354h-.036v-.299l-.078-.043-1.054.147v.36l.413.098v3.434l-.401.085v.33h1.635v-.33l-.473-.092v-.763c.144.03.282.042.521.042.935 0 1.594-.562 1.594-1.79 0-1.21-.593-1.533-1.174-1.533"/></g></g></svg>