<svg xmlns="http://www.w3.org/2000/svg" viewBox="0 0 42 14"><path d="M33 8.5h-4.6c-.5 0-1 .1-1.3.4-.3.3-.4.7-.4 1.2v1.3c0 .3 0 .5.1.7.1.2.2.4.4.5l.6.3c.2.1.5.1.7.1h2.8c.6 0 1-.1 1.3-.4.3-.3.4-.7.4-1.2V8.5zm.8 2.9c0 .4 0 .7-.1.9-.1.3-.2.5-.5.8-.3.3-.5.5-.9.6-.3.1-.7.2-1 .2h-2.8c-.7 0-1.4-.2-1.8-.6-.5-.4-.7-1-.7-1.7v-1.3c0-.7.2-1.3.7-1.8.5-.4 1.1-.7 1.8-.7H33v-.5c0-.2 0-.4-.1-.6l-.3-.6c-.2-.2-.4-.4-.6-.4-.2-.1-.5-.1-.8-.1H26v-.8h4.9c.4 0 .8 0 1.2.1.4.1.7.3 1 .6.2.3.4.6.5.9.1.3.1.6.1 1v4zM22.7 5.6v8.3H22V2h.8v2.9h2.6v.7h-2.7zM20 13.9V7.1c0-.2-.1-.5-.2-.7-.1-.2-.3-.4-.4-.6-.2-.1-.4-.2-.7-.2-.2 0-.5-.1-.7-.1h-2.2c-.2 0-.5 0-.7.1-.2 0-.5.1-.7.2-.1.2-.3.4-.4.6-.1.2-.1.5-.1.7v6.8h-.8V7.2c0-.4.1-.7.2-1.1.1-.3.4-.6.7-.9.3-.2.6-.3.9-.3.3 0 .6-.1 1-.1H18c.4 0 .8 0 1.1.1.4.1.7.3.9.4.2.2.4.4.5.7.1.3.2.7.2 1.1v6.7H20zm-8.5-6.6c0-.7-.2-1.1-.6-1.3-.4-.2-.9-.4-1.5-.4H7.3c-.6 0-1.1.1-1.5.4-.3.2-.5.7-.5 1.3V10c.5-.2 1-.4 1.6-.7.5-.2 1-.4 1.5-.7.5-.2 1-.4 1.6-.7.5-.2 1-.4 1.6-.7l-.1.1zm.8.6l-7 3V11.2c0 .3 0 .6.1.9.1.3.2.6.5.8.2.1.5.2.7.3.2 0 .5.1.7.1h5v.7H7.5c-.5 0-.9 0-1.3-.1s-.7-.2-.9-.4c-.2-.2-.4-.5-.6-.8-.1-.3-.2-.8-.2-1.3V7.5c0-.9.2-1.6.6-2 .4-.4 1.1-.6 2.1-.6h2.4c.4 0 .8 0 1.1.1.3.1.7.3 1 .5.3.3.5.5.5.8.1.3.1.6.1.9v.7zM3 5.6c-.6 0-1.1.2-1.4.5-.3.3-.4.7-.4 1.3v6.5H.4V7.4c0-.9.2-1.5.6-2 .4-.4 1.1-.6 2-.6h.7v.7H3z" fill="#900e27"/><path d="M41.4 9.3c0 .2-.1.3-.3.3h-.4c-.2 0-.4.1-.5.2-.1.1-.2.3-.2.5v3.3c0 .2-.1.3-.3.3H39c-.2 0-.3-.1-.3-.3v-3.3c0-.2-.1-.3-.2-.5-.1-.1-.3-.2-.5-.2h-3.3c-.2 0-.3-.1-.3-.3v-.7c0-.2 0-.4.1-.6L37.3.4c.1-.2.2-.4.5-.4h.6c.1 0 .2 0 .2.1s.1.1.1.2l-2.8 7.4c-.1.2-.1.4 0 .5.1.1.2.2.5.2H38c.4 0 .7-.2.7-.6v-.4c0-.1 0-.2.1-.4 0-.2.1-.3.1-.4l.3-.6c.1-.2.2-.3.4-.3h.1c.2 0 .3.1.3.3v1.8c0 .4.2.6.7.6h.4c.2 0 .3.1.3.3v.6z"/></svg>