<svg width="30" height="30" viewBox="0 0 30 30" xmlns="http://www.w3.org/2000/svg"><g fill="none" fill-rule="evenodd"><circle fill="#FFF" cx="15" cy="15" r="15"/><path d="M18.15 14.345s0 .197-.082.408c2.78.591 4.748 1.985 4.748 3.618 0 2.195-3.51 3.997-7.859 4.01-.027.015-.055 0-.082 0-4.308 0-7.803-1.745-7.803-3.926 0-1.633 2.133-2.956 4.706-3.66 0 .901 2.932 3.758 3 4.913 0 0 .014.098.014.21 0 .057 0 .113-.013.17.633-.338.633-1.394.633-1.394 0-2.505-2.85-3.617-2.85-6.08 0-.957.441-1.66.84-1.858v.69c0 1.787 3.083 3.786 3.083 5.418v.535c.716-.281.716-1.618.716-1.618 0-2.252-2.863-3.505-2.863-6.08 0-.958.44-1.661.84-1.859v.69c0 1.788 2.972 3.772 2.972 5.813z" fill="#FE0000" fill-rule="nonzero"/></g></svg>