<svg width="30" height="30" viewBox="0 0 30 30" xmlns="http://www.w3.org/2000/svg"><g fill="none" fill-rule="evenodd"><circle fill="#FFF" cx="15" cy="15" r="15"/><g transform="translate(5.59 7.55)"><path d="M18.527 5.127c-.759-2.15-2.53-2.91-4.698-2.91-1.139 0-2.204.254-3.108 1.013-.885.74-1.337 1.752-1.337 2.908 0 2.71 2.168 3.361 4.372 3.813.759.163 2.168.361 2.168 1.391s-1.102 1.338-1.933 1.338c-1.283 0-2.223-.452-2.584-1.753l-2.674.615c.56 2.42 2.674 3.432 5.005 3.432 1.247 0 2.602-.235 3.596-1.012a3.956 3.956 0 0 0 1.536-3.108c0-1.228-.614-2.258-1.626-2.926-.868-.58-2.223-.831-3.235-1.049-.704-.126-1.788-.343-1.788-1.246 0-.958.94-1.157 1.716-1.157 1.103 0 1.771.416 2.133 1.464l2.457-.813" fill="#0079AD" fill-rule="nonzero"/><ellipse fill="#25221F" fill-rule="nonzero" cx="4.29" cy="4.287" rx="4.223" ry="4.222"/><path d="M3.642 4.656h.667c.147 0 .327 0 .457.073.13.074.22.226.22.373a.481.481 0 0 1-.203.401c-.141.095-.35.085-.514.085h-.627v-.932zm0-1.536h.548c.152 0 .39-.017.52.057a.402.402 0 0 1 .191.35c0 .13-.057.27-.164.35-.135.101-.321.09-.48.09h-.615V3.12zm-.904-.69v3.874h1.734c.333 0 .712 0 .994-.209.27-.197.474-.497.474-.836 0-.502-.327-.869-.807-.964v-.012c.406-.101.7-.395.7-.835 0-.368-.164-.65-.475-.847-.265-.17-.58-.17-.886-.17H2.738z" fill="#FFF"/></g></g></svg>