<svg width="63" height="63" viewBox="0 0 63 63" xmlns="http://www.w3.org/2000/svg"><g fill-rule="nonzero" fill="none"><path d="M.429 31.586C.429 14.423 14.264.504 31.327.504c17.065 0 30.895 13.919 30.895 31.082 0 17.164-13.83 31.078-30.895 31.078C14.264 62.664.429 48.75.429 31.586z" fill="#F4F4F4"/><path d="M57.11 14.456a31.071 31.071 0 0 1 5.112 17.13c0 17.164-13.83 31.078-30.895 31.078A30.627 30.627 0 0 1 14.3 57.523l42.81-43.067z" fill-opacity=".12" fill="#666"/><path d="M40.75 42.625c.427-.065.882-.055 1.223-.366a5.655 5.655 0 0 0 4.05-.924 8.425 8.425 0 0 0 1.576-1.642c.384-.535.687-1.034.883-1.633a7.54 7.54 0 0 0 .35-1.148c.412-1.861.195-3.942-.416-5.712a10.09 10.09 0 0 0-.378-.95c-.763-1.563-1.801-3.25-3.4-4.238a6.795 6.795 0 0 1-2.237-2.309c-.276-.247-.541-.574-.899-.633.098.16.205.317.232.504l-.02.026c-.38.011-.678-.188-.938-.429l.287-.257c-.108-.055-.232-.075-.352-.103-1.093-.123-1.992.377-2.962.618l-.015.053c.595.263.72.914 1.066 1.354.086-.103.232-.028.352-.037.173.01.336.133.504.09.005-.144-.077-.258-.103-.386.103-.048.227-.006.342 0 .313.182.816-.032 1.012.386a5.929 5.929 0 0 0-1.03.178c.023.134.158.24.147.375a3.418 3.418 0 0 0-.91-.23l-.016.048c.406.472.964.752 1.533.918.818.188 1.538-.199 2.327-.064 1.94.88 3.597 2.894 4.317 4.806.035.092.07.185.101.28.604 1.745.718 3.89.114 5.711-.322.758-.676 1.472-1.244 2.088a4.292 4.292 0 0 1-.71.693c-.813.628-1.815.905-2.848.624-.065-.045-.195-.055-.173-.167a11.228 11.228 0 0 0 .303-3.165l-.004-.118c-.057-1.333-.325-2.53-.818-3.683-.317-.661-.694-1.382-1.167-2.03-.566-.771-1.268-1.438-2.17-1.77-.552-.146-1.235-.173-1.651.283a1.1 1.1 0 0 0-.38.989c-.465.292-.989.45-1.559.498-.14.012-.282.064-.427.062-.138.006-.272 0-.404-.016-.686-.083-1.38-.45-1.907-.87-.01-.279-.027-.541-.038-.837-.302-.155-.553-.45-.573-.8l.026-.027c.174.054.325.14.482.23-.07-.418-.152-.831-.362-1.197-.196-.08-.39-.145-.574-.242a.914.914 0 0 1-.378-.622c.189.183.519.118.665.311-.255-.746-.26-1.6-.677-2.282-.211-.504-.764-.735-1.143-1.105-.146-.178-.205-.425-.47-.452-.217-.054-.233-.295-.271-.451.135.016.248.107.362.128-.314-.825-.59-1.744-1.44-2.27l-.146.091c-.33.048-.683.07-1.013.081.147-.214.406-.306.612-.404-.238-.176-.434-.219-.732-.267-.173.17-.486.258-.709.306l-.027-.022c-.006-.193-.05-.43.243-.478-.282-.134-.749-.08-1.036 0-.08.21-.313.398-.296.645-.167.172-.286.403-.46.527-.006-.414.172-.795.248-1.144-.244.091-.492.22-.73.333-.384-.22-.79-.44-1.2-.607-.038-.016-.12-.032-.104.038.353.252.216.725.254 1.084l-.222-.182c-.109-.274-.421-.472-.475-.773-.368.07-.604.166-.945.311l-.047.027c.254 0 .47.198.595.398-.385.02-.726-.13-1.105-.168-.038-.036-.07-.08-.13-.075-.19.07-.353.204-.52.333-.373.365-.753.768-.93 1.252.124.02.281.015.373.09-.205.124-.384.334-.584.451-.071.28-.06.598-.077.903-.157.237-.368.445-.47.71-.336 1.077-.423 2.275-.374 3.499-.109.102-.25.167-.352.248l.011 1.094h.027c.048-.23.325-.358.493-.514h.054c-.027.246-.06.494-.065.746l-.313.258c-.315.274-.05.687-.076 1.031.022.09.037.225.102.247.039-.135.157-.23.234-.35.134-.031.254-.14.378-.155-.07.269-.161.532-.27.79a.917.917 0 0 0-.166.133.39.39 0 0 0-.111.199c.244 1.272.627 2.528 1.065 3.725-.296.5-.465 1.088-.713 1.604a2.77 2.77 0 0 0-.097.22c-.25.624-.325 1.322-.634 1.922a2.288 2.288 0 0 0-.4-.21c-.586-.193-1.263-.07-1.69.377-.38-.07-.77-.006-1.068.193-.214.158-.378.35-.473.574a1.155 1.155 0 0 0-.085.511c-.243.166-.373.423-.454.682-.114.579.092 1.182.428 1.629h26.991v-.001z" fill="#FFF"/><path d="M37.165 30.553c-.006.14-.109.296-.017.413.13-.145.348-.14.52-.203.482-.043.943.106 1.392.215-.113-.178-.19-.375-.314-.537-.25-.064-.628.107-.671-.258-.152-.129-.391-.036-.547-.027a1.222 1.222 0 0 0-.363.397zM20.614 25.917a.021.021 0 0 0-.008-.005l.001.005h.007zM22.583 30.69l.325-.312c.028 0 .049.006.065.028l-.027.595c.157.146.352.194.557.205.017-.162.141-.274.212-.414.06-.112.022-.28.14-.36l.037.038c.04.176.029.375.12.53l.038.27a1.36 1.36 0 0 0 .639-.14c-.011-.204.06-.37.091-.559.05-.065-.06-.182.076-.177.076.161.212.327.287.499.314-.317.444-.73.52-1.159-.091-.124-.233-.124-.341-.204-.92-.296-2.102-.355-2.99.101-.058.366.018.77.25 1.058zM13.977 40.764c-.033.414 0 .802.026 1.21.088.134.245.29.4.301l.03-.274c.063-.382-.142-.787.075-1.109.152.048.302.124.433.193.064-.354-.027-.767-.368-.982l-.596.661zM15.314 40.185c-.211.628-.369 1.404-.113 2.064.145-.096.298-.188.427-.322-.026-.505-.097-1.045.206-1.463.265.08.445.333.546.58a.987.987 0 0 0 .169-.839c.01-.235-.261-.18-.39-.278.043-.199.037-.429.249-.541l-.65.064c-.167.235-.351.467-.444.735zM16.652 42.039c.028.05 0 .134.054.145.082-.45.45-.743.65-1.14.097-.134.091-.322.249-.424.212 0 .363.15.57.167.064.048-.034.09-.039.144-.043.366-.184.669-.157 1.044h.037c.287-.3.482-.626.693-.97l.038-.304c.048-.366-.352-.602-.612-.752l.233-.295-.325-.113c-.38.037-.721.193-.986.489-.33.6-.383 1.28-.405 2.009zM18.109 38.853c.124.038.238-.065.362-.01.498.181 1.019.37 1.392.783l.444 1.122.222-.692-.146-.377c-.124-.268-.466-.246-.7-.257-.096-.107.007-.231.04-.333.113-.38-.358-.36-.548-.514.012-.232-.27-.151-.428-.173l-.054-.064c-.032-.049-.113-.049-.157-.011-.011-.016-.032-.027-.02-.054l-.12.027c-.168.145-.282.333-.287.553zM18.422 37.619c.017.07.06.14.114.182.244-.065.476-.23.758-.13.363.317.742.65 1.182.823l.156-.028c.098.033.205.038.27.145.06.145-.09.231-.14.349.244.177.146.495.299.709l.39-.516c-.092-.226.005-.612-.353-.633a.34.34 0 0 1-.195-.312c-.232-.21-.519-.3-.753-.515-.189-.15-.302-.382-.547-.435-.167-.09-.35-.14-.545-.182-.365-.053-.397.375-.636.543zM18.942 36.56l.065.103c.27-.017.515-.134.781-.13.178.109.411.104.595.194.146.199.304.424.519.559.44.064.683.531.834.874v-.166c.065-.23-.005-.5-.092-.708-.108-.108-.265-.178-.379-.275-.022-.07-.005-.102.017-.166-.169-.177-.418-.274-.623-.413-.287-.414-.84-.3-1.278-.414l-.439.543zM18.933 32.622c.048.167.107.376.14.553.15-.333.45-.482.715-.756a1.372 1.372 0 0 0-.509-.183v-.01c-.119.118-.303.236-.346.396zM19.917 34.388l.244-.246c.244-.247.444-.532.482-.849-.173-.102-.4-.032-.568.027-.061.35-.152.693-.158 1.068zM20.095 35.146c.375.021.737.095 1.04-.112l.303-.967c-.096-.006-.195-.049-.286-.017-.2.441-.602.875-1.057 1.096zM20.205 31.72c.244.355.65.752 1.067.864-.048-.45-.438-.762-.639-1.148l-.011-.13a2.024 2.024 0 0 0-.51-.333c-.025.259.045.506.093.747zM21.526 35.189c.287.049.595 0 .86-.082.386-.09.597-.51.726-.836h-.482l-.52.504c-.205.108-.4.27-.584.414zM21.467 31.232c.082.419.26.8.504 1.16l.065-.8-.569-.36zM23.243 33.32c.032-.268-.08-.58-.112-.853-.163-.108-.391-.097-.559-.204.01.424.346.784.67 1.057zM22.75 36.049c.34-.108.67-.226.984-.399.2-.283.504-.542.547-.874-.249.069-.466-.01-.698.102-.14.252-.228.537-.498.72-.043.181-.243.305-.335.45zM23.28 36.709l.406.525c.217.07.488.049.677-.075l-.147-.478c-.286.109-.627.076-.936.028zM23.957 32.907l.157.709c.378-.307.455-.752.446-1.225-.217.247-.344.398-.603.516zM25.024 34.158a.512.512 0 0 0 .092.28c.422.15.465.66.856.853.254.112.546-.028.768-.13-.167-.187-.358-.317-.52-.515-.113-.048-.227-.118-.221-.258l-.975-.23zM25.36 36.692c.184.21.433.317.692.375-.042-.059.028 0 .039-.037l-.326-.707c-.162.004-.33.037-.482.026.01.117.039.235.076.343zM25.934 33.384c-.152-.348-.216-.772-.259-1.158-.162.192-.33.316-.482.514-.07.398.502.495.74.644zM26.594 33.02c.195.252.623.166.862.09-.114-.193-.481-.305-.546-.514a4.596 4.596 0 0 0-.233-1.069c-.19.457-.419 1-.083 1.493zM26.935 34.158c.542.393 1.072.848 1.83.682.054-.038.146-.033.157-.102-.222-.14-.46-.247-.688-.375l-.259-.377h-.119c-.293.097-.608.134-.921.172zM26.946 38.513h.037c.326-.258.71-.344 1.095-.452.103.037.038.15.13.194.233-.097.515-.075.753-.156.287.011.52.017.752.14.184.24.531.215.77.375l-.038-.375c-.504-.586-1.29-.629-2.014-.617l-.017-.076a1.3 1.3 0 0 0-.53.113c-.232.01-.454.124-.677.193-.104.204-.185.45-.26.66zM27.381 31.914c.211.274.525.483.882.414-.183-.178-.395-.366-.406-.618.055-.478-.476-.515-.736-.763.086.323.076.682.26.967zM27.326 39.463h.063c.288-.178.705-.043.987-.232.156-.08.167.135.276.194.265.16.298.643.671.531.45.231.336.774.352 1.171l.417-.257c-.038-.21.08-.463-.055-.645-.102-.23-.383-.252-.519-.44.163-.274-.205-.402-.281-.601l.022-.028.572.075c.197.119.266.334.326.532.45.075.558.58.715.902.092-.22.13-.457.223-.67.005-.178-.234-.178-.352-.258-.034-.274-.158-.533-.4-.698-.5-.124-.937-.398-1.484-.398l-.456.14c-.249.06-.514-.016-.703.155-.283.021-.305.328-.374.527zM27.612 37.25l.103.049c.221-.103.444-.22.677-.307.363-.102.644.307.948.05.114-.082.21.036.298.101.13.237.433.22.66.285-.113-.306-.254-.725-.65-.775-.156-.07-.34-.062-.492-.155-.417-.456-.688.376-1.143.172-.162.178-.362.344-.401.58z" fill="#FFF"/><path d="M27.715 39.865c.173.144.352.392.622.36.337.155.196.595.38.826l.194-.172-.016-.01.028-.027.012.016c.053-.162-.023-.447-.115-.634-.124-.085-.27.006-.39-.075-.016-.172-.124-.258-.249-.365-.087-.064-.2.022-.298.016l-.168.065zM28.392 33.32c.18.296.525.479.802.682.227.103.525.129.769.075a4.916 4.916 0 0 1-.639-.628c-.076-.108-.093-.241-.195-.338-.256.049-.542.043-.737.21zM28.691 31.399c.25.305.634.182.986.193v-.037l-.542-.452c-.152.049-.313.182-.444.296zM18.722 26.336l.314.966c-.006-.548.249-1.004.195-1.562l.233-.344-.494.15c-.13.247-.237.495-.248.79zM18.933 24.66l.427-.247v-.628c-.178.108-.277.29-.416.436l-.01.44z" fill="#FFF"/><path d="M27.717 25.638c-.104.134-.26.166-.39.193.227-.413.336-.989.156-1.456.12-.042.25-.063.364-.128l-.012-.01.299-.26c.395-.268.243-.777.39-1.158-.195-.301-.254-.666-.537-.919l.017-.01c-.223-.28-.623-.248-.927-.387-.4-.134-.71.14-.996.323-.125.02-.049.182-.184.177-.076.199-.169.413-.222.633-.537-.076-1.115-.015-1.544.285-.228-.166-.504-.199-.77-.274-.194-.037-.416.033-.556-.076-.205-.23-.25-.65-.602-.708-.124-.043-.15-.176-.15-.295-.234-.037-.44-.144-.668-.193-.345-.156-.621.091-.882.257-.113.049-.243.064-.351.13-.195.3-.38.606-.504.938.038.274.157.516.299.747.124.349.513.623.844.763a3.138 3.138 0 0 0 0 1.702l-.01.005-.017.015c-.052 0-.107.01-.15-.015h-.007c.076.513.32.961.713 1.346.142.05.11.215.17.323.036.048.042.15.025.193a4.276 4.276 0 0 0-2.274.563c-.173.086-.096.323-.113.49a4.19 4.19 0 0 1 1.56-.644c.243-.017.519-.076.752-.011l.027.461c-.644.333-1.348.526-1.9 1.074.01.166-.021.36.027.5l.493-.398c.476-.359.974-.666 1.521-.864.147.172.3.354.494.461a3.69 3.69 0 0 1 1.066-.461c.201-.118.52-.011.65-.247l.092-.489c-.016-.01-.026-.031-.054-.025-.254-.145-.422-.397-.4-.693a.732.732 0 0 1-.288.075c-.086-.022-.167-.043-.205-.13-.006-.107-.06-.268.048-.348.352-.215.807-.226 1.252-.193.33.043.807.026.92.414-.015.112-.005.236-.119.31-.12.065-.254-.005-.363-.053-.086.263-.232.56-.53.644l.038.312c.037.14.048.37.27.322.515.123.97.387 1.419.671.152-.15.27-.323.378-.478.802.268 1.496.864 2.156 1.417l.028-.45c-.629-.554-1.328-.945-2.053-1.252.027-.145.06-.285.064-.44.862.048 1.678.311 2.389.725l-.012-.386c-.747-.397-1.564-.66-2.458-.672a.269.269 0 0 1-.037-.166c.433-.07.741-.516.845-.903.221-.252.542-.526.466-.901.01-.03.02-.064.032-.096.029-.095.053-.193.02-.28z" fill="#FFF"/><path d="M28.47 27.018l.444-.14.048-.247c.125-.36-.14-.628-.271-.913l-.221 1.3zM29.59 28.72c.21.23.417.601.791.488-.028-.155-.114-.284-.168-.424-.099-.113-.13-.435-.325-.322-.147-.097-.184-.258-.277-.387-.042.199-.016.446-.021.645zM29.666 30.292c.082.113.104.258.183.36.147.096.364.08.542.064.163-.037.266.14.417.037-.188-.118-.302-.333-.482-.488-.212-.166-.438-.02-.66.027zM29.953 32.789c.373.22.849.435 1.347.36.054-.027.146-.022.157-.086-.309-.108-.633-.414-.957-.478-.179-.274-.412.07-.639.048.005.065.07.114.092.156zM31.078 37.53l.082.172c.082.559.438 1.073.243 1.685.163.113.212.3.314.45h.027c.125-.466.039-.95-.027-1.417.049-.424-.385-.671-.639-.89zM31.172 32.032c.281.215.731.236 1.055.129-.205-.113-.432-.236-.601-.387l-.454.258zM32.508 33.68c-.028.227.124.414.287.527.06-.135.157-.247.167-.397a.98.98 0 0 0-.39-.596c-.038.15-.08.294-.064.466zM32.524 36.128c-.038.252.244.285.363.424.097.118-.065.199-.065.311.205.263.325.564.325.914.081-.327.206-.64.25-.978-.022-.236-.4-.188-.341-.45.107-.269-.022-.532-.093-.773-.022-.039-.07-.114-.113-.092-.1.22-.342.375-.326.644zM33.266 34.85l.282.542c.124-.015.204-.134.302-.219.077-.226-.124-.371-.183-.553-.05-.13 0-.301-.093-.414-.07-.042-.152-.112-.233-.092l-.075.736zM33.629 33.423c.222.134.476.327.594.563.19.548.494 1.041.716 1.573.081.37.146.7.249 1.066.038.095.016.284.168.268.043-.408.125-.8.13-1.224-.135-.177-.315-.252-.482-.36v-.037c.022-.092.098-.2.212-.182.048-.055.194-.108.13-.204-.282-.279-.266-.76-.716-.847-.156-.064-.195-.225-.21-.375-.212-.176-.526-.237-.791-.241zM33.888 36.333c.276.25.18.616.157.955-.043.204.217.086.299.193.167.247.07.607.01.876.147-.221.314-.415.428-.656-.006-.091.113-.134.109-.246.048-.156-.136-.086-.212-.104-.064-.016-.135-.059-.114-.144.14-.27.011-.591-.043-.859-.065-.22.028-.515-.076-.708-.173.236-.688.29-.558.693zM34.392 32.52c.482.484.834.969 1.354 1.436.011-.208-.016-.402-.027-.607-.077-.144-.217-.251-.337-.359-.383-.038-.584-.55-.99-.47zM35.654 35.08c.01.047.033.09.054.139.21.344.411.697.558 1.068-.043-.397.228-.892-.13-1.197-.049-.13-.211-.086-.314-.076l-.168.065zM36.953 39.001c.153.069.347-.055.493-.14.136-.032.25.043.353.113.043.085 0 .166.015.246.326.092.644.21.932.397l.09-.09c.023-.231-.16-.397-.334-.526-.114-.066-.283-.027-.362-.13.053-.085.053-.214.048-.31-.18 0-.293-.055-.44-.14-.09-.027-.173-.102-.248 0-.27.182-.287.45-.547.58zM37.333 32.245c.135-.037.277-.076.39-.172.362-.328.888-.108 1.31-.113a2.898 2.898 0 0 0-.298-.414c-.152-.059-.293-.129-.466-.129-.368-.214-.617.145-.899.322-.075.146-.113.36-.037.506zM37.343 33.35c0-.015 0-.033.017-.037.048.043-.006.144.075.166.141-.07.271-.166.4-.257.364 0 .58-.349.937-.349.595.107 1.187.225 1.706.515-.037-.349-.341-.666-.649-.822-.174-.06-.31.033-.434.129-.363.227-.173-.327-.427-.339-.33.104-.672.216-1.04.184-.217.08-.369.278-.612.257-.01.177-.038.392.027.552zM37.593 34.548c.113.117.302.096.466.117l.47-.181c.006-.086-.14-.109-.109-.204.13-.145.31-.044.471-.103.229-.032.461-.257.688-.09-.006.025.011.064-.01.09-.072.167.048.268.178.332.266.05.514.291.78.183-.027-.22-.086-.424-.141-.633-.222-.038-.379-.22-.585-.296-.092.086-.21.15-.325.14-.417-.097-.915-.354-1.337-.091-.152.182-.423.128-.628.208.011.184.032.36.082.528zM37.771 37.739c-.033.09-.124.242.043.284.347.012.79-.166 1.062.102.092.07.048.215.043.307l.454.376c.044-.226.125-.43.13-.672a.75.75 0 0 0-.275-.451c-.299 0-.472-.346-.792-.302-.167-.038-.313.109-.482.109-.075.075-.118.167-.183.247zM37.901 35.208c.07.144.152.381.287.397.32-.14.785-.226 1.143-.075.12.021.12.155.093.242.183.107.406.192.6.311l-.054-.322c-.011-.35-.455-.382-.482-.726a2.16 2.16 0 0 0-1.153-.064c-.126.113-.304.097-.456.13-.01.042.016.069.022.107zM37.994 36.948c.211-.06.345-.29.573-.311.347.005.656.144.872.44.131.085.103.306.27.306-.048-.264.039-.505.028-.774-.228-.375-.79-.086-1.001-.526l-.4.026c-.288.07-.211.404-.25.63-.033.07-.098.123-.092.209zM39.98 39.296c.168.332.537.585.574.967.087-.103.147-.22.206-.333-.006-.108-.13-.108-.18-.193-.048-.14.028-.263.05-.387-.07-.2-.239-.387-.428-.505l-.222.45zM40.647 38.448l.39.526c.167-.264.167-.65.102-.967-.037-.06-.108-.156-.205-.113-.147.151-.168.381-.287.554zM39.06 23.752c.14.07.276.134.443.144a.577.577 0 0 1 .402-.064c.2.13.444-.027.676-.016-.205-.193-.439-.31-.676-.423-.304.063-.547.277-.845.359zM41.178 24.257c.286.026.492.278.687.489.244.037.428.208.574.386l-.092-.285c-.065-.285-.244-.505-.427-.73-.26.016-.516.038-.742.14z" fill="#FFF"/><path d="M20.969 21.9l.156.017c.423.21 1.106.316 1.143.923-.426.167-.838.393-1.18.735-.259-.263-.785-.118-.871-.58.081-.434.238-.98.752-1.094zM21.376 24.623c.492-.042.969.026 1.478-.016a.645.645 0 0 1 .314.285c-.016.58-.195 1.133-.222 1.728-.222.093-.439.274-.493.516-.2.058-.38.178-.574.268-.087-.182-.07-.456.082-.606.21-.296.758-.226.713-.693.142-.226.006-.516.012-.752-.054-.177-.108.06-.195.053-.173.037-.352.049-.503-.036-.115-.12-.255-.216-.288-.377-.151-.075-.33-.193-.405-.35l.08-.02zM21.971 28.124c.232.031.476-.07.677.042-.044.075-.157.108-.25.13l-.362.166c-.135-.033-.06-.248-.065-.338zM22.92 23.64c.231-.075.481-.23.73-.155-.179.177-.32.408-.454.622l-.742-.016c.08-.192.285-.353.465-.451zM25.09 23.463c.309-.053.292.344.574.36.05.065.12.123.092.22-.162.064-.4.032-.585.075-.244-.134-.086-.553-.471-.526-.021-.032-.065-.097-.01-.118.119-.042.275-.027.4-.01zM24.896 24.903c.135-.19.341-.204.536-.242l1.402.027c.06.053-.054.101-.054.166-.086.08-.211.102-.287.178-.184.005-.169.219-.298.31-.201.2-.493.109-.726.076a.619.619 0 0 1-.211-.231l-.065.064c.082.301.06.634.119.94l.335.22c.006.494.591.36.846.634-.06.177-.179.327-.308.478-.206-.199-.44-.329-.688-.413-.021-.29-.34-.462-.52-.607-.049-.526-.06-1.063-.146-1.573l.065-.027zM25.404 28.214h.65l-.08.339-.651-.274c-.015-.054.043-.07.081-.065zM26.574 22.132l.482-.15c.276.128.536.29.79.472.201.366.167.858.076 1.266-.146.162-.466 0-.584.258h-.022c-.18-.504-.688-.955-1.16-1.186.076-.257.158-.51.418-.66z" fill="#F60"/><path d="M37.868 42.587h2.89c.427-.064.882-.054 1.223-.366a5.658 5.658 0 0 0 4.05-.923c.6-.48 1.14-1.036 1.575-1.642.384-.535.688-1.034.884-1.633.146-.37.262-.754.35-1.149.412-1.86.195-3.941-.415-5.713a10.46 10.46 0 0 0-.38-.949c-.762-1.563-1.799-3.248-3.398-4.237a6.805 6.805 0 0 1-2.238-2.31c-.276-.247-.542-.574-.899-.633.098.161.206.317.233.504l-.022.027c-.378.011-.677-.187-.936-.43l.287-.257c-.109-.053-.233-.076-.352-.102-1.094-.123-1.993.375-2.962.618l-.016.053c.595.263.72.912 1.066 1.353.087-.102.234-.027.352-.038.173.01.336.134.503.091.006-.145-.075-.257-.102-.385.102-.05.228-.006.341 0 .314.181.818-.034 1.013.385a5.928 5.928 0 0 0-1.03.177c.022.135.158.242.147.377a3.42 3.42 0 0 0-.91-.232l-.015.048c.406.473.963.752 1.532.92.817.187 1.537-.2 2.327-.065 1.94.88 3.596 2.895 4.317 4.806.036.092.07.185.101.278.604 1.746.718 3.893.114 5.713-.322.758-.676 1.472-1.244 2.089a4.388 4.388 0 0 1-.71.693c-.813.627-1.815.903-2.848.622-.064-.042-.195-.054-.174-.166a11.237 11.237 0 0 0 .304-3.164l-.004-.119c-.057-1.332-.325-2.53-.819-3.682-.316-.662-.692-1.383-1.166-2.03-.566-.773-1.268-1.44-2.17-1.773-.552-.145-1.235-.171-1.651.286a1.096 1.096 0 0 0-.38.987c-.466.294-.99.452-1.56.5-.139.012-.282.062-.426.061-.138.006-.273 0-.403-.017-.688-.083-1.381-.449-1.908-.87-.011-.277-.028-.542-.038-.836-.303-.156-.552-.452-.574-.8l.028-.027c.173.053.325.14.48.231-.07-.419-.15-.832-.361-1.197-.195-.081-.392-.145-.575-.242a.916.916 0 0 1-.378-.623c.189.183.52.119.666.312-.255-.746-.26-1.6-.678-2.282-.21-.505-.763-.736-1.142-1.107-.147-.177-.206-.423-.471-.45-.217-.054-.234-.296-.271-.451.135.015.249.107.363.128-.315-.827-.59-1.744-1.44-2.27l-.147.09c-.33.05-.682.07-1.013.081.147-.215.407-.305.613-.403-.24-.177-.435-.22-.733-.268-.174.172-.486.257-.708.305l-.027-.02c-.006-.193-.05-.43.242-.478-.281-.134-.747-.081-1.035 0-.081.21-.312.397-.297.643-.167.173-.286.403-.46.527-.005-.414.172-.795.248-1.143-.243.09-.491.219-.729.332-.385-.22-.79-.44-1.2-.606-.039-.017-.12-.033-.104.037.352.252.216.724.253 1.085l-.222-.182c-.108-.274-.421-.473-.474-.774-.369.07-.604.167-.946.312l-.047.026c.254 0 .47.199.595.397-.384.022-.725-.129-1.104-.165-.038-.038-.07-.081-.13-.076-.19.07-.352.205-.52.334-.373.364-.753.768-.931 1.25.125.022.282.017.374.092-.205.123-.385.333-.585.451-.07.28-.06.596-.076.902-.157.236-.368.446-.471.708-.336 1.08-.423 2.277-.374 3.5-.108.102-.25.168-.351.248l.01 1.095h.027c.05-.23.326-.36.493-.515h.055c-.027.247-.06.494-.065.747l-.314.257c-.313.274-.048.686-.076 1.03.022.092.037.226.104.248.037-.135.156-.232.231-.35.136-.032.255-.14.379-.155a5.573 5.573 0 0 1-.27.789.992.992 0 0 0-.166.134.386.386 0 0 0-.11.2c.244 1.272.627 2.528 1.066 3.725-.298.499-.467 1.087-.715 1.603a3.264 3.264 0 0 0-.097.22c-.25.625-.325 1.322-.634 1.923a2.136 2.136 0 0 0-.4-.21c-.586-.193-1.263-.07-1.69.375-.38-.07-.77-.005-1.068.193-.213.16-.379.351-.473.575a1.157 1.157 0 0 0-.084.51c-.244.167-.374.424-.455.682-.114.58.092 1.183.427 1.63h24.104z" fill="#FFF"/><path d="M48.425 31.162a10.46 10.46 0 0 0-.38-.95c-.762-1.562-1.799-3.248-3.398-4.237a6.805 6.805 0 0 1-2.238-2.309c-.276-.247-.542-.574-.899-.634.098.162.206.317.233.505l-.022.027c-.378.01-.677-.188-.936-.43l.287-.258c-.109-.053-.233-.075-.352-.101-1.094-.123-1.993.375-2.962.617l-.016.054c.595.262.72.912 1.066 1.353.087-.103.234-.028.352-.039.173.011.336.135.503.092.006-.145-.075-.257-.102-.386.102-.05.228-.006.341 0 .314.182.818-.033 1.013.386a5.928 5.928 0 0 0-1.03.177c.022.134.158.242.147.376a3.42 3.42 0 0 0-.91-.231l-.015.048c.406.472.963.752 1.532.919.817.187 1.537-.199 2.327-.065 1.94.881 3.596 2.895 4.317 4.807.036.091.07.184.101.278.604 1.746.718 3.893.114 5.713-.322.758-.676 1.472-1.244 2.088a4.388 4.388 0 0 1-.71.693c-.813.628-1.815.904-2.848.622-.064-.042-.195-.053-.174-.166a11.237 11.237 0 0 0 .304-3.164l-.004-.118c-.057-1.332-.325-2.53-.819-3.683-.316-.661-.692-1.382-1.166-2.03-.566-.772-1.268-1.44-2.17-1.772-.552-.145-1.235-.171-1.651.285a1.096 1.096 0 0 0-.38.987c-.466.294-.99.453-1.56.5-.139.012-.282.062-.426.062-.138.006-.273 0-.403-.017-.688-.084-1.381-.45-1.908-.87-.011-.277-.028-.542-.038-.836-.303-.156-.552-.452-.574-.8l.028-.027c.173.053.325.139.48.23-.07-.418-.15-.832-.361-1.197-.195-.08-.392-.144-.575-.242a.916.916 0 0 1-.378-.623c.189.184.52.12.666.312-.255-.746-.26-1.6-.678-2.282-.21-.504-.763-.735-1.142-1.106-.147-.177-.206-.424-.471-.451-.217-.054-.234-.296-.271-.45.135.015.249.107.363.128-.315-.827-.59-1.745-1.44-2.27l-.147.09c-.33.05-.682.07-1.013.08.147-.214.407-.305.613-.402-.24-.177-.435-.22-.733-.269-.174.173-.486.258-.708.306l-.027-.02c-.006-.194-.05-.431.242-.479-.281-.134-.747-.08-1.035 0-.081.21-.312.397-.297.644-.167.173-.286.403-.46.527-.005-.414.172-.795.248-1.144-.243.091-.491.22-.729.333-.385-.22-.79-.44-1.2-.606-.039-.017-.12-.033-.104.036.352.253.216.725.253 1.085l-.222-.182c-.108-.274-.421-.472-.474-.774-.369.07-.604.167-.946.313l-.047.026c.254 0 .47.198.595.397-.384.022-.725-.13-1.104-.166-.038-.038-.07-.08-.13-.075-.19.07-.352.204-.52.333-.373.365-.753.768-.931 1.25.125.023.282.018.374.093-.205.123-.385.332-.585.45-.07.28-.06.597-.076.903-.157.236-.368.445-.471.708-.336 1.079-.423 2.276-.374 3.5-.108.102-.25.168-.351.248l.01 1.095h.027c.05-.231.326-.36.493-.515h.055c-.027.246-.06.493-.065.746l-.314.258c-.313.273-.048.686-.076 1.03.022.091.037.225.104.247.037-.134.156-.23.231-.349.136-.033.255-.14.379-.156a5.573 5.573 0 0 1-.27.79.992.992 0 0 0-.166.133.386.386 0 0 0-.11.2c.244 1.273.627 2.528 1.066 3.726-.298.498-.467 1.087-.715 1.602a3.264 3.264 0 0 0-.097.22c-.25.625-.325 1.322-.634 1.923a2.136 2.136 0 0 0-.4-.21c-.586-.193-1.263-.07-1.69.376-.38-.07-.77-.006-1.068.193-.213.16-.379.35-.473.575a1.157 1.157 0 0 0-.084.51c-.244.166-.374.424-.455.682-.114.58.092 1.183.427 1.629h9.57a3.09 3.09 0 0 1-.37-.596c-.205-.307-.064-.74-.086-1.095.195-.39.393-.783.616-1.164l.136-.227.44-.166c.232 0 .428-.167.65-.108.297.296.297-.295.585-.322.671-.086 1.337-.022 1.715.542 0 .075.12.075.093.145-.087.026-.168-.027-.26-.027-.411-.102-.894-.36-1.3-.13-.015.097-.036.195-.056.291-.02.103-.038.204-.047.3.265.075.487.263.687.467.136-.263.423-.381.677-.467.223.048.466.054.65.193.342.312.174.844.142 1.24.308.172.65.27.963.435-.146.13-.34.183-.52.248l-.519-.102c-.06-.043-.163-.043-.184-.118-.173.182-.385.424-.493.66h7.418a3.879 3.879 0 0 0-.346-.596c-.152-.322-.092-.763-.108-1.106l.693-1.047c.378-.006.807-.146 1.218-.076.02-.009.04-.02.06-.031.17-.117.222-.39.476-.355.454-.123.802.081 1.143.285a.53.53 0 0 1-.035.07c-.143.226-.41-.026-.605.042-.082.086.038.187.054.285.07.096-.07.085-.119.101a.373.373 0 0 1-.325-.101c-.021-.028-.005-.06-.048-.064-.098.16-.239.305-.277.488.124.119.292.236.352.387.125.177-.098.311-.14.467-.017.032-.066.032-.082 0-.115-.064-.211-.226-.336-.184-.109.479.037.957-.027 1.435.21.049.46-.011.687 0l.093-1.01c.096-.655.487-1.202.947-1.703.498-.336.818.329 1.186.56.06.01.038.075.064.112-.005.108-.118.15-.194.183-.228.08-.396-.167-.536-.312-.135.145-.195.338-.352.451l.054.016c.18.178.351.365.39.602a.676.676 0 0 1-.325.532 5.298 5.298 0 0 1-.362-.774c.005.011-.006.016-.017.027-.298.08-.377.413-.427.682.016.263-.184.37-.13.633h3.86c.429-.064.883-.054 1.224-.366a5.658 5.658 0 0 0 4.05-.922c.6-.481 1.14-1.036 1.576-1.643.384-.534.688-1.034.884-1.633.146-.37.261-.753.349-1.149.412-1.858.195-3.939-.415-5.71z" fill="#F60"/><path d="M23.575 41.127c.211-.134.553-.167.6-.478-.085-.065-.161-.146-.259-.167l-.222.064c.016-.129.087-.273.131-.413l.714-.23c-.098.321-.135.724-.168 1.095.065.548.146 1.133.428 1.589h-.77c-.086-.504-.617-.87-.454-1.46zM25.238 40.482h.043l.52.468.075-.017c-.042.548-.07 1.085-.076 1.654h-.562c-.115-.531-.304-1.09-.282-1.664.097-.145.162-.328.282-.441zM26.396 40.998c.104-.133.147-.36.352-.386.146.004.282.026.391.129.19.235.004.537-.065.773-.076.36-.207.735-.325 1.073h-.547l.194-1.589zM34.611 40.831c.12.151.157.355.336.49.157-.215.195-.549.119-.822l-.157-.156c.2-.048.411-.065.612-.102-.087.285-.25.542-.222.875.005.484.086.967.13 1.47h-.596c-.216-.472-.433-.922-.417-1.47.065-.097.108-.21.195-.285z" fill="#F60"/><path d="M37.173 30.516c-.006.14-.109.294-.017.414.131-.145.347-.14.52-.205.483-.043.943.108 1.392.216-.114-.178-.19-.377-.314-.537-.25-.065-.629.107-.672-.26-.151-.128-.39-.036-.547-.025a1.205 1.205 0 0 0-.362.397zM20.622 25.88l-.008-.006.001.006h.007zM22.591 30.653l.325-.311c.028 0 .05.005.065.025l-.027.597c.157.145.351.192.557.204.017-.16.141-.274.212-.414.06-.112.022-.279.14-.358l.039.036c.037.178.026.377.119.532.01.086.026.192.036.268.24.01.456-.053.64-.14-.011-.204.06-.37.091-.557.05-.065-.06-.184.076-.178.076.161.211.327.287.5.314-.317.445-.73.52-1.16-.092-.123-.233-.123-.342-.204-.92-.295-2.1-.354-2.988.102-.06.364.016.767.25 1.058zM13.984 40.728c-.033.413 0 .8.027 1.21.087.134.245.29.402.3l.026-.275c.065-.38-.14-.785.077-1.108.151.048.303.124.433.193.065-.354-.028-.768-.37-.983l-.595.663zM15.322 40.147c-.211.629-.368 1.403-.113 2.065.146-.098.297-.19.427-.323-.027-.505-.097-1.043.206-1.463.265.08.444.333.546.58a.983.983 0 0 0 .169-.837c.011-.237-.26-.183-.39-.28.043-.199.037-.428.249-.542l-.65.065c-.167.236-.351.466-.444.735zM16.66 42.002c.027.048 0 .134.055.145.08-.451.448-.743.65-1.141.096-.133.092-.322.249-.424.21 0 .362.15.568.167.065.049-.033.092-.038.145-.043.366-.184.668-.157 1.044h.037c.287-.301.482-.625.694-.969l.037-.305c.05-.366-.351-.601-.613-.752l.234-.296-.326-.113c-.379.038-.72.194-.985.49-.33.6-.384 1.279-.405 2.01zM18.117 38.816c.124.037.238-.064.362-.011.498.183 1.018.37 1.392.783l.444 1.123.222-.694-.146-.374c-.125-.269-.466-.247-.699-.258-.097-.108.005-.231.038-.333.114-.381-.357-.36-.547-.515.011-.23-.27-.151-.428-.172l-.054-.064c-.032-.05-.113-.05-.157-.012-.01-.016-.032-.027-.02-.053l-.12.026c-.168.146-.282.333-.287.554zM18.43 37.58c.017.07.06.14.113.183.245-.064.478-.231.759-.129.363.317.742.65 1.181.821l.157-.026c.097.031.205.037.27.145.06.145-.091.23-.14.348.244.178.147.494.298.709l.39-.515c-.091-.226.005-.612-.351-.634a.336.336 0 0 1-.196-.31c-.232-.21-.52-.301-.752-.517-.191-.15-.304-.38-.547-.434a2.002 2.002 0 0 0-.547-.182c-.364-.055-.396.375-.635.542zM18.95 36.523l.066.103c.27-.016.513-.134.779-.13.178.108.411.102.595.194.147.199.304.423.52.558.439.064.682.533.833.875v-.166c.065-.231-.005-.5-.09-.71-.11-.107-.267-.176-.38-.272-.022-.07-.006-.103.016-.167-.168-.177-.417-.274-.623-.414-.287-.414-.839-.3-1.278-.414l-.437.543zM18.942 32.585a6.3 6.3 0 0 1 .139.553c.151-.332.45-.483.715-.756a1.374 1.374 0 0 0-.508-.183v-.01c-.12.116-.304.235-.346.396zM19.925 34.352l.243-.247c.244-.248.446-.533.482-.849-.173-.102-.4-.032-.567.027-.06.348-.153.692-.158 1.069zM20.103 35.109c.374.02.738.096 1.04-.114l.305-.966c-.099-.005-.197-.05-.288-.016-.2.44-.6.875-1.057 1.096zM20.213 31.684c.244.353.65.75 1.067.863-.048-.451-.438-.763-.639-1.148l-.011-.13a1.99 1.99 0 0 0-.51-.332c-.025.258.045.504.093.747zM21.533 35.151c.287.049.596 0 .861-.08.384-.092.596-.51.726-.838h-.482l-.52.505c-.205.106-.4.268-.585.413zM21.475 31.195c.081.42.26.8.504 1.16l.065-.8-.57-.36zM23.25 33.283c.033-.269-.08-.58-.112-.853-.163-.108-.39-.098-.558-.204.011.423.345.783.67 1.057zM22.758 36.01c.34-.107.67-.225.986-.397.2-.285.502-.542.546-.875-.25.07-.465-.011-.699.102-.14.252-.228.538-.498.72-.043.181-.243.305-.335.45zM23.288 36.67l.406.527a.83.83 0 0 0 .677-.075l-.145-.477c-.288.106-.63.075-.938.025zM23.965 32.87l.156.708c.38-.305.458-.751.447-1.223-.217.246-.342.397-.603.515zM25.032 34.12c.005.103.032.199.091.28.423.15.466.659.857.852.253.114.546-.026.767-.129-.167-.187-.356-.316-.519-.514-.113-.049-.228-.118-.222-.258l-.974-.231zM25.368 36.655c.183.208.432.317.692.375-.043-.059.028 0 .038-.037l-.325-.71c-.163.007-.331.04-.482.028.012.119.038.236.077.344zM25.942 33.348c-.152-.35-.215-.774-.26-1.16-.16.194-.33.318-.481.515-.07.397.502.494.74.645zM26.602 32.982c.196.253.623.167.861.092-.114-.194-.48-.307-.546-.515a4.54 4.54 0 0 0-.233-1.068c-.189.455-.418.998-.082 1.49zM26.943 34.12c.542.392 1.073.848 1.83.681.054-.036.147-.032.157-.101-.222-.14-.46-.248-.687-.376l-.26-.376h-.119c-.293.096-.606.135-.921.172zM26.954 38.474h.039c.324-.257.709-.344 1.093-.45.103.037.038.15.13.193.233-.096.515-.076.753-.156.287.01.52.016.753.139.185.242.53.214.77.376l-.04-.376c-.502-.585-1.288-.628-2.013-.617l-.016-.075a1.3 1.3 0 0 0-.531.112c-.232.011-.455.124-.677.193-.104.204-.185.453-.261.661zM27.39 31.876c.21.274.524.484.881.414-.183-.178-.395-.366-.406-.617.055-.478-.476-.517-.736-.763.087.322.075.682.26.966zM27.334 39.424h.064c.287-.177.704-.042.986-.23.157-.08.168.134.276.193.265.16.298.644.672.532.448.23.335.772.351 1.17l.418-.258c-.039-.209.081-.461-.055-.644-.103-.23-.385-.252-.52-.44.163-.274-.205-.403-.282-.602l.023-.026.574.075c.195.118.265.333.325.532.448.075.557.58.714.901.093-.22.13-.457.222-.671.006-.177-.232-.177-.352-.258a.95.95 0 0 0-.4-.697c-.498-.125-.936-.397-1.483-.397l-.455.139c-.25.06-.515-.016-.705.155-.282.022-.303.328-.373.526zM27.62 37.213l.104.048c.222-.102.443-.22.677-.306.361-.102.643.306.947.048.113-.08.212.038.297.103.132.236.434.22.662.283-.114-.305-.255-.724-.65-.772-.157-.07-.342-.064-.493-.156-.417-.456-.687.376-1.144.173-.161.176-.362.343-.4.579z" fill="#FFF"/><path d="M27.724 39.827c.173.146.351.393.623.36.335.156.194.596.378.827l.195-.172-.017-.011.028-.027.011.015c.054-.16-.022-.444-.114-.633-.124-.086-.27.006-.39-.075-.016-.173-.124-.258-.249-.364-.086-.066-.2.02-.298.014l-.167.066zM28.4 33.283c.179.295.525.478.802.681.228.103.525.13.769.075a4.945 4.945 0 0 1-.639-.628c-.076-.107-.092-.242-.195-.338-.254.049-.542.043-.736.21zM28.7 31.362c.248.305.633.182.985.193v-.038l-.542-.45c-.152.047-.314.181-.444.295zM18.73 26.298l.314.967c-.006-.548.25-1.005.196-1.563l.232-.344-.493.151c-.13.247-.238.494-.249.79zM18.942 24.623l.427-.246v-.63c-.18.108-.276.292-.417.435l-.01.441z" fill="#FFF"/><path d="M27.725 25.6c-.103.134-.26.167-.39.193.228-.412.336-.987.157-1.455.119-.042.249-.064.362-.128l-.01-.012.297-.257c.396-.269.243-.778.39-1.16-.195-.3-.254-.665-.536-.918l.016-.01c-.222-.28-.623-.247-.926-.387-.401-.134-.71.14-.997.322-.125.022-.048.183-.184.177-.076.198-.168.413-.222.634-.536-.075-1.116-.016-1.543.284-.229-.167-.504-.198-.77-.273-.194-.039-.416.031-.556-.076-.206-.23-.25-.65-.603-.708-.124-.044-.15-.178-.15-.296-.233-.038-.44-.145-.666-.193-.347-.156-.623.091-.883.257-.114.048-.244.065-.352.129a5.062 5.062 0 0 0-.504.94c.039.273.157.514.299.746.124.349.514.623.844.763a3.134 3.134 0 0 0 0 1.7s-.009.008-.009.006a.148.148 0 0 1-.017.017c-.051 0-.108.01-.15-.017h-.007c.077.513.32.963.714 1.348.141.048.108.215.167.322.038.049.044.15.028.193a4.282 4.282 0 0 0-2.275.564c-.173.086-.097.322-.114.489.477-.312.991-.542 1.56-.645.243-.015.519-.075.753-.01l.026.462c-.643.333-1.348.526-1.9 1.074.011.166-.021.359.027.499l.494-.397c.476-.36.974-.666 1.52-.865.147.172.299.355.494.462.33-.21.688-.366 1.067-.462.2-.118.52-.01.65-.247l.091-.488c-.015-.011-.026-.033-.054-.028-.254-.145-.422-.397-.4-.692a.715.715 0 0 1-.287.074c-.086-.02-.168-.042-.205-.129-.006-.107-.06-.268.049-.347.351-.216.806-.227 1.25-.194.33.043.807.027.921.413-.016.113-.005.237-.12.312-.119.064-.253-.006-.362-.055-.086.264-.233.559-.53.645l.037.311c.037.14.048.37.27.322.515.124.97.387 1.42.671.152-.15.27-.322.378-.478.802.27 1.494.865 2.156 1.419l.026-.452c-.628-.553-1.326-.944-2.052-1.25.028-.145.06-.285.066-.441.86.048 1.678.312 2.387.724l-.011-.386c-.747-.397-1.565-.66-2.458-.67a.26.26 0 0 1-.038-.167c.434-.07.741-.515.845-.902.223-.252.542-.526.466-.902.01-.031.02-.064.032-.097.029-.092.053-.19.022-.278z" fill="#FFF"/><path d="M28.477 26.98l.444-.14.05-.246c.124-.36-.142-.628-.272-.913l-.222 1.3zM29.598 28.681c.21.232.417.602.79.49-.027-.157-.114-.286-.167-.425-.097-.113-.13-.435-.325-.322-.147-.097-.184-.258-.277-.387-.042.2-.015.446-.021.644zM29.674 30.254c.081.113.104.259.184.36.146.097.363.08.542.065.162-.038.265.139.416.037-.189-.118-.302-.332-.48-.49-.212-.164-.44-.02-.662.028zM29.961 32.752c.374.22.848.435 1.347.36.054-.027.147-.022.157-.086-.309-.108-.633-.414-.957-.478-.179-.274-.412.07-.64.048.006.064.07.112.093.156zM31.085 37.492l.082.172c.082.558.438 1.073.244 1.685.162.114.21.301.314.451h.027c.124-.466.038-.95-.027-1.417.049-.424-.385-.67-.64-.891zM31.18 31.994c.28.216.73.236 1.055.13-.206-.113-.433-.237-.602-.387l-.454.257zM32.516 33.642c-.027.226.124.414.287.527.06-.133.156-.248.167-.397a.99.99 0 0 0-.39-.597c-.037.15-.081.296-.064.467zM32.532 36.091c-.039.252.243.285.362.424.097.118-.065.2-.065.312.206.262.326.562.326.912.08-.327.204-.639.248-.977-.022-.237-.4-.187-.341-.45.109-.27-.021-.532-.092-.775-.02-.036-.07-.112-.113-.09-.098.22-.341.376-.325.644zM33.274 34.813l.281.542c.124-.016.205-.134.303-.22.075-.226-.125-.37-.184-.554-.049-.129 0-.3-.092-.412-.07-.044-.151-.114-.232-.092l-.076.736zM33.635 33.384c.223.135.477.327.597.564.19.548.492 1.041.714 1.573.082.37.146.701.249 1.066.039.097.017.284.169.268.042-.408.124-.8.13-1.224-.136-.177-.314-.252-.483-.36v-.037c.022-.09.099-.2.212-.182.048-.054.195-.107.13-.204-.282-.279-.266-.76-.714-.846-.158-.064-.195-.226-.211-.375-.212-.178-.526-.237-.793-.243zM33.897 36.295c.275.252.179.617.157.955-.043.205.216.085.298.194.168.246.07.607.011.875.147-.221.314-.414.427-.656-.004-.09.114-.134.11-.247.047-.156-.136-.086-.213-.102-.064-.016-.134-.059-.112-.145.139-.268.01-.59-.044-.859-.065-.22.027-.516-.077-.709-.173.238-.688.291-.557.694zM34.4 32.483c.482.484.834.97 1.354 1.437.01-.21-.016-.403-.027-.607-.076-.145-.217-.252-.337-.36-.384-.037-.584-.55-.99-.47zM35.66 35.041c.012.05.034.092.056.14.21.344.412.698.558 1.068-.044-.397.227-.89-.131-1.197-.048-.13-.21-.086-.314-.076l-.168.065zM36.96 38.963c.152.07.347-.053.494-.14.135-.032.249.044.352.113.043.086 0 .167.016.248.325.09.644.21.93.397l.092-.091c.022-.231-.161-.398-.335-.527-.113-.064-.282-.027-.362-.129.054-.086.054-.215.048-.311-.179 0-.293-.055-.438-.14-.092-.026-.174-.102-.25 0-.27.182-.286.451-.546.58zM37.341 32.207c.135-.038.276-.075.39-.172.363-.328.888-.108 1.31-.113a2.931 2.931 0 0 0-.298-.413c-.152-.06-.293-.129-.466-.129-.368-.215-.617.145-.899.322-.076.145-.113.36-.037.505zM37.35 33.313c0-.017 0-.034.017-.038.05.043-.006.146.076.167.14-.07.27-.167.4-.258.363 0 .58-.35.937-.35.596.109 1.186.227 1.705.516-.037-.348-.341-.665-.649-.82-.174-.06-.31.031-.433.128-.362.226-.173-.327-.427-.338-.331.101-.673.215-1.04.182-.217.081-.37.279-.613.257-.01.179-.036.394.027.554zM37.6 34.51c.114.119.303.097.466.119l.471-.184c.005-.084-.14-.107-.108-.203.13-.146.308-.043.47-.102.228-.033.46-.257.688-.092-.007.028.01.064-.011.092-.07.166.048.268.179.333.265.048.513.29.779.182-.027-.22-.086-.423-.14-.634-.222-.037-.38-.22-.585-.295-.091.086-.212.15-.325.14-.417-.098-.916-.355-1.338-.092-.152.183-.422.13-.628.21.012.182.033.36.082.525zM37.78 37.701c-.033.092-.125.241.043.285.346.01.79-.167 1.061.101.092.07.048.216.043.307l.454.376c.044-.227.126-.43.132-.672a.752.752 0 0 0-.277-.45c-.298 0-.47-.346-.791-.304-.168-.037-.314.11-.482.11-.075.075-.12.167-.184.247zM37.909 35.17c.07.145.152.381.287.397.32-.139.785-.225 1.143-.074.118.02.118.155.092.24.184.108.406.194.6.312l-.054-.323c-.01-.349-.454-.38-.482-.724a2.154 2.154 0 0 0-1.153-.065c-.124.113-.304.098-.454.13-.011.042.015.07.02.107zM38 36.91c.212-.06.348-.29.575-.312.346.006.655.146.872.442.13.084.103.305.271.305-.05-.263.037-.504.026-.774-.226-.375-.79-.085-1-.526l-.401.027c-.288.07-.212.403-.25.63-.032.068-.097.122-.092.208zM39.989 39.258c.167.333.536.585.573.966.087-.101.147-.22.206-.332-.006-.108-.13-.108-.178-.194-.05-.14.026-.262.048-.386a1.057 1.057 0 0 0-.428-.505l-.221.451zM40.655 38.41l.39.526c.167-.262.167-.65.102-.966-.037-.06-.108-.156-.205-.113-.146.15-.168.381-.287.553zM39.068 23.715c.14.07.276.134.445.145a.563.563 0 0 1 .4-.065c.2.13.444-.027.677-.016-.206-.193-.44-.312-.677-.424-.304.064-.547.279-.845.36zM41.185 24.218c.287.027.494.28.687.489.244.037.428.21.574.386l-.091-.284c-.065-.285-.245-.505-.428-.73-.26.016-.515.038-.742.14z" fill="#FFF"/><path d="M20.977 21.864l.158.017c.42.209 1.103.316 1.142.923-.428.167-.84.391-1.181.735-.26-.263-.785-.118-.872-.58.082-.435.238-.983.753-1.095zM21.384 24.587c.493-.044.97.025 1.478-.017.124.053.254.16.314.284-.017.58-.195 1.133-.222 1.729-.222.09-.439.274-.493.515-.2.06-.38.177-.575.268-.085-.182-.07-.456.082-.607.212-.295.759-.226.716-.693.14-.225.005-.515.01-.75-.054-.179-.109.058-.195.052-.173.037-.351.048-.503-.038-.114-.118-.254-.215-.287-.375-.153-.075-.33-.193-.407-.349l.082-.02zM21.98 28.085c.23.034.476-.07.676.044-.042.076-.157.107-.249.13l-.363.165c-.135-.032-.06-.247-.065-.339zM22.927 23.603c.232-.075.482-.23.73-.156-.178.178-.318.408-.454.623l-.742-.016c.082-.194.287-.354.466-.45zM25.098 23.427c.309-.054.292.343.574.358.05.064.12.123.092.22-.163.065-.4.034-.585.076-.244-.135-.086-.553-.47-.526-.022-.033-.065-.097-.012-.119.12-.042.277-.026.401-.01zM24.903 24.864c.136-.188.342-.203.537-.24l1.402.025c.06.055-.054.103-.054.167-.086.08-.211.103-.287.177-.184.005-.168.22-.298.312-.2.199-.493.107-.726.076a.634.634 0 0 1-.212-.232l-.064.065c.081.3.06.633.12.94l.336.22c.005.493.59.359.844.633-.06.178-.179.327-.309.478a1.84 1.84 0 0 0-.687-.414c-.022-.288-.341-.461-.519-.606-.05-.526-.06-1.063-.146-1.573l.063-.028zM25.412 28.177h.65l-.08.338-.652-.274c-.015-.053.044-.069.082-.064zM26.582 22.095l.482-.15c.276.128.536.289.79.472.2.365.169.859.076 1.267-.146.16-.466 0-.584.257h-.023c-.178-.504-.687-.956-1.158-1.186.075-.258.157-.51.417-.66z" fill="#F60"/></g></svg>