<svg width="63" height="63" viewBox="0 0 63 63" xmlns="http://www.w3.org/2000/svg" xmlns:xlink="http://www.w3.org/1999/xlink"><defs><path d="M.429 31.586C.429 14.423 14.264.504 31.327.504c17.065 0 30.895 13.919 30.895 31.082 0 17.164-13.83 31.078-30.895 31.078C14.264 62.664.429 48.75.429 31.586z" id="a"/><path d="M57.11 14.456a31.071 31.071 0 0 1 5.112 17.13c0 17.164-13.83 31.078-30.895 31.078A30.627 30.627 0 0 1 14.3 57.523l42.81-43.067z" id="c"/></defs><g fill="none" fill-rule="evenodd"><mask id="b" fill="#fff"><use xlink:href="#a"/></mask><path fill="#F4F4F4" fill-rule="nonzero" mask="url(#b)" d="M-6.233 69.645h75.117V-6.477H-6.233z"/><mask id="d" fill="#fff"><use xlink:href="#c"/></mask><path fill-opacity=".12" fill="#666" fill-rule="nonzero" mask="url(#d)" d="M-6.233 96.34h104.43V-9.27H-6.233z"/><g fill-rule="nonzero"><path d="M28.263 32.888c.461-.439.934-.87 1.386-1.322 1.025-1.025 2.038-2.06 3.057-3.091 1.355-1.37 2.704-2.748 4.07-4.107.691-.687 1.505-1.18 2.485-1.354 1.971-.35 4.117.983 4.26 3.259.073 1.178-.305 2.214-1.152 3.052a760.889 760.889 0 0 1-4.895 4.788c-.115.11-.099.172-.03.289a8129.19 8129.19 0 0 1 5.9 10.091c.496.85.798 1.754.746 2.752-.11 2.148-1.98 3.756-4.144 3.575-1.597-.134-2.753-.944-3.523-2.294-1.596-2.8-3.163-5.616-4.742-8.425-.115-.205-.113-.204-.279-.042-1.003.982-2.005 1.964-3.011 2.943a.39.39 0 0 0-.131.307c.005 1.09.01 2.18 0 3.271-.01 1.174-.329 2.243-1.175 3.105-.815.83-1.838 1.171-2.985 1.142-1.17-.03-2.186-.435-2.963-1.332-.67-.774-.972-1.694-.995-2.699-.025-1.057-.011-2.115-.011-3.173V17.274c0-.995.211-1.931.814-2.745.839-1.132 2.01-1.61 3.394-1.571 2.092.058 3.618 1.466 3.87 3.52.036.293.053.585.053.879 0 5.12 0 10.239.002 15.358 0 .067-.023.14-.001.173zm13.421 13.957a1.624 1.624 0 0 0-1.644-1.604c-.887.002-1.63.74-1.62 1.61.009.897.74 1.62 1.637 1.62a1.63 1.63 0 0 0 1.627-1.626zm-17.49-31.211c-.753-.002-1.363.595-1.36 1.333.002.727.615 1.33 1.35 1.33a1.345 1.345 0 0 0 1.348-1.329c.01-.724-.6-1.333-1.337-1.334zm-.02 29.869c-.743 0-1.348.593-1.348 1.323s.605 1.336 1.338 1.34a1.348 1.348 0 0 0 1.357-1.34 1.333 1.333 0 0 0-1.347-1.323zm14.348-18.928a1.35 1.35 0 0 0 1.336 1.34c.732.005 1.35-.601 1.352-1.326a1.338 1.338 0 0 0-1.349-1.343 1.33 1.33 0 0 0-1.34 1.33z" fill="#0D0D0D"/><path d="M41.684 46.845a1.63 1.63 0 0 1-1.627 1.625 1.636 1.636 0 0 1-1.637-1.619c-.01-.87.733-1.608 1.62-1.61a1.624 1.624 0 0 1 1.644 1.604z" fill="#E1001B"/><path d="M24.195 15.634c.736.001 1.347.61 1.337 1.334a1.345 1.345 0 0 1-1.348 1.328 1.353 1.353 0 0 1-1.35-1.329c-.003-.738.607-1.335 1.36-1.333zM24.174 45.503c.745 0 1.344.588 1.347 1.323a1.348 1.348 0 0 1-1.357 1.34 1.353 1.353 0 0 1-1.338-1.34c0-.73.605-1.323 1.348-1.323zM38.522 26.575a1.33 1.33 0 0 1 1.339-1.33 1.338 1.338 0 0 1 1.349 1.344c-.002.725-.62 1.33-1.352 1.327a1.35 1.35 0 0 1-1.336-1.34z" fill="#FFF"/></g></g></svg>