<svg width="34" height="11" viewBox="0 0 34 11" xmlns="http://www.w3.org/2000/svg"><g fill="none" fill-rule="evenodd"><path d="M2.845 6.46c-.584-.05-1.119-.007-1.574.362a.716.716 0 0 0-.24.83c.112.302.374.473.718.477.393.004.711-.177 1.01-.403a.255.255 0 0 0 .082-.177c.008-.351.004-.703.004-1.09zm-2.707.75C.632 5.959 1.752 6.007 2.83 5.928c0-.252.026-.507-.006-.755-.049-.378-.31-.627-.716-.597-.431.032-.855.167-1.28.264-.082.019-.158.069-.279.124 0-.218-.008-.4.005-.58.004-.054.059-.131.108-.151.632-.251 1.287-.386 1.965-.268.69.12 1.042.543 1.053 1.245.012.723.003 1.446.004 2.17 0 .096 0 .194.013.29.058.442.16.541.607.583l.06.423c-.643.328-1.034.188-1.42-.497-.202.138-.396.29-.607.411-.679.392-1.431.315-1.885-.206C.318 8.23.24 8.026.138 7.846V7.21z" fill="#3D402B"/><path d="M33.814 10.229c-.2-.065-.402-.12-.596-.197-.768-.308-1.301-.87-1.627-1.613-.644-1.466-.64-2.943.055-4.39.455-.95 1.215-1.531 2.273-1.69v.583c-.545.12-.877.498-1.111.964-.47.934-.523 1.94-.456 2.96.042.644.153 1.275.465 1.851.246.453.575.818 1.102.95 0 .167.005.335-.004.502-.002.028-.066.053-.101.08M27.407 10.229c-.003-.062-.002-.124-.01-.185-.032-.25.035-.405.3-.523.512-.229.8-.691.966-1.203.45-1.39.455-2.788-.037-4.17-.192-.541-.54-.962-1.084-1.202-.295-.13-.079-.382-.156-.6.876.122 1.517.541 2.003 1.212 1.057 1.456 1.048 4.012-.018 5.465-.439.599-1.01.997-1.744 1.15-.04.01-.076.037-.114.056h-.106z" fill="#E2004E"/><path d="M33.92 9.646c-.528-.13-.857-.496-1.103-.949-.312-.576-.423-1.207-.465-1.852-.067-1.018-.014-2.025.456-2.959.235-.466.566-.845 1.111-.964v6.724z" fill="#FFF"/><path d="M30.901.486c.361.16.679.358.793.775.162.593-.127 1.177-.683 1.36-.581.192-1.18-.078-1.389-.626A1.101 1.101 0 0 1 30.24.559c.046-.02.088-.048.132-.073h.53z" fill="#E2004E"/><path d="M5.944 6.514c0 .308-.007.617.005.925.003.086.037.208.1.248.255.166.512.354.797.448.633.21 1.192-.08 1.41-.713.229-.667.236-1.353.036-2.027-.175-.592-.668-.867-1.258-.68-.3.094-.569.296-.842.466-.203.127-.272.322-.252.566.02.254.004.511.004.767m.004-4.11v2.428c.066-.078.09-.1.107-.126.435-.658 1.063-.88 1.813-.75.747.13 1.16.643 1.337 1.34.216.843.187 1.683-.215 2.473-.595 1.173-1.952 1.423-2.931.554-.03-.028-.067-.048-.1-.072-.023.024-.042.034-.044.048-.087.49-.226.586-.711.475-.049-.01-.095-.08-.12-.134-.019-.044-.004-.104-.004-.157 0-1.888.003-3.776-.005-5.664-.001-.212.061-.301.271-.318.19-.014.379-.06.602-.097M12.598 6.46c-.594-.05-1.136-.006-1.59.385a.734.734 0 0 0-.212.817c.106.285.375.46.701.467.394.01.714-.169 1.012-.396a.257.257 0 0 0 .085-.178c.008-.351.004-.703.004-1.095m1.451 1.784c.128.46.107.499-.33.566-.387.06-.732.052-1.003-.643-.173.123-.338.253-.516.363-.36.223-.746.355-1.18.282-.568-.096-.974-.45-1.08-.95-.132-.61.076-1.152.573-1.477.522-.34 1.116-.412 1.72-.437.112-.005.224 0 .35 0 0-.291.026-.556-.006-.814-.044-.35-.317-.592-.72-.56-.422.033-.838.165-1.255.261-.09.021-.174.074-.28.12v-.684c.737-.298 1.498-.473 2.299-.251.497.138.773.505.8 1.007.039.748.03 1.498.042 2.247.002.133-.003.265.005.397.024.416.153.545.581.573M25.543 5.851c.055-.782-.301-1.276-.91-1.295-.678-.022-1.127.487-1.12 1.295h2.03zm-2.061.653c-.027 1.15.864 1.865 2.02 1.645.293-.056.579-.146.88-.222v.645c-.658.199-1.324.347-2.019.202a2.12 2.12 0 0 1-1.336-.882c-.639-.904-.593-2.397.098-3.254.506-.628 1.175-.823 1.94-.67.756.151 1.103.713 1.26 1.408.065.29.059.595.09.892.018.186-.058.242-.242.24-.803-.008-1.606-.004-2.41-.004h-.281zM15.696 4.876c.123-.14.194-.225.268-.306.396-.431.875-.667 1.473-.643.647.026 1.189.455 1.213 1.1.044 1.206.02 2.414.022 3.621 0 .016-.014.031-.038.078-.21 0-.439.015-.663-.01-.051-.006-.124-.147-.125-.226-.009-.882-.004-1.763-.006-2.645 0-.185.001-.372-.022-.554-.065-.503-.35-.717-.846-.617-.579.116-.942.525-1.25.989-.038.057-.024.154-.024.232-.001.837 0 1.675 0 2.513v.303h-.82V4.05h.818v.825zM20.059 2.515l.81-.076v1.585h1.218v.63H20.89c-.005.121-.013.214-.013.308v2.195c0 .114 0 .23.014.343.057.469.362.72.833.691.103-.006.207-.017.3-.026.02.035.034.05.036.065.067.506.06.515-.462.587-.896.123-1.546-.391-1.557-1.288-.02-1.621-.006-3.243-.005-4.865 0-.043.012-.085.023-.15" fill="#3D402B"/><path d="M2.845 6.46c0 .386.004.738-.004 1.09a.255.255 0 0 1-.083.176c-.298.226-.616.407-1.009.403-.344-.004-.606-.175-.717-.477a.716.716 0 0 1 .239-.83c.455-.369.99-.413 1.574-.363M5.944 6.514c0-.256.016-.513-.004-.767-.02-.244.049-.44.252-.566.273-.17.542-.372.842-.466.59-.187 1.083.088 1.258.68.2.674.193 1.36-.037 2.027-.217.633-.776.923-1.41.713-.284-.094-.54-.282-.797-.448-.062-.04-.096-.162-.099-.248-.012-.308-.005-.617-.005-.925M12.598 6.46c0 .392.004.744-.004 1.095a.257.257 0 0 1-.085.178c-.298.227-.618.406-1.012.396-.326-.008-.595-.182-.701-.467a.734.734 0 0 1 .212-.817c.454-.391.996-.434 1.59-.385M25.543 5.851h-2.03c-.007-.808.442-1.317 1.12-1.295.609.02.965.513.91 1.295" fill="#FFF"/></g></svg>