<svg xmlns="http://www.w3.org/2000/svg" viewBox="0 0 54.6 9.3"><path d="M43-.007h-.3c-2.3 0-4.2 2.1-4.2 4.6s1.9 4.6 4.2 4.6h.7c1 0 1.8-.3 2.5-.9l-.8-1.3c-.4.4-1 .6-1.8.7h-.5c-1.5 0-2.8-1.5-2.8-3.1.1-1.9 1.5-3.1 2.9-3.1h.5c.5 0 1.4.3 1.5.9v.7h1.5v-1.2c0-.3-.1-.6-.3-.9-.7-.7-1.9-1-2.7-1H43zm-39.8.2L0 9.093h1.2l3.2-8.9H3.2zm2.6 0l-3.2 8.9h1.2L7 .193H5.8zm2.6 0l-3.3 8.9h1.2c.4 0 .6-.2.7-.6l.6-1.7h3l.6 1.7c.1.3.4.6.7.6h1.6v-1.4h-.6c-.1 0-.2-.1-.2-.2l-2.6-7.3H8.4zm15.4 0l-3.2 8.9h1.2c.4 0 .6-.2.7-.6l.6-1.7h3l.6 1.7c.1.3.4.6.7.6h1.5v-1.4h-.6c-.1 0-.2-.1-.2-.2l-2.6-7.3h-1.7zm25.6 0l-3.2 8.9h1.2c.4 0 .6-.2.7-.6l.6-1.7h3l.6 1.7c.1.3.4.6.7.6h1.5v-1.4h-.6c-.1 0-.2-.1-.2-.2l-2.6-7.3h-1.7zm-18 0h-1.5v8.9h1c.3 0 .6-.3.6-.6v-4.8-.8c.2.2.3.5.7 1.1.9 1.4 2.4 3.6 3.4 5v.1h1.5v-7.3c0-.1.1-.2.2-.2h.6v-1.4h-1.8c-.4 0-.7.3-.7.7v4.5c0 .4.1.7.1 1.1-.1-.2-.2-.5-.5-.9-.9-1.5-2.6-3.9-3.6-5.4zm-15 0h-3v1.4h.8v6.8s-.1.8.8.8h2.5c2 0 2.9-1.3 2.9-2.5v-.3c0-.9-.6-1.6-1.4-2 .7-.3 1.1-1 1.1-1.8v-.2c0-1.2-1.2-2.2-2.6-2.2h-1.1zm.1 1.4h.6c.9 0 1.2.3 1.3 1.1v.1c0 .4-.4 1-1 1h-1.5v-2.2h.6zm-7.3.3c.3 1 .7 2.3 1.1 3.6H8.1c.4-1.3.9-2.6 1.1-3.6zm15.5 0c.2 1 .7 2.3 1.1 3.6h-2.3c.5-1.3.9-2.6 1.2-3.6zm25.5 0c.2 1 .7 2.3 1.1 3.6H49c.6-1.3 1-2.6 1.2-3.6zm-32.8 3.3c.8 0 1.3.5 1.3 1.3v.1c0 .5-.4 1.1-1.1 1.1h-1.7v-2.5h1.5z" fill="#5a85d7"/></svg>