<svg width="38" height="11" viewBox="0 0 38 11" xmlns="http://www.w3.org/2000/svg"><g fill="none" fill-rule="evenodd"><path d="M34.89 7.576c-.505.006-.955-.07-1.37-.295-.449-.243-.736-.614-.891-1.099-.04-.123-.001-.152.1-.174.318-.071.635-.14.95-.22.093-.024.133 0 .156.082.175.635.98.784 1.508.615.295-.095.45-.275.453-.515.003-.218-.132-.396-.421-.485-.317-.098-.645-.162-.967-.244a4.747 4.747 0 0 1-.388-.113c-.744-.258-1.102-.702-1.13-1.395-.03-.765.342-1.367 1.032-1.67.873-.382 2.11-.164 2.677.473.133.15.23.32.313.503.05.108.05.163-.085.202-.282.08-.56.178-.836.277-.094.034-.13.015-.179-.074-.266-.496-.808-.681-1.335-.471-.187.075-.302.2-.315.406-.013.21.099.343.276.433.267.136.568.143.85.222.236.066.477.117.707.199.68.24 1.096.787 1.123 1.45a1.774 1.774 0 0 1-1.013 1.651 2.823 2.823 0 0 1-1.216.242" fill="#22201F"/><path d="M31.063 2.81c.224-.122.31-.299.228-.524-.084-.234-.277-.307-.512-.302-.238.004-.475.005-.713 0-.1-.003-.137.025-.136.131.005.484.004.967 0 1.45-.001.11.028.157.145.154.245-.007.491.003.737-.005.287-.009.476-.132.534-.35.065-.25-.04-.428-.283-.554m1.448.011a1.864 1.864 0 0 1-1.886 1.885c-1.065-.001-1.89-.836-1.89-1.91-.002-.983.752-1.812 1.566-1.838 1.415-.045 2.212.674 2.21 1.863" fill="#EC1D25"/><path d="M30.596 2.293c-.116.012-.266-.056-.259.168.005.149.032.222.197.201.141-.018.334.047.348-.178.012-.194-.153-.186-.286-.19m-.002.691c-.13-.002-.265-.045-.259.182.005.178.05.238.226.218.154-.016.353.028.36-.199.008-.213-.175-.202-.327-.201m.469-.175c.243.126.348.305.283.554-.058.218-.247.341-.534.35-.246.008-.492-.002-.737.005-.117.003-.146-.044-.145-.154.004-.483.005-.966 0-1.45-.002-.106.035-.134.136-.132.237.006.475.005.713 0 .235-.004.428.07.512.303.081.225-.004.402-.228.524" fill="#FDFCFC"/><path d="M30.594 2.985c.152-.001.335-.012.328.201-.008.227-.207.183-.36.2-.176.019-.222-.041-.227-.219-.006-.227.13-.184.26-.182M30.596 2.293c.133.005.298-.003.286.19-.014.226-.207.161-.348.18-.165.02-.192-.053-.197-.202-.007-.224.143-.156.26-.168" fill="#EC1D25"/><path d="M1.542 8.354h1.137l-.56-1.764-.577 1.764zM1.6 5.565h1.058l1.587 4.483H3.23l-.288-.922H1.289l-.31.922H0l1.6-4.483zm4.874 2.357a.77.77 0 0 0-.124-.335c-.098-.133-.249-.2-.453-.2-.292 0-.492.145-.6.435a1.818 1.818 0 0 0-.085.614c0 .243.029.439.085.587.104.275.299.413.584.413.203 0 .347-.054.432-.164a.817.817 0 0 0 .155-.426h.885a1.45 1.45 0 0 1-.286.748c-.271.38-.674.57-1.207.57s-.925-.159-1.177-.475c-.251-.317-.377-.727-.377-1.232 0-.57.139-1.012.417-1.329.278-.316.66-.474 1.15-.474.415 0 .755.093 1.02.28.264.186.42.516.47.988h-.889zm.895-.541v-.618h.462V5.84h.857v.924h.539v.618h-.539v1.751c0 .136.018.22.052.254.035.034.14.05.316.05a2.432 2.432 0 0 0 .17-.006v.648l-.41.015c-.41.014-.69-.057-.84-.213-.097-.099-.145-.252-.145-.459v-2.04h-.462zm3.056-1.043h-.879v-.8h.879v.8zm-.879.395h.879v3.315h-.879V6.733zm3.513 0h.93l-1.195 3.315h-.915l-1.19-3.315h.974l.69 2.445.706-2.445zM16.3 9.166c.136-.18.204-.437.204-.77 0-.332-.068-.588-.204-.767-.135-.18-.33-.27-.583-.27-.254 0-.449.09-.586.27-.137.179-.205.435-.205.767 0 .333.068.59.205.77.137.18.332.27.586.27.253 0 .448-.09.583-.27zm.694.479c-.28.345-.705.518-1.274.518-.57 0-.995-.173-1.274-.518-.28-.346-.42-.762-.42-1.249 0-.478.14-.893.42-1.243.28-.351.704-.526 1.274-.526.57 0 .994.175 1.274.526.28.35.42.765.42 1.243 0 .487-.14.903-.42 1.249zm1.77-3.301v.988h1.1a.918.918 0 0 0 .48-.111c.122-.074.184-.205.184-.394 0-.209-.082-.346-.244-.413a1.722 1.722 0 0 0-.535-.07h-.985zm0 1.73v1.195h1.1c.197 0 .35-.026.46-.079.199-.097.298-.284.298-.56 0-.233-.096-.393-.289-.48a1.157 1.157 0 0 0-.453-.076h-1.116zm2.45-2.031c.139.19.208.418.208.684 0 .274-.07.494-.207.66-.077.093-.19.178-.34.255a1 1 0 0 1 .518.396c.116.18.175.399.175.656 0 .266-.067.504-.201.715a1.239 1.239 0 0 1-.829.578 3.14 3.14 0 0 1-.637.06H17.87V5.566h2.177c.55.008.939.167 1.168.478zm2.647 2.393a.942.942 0 0 1-.396.143l-.194.036a1.257 1.257 0 0 0-.393.119.397.397 0 0 0-.2.368c0 .148.04.255.123.32a.463.463 0 0 0 .3.1.883.883 0 0 0 .515-.165c.157-.11.239-.309.245-.599v-.322zm-.526-.405c.16-.02.274-.045.343-.076.124-.052.186-.134.186-.246 0-.136-.047-.23-.142-.281-.094-.052-.232-.078-.415-.078-.205 0-.35.05-.435.152a.632.632 0 0 0-.121.304h-.837c.019-.29.1-.528.244-.714.229-.292.622-.438 1.18-.438.362 0 .685.072.967.216.281.144.422.415.422.815v1.52c0 .106.002.233.006.383.006.114.024.19.052.231a.31.31 0 0 0 .128.1v.129h-.943a.965.965 0 0 1-.055-.189 2.273 2.273 0 0 1-.024-.2c-.12.13-.257.24-.414.33a1.244 1.244 0 0 1-.632.162c-.3 0-.548-.086-.744-.257-.195-.171-.293-.414-.293-.728 0-.408.157-.703.471-.885.173-.1.426-.17.76-.213l.296-.037zm4.59-1.108c.218.18.327.477.327.893v2.232h-.888V8.03a.92.92 0 0 0-.07-.401c-.085-.17-.247-.255-.486-.255-.294 0-.496.124-.606.374-.056.131-.085.3-.085.504v1.795h-.863V6.739h.836v.484c.111-.17.217-.293.316-.368.179-.134.405-.201.678-.201.343 0 .623.09.841.269zm.868-1.343h.852v2.415l1.08-1.247h1.073l-1.159 1.268 1.205 2.032h-1.047l-.793-1.418-.36.375v1.043h-.85V5.58z" fill="#121212"/></g></svg>