<svg width="30" height="11" viewBox="0 0 30 11" xmlns="http://www.w3.org/2000/svg"><g fill-rule="nonzero" fill="none"><path fill="#2FABF7" d="M3.176 3.202h1l-.5-1.272z"/><path d="M15.585 2.112c-.09-.046-.227-.046-.363-.046h-.91v.727h.91c.136 0 .272 0 .363-.045.091-.046.137-.182.137-.318.045-.182-.046-.273-.137-.318z" fill="#228FE0"/><path d="M25.313.748v.545L25.04.748h-2.137v.545l-.272-.545h-2.91c-.5 0-.908.09-1.272.273V.748h-2.046v.273c-.227-.182-.5-.273-.863-.273H8.222l-.5 1.136-.301-.687c-.54.04-1.086.113-1.625.187h.971l1 2.182.91-2.182h1.272v3.182h-.773v-2.5l-1.09 2.5h-.683l-1.09-2.5v2.5H4.767l-.318-.682H2.903l-.272.728h-.864l1.364-3.228h1.136L5.54 4.43V1.418l-.784.103c.261-.029.522-.069.784-.103v-.034h.256c.54-.074 1.085-.147 1.625-.187l-.2-.45H4.904v.546L4.631.748H2.676l-.909 2.136L.722 5.248H3.04l.273-.727h.636l.273.727h2.636v-.546l.227.546h1.318l.228-.546v.546h6.318V4.066h.09c.092 0 .092 0 .092.136v1h3.272V4.93c.273.136.682.272 1.228.272h1.363l.273-.727h.636l.273.727h2.637v-.681l.409.681h2.136V.748h-2.045zM13.04 2.066h-1.773v.591h1.727v.636h-1.727v.637h1.773v.682h-2.546V1.384h2.546v.682zm3.545 2.546h-.772v-.41c0-.181 0-.454-.137-.636-.136-.136-.273-.136-.545-.136h-.818v1.182h-.773V1.384h1.727c.41 0 .682 0 .91.137.226.136.363.363.363.727 0 .5-.318.773-.546.864.228.045.364.181.455.272.09.182.136.318.136.591v.637zm1.228-.046h-.773V1.34h.773v3.227zm8.863 0h-1l-1.454-2.409v2.41h-1.546l-.273-.683h-1.59l-.273.728h-.864c-.363 0-.818-.091-1.09-.364-.273-.273-.41-.636-.41-1.227 0-.455.091-.91.41-1.273.227-.273.636-.364 1.136-.364h.727v.682h-.727c-.273 0-.41.046-.591.182-.137.136-.228.409-.228.727 0 .364.046.591.228.773.136.136.318.182.545.182h.318l1.046-2.5h1.136l1.273 3.045V1.43h1.136l1.318 2.227V1.43h.773v3.136h.091-.09z" fill="#0571C1"/><g fill="#228FE0"><path d="M21.085 3.202h1.046l-.5-1.272zM13.358 9.748V7.157L12.176 8.43z"/></g><path fill="#2FABF7" d="M8.494 7.475v.591h1.682v.636H8.494v.682h1.864l.864-.954-.819-.955z"/><path d="M15.085 7.475h-.954v.818h1c.272 0 .454-.136.454-.409-.045-.272-.227-.409-.5-.409z" fill="#228FE0"/><path d="M29.13 8.248V6.202h-1.908c-.41 0-.728.091-.955.273v-.273h-2.09c-.319 0-.728.091-.91.273v-.273h-3.682v.273c-.272-.227-.772-.273-1-.273h-2.454v.273c-.228-.227-.773-.273-1.046-.273h-2.727l-.636.682-.591-.682H7.04v4.455h4l.636-.682.591.682h2.455V9.612h.318c.318 0 .727 0 1.045-.137v1.227h2.046V9.521h.09c.137 0 .137 0 .137.136v1.045h6.182c.409 0 .818-.09 1.045-.272v.272h1.955c.409 0 .818-.045 1.09-.227.455-.273.728-.773.728-1.363 0-.319-.09-.637-.227-.864zm-14.09.727h-.91v1.091h-1.454l-.909-1.045-.954 1.045h-3V6.84h3.045l.91 1.045.954-1.045h2.409c.59 0 1.272.182 1.272 1.045-.045.91-.681 1.091-1.363 1.091zm4.545-.182c.091.137.137.319.137.591v.637h-.773v-.41c0-.181 0-.5-.136-.636-.091-.136-.273-.136-.546-.136h-.818v1.182h-.773V6.793h1.727c.364 0 .682 0 .91.137.227.136.409.363.409.727 0 .5-.319.773-.546.864.227.09.364.181.41.272zm3.137-1.318h-1.773v.591h1.727v.636H20.95v.637h1.773v.682h-2.546V6.793h2.546v.682zm1.909 2.546h-1.455v-.682h1.455c.136 0 .227 0 .318-.091a.347.347 0 0 0 .09-.227.347.347 0 0 0-.09-.228c-.046-.045-.136-.09-.273-.09-.727-.046-1.59 0-1.59-1 0-.455.272-.955 1.09-.955h1.5v.773h-1.409c-.136 0-.227 0-.318.045-.091.046-.091.136-.091.227 0 .137.091.182.182.228.09.045.182.045.273.045h.409c.409 0 .681.091.863.273.137.136.228.363.228.682 0 .681-.41 1-1.182 1zm3.909-.319c-.182.182-.5.319-.955.319h-1.454v-.682h1.454c.137 0 .228 0 .318-.091a.347.347 0 0 0 .091-.227.347.347 0 0 0-.09-.228c-.046-.045-.137-.09-.273-.09-.728-.046-1.591 0-1.591-1 0-.455.273-.955 1.09-.955h1.5v.773h-1.363c-.136 0-.227 0-.318.045-.091.046-.091.136-.091.227 0 .137.045.182.182.228.09.045.182.045.273.045h.409c.409 0 .681.091.863.273.046 0 .046.045.046.045.136.182.182.41.182.637 0 .272-.091.5-.273.681z" fill="#0571C1"/><path d="M18.767 7.566c-.09-.045-.227-.045-.364-.045h-.909v.727h.91c.136 0 .272 0 .363-.046.091-.045.136-.181.136-.318.046-.182-.045-.272-.136-.318zM15.585 2.112c-.09-.046-.227-.046-.363-.046h-.91v.727h.91c.136 0 .272 0 .363-.045.091-.046.137-.182.137-.318.045-.182-.046-.273-.137-.318z" fill="#228FE0"/><g fill="#228FE0"><path d="M21.085 3.202h1.046l-.5-1.272zM13.358 9.748V7.157L12.176 8.43z"/></g><path d="M15.085 7.475h-.954v.818h1c.272 0 .454-.136.454-.409-.045-.272-.227-.409-.5-.409zM18.767 7.566c-.09-.045-.227-.045-.364-.045h-.909v.727h.91c.136 0 .272 0 .363-.046.091-.045.136-.181.136-.318.046-.182-.045-.272-.136-.318z" fill="#228FE0"/><g fill="#2FABF7"><path d="M14.767 9.93l-.636-.682v.773h-1.5l-.91-1.046-1 1.046h-3V6.839h3.046l.955 1.045.454-.545-1.136-1.137h-4v4.455h4l.682-.682.59.682h2.455zM10.04 5.202l-.591-.636h-.273v-.273l-.682-.681-.454.954h-.637l-1.09-2.5v2.5H4.767l-.318-.682H2.903l-.318.682h-.818l1.364-3.182h1.136L5.54 4.43V1.418l-.784.103c.261-.029.522-.069.784-.103v-.034h.256l.375-.05-.586-.586h-.682v.545L4.676.748h-2l-.909 2.136L.722 5.202h2.363l.273-.681h.636l.319.681h2.545v-.545l.227.545h1.318l.228-.545v.545h1.409z"/><path d="M7.949 3.112l-.727-.728.545 1.182z"/></g><g fill="#228FE0"><path d="M28.63 10.43c.41-.273.683-.728.728-1.228l-.636-.636c.045.136.09.273.09.455 0 .272-.09.5-.272.681-.182.182-.5.319-.955.319h-1.454v-.682h1.454c.137 0 .228 0 .318-.091a.347.347 0 0 0 .091-.227.347.347 0 0 0-.09-.228c-.046-.045-.137-.09-.273-.09-.728-.046-1.591 0-1.591-1 0-.455.273-.864.954-.955l-.5-.5c-.09.045-.136.09-.181.09v-.272h-2.091c-.319 0-.728.091-.91.273v-.273h-3.727v.273c-.272-.227-.772-.273-1-.273h-2.454v.273c-.228-.227-.773-.273-1.046-.273h-2.727l-.636.682-.591-.682h-.5l1.363 1.364.682-.728h2.41c.59 0 1.272.182 1.272 1.046 0 .909-.636 1.09-1.318 1.09h-.91v.683l.683.681v-.681h.227c.318 0 .727 0 1.045-.137v1.228h2.046V9.43h.09c.137 0 .137 0 .137.136v1.046h6.182c.409 0 .818-.091 1.045-.273v.273h1.955c.363.045.773 0 1.09-.182zm-9.045-1.637c.091.137.137.319.137.591v.637h-.773v-.41c0-.181 0-.5-.136-.636-.091-.136-.273-.136-.546-.136h-.818v1.182h-.773V6.793h1.727c.364 0 .682 0 .91.137.227.136.409.363.409.727 0 .5-.319.773-.546.864.227.09.364.181.41.272zm3.137-1.318h-1.773v.591h1.727v.636H20.95v.637h1.773v.682h-2.546V6.793h2.546v.682zm1.909 2.546h-1.455v-.682h1.455c.136 0 .227 0 .318-.091a.347.347 0 0 0 .09-.227.347.347 0 0 0-.09-.228c-.046-.045-.136-.09-.273-.09-.727-.046-1.59 0-1.59-1 0-.455.272-.955 1.09-.955h1.5v.773h-1.409c-.136 0-.227 0-.318.045-.091.046-.091.136-.091.227 0 .137.091.182.182.228.09.045.182.045.273.045h.409c.409 0 .681.091.863.273.137.136.228.363.228.682 0 .681-.41 1-1.182 1z"/><path d="M26.813 7.793c0 .137.045.182.181.228.091.045.182.045.273.045h.41c.272 0 .454.046.636.136l-.682-.681h-.41c-.136 0-.227 0-.318.045a.347.347 0 0 0-.09.227zM22.722 2.566l.772 1.864V3.339zM7.222.793h-2l.59.591a24.769 24.769 0 0 1 1.591-.182L7.222.793z"/><path d="M16.403.793v.273c-.227-.182-.5-.273-.863-.273H8.222l-.5 1.137-.324-.733c-.529.04-1.057.113-1.591.182l.045.045h.91l.778 1.688.273.272.818-2h1.272v3.228h-.772v-2.5L8.358 3.93l1.318 1.318h5.227l.046-1.182h.09c.092 0 .092 0 .092.136v1h3.272V4.93c.273.136.682.272 1.228.272h1.363l.273-.727h.636l.273.727h2.637v-.454l-.637-.636v.5h-1.545l-.228-.728h-1.59l-.273.728h-.864c-.363 0-.818-.091-1.09-.364-.273-.273-.41-.636-.41-1.227 0-.455.091-.91.41-1.273.227-.273.636-.364 1.136-.364h.727v.682h-.727c-.273 0-.41.046-.591.182-.137.136-.228.409-.228.727 0 .364.046.591.228.773.136.136.318.182.545.182h.318l1.046-2.5h.454l-.636-.637h-1.182c-.5 0-.909.091-1.273.273V.793h-2zM13.04 2.066h-1.773v.591h1.727v.636h-1.727v.637h1.773v.682h-2.546V1.384h2.546v.682zm3.318 1.273c.091.182.136.318.136.59v.637h-.772v-.409c0-.182 0-.455-.137-.636-.045-.091-.182-.091-.454-.091h-.818v1.136h-.773V1.34h1.727c.41 0 .682 0 .91.136.226.137.363.364.363.727 0 .5-.318.773-.546.864a.595.595 0 0 1 .364.273zm1.455 1.273h-.773V1.384h.773v3.228z"/></g></g></svg>