<svg width="49" height="11" viewBox="0 0 49 11" xmlns="http://www.w3.org/2000/svg"><g fill-rule="nonzero" fill="none"><path d="M9.093 4.666C9.093 2.41 7.217.583 4.914.583 2.611.583.745 2.41.745 4.666c0 2.255 1.866 4.082 4.17 4.082.213 0 .427-.02.64-.048l1.73 1.685 1.41-1.38-1.176-1.142a4.045 4.045 0 0 0 1.574-3.197zM6.08 6.455L4.914 5.313 3.748 6.455a2.114 2.114 0 0 1-1.001-1.79c0-1.17.972-2.121 2.167-2.121 1.196 0 2.167.951 2.167 2.122a2.08 2.08 0 0 1-1 1.789z" fill="#FABB00"/><g fill="#000"><path d="M13.86 7.109h-1.004v-.492h-.017c-.226.373-.572.577-1.04.577-.328 0-.605-.085-.795-.289a1.039 1.039 0 0 1-.295-.745c0-.661.399-1.034 1.195-1.136l.935-.119c0-.372-.208-.559-.624-.559-.415 0-.796.119-1.177.356v-.78a4.07 4.07 0 0 1 .606-.203c.26-.05.485-.085.71-.085.987 0 1.488.475 1.488 1.44V7.11h.018zm-1.004-1.373v-.22l-.623.084c-.347.051-.52.204-.52.458 0 .119.035.22.122.288.086.068.19.119.346.119a.61.61 0 0 0 .484-.204.733.733 0 0 0 .19-.525zM16.958 4.668a.926.926 0 0 0-.45-.102c-.225 0-.415.085-.536.255-.139.17-.19.39-.19.678v1.61h-1.074v-3.39h1.073v.627h.017c.174-.458.468-.695.918-.695a.86.86 0 0 1 .26.034v.983h-.018zM20.766 8.668h-1.073V6.634h-.017c-.242.373-.589.543-1.073.543a1.4 1.4 0 0 1-1.056-.441c-.26-.305-.398-.712-.398-1.254 0-.56.138-1.017.432-1.356.295-.34.675-.509 1.143-.509.415 0 .744.153.935.475h.017v-.373h1.073v4.95h.017zm-1.055-3.186V5.21c0-.22-.07-.406-.19-.559a.63.63 0 0 0-.503-.22.635.635 0 0 0-.554.271c-.138.186-.208.44-.208.763 0 .288.07.508.19.678.122.17.312.237.52.237a.653.653 0 0 0 .537-.254c.138-.153.208-.373.208-.644zM24.955 7.109h-1.073V6.6h-.017c-.26.407-.623.594-1.056.594-.796 0-1.212-.475-1.212-1.424V3.719h1.073v1.95c0 .474.19.711.589.711.19 0 .346-.068.467-.203.122-.136.173-.305.173-.543V3.72h1.074v3.39h-.018zM26.911 7.109h-1.073v-3.39h1.073zM30.702 7.109h-1.004v-.492h-.017c-.225.373-.571.577-1.039.577-.329 0-.605-.085-.796-.289a1.039 1.039 0 0 1-.294-.745c0-.661.398-1.034 1.194-1.136l.935-.119c0-.372-.208-.559-.623-.559-.416 0-.796.119-1.177.356v-.78a4.07 4.07 0 0 1 .606-.203c.26-.05.484-.085.71-.085.986 0 1.488.475 1.488 1.44V7.11h.017zm-1.004-1.373v-.22l-.623.084c-.346.051-.52.204-.52.458 0 .119.035.22.122.288.087.068.19.119.346.119a.61.61 0 0 0 .485-.204.818.818 0 0 0 .19-.525z"/><g><path d="M32.6 6.583v.526h-.416V2.21h.415v2.22h.017c.122-.236.295-.406.502-.525.208-.118.45-.186.71-.186.208 0 .416.034.571.119.173.084.312.186.433.322.121.135.208.305.277.508.07.204.087.424.087.661 0 .271-.035.526-.104.746-.07.22-.173.424-.312.576a1.476 1.476 0 0 1-.485.373 1.52 1.52 0 0 1-.623.136c-.467.034-.813-.17-1.073-.577zm0-.847a1.148 1.148 0 0 0 .276.78.903.903 0 0 0 .329.237c.138.05.277.085.433.085a.926.926 0 0 0 .45-.102.849.849 0 0 0 .346-.305 1.35 1.35 0 0 0 .225-.475c.052-.186.07-.39.07-.61 0-.186-.018-.373-.07-.525a1.511 1.511 0 0 0-.208-.407.813.813 0 0 0-.329-.254 1.065 1.065 0 0 0-.415-.085c-.173 0-.329.034-.467.102-.139.067-.26.152-.364.254a.972.972 0 0 0-.225.39 1.443 1.443 0 0 0-.087.474v.44h.035zM37.913 7.109v-.593h-.017c-.104.203-.26.372-.45.491s-.398.17-.64.17c-.156 0-.312-.017-.433-.068a.872.872 0 0 1-.33-.187.925.925 0 0 1-.277-.695c0-.305.087-.542.278-.711.19-.17.467-.289.865-.34l1.022-.152c0-.627-.26-.95-.762-.95-.398 0-.762.136-1.09.425v-.441c.069-.05.155-.102.242-.136.086-.034.19-.067.277-.101.104-.034.207-.051.311-.068.104-.017.208-.017.312-.017.38 0 .658.102.848.305.19.203.294.508.294.915V7.11h-.45zm-.865-1.61c-.156.017-.277.05-.381.084a.629.629 0 0 0-.26.136.464.464 0 0 0-.156.203.806.806 0 0 0-.051.305c0 .085.017.17.051.238.035.068.087.135.139.203.052.051.138.102.225.136.087.034.19.05.294.05.156 0 .295-.033.416-.084.12-.051.225-.136.329-.237.086-.102.155-.22.207-.356a1.24 1.24 0 0 0 .07-.441v-.322l-.883.085zM41.635 7.109V5.21c0-.745-.277-1.118-.831-1.118-.156 0-.277.034-.415.085-.122.05-.226.135-.33.237-.086.102-.155.22-.207.356-.052.135-.07.288-.07.457V7.11h-.415V3.804h.416v.576h.017c.242-.44.623-.644 1.125-.644.364 0 .658.119.848.356.19.237.295.576.295 1.017v2h-.433zM45.304 6.956c-.242.153-.553.22-.917.238-.242 0-.467-.034-.658-.12a1.47 1.47 0 0 1-.814-.881 2.039 2.039 0 0 1-.103-.66c0-.255.035-.475.121-.695.07-.22.19-.407.329-.577.156-.17.329-.288.537-.39.207-.101.45-.135.727-.135.277 0 .536.05.761.152v.441a1.503 1.503 0 0 0-.796-.237c-.208 0-.38.034-.537.118a.998.998 0 0 0-.398.306c-.104.135-.19.27-.242.44-.052.17-.087.356-.087.543 0 .17.018.339.07.508.051.17.12.305.225.424.103.118.225.22.363.288.139.068.329.102.52.102.311 0 .605-.085.865-.272v.407h.034zM48.057 7.109v-.593h-.018c-.103.203-.26.372-.45.491s-.398.17-.64.17c-.156 0-.312-.017-.433-.068a.872.872 0 0 1-.329-.187.925.925 0 0 1-.277-.695c0-.305.087-.542.277-.711.19-.17.468-.289.866-.34l1.021-.152c0-.627-.26-.95-.762-.95-.398 0-.761.136-1.09.425v-.441c.07-.05.156-.102.242-.136.087-.034.19-.067.277-.101.104-.034.208-.051.312-.068.104-.017.207-.017.311-.017.381 0 .658.102.849.305.19.203.294.508.294.915V7.11h-.45zm-.866-1.61c-.156.017-.277.05-.38.084a.629.629 0 0 0-.26.136.464.464 0 0 0-.156.203.806.806 0 0 0-.052.305c0 .085.017.17.052.238.035.068.087.135.138.203.052.051.139.102.226.136.086.034.19.05.294.05.156 0 .294-.033.415-.084.121-.051.225-.136.33-.237.086-.102.155-.22.207-.356a1.24 1.24 0 0 0 .07-.441v-.322l-.884.085z"/></g></g></g></svg>