<svg width="42" height="11" viewBox="0 0 42 11" xmlns="http://www.w3.org/2000/svg" xmlns:xlink="http://www.w3.org/1999/xlink"><defs><path id="a" d="M.002 6.154h2.992V.129H.002v6.025z"/><path id="c" d="M0 .002v3.39h2.255V.003z"/></defs><g fill="none" fill-rule="evenodd"><path d="M39.763 7.467c.496 0 .878.17 1.145.506.266.338.398.74.398 1.201 0 .462-.151.836-.452 1.12-.303.283-.685.426-1.145.426-.462 0-.848-.147-1.158-.439-.311-.294-.466-.681-.466-1.16 0-.48.147-.86.475-1.17.328-.312.74-.484 1.203-.484" fill="#00AEEF"/><path d="M20.02 7.765v.454l-.125.046a2.048 2.048 0 0 0-.614.36.77.77 0 0 0-.28.62c0 .23.054.421.161.57.108.15.294.224.558.224l.3-.075v.518l-.367.158a1.79 1.79 0 0 1-.515.08c-.422 0-.72-.122-.889-.366-.17-.243-.255-.552-.255-.924 0-.182.049-.348.144-.502.094-.153.215-.29.359-.415a2.7 2.7 0 0 1 .474-.322c.168-.092.328-.166.477-.224l.572-.202zM20.02 4.787v.58l-.263.025a.989.989 0 0 0-.263.097c-.15.086-.268.19-.356.308a1.123 1.123 0 0 0-.18.35l-.076.257a.635.635 0 0 1-.262.332.76.76 0 0 1-.437.135c-.093 0-.146-.038-.164-.116a.992.992 0 0 1-.025-.216c0-.196.083-.398.25-.607.167-.21.372-.405.614-.584.241-.18.504-.326.786-.443l.376-.118zM10.349 1.42h.138c.2 0 .399.012.598.035.2.025.399.039.598.039.29 0 .58-.014.865-.039.288-.023.576-.036.867-.036a.3.3 0 0 1 .2.075c.057.05.086.11.086.185 0 .091-.058.145-.175.162a4.298 4.298 0 0 1-.393.036c-.144.01-.276.033-.391.07-.117.037-.175.121-.175.253 0 .025.004.052.012.08l.025.082c.042.124.124.353.249.688a150.558 150.558 0 0 0 1.496 3.826c.167.404.31.748.435 1.029.125.282.213.442.263.484.025.025.054.023.086-.007a.45.45 0 0 0 .094-.111c.03-.046.054-.092.075-.136l.044-.093c.05-.117.135-.329.255-.64l.41-1.06c.156-.396.313-.816.474-1.257.163-.443.313-.856.449-1.235.138-.38.25-.705.338-.974.086-.267.13-.432.13-.489 0-.174-.067-.286-.2-.336a1.794 1.794 0 0 0-.442-.1 3.8 3.8 0 0 1-.442-.066c-.134-.03-.199-.107-.199-.231 0-.065.025-.12.075-.166a.249.249 0 0 1 .174-.069c.265 0 .535.015.81.044.274.029.544.042.809.042.192 0 .378-.01.562-.03a4.89 4.89 0 0 1 .56-.031c.057 0 .101.02.13.061a.24.24 0 0 1 .044.138c0 .107-.036.177-.105.21a.903.903 0 0 1-.257.074 1.915 1.915 0 0 0-.31.082.55.55 0 0 0-.275.216c-.025.042-.06.116-.106.223l-.15.348a8.826 8.826 0 0 0-.149.366c-.046.12-.08.208-.105.265-.175.447-.355.888-.543 1.322a87.35 87.35 0 0 0-.554 1.32c-.307.753-.606 1.501-.898 2.246-.29.744-.588 1.493-.897 2.243a.374.374 0 0 1-.056.118c-.02.03-.063.044-.13.044a.164.164 0 0 1-.138-.068.656.656 0 0 1-.075-.13c-.19-.472-.385-.95-.585-1.438-.2-.489-.395-.968-.585-1.44-.349-.893-.694-1.783-1.035-2.672a33.856 33.856 0 0 0-1.145-2.648.57.57 0 0 0-.319-.31 2.612 2.612 0 0 0-.404-.112 3.716 3.716 0 0 1-.35-.08c-.1-.029-.149-.097-.149-.204 0-.075.044-.126.13-.155a.819.819 0 0 1 .256-.044M29.948 4.741l.013.002v.422l-.075-.004c-.312 0-.58.076-.803.23a1.817 1.817 0 0 0-.545.58 2.522 2.522 0 0 0-.303.778 3.725 3.725 0 0 0-.094.81c0 .288.033.592.1.914.067.321.172.617.322.89.148.271.343.496.587.672.123.09.257.156.405.2l.406.056v.452l-.592-.05a3.164 3.164 0 0 1-.578-.156 2.693 2.693 0 0 1-.945-.6 2.706 2.706 0 0 1-.614-.927 3.204 3.204 0 0 1-.217-1.205c0-.42.073-.815.217-1.185.146-.37.347-.695.608-.97.26-.277.568-.497.926-.66a2.78 2.78 0 0 1 1.182-.249" fill="#231F20"/><path d="M20.417 4.718c.057 0 .13.006.218.02.086.01.177.026.267.041.092.017.178.038.26.063.083.025.15.05.2.075.272.141.443.324.51.551.065.228.098.481.098.762 0 .313-.004.647-.011.997-.008.351-.014.683-.014.998 0 .075-.002.183-.006.329a7.315 7.315 0 0 0 .025.88c.014.135.035.229.07.278a.244.244 0 0 0 .149.117.65.65 0 0 0 .197.032.504.504 0 0 0 .225-.044.73.73 0 0 0 .15-.099c.04-.038.078-.072.11-.105a.235.235 0 0 1 .112-.063c.1-.025.15.006.15.088a.832.832 0 0 1-.026.11 1.11 1.11 0 0 1-.421.638 1.19 1.19 0 0 1-.735.243c-.272 0-.489-.086-.646-.26a1.523 1.523 0 0 1-.336-.632c-.09.124-.205.243-.341.359a2.882 2.882 0 0 1-.453.315l-.15.065V9.96l.23-.057c.18-.086.325-.19.442-.315.065-.067.136-.164.21-.292a.821.821 0 0 0 .125-.328.742.742 0 0 1 .012-.16V8.26c0-.082-.002-.154-.006-.215a.94.94 0 0 0-.019-.155 3.897 3.897 0 0 0-.26.067 6.77 6.77 0 0 0-.603.212l-.13.048v-.455l.216-.078c.236-.078.505-.155.802-.23v-.952c0-.347-.063-.626-.192-.836-.128-.212-.38-.317-.752-.317l-.074.008v-.586l.03-.01c.129-.029.251-.044.367-.044M25.556.8l.075.05c0 .117.002.227.008.334.003.109.005.22.005.336 0 1.356-.002 2.694-.005 4.015a922.222 922.222 0 0 0-.008 4.017c0 .273.073.445.219.514.145.07.33.118.554.143a.061.061 0 0 0 .057.019.302.302 0 0 1 .056-.006c.132 0 .2.061.2.185 0 .092-.043.15-.125.174-.008.008-.03.011-.062.011h-.05c-.191 0-.385-.01-.58-.03a5.387 5.387 0 0 0-.58-.03 6.7 6.7 0 0 0-.711.036 6.74 6.74 0 0 1-.71.038c-.042 0-.105-.006-.188-.02-.082-.01-.124-.05-.124-.116 0-.109.024-.168.074-.181a4.845 4.845 0 0 0 .637-.21.517.517 0 0 0 .274-.304.986.986 0 0 0 .05-.248c.008-.1.012-.185.012-.26 0-1.116.004-2.212.013-3.29.008-1.08.012-2.177.012-3.292 0-.124-.006-.258-.02-.403a.591.591 0 0 0-.155-.367.653.653 0 0 0-.144-.099l-.186-.097a2.465 2.465 0 0 1-.168-.1c-.05-.034-.075-.07-.075-.112v-.05c0-.017.007-.028.025-.036a9.433 9.433 0 0 0 .997-.342c.174-.07.322-.132.443-.185.12-.053.18-.086.18-.093M35.118 4.817c.025-.007.046-.006.061.006.018.013.035.023.05.032a.484.484 0 0 1 .039.15c.007.065.01.139.01.221v.385c.009-.034.068-.091.176-.173a3.601 3.601 0 0 1 .955-.502 1.76 1.76 0 0 1 .594-.105c.182 0 .334.03.455.091a.871.871 0 0 1 .29.237c.074.094.126.2.154.315.03.117.045.227.045.336a.75.75 0 0 1-.05.265.42.42 0 0 1-.156.205.424.424 0 0 1-.266.069c-.108-.004-.232-.056-.372-.155a.3.3 0 0 1-.13-.187c-.022-.082-.043-.164-.068-.247a.816.816 0 0 0-.1-.217c-.042-.061-.116-.094-.224-.094-.172 0-.337.033-.495.094-.157.06-.299.14-.421.234a1.147 1.147 0 0 0-.298.33.717.717 0 0 0-.113.371v3.013c0 .065.004.118.014.16.015.142.059.252.13.334a.66.66 0 0 0 .253.187c.1.04.21.065.33.075.119.007.238.011.353.011.075 0 .11.075.11.224 0 .057-.022.093-.066.105a.474.474 0 0 1-.13.019c-.208 0-.413-.015-.614-.044a4.41 4.41 0 0 0-.616-.044c-.23 0-.462.015-.694.044a5.649 5.649 0 0 1-.694.044.567.567 0 0 1-.18-.038c-.071-.025-.106-.073-.106-.148 0-.084.042-.135.125-.156.082-.019.172-.04.272-.061.1-.021.196-.055.291-.105.096-.05.156-.145.18-.287.033-.164.054-.33.062-.494.008-.166.014-.33.014-.496 0-.323-.002-.62-.008-.892a63.779 63.779 0 0 1-.006-.893 10.1 10.1 0 0 0-.006-.334.896.896 0 0 0-.069-.323.445.445 0 0 0-.147-.223c-.067-.05-.13-.09-.192-.124a2.088 2.088 0 0 1-.175-.1.195.195 0 0 1-.094-.147.2.2 0 0 1 .089-.099c.04-.025.078-.046.11-.063a6.594 6.594 0 0 0 .484-.26c.058-.032.125-.078.2-.137l.222-.172c.075-.06.15-.11.224-.156a.58.58 0 0 1 .198-.08" fill="#231F20"/><g transform="translate(29.96 4.612)"><mask id="b" fill="#fff"><use xlink:href="#a"/></mask><path d="M.002.129l.874.118c.279.082.543.202.79.365.495.32.862.77 1.103 1.351.067.172.121.352.163.533.04.181.062.368.062.557 0 .422-.073.821-.219 1.197a3.105 3.105 0 0 1-.604.986 2.864 2.864 0 0 1-2.133.918L.002 6.15v-.452l.075.01c.332 0 .61-.075.834-.224.224-.15.407-.34.543-.577.138-.235.236-.496.293-.78a4.235 4.235 0 0 0 .03-1.557 3.755 3.755 0 0 0-.18-.72 2.474 2.474 0 0 0-.337-.637A1.88 1.88 0 0 0 .74.723.84.84 0 0 0 .35.572L.002.554V.129z" fill="#231F20" mask="url(#b)"/></g><g transform="translate(.344 7.305)"><mask id="d" fill="#fff"><use xlink:href="#c"/></mask><path d="M2.255.002v.22L1.487.31a2.168 2.168 0 0 0-.674.288 1.41 1.41 0 0 0-.437.448 1.123 1.123 0 0 0-.155.583c0 .216.042.416.127.605.085.189.2.353.348.493.148.14.321.25.52.328.2.076.413.116.642.116l.397-.04v.224l-.397.038c-.259 0-.502-.046-.73-.14a1.833 1.833 0 0 1-.592-.376 1.744 1.744 0 0 1-.392-.56A1.66 1.66 0 0 1 0 1.628c0-.243.057-.466.171-.665C.286.764.448.592.658.45c.21-.145.46-.258.751-.34l.846-.107z" fill="#231F20" mask="url(#d)"/></g><path d="M2.599 4.741v.221l-.28.031a2.93 2.93 0 0 0-.463.137c-.318.123-.64.298-.965.527L.758 5.48c.554-.378 1.067-.613 1.539-.708l.302-.03zM6.176 4.833h4.639v.221L6.41 10.362h4.36v.22H6.12v-.22l4.417-5.308H6.176z" fill="#231F20"/><path d="M2.756 4.741c.32 0 .613.052.878.155.265.105.49.252.672.444.183.191.324.424.425.697.1.273.152.58.152.92v3.18c0 .148.06.22.178.22v.222a.372.372 0 0 1-.156-.02.36.36 0 0 1-.18-.163.507.507 0 0 1-.067-.26v-.532c-.268.349-.619.616-1.052.803a3.182 3.182 0 0 1-.677.212l-.33.033v-.222l.315-.03c.229-.046.446-.115.653-.209.415-.185.722-.43.924-.742a.775.775 0 0 0 .167-.453V7.855a5.391 5.391 0 0 0-1.947-.344l-.112.012v-.22l.112-.013c.336 0 .675.026 1.019.082.343.055.652.135.928.238v-.653c0-.295-.044-.567-.134-.815a1.761 1.761 0 0 0-.386-.632 1.793 1.793 0 0 0-.604-.404 2.047 2.047 0 0 0-.778-.144l-.157.018v-.224l.157-.015z" fill="#231F20"/></g></svg>