<svg xmlns="http://www.w3.org/2000/svg" viewBox="0 0 69.4 9.9"><path d="M12 2.944h2.6c1.3 0 1.9.6 1.9 1.8 0 .7-.2 1.1-.7 1.4 1 .2 1.4.7 1.4 1.7 0 1.2-.9 2-2.4 2H12v-6.9zm11.2 2.2v4.6h-1.7v-.5c-.4.5-.8.7-1.4.7-1.3 0-2.3-1.1-2.3-2.5s1-2.5 2.3-2.5c.6 0 1 .2 1.4.6v-.5h1.7zm-3.7 2.3c0 .6.5 1.1 1.1 1.1.6 0 1.1-.5 1.1-1.1 0-.6-.5-1.1-1.1-1.1-.7.1-1.1.5-1.1 1.1zm6.4-2.3v.6c.4-.5.8-.7 1.5-.7.6 0 1 .2 1.3.5.3.3.4.6.4 1.3v3h-1.6v-2.3c0-.5 0-.6-.1-.7-.1-.2-.4-.4-.7-.4-.5 0-.9.3-.9 1v2.3h-1.6v-4.6h1.7zm7.7 1.5c-.3-.2-.6-.3-.9-.3-.6 0-1.1.5-1.1 1.1 0 .7.5 1.1 1.1 1.1.3 0 .6-.1.8-.3v1.4c-.4.2-.7.3-1.2.3-1.4 0-2.5-1.1-2.5-2.4 0-1.4 1.1-2.5 2.6-2.5.4 0 .7.1 1.1.3v1.3zm6.2-1.5v4.6h-1.6v-.5c-.4.5-.8.7-1.4.7-1.3 0-2.3-1.1-2.3-2.5s1-2.5 2.3-2.5c.6 0 1 .2 1.4.6v-.5h1.6v.1zm-3.7 2.3c0 .6.5 1.1 1.1 1.1.6 0 1.1-.5 1.1-1.1 0-.6-.5-1.1-1.1-1.1-.7.1-1.1.5-1.1 1.1zm5.6-4.5h1.8l1.4 3.6 1.5-3.6h1.8l1 6.8h-1.8l-.5-3.9-1.7 3.9h-.7l-1.6-3.9-.6 3.9h-1.8l1.2-6.8zm13.4 2.2v4.6h-1.6v-.5c-.4.5-.8.7-1.4.7-1.3 0-2.3-1.1-2.3-2.5s1-2.5 2.3-2.5c.6 0 1 .2 1.4.6v-.5h1.6zm-3.7 2.3c0 .6.5 1.1 1.1 1.1.6 0 1.1-.5 1.1-1.1 0-.6-.5-1.1-1.1-1.1-.7.1-1.1.5-1.1 1.1zm6.4-2.3v.8c.4-.6.8-.8 1.5-.8h.3v1.5c-.3-.1-.4-.2-.7-.2-.8 0-1.1.4-1.1 1.3v2h-1.6v-4.6h1.6zm5.9 1.5c-.3-.2-.6-.3-.9-.3-.6 0-1.1.5-1.1 1.1 0 .7.5 1.1 1.1 1.1.3 0 .6-.1.8-.3v1.4c-.4.2-.7.3-1.2.3-1.4 0-2.5-1.1-2.5-2.4 0-1.4 1.1-2.5 2.6-2.5.4 0 .7.1 1.1.3v1.3zm2.5-3.7v2.8c.4-.5.8-.7 1.5-.7.6 0 1 .2 1.3.5.3.3.4.6.4 1.3v3h-1.6v-2.3c0-.5 0-.6-.1-.7-.1-.2-.4-.4-.7-.4-.5 0-.9.3-.9 1v2.3h-1.6v-6.8h1.7zm-52 1.4h-.5v1.3h.5c.5 0 .8-.2.8-.7 0-.4-.3-.6-.8-.6zm1 2.7c-.2-.1-.4-.1-.9-.1h-.5v1.5h.5c.9 0 1.3-.2 1.3-.7-.1-.3-.2-.5-.4-.7z" fill="#565957"/><path d="M7 .044l-2.1 5.2-2.1-5.2H7zm-2.8 9.7l-2.1-5.2-2.1 5.2h4.2zm5.6 0l-2.1-5.2-2.1 5.2h4.2z" fill="#087"/></svg>