<svg width="23" height="10" viewBox="0 0 23 10" xmlns="http://www.w3.org/2000/svg"><g fill="none" fill-rule="evenodd"><path d="M3.184 6.425h.788c1.182 0 1.78.393 1.78 1.164 0 1.004-1.118 1.165-1.78 1.165-.253 0-.535-.045-.788-.103V6.425zm.788-.714h-.788V3.545c.172-.03.393-.06.583-.06.676 0 1.67.293 1.67 1.107 0 .771-.756 1.12-1.465 1.12zm1.86.263c.6-.32.945-.786.945-1.324 0-.844-.519-1.834-2.947-1.834H.975v.524h.378c.426 0 .539.175.539.786v5.281H4.13c2.49 0 3.01-1.019 3.01-1.875 0-.817-.426-1.325-1.307-1.558zM11.602 7.516l-2.349-4.7H7.976v6.591h.772V4.635l2.381 4.772h.426l2.286-4.67v4.7h1.277v-6.62h-1.214l-2.302 4.7M21.583 2.816v4.395l-3.28-3.768c-.378-.42-.866-.627-1.53-.627h-.851v.524h.285c.536 0 .741.218.741.786v5.281h.771v-4.67l4.165 4.758h.455V2.816h-.756" fill="#313430"/><path d="M3.482 2.133c2.539 0 2.87.699 2.87.699s.017-1.73-2.758-1.73c-2.256 0-3.06-1.12-3.06-1.12s.394 2.15 2.948 2.15" fill="#D41E78"/></g></svg>