<svg width="40" height="11" viewBox="0 0 40 11" xmlns="http://www.w3.org/2000/svg"><path d="M6.126 4.353c.397-.43.58-.877.58-1.422C6.706 1.525 5.48.516 3.379.516 2.519.516 1.406.692.5.963v9.21l1.285-.53c.728.38 1.726.596 2.604.596 2.597 0 3.94-1.208 3.94-3.042 0-1.472-.813-2.531-2.203-2.844zm-1.82 4.513c-.794 0-1.54-.183-2.152-.514V2.055a4.29 4.29 0 0 1 1.225-.183c1.242 0 1.721.679 1.721 1.39 0 .594-.364 1.255-1.158 1.834 1.906.118 2.665.794 2.665 1.951 0 1.125-.746 1.819-2.3 1.819zm26.145 1.19h1.589v-7.87h-1.59v7.87zm6.206-8.019c-.91 0-1.954.232-2.98.745l.365 1.322c.909-.48 1.753-.694 2.415-.694 1.077 0 1.605.446 1.622 1.455-2.117.183-3.457.645-4.203 1.34-.512.48-.727 1.091-.727 1.784 0 1.142.925 2.25 2.978 2.25.777 0 1.555-.182 2.233-.596l1.307.53V4.716c0-1.686-1.009-2.679-3.01-2.679zm1.422 6.383c-.579.38-1.175.513-1.737.513-.96 0-1.539-.431-1.539-1.076 0-.793.594-1.472 3.276-1.752V8.42zM27.457 2.186l-3.41 3.936 3.342 3.935h2.02l-3.36-3.969 3.408-3.902h-2zm-6.422-.149c-.81 0-1.688.215-2.581.712l-1.307-.645v7.953h1.588V4.07c.679-.414 1.325-.579 1.902-.579.481 0 .879.132 1.093.347.248.248.365.596.365 1.24v4.977h1.588v-5.39c0-.86-.231-1.471-.645-1.901-.448-.463-1.158-.728-2.003-.728zm-8.504 0c-.91 0-1.954.232-2.98.745l.365 1.322c.91-.48 1.754-.694 2.416-.694 1.076 0 1.605.446 1.622 1.455-2.118.183-3.459.645-4.203 1.34-.514.48-.73 1.091-.73 1.784 0 1.142.928 2.25 2.98 2.25.778 0 1.555-.182 2.233-.596l1.308.53V4.716c0-1.686-1.01-2.679-3.011-2.679zm1.423 6.383c-.58.38-1.175.513-1.738.513-.96 0-1.539-.431-1.539-1.076 0-.793.596-1.472 3.277-1.752V8.42z" fill="#BCC72F" fill-rule="evenodd"/></svg>