<svg width="44" height="11" viewBox="0 0 44 11" xmlns="http://www.w3.org/2000/svg"><g fill="none" fill-rule="evenodd"><path d="M9.206 7.386a4.165 4.165 0 0 1-3.702 2.263A4.167 4.167 0 0 1 1.34 5.487a4.167 4.167 0 0 1 4.163-4.163c1.637 0 3.057.952 3.735 2.33.188-.152.399-.276.627-.366A4.891 4.891 0 0 0 5.504.6 4.893 4.893 0 0 0 .616 5.487a4.892 4.892 0 0 0 4.888 4.887 4.893 4.893 0 0 0 4.322-2.61 2.452 2.452 0 0 1-.62-.378" fill="#1B8FC2"/><path d="M10.852 6.523c.453 0 .72-.176.917-.34l.619.62c-.32.339-.784.587-1.516.587-1.228 0-2.01-.784-2.01-1.857 0-1.072.835-1.856 1.907-1.856 1.238 0 1.939.98 1.856 2.207H9.934c.103.392.402.64.918.64m.69-1.361c-.072-.362-.33-.62-.773-.62-.423 0-.722.217-.825.62h1.599M19.145 5.533c0-1.072.846-1.856 1.928-1.856 1.082 0 1.929.784 1.929 1.856 0 1.073-.847 1.857-1.929 1.857s-1.928-.784-1.928-1.857m2.795 0c0-.567-.331-.98-.867-.98s-.866.413-.866.98.33.98.866.98.867-.413.867-.98M24.994 5.533c0-1.072.722-1.856 1.64-1.856.536 0 .876.186 1.072.495v-.403h1.032v3.528h-1.032v-.403c-.196.31-.536.496-1.073.496-.917 0-1.639-.784-1.639-1.857m2.733 0c0-.577-.299-.949-.825-.949s-.846.372-.846.95c0 .577.32.948.846.948s.825-.37.825-.949M2.604 3.77c.14.24.222.522.222.82v2.706h1.032V5.4c0-.527.227-.794.69-.794.434 0 .568.236.568.639v2.051h1.031V5.4c0-.527.228-.794.691-.794.433 0 .568.236.568.639v2.051h1.031V5.142c0-.888-.495-1.465-1.31-1.465-.566 0-.98.186-1.278.598-.196-.392-.527-.598-1-.598-.433 0-.774.155-.99.495v-.403H2.603M15.71 1.81h-.222c.14.24.221.52.221.819v1.543c-.196-.31-.557-.495-1.093-.495-.917 0-1.66.785-1.66 1.856 0 1.073.743 1.857 1.66 1.857.536 0 .897-.186 1.093-.496v.403h1.032V1.809h-1.03zm-.825 4.672c-.526 0-.867-.371-.867-.949 0-.577.34-.949.867-.949.526 0 .845.372.845.95 0 .577-.32.948-.845.948zM18.092 3.108c.35 0 .65-.278.65-.65 0-.37-.3-.649-.65-.649-.34 0-.65.279-.65.65s.31.65.65.65M17.579 3.77h-.224c.136.235.216.506.221.796v2.73h1.032V3.77h-1.03M23.5 1.81h-.223c.135.232.214.5.22.786v4.701h1.032V1.809H23.5M31.647 3.677c-.496 0-.878.165-1.105.546V3.77h-1.254c.14.242.221.522.222.82l.002.002v2.706h1.03V5.4c0-.527.279-.795.774-.795.423 0 .63.237.63.63v2.062h1.03V5.163c0-.94-.546-1.486-1.33-1.486M35.714 3.77c.14.24.221.521.222.82h.001v1.098c0 .536-.196.804-.67.804-.475 0-.67-.268-.67-.804V3.77h-1.255c.14.242.22.522.222.82v1.13c0 1.052.568 1.67 1.662 1.67 1.092 0 1.742-.618 1.742-1.67v-1.95h-1.254M37.57 3.77c.14.24.221.522.222.82l.001.001v2.705h1.03V5.4c0-.527.228-.794.692-.794.434 0 .567.236.567.639v2.051h1.031V5.4c0-.527.227-.794.69-.794.434 0 .569.236.569.639v2.051h1.03V5.142c0-.888-.495-1.465-1.309-1.465-.567 0-.98.186-1.279.598-.195-.392-.526-.598-1-.598-.433 0-.774.155-.99.495v-.403H37.57M35.67 2.18c.114-.053.182-.186.182-.311 0-.253-.2-.456-.508-.456h-.9c.083.065.156.187.156.375v1.278h.747c.354 0 .594-.19.594-.476a.472.472 0 0 0-.271-.41zm-.719-.434h.393c.1 0 .165.068.165.154 0 .09-.089.164-.195.164h-.363v-.318zm.422.987h-.422v-.354h.396c.156 0 .25.057.25.18 0 .12-.083.174-.224.174zM36.588 1.413c.076.055.115.185.076.313l-.576 1.34h.377l.173-.416h.624l.17.416h.377l-.703-1.653h-.518zm.18.916l.185-.448.179.448h-.364zM39.215 1.788v.669l-.924-1.044h-.4c.077.06.15.188.15.375v1.278h.351V2.028l.924 1.038h.25V1.413h-.507c.08.065.156.188.156.375M40.696 2.754a.513.513 0 1 1 0-1.028c.074 0 .143.016.208.042.095.045.15.143.134.246l.101-.08.273-.224a.938.938 0 0 0-.716-.328c-.496 0-.888.377-.888.856 0 .481.392.86.888.86.32 0 .57-.13.73-.334l-.287-.226a.567.567 0 0 1-.443.216M42.507 1.382c-.502 0-.899.377-.899.856 0 .482.397.86.899.86.503 0 .896-.378.896-.86 0-.48-.393-.856-.896-.856m.533.856a.517.517 0 0 1-.533.512.518.518 0 0 1-.535-.512c0-.285.235-.509.535-.509.3 0 .533.224.533.509" fill="#212B4E"/></g></svg>