<svg version="1.1" id="Capa_1" xmlns="http://www.w3.org/2000/svg" x="0" y="0" viewBox="0 0 32.2 10" xml:space="preserve"><style>.st0{fill:#043263}</style><g id="logos"><g id="Artboard" transform="translate(-135 -19)"><g id="BBVA" transform="translate(135.722 19.493)"><g id="Shape"><path class="st0" d="M28.4.5c-.3-.8-.5-1-1.2-1h-1.9l-3.1 10h1.6l.7-2.2h3.6l.7 2.2h2.7l-3.1-9zm-3.5 5.4l1.4-4.6 1.4 4.6h-2.8zM11.4 3.9l.8-1.2c.2-.3.3-.5.3-.7 0-.6-.5-1.1-1.2-1.1H10v7.4h.7c1.2 0 2.1-.6 2.1-2.1.1-1.4-.5-2.1-1.4-2.3zm.5 5.6H7.7v-10H12c2 0 2.8 1.7 1.7 3.2l-.5.7c3.5 1.8 2.4 6.1-1.3 6.1z"/><path class="st0" d="M3 3.9l.8-1.2c.2-.4.3-.5.3-.8 0-.6-.5-1.1-1.2-1.1H1.6v7.4h.7c1.2 0 2.1-.6 2.1-2.1 0-1.3-.6-2-1.4-2.2zm.5 5.6H-.7v-10h4.4c2 0 2.8 1.7 1.7 3.2l-.5.7c3.4 1.8 2.3 6.1-1.4 6.1zM21.9-.5h1.6l-3 10h-2.4l-3.3-10h1.8c.7 0 .9.2 1.2 1.3l1.9 6.3 2.2-7.6"/></g></g></g></g></svg>