<svg width="32" height="11" viewBox="0 0 32 11" xmlns="http://www.w3.org/2000/svg"><g fill-rule="nonzero" fill="none"><path d="M22.845 8.715c-.022-.066-.028-.174-.028-.381v-.57c0-.379-.218-.525-.579-.525a.967.967 0 0 0-.57.158l.12.229a.72.72 0 0 1 .376-.107c.154 0 .277.07.277.244V7.8l-.259.01c-.372.011-.61.173-.61.472 0 .284.21.464.478.464a.606.606 0 0 0 .422-.159l.062.128h.311zm-.404-.35a.385.385 0 0 1-.262.091c-.154 0-.237-.082-.237-.201 0-.122.09-.19.29-.196l.21-.006v.311zm1.313.381c-.475 0-.718-.339-.718-.745 0-.439.32-.763.755-.763.197 0 .333.05.416.101l-.006.3a.58.58 0 0 0-.367-.12c-.25 0-.428.195-.428.464 0 .247.136.467.425.467a.664.664 0 0 0 .345-.1l.093.24a.974.974 0 0 1-.515.156zm1.313 0c-.475 0-.718-.339-.718-.745 0-.439.32-.763.755-.763a.78.78 0 0 1 .416.101l-.006.3a.581.581 0 0 0-.367-.12c-.25 0-.428.195-.428.464 0 .247.135.467.425.467a.662.662 0 0 0 .345-.1l.092.24a.975.975 0 0 1-.514.156zm.74-.03h.37V7.272h-.37v1.444zm.185-1.666a.224.224 0 0 1-.228-.224c0-.119.102-.22.228-.22.13 0 .232.099.232.22a.227.227 0 0 1-.232.223zm1.87.94a.776.776 0 0 0-.194-.544.73.73 0 0 0-.536-.208.716.716 0 0 0-.518.205.78.78 0 0 0-.213.559c0 .232.08.43.225.564.126.116.299.18.502.18a.718.718 0 0 0 .527-.208.759.759 0 0 0 .207-.549zm-.38.002c0 .272-.116.47-.347.47-.226 0-.358-.19-.358-.47 0-.268.114-.464.348-.464.228 0 .358.186.358.464zm1.554.723v-.848c0-.15-.028-.314-.216-.314-.13 0-.256.067-.37.152v1.01h-.37V7.272h.315l.04.155a.831.831 0 0 1 .511-.188c.222 0 .46.13.46.518v.958h-.37zm1.849 0c-.022-.066-.028-.174-.028-.381v-.57c0-.379-.219-.525-.58-.525a.965.965 0 0 0-.57.158l.12.229a.721.721 0 0 1 .377-.107c.154 0 .277.07.277.244V7.8l-.259.01c-.373.011-.61.173-.61.472 0 .284.21.464.478.464a.605.605 0 0 0 .422-.159l.062.128h.31zm-.404-.35a.385.385 0 0 1-.262.091c-.154 0-.237-.082-.237-.201 0-.122.089-.19.29-.196l.209-.006v.311z" fill="#1D1C1B"/><path d="M20.941 8.049a14.367 14.367 0 0 1-.076-.32 4.488 4.488 0 0 1-.093-.577c-.004-.054-.006-.104-.008-.155-.01-.2-.003-.401.023-.6.019-.145.049-.267.072-.372a2.352 2.352 0 0 1-.07.052 3.663 3.663 0 0 0-.142.633c-.11-.044-.214-.1-.313-.165l.003.15c.092.076.19.144.29.205-.02.254-.017.51.01.763a2.16 2.16 0 0 1-.62-.271l.002.15c.197.16.417.292.651.39.031.216.07.43.107.648-.287-.039-.674-.142-.975-.344l.003.15c.318.263.713.444 1.02.505.062.452.089.928-.023 1.475l.358-.208c.139-.774-.056-1.456-.219-2.109" fill="#E63229"/><path d="M21.982 5.996l-.001-.104-.104-.016c-.2-.03-.587-.128-.922-.45l-.09-.086-.091.087c-.335.321-.722.42-.922.45l-.104.015-.009.104c-.049.629-.385.939-.58 1.068l-.077.051.022.089c.037.15.055.272.055.375.002.261-.08.517-.23.73 0 0-.033.044-.045.063l.032.069c.299.625 1.17 1.073 1.631 1.081l-.008-.078c-.35-.014-1.361-.592-1.34-1.044v-.028c.148-.238.225-.513.224-.793 0-.088-.013-.194-.042-.332l-.003-.017.013-.01c.227-.176.514-.506.594-1.084l.003-.019.019-.004c.308-.066.596-.204.84-.403l.018-.022.017.022c.246.2.536.34.846.408.033.404.274.583.476.662l.074-.062c-.082-.058-.292-.25-.296-.722" fill="#E63229"/><path d="M30.316 1.885a.586.586 0 0 1-.599.606h-.364V1.344h.37c.358 0 .593.232.593.54zm1.476 2.899C31.16 3.7 30.764 3.006 30.53 2.87v-.007c.377-.174.761-.548.761-1.089 0-.663-.416-1.237-1.593-1.237h-1.34v4.246h.995V3.192h.3c.143.058.37.484 1.014 1.592h1.125zm-4.064 0V3.99H26.16V3.02h1.346v-.8H26.16v-.888h1.34l.24-.792h-2.574v4.245h2.562zM24.73.544h-1.015l-.91 2.146c-.11.258-.209.52-.3.786h-.012a19.857 19.857 0 0 0-.3-.818L21.374.545h-1.092l1.775 4.271h.761L24.73.545zm-4.884 4.24V.538h-.988v1.965c0 .168 0 .477.013.696h-.013a9.564 9.564 0 0 0-.384-.515L16.751.538h-.995v4.246h.988V2.626c0-.18 0-.464-.02-.606h.014c.143.187.267.354.403.528l1.782 2.236h.923zm-5.865 0h.995V.538h-.995v4.246zM13.558.538H9.956v.793h1.255v3.453h1.008V1.33h1.131l.208-.793zM9.676 3.553c0-1.346-1.827-1.269-1.827-1.945 0-.206.214-.342.513-.342.351 0 .644.116 1.04.316l.02-.825A2.364 2.364 0 0 0 8.304.493c-.982 0-1.509.593-1.509 1.244 0 .328.104.567.267.754.514.592 1.56.676 1.56 1.185 0 .29-.324.393-.617.393-.377 0-.703-.148-.989-.342l-.377.702c.325.213.78.42 1.418.42.897 0 1.62-.49 1.62-1.296h-.001zm-3.479 1.23v-.792H4.63v-.973h1.346V2.22H4.63V1.33h1.34l.24-.793H3.635v4.246h2.562zm-4.11-1.3c0 .34-.208.502-.683.502h-.41v-.947h.437c.435 0 .656.16.656.444zM1.814 1.8c0 .232-.195.438-.416.438H.995v-.895h.273c.37 0 .546.206.546.457zm1.268 1.688c0-.464-.266-.883-.787-1.024v-.007a.963.963 0 0 0 .488-.844c0-.534-.436-1.076-1.313-1.076H0v4.246h1.548c1.027 0 1.534-.67 1.534-1.295z" fill="#1D1C1B"/></g></svg>