<svg width="76" height="11" viewBox="0 0 76 11" xmlns="http://www.w3.org/2000/svg"><g fill="none" fill-rule="evenodd"><path d="M4.776 7.23v.529c-.428-.113-.678-.432-.678-.887h.47c0 .194.042.285.208.358zm-.208-1.065v-.528h-.476v.568c-.243.033-.432.08-.525.129v.15c.174.095.65.164 1.21.181v-.514c-.071.01-.14.01-.21.014zM5.179 7.8a.956.956 0 0 0 .89-.976v-.21c.243-.034.436-.077.533-.13v-.145c-.109-.056-.275-.1-.533-.133v-.568h-.477v1.126c0 .306-.17.473-.413.5v-.598h.131v-.514h-.13v-.439h-.204v2.35h.203V7.8zm-.433-3.882v.307l-.514.193a.135.135 0 0 1 .005.045.557.557 0 0 1-.552.553.55.55 0 1 1 0-1.102.56.56 0 0 1 .455.23l.606-.226zm.545-.029l.564.179-.086.27-.475-.146.002.816.269-.534.147.063-.456.915h-.341V3.888h.376zm-.429-.407a.438.438 0 0 1 .222-.053c.077 0 .155.021.207.053v.201l-.429-.004v-.197zm1.069.979a.552.552 0 1 1 1.104-.003.552.552 0 0 1-1.104.003zm-1.494.154l.166-.078.143.183v.275l-.309-.38zM4.78 1.87c0-.597.086-.786.174-1.09h.243c.113.304.181.493.181 1.09H4.78zm-1.061.626c.397-.13.835-.195 1.373-.195.496 0 .988.065 1.363.202l-.185.347a5.222 5.222 0 0 0-1.178-.144c-.456 0-.832.04-1.192.141l-.181-.35zm3.448-.961l-.404.63-.465-.154c.304-.41.582-.532.726-.604l.143.128zm-3.12.44c-.114-.515-.073-.702-.048-.98l.21-.04c.153.238.25.407.358.92l-.52.1zm-1.041-.44l.398.63.47-.154c-.304-.41-.578-.532-.727-.604l-.141.128zm3.103.44c.112-.515.072-.702.048-.98l-.21-.04c-.154.238-.25.407-.359.92l.52.1zM5.084 9.684l-.415-.415.415-.416.418.416-.418.415zm1.925-6.749c.005.14.053.258.153.386.203.262.546.364.791.211-.148-.255-.249-.42-.482-.617a1.589 1.589 0 0 0-.462.02zm.646-.212c.025-.178.048-.315.053-.444a.75.75 0 0 1 .407.253c.201.263.219.616.042.836-.15-.253-.27-.447-.505-.645h.003zm.367 1.394a.626.626 0 0 0-.032.415c.067.323.33.564.619.535-.023-.295-.04-.488-.164-.766a1.566 1.566 0 0 0-.423-.184zm.677.11c.1-.149.183-.26.242-.375.115.096.215.231.255.406.066.325-.073.651-.329.771-.022-.294-.046-.52-.17-.801h.002zm-.46 1.358a.628.628 0 0 0-.111.4c.004.333.216.617.506.645.032-.293.052-.486-.016-.784a1.65 1.65 0 0 0-.38-.261zm.624.221c.126-.127.229-.222.309-.322a.73.73 0 0 1 .172.447c.005.33-.195.625-.47.693.034-.292.055-.52-.013-.818h.002zm-.92 1.183a.621.621 0 0 0-.307.281c-.172.282-.143.638.087.812.185-.229.303-.383.403-.672a1.63 1.63 0 0 0-.184-.42zm.43.51c.174-.041.31-.068.432-.112.017.15 0 .317-.092.473-.172.282-.495.425-.764.338.183-.23.321-.413.421-.701l.002.001zm-1.455.654a.638.638 0 0 0-.41.077c-.296.147-.46.465-.356.736.278-.098.459-.165.697-.356.037-.13.07-.292.069-.457zm.071.672c.169.057.3.107.424.135a.736.736 0 0 1-.327.352c-.295.146-.646.097-.827-.119.277-.098.491-.18.728-.371l.002.003zm-3.83-5.89a.63.63 0 0 1-.152.386c-.202.262-.545.364-.791.211.149-.255.251-.42.483-.617.135-.013.299-.013.46.02zm-.643-.212c-.026-.178-.049-.315-.054-.444a.749.749 0 0 0-.408.253c-.2.263-.218.616-.042.836.15-.253.27-.447.505-.645h-.001zm-.37 1.394c.06.127.067.255.033.415-.067.323-.33.564-.619.535.022-.295.04-.488.165-.766a1.57 1.57 0 0 1 .421-.184zm-.676.11c-.1-.149-.182-.26-.241-.375a.739.739 0 0 0-.255.406c-.067.325.072.651.328.771.023-.294.046-.52.17-.801H1.47zm.46 1.358c.082.114.114.238.11.4-.003.333-.215.617-.504.645-.033-.293-.053-.486.016-.784.097-.09.23-.19.379-.261zm-.624.221c-.126-.127-.228-.222-.309-.322a.744.744 0 0 0-.172.447c-.003.33.196.625.47.693-.034-.292-.054-.52.014-.818h-.003zm.921 1.183c.13.054.222.141.306.281.173.282.143.638-.087.812-.184-.229-.301-.383-.404-.672.037-.128.097-.283.185-.42zm-.43.51c-.175-.041-.31-.068-.433-.112-.018.15 0 .317.09.473.173.282.498.425.766.338-.183-.23-.321-.413-.421-.701l-.001.001zm1.455.654a.636.636 0 0 1 .409.077c.295.147.46.465.357.736-.279-.098-.459-.165-.7-.356a1.737 1.737 0 0 1-.066-.457zm-.072.672c-.168.057-.3.107-.424.135a.75.75 0 0 0 .326.352c.297.146.647.097.83-.119-.279-.098-.492-.18-.731-.371v.003z" fill="#DE983B"/><path d="M40.589 7.822l.542-3.955c-.155.029-.322.064-.478.093l.037-.231c.663-.24 1.207-.407 1.778-.674l-.386 2.583c.295-.775.969-2.352 2.001-2.352.48 0 .599.267.599.702 0 .635-.452 2.553-.452 2.922 0 .147.101.212.194.212.129 0 .276-.101.396-.176l.138.185c-.351.283-.977.691-1.437.691-.397 0-.49-.378-.49-.655 0-.423.288-1.88.371-2.36.026-.166.082-.359.082-.488a.142.142 0 0 0-.15-.148c-.496 0-1.566 2.95-1.732 3.503l-1.013.148zm12.806-1.55l.148.185c-.423.627-1.153 1.365-1.954 1.365-.97 0-1.559-.644-1.559-1.604 0-1.53 1.576-2.932 2.922-2.932.452 0 .885.23.885.784 0 1.17-1.613 1.834-2.58 2.038a.685.685 0 0 0-.028.212c0 .211.072.858.802.858.572 0 1.014-.518 1.364-.905zm-1.033-1.889c0-.35-.203-.452-.535-.452-.156 0-.23.038-.313.129-.258.295-.517 1.31-.59 1.698.523-.114 1.438-.794 1.438-1.375zm1.53 3.44l.544-3.956c-.157.029-.323.064-.48.093l.038-.231c.663-.24 1.207-.407 1.778-.674l-.386 2.583c.295-.775.968-2.352 2.001-2.352.48 0 .6.267.6.702 0 .635-.453 2.553-.453 2.922 0 .147.102.212.194.212.128 0 .277-.101.395-.176l.14.185c-.35.283-.978.691-1.439.691-.398 0-.49-.378-.49-.655 0-.423.287-1.88.37-2.36.027-.166.083-.359.083-.488 0-.082-.056-.148-.146-.148-.499 0-1.568 2.95-1.734 3.503l-1.015.148zm6.734-.913l.129.185c-.35.294-.903.727-1.392.727-.387 0-.498-.332-.498-.655 0-.488.314-2.396.415-3.3-.157.029-.322.064-.48.093l.037-.231c.664-.24 1.208-.407 1.78-.674l-.119.693c-.092.524-.433 3.061-.433 3.18 0 .129.064.194.183.194.102 0 .295-.149.378-.212zm-1.143-4.702c0-.434.267-.959.774-.959.443 0 .59.24.59.543 0 .516-.331 1.042-.829 1.042-.34 0-.535-.341-.535-.626zm5.013 4.065l.147.184c-.424.627-1.152 1.365-1.953 1.365-.968 0-1.56-.644-1.56-1.604 0-1.53 1.577-2.932 2.925-2.932.451 0 .885.23.885.784 0 1.17-1.614 1.834-2.583 2.038a.738.738 0 0 0-.028.212c0 .211.074.858.803.858.573 0 1.015-.518 1.364-.905zm-.645-1.89c0-.35-.202-.452-.533-.452-.158 0-.232.038-.315.129-.258.295-.516 1.31-.59 1.698.527-.114 1.438-.794 1.438-1.375zm5.03-1.097l-.284 1.198c-.131-.027-.259-.054-.389-.054-1.014 0-1.529 2.637-1.714 3.244l-1.1.148.547-3.955c-.157.029-.324.064-.48.093l.037-.231c.665-.24 1.208-.407 1.779-.674l-.396 2.362c.515-1.33.766-2.13 1.558-2.13h.442zm-.284 2.971c0-1.7 1.253-2.97 2.304-2.97.977 0 1.291.71 1.291 1.576 0 1.208-.967 2.96-2.324 2.96-.921 0-1.271-.74-1.271-1.566zm1.199.063c0 .414.063.968.506.968.091 0 .175-.038.241-.139.137-.23.45-2.258.45-2.637 0-.313-.092-.69-.433-.69-.139 0-.25.109-.306.238-.22.563-.458 1.79-.458 2.26zm2.587 1.189l.238-1.126c.508.351 1.024.628 1.652.628.203 0 .47-.091.47-.321 0-.224-.564-.427-.987-.582C72.99 5.822 72.64 5.61 72.64 5c0-.959 1.116-1.715 2.083-1.715.315 0 .572.064.832.174l-.25 1.097c-.443-.21-.969-.386-1.457-.386-.13 0-.508.028-.508.259 0 .193.378.34 1.025.618.544.24 1.078.48 1.078 1.013 0 1.124-1.014 1.761-1.955 1.761-.394 0-.876-.139-1.105-.313zm-52.337-.557l.13.148c-.23.22-.766.73-1.245.73-.488 0-.58-.325-.58-.915 0-.191.055-.728.092-.957-.278.68-.738 1.872-1.613 1.872-.756 0-.866-.796-.866-1.403 0-1.503 1.364-3.134 2.903-3.134.194 0 .414.055.628.1l.377-.22-.12.84c-.065.422-.312 2.23-.312 2.782 0 .167.036.332.23.332.136 0 .265-.11.376-.175zm-1.63-3.07c-.554 0-.729.24-.951.986-.22.766-.304 1.32-.304 1.845 0 .202.047.414.184.414.508 0 1.319-2.526 1.319-3.17 0-.056-.129-.074-.248-.074zm8.353 3.05l.128.148c-.23.221-.765.728-1.246.728-.487 0-.58-.322-.58-.913 0-.193.056-.729.093-.959-.277.682-.738 1.872-1.614 1.872-.756 0-.867-.791-.867-1.403 0-1.5 1.365-3.133 2.905-3.133.194 0 .415.054.626.101l.38-.221-.121.84c-.065.423-.314 2.23-.314 2.784 0 .165.037.332.23.332.139 0 .268-.112.38-.176zm-1.633-3.07c-.553 0-.729.24-.95.987-.22.765-.304 1.317-.304 1.844 0 .202.045.415.184.415.507 0 1.318-2.526 1.318-3.173 0-.055-.128-.073-.248-.073zm-9.582 2.427l-.102.986c-.573.433-1.393.61-1.927.61-1.992 0-3.117-1.533-3.117-3.1 0-1.603 1.125-3.152 3.282-3.152.756 0 1.32.145 1.531.229 0 .628.01 1.228.055 1.826h-.174c-.148-.764-.748-1.171-1.522-1.171-1.052 0-1.863.821-1.863 2.205 0 1.04.867 2.223 2.085 2.223.515 0 1.253-.241 1.752-.656zm16.634.487l.138.137c-.342.37-.877.895-1.41.895-.49 0-.49-.563-.49-.895 0-.451.02-.774.056-1.106-.167.646-.691 2.001-1.541 2.001-.673 0-.902-.802-.902-1.383 0-1.705 1.235-3.153 2.6-3.153h.146c.056-.59.139-1.171.24-1.76-.21.036-.414.064-.628.1l.04-.23c.653-.203 1.317-.39 1.963-.636-.074.323-.139.636-.195.958-.147.867-.69 4.471-.69 5.117 0 .12.036.287.138.287.185 0 .397-.232.535-.332zm-2.95-.194c0 .12.018.526.22.526.507 0 1.245-2.693 1.245-3.246 0-.038-.02-.056-.12-.056-.59 0-.674.102-.847.434-.324.618-.499 1.733-.499 2.342zM35.26 4.37c0-.35-.202-.453-.533-.453-.159 0-.232.038-.315.129-.258.297-.515 1.31-.59 1.699.526-.113 1.438-.795 1.438-1.375zm.646 1.89l.146.184c-.423.629-1.15 1.365-1.952 1.365-.969 0-1.56-.645-1.56-1.604 0-1.532 1.578-2.932 2.923-2.932.453 0 .886.23.886.783 0 1.172-1.615 1.836-2.582 2.039a.662.662 0 0 0-.028.21c0 .213.072.86.802.86.572 0 1.015-.516 1.365-.904zm2.229.908v-4.83c0-.26-.112-.379-.425-.388v-.175c.404.028.765.055 1.107.055.34 0 .7-.027 1.106-.055v.175c-.314.01-.423.129-.423.388v4.83c0 .259.11.378.423.387v.175c-.406-.026-.766-.055-1.106-.055-.342 0-.703.029-1.107.055v-.175c.313-.009.425-.128.425-.387zm8.407-.61c0 .196 0 .452.257.452.598 0 1.336-2.687 1.336-3.111 0-.046-.019-.074-.065-.074-.074 0-.617.045-.727.166-.369.386-.801 2.034-.801 2.567zm-1.198-.182c0-1.28 1.244-3.084 2.726-3.084.24 0 .507.064.783.174l.478-.295c-.274 1.777-.35 3.472-.533 4.024-.341 1.012-1.492 2.32-2.633 2.32-.304 0-.58-.091-.84-.193l.286-.93c.276.193.674.312 1.005.312.727 0 .93-.533 1.225-2.679-.222.645-.729 1.794-1.576 1.794-.534 0-.92-.633-.92-1.443zm-24.595.287l.068-.541.267-2.256c-.154.028-.321.063-.478.092l.037-.23c.664-.24 1.207-.407 1.777-.672l-.12.69c-.026.145-.048.29-.072.435l-.463 3.52c-.12.924-.331 1.516-1.146 2.256a2.77 2.77 0 0 1-.267.215l-.222-.112c.125-.246.217-.562.3-1.01.02-.11.034-.198.05-.29l.273-2.074-.004-.023zm.538-4.454c0 .287.194.626.536.626.496 0 .827-.524.827-1.04 0-.303-.147-.543-.59-.543-.506 0-.773.525-.773.957z" fill="#1B6596"/></g></svg>