<svg width="47" height="11" viewBox="0 0 47 11" xmlns="http://www.w3.org/2000/svg"><g fill="none" fill-rule="evenodd"><path d="M3.796 9.661c.039.072.01.04.09.078.373.175 1.82.293 2.17.293.716 0 1.664-.1 2.296-.328.047-.527.006-3.618.006-4.42 0-.678.15-1.517-.57-1.63a8.877 8.877 0 0 0-1.115-.006c-.346.042-.49.257-.592.547-.12-.267-.227-.477-.55-.537-.187-.035-.873-.027-1.084-.013a.667.667 0 0 0-.618.473c-.077.254-.033 5.033-.033 5.543" fill="#23848D"/><path d="M9.025 9.47c.51-.088 1.543-.775 2.027-1.122.093-.066.171-.136.26-.187a535.775 535.775 0 0 1 0-3.681c.001-.72-.322-.837-1.007-.836-.581 0-1.276-.036-1.843.007.536.242.563.331.563 1.022V9.47M3.113 9.46l-.001-4.754c0-.694.037-.832.572-1.055-.421-.032-.93-.007-1.36-.007C.594 3.644.825 3.62.825 6.282v1.352c0 .589-.094.454.508.894.221.162 1.473.935 1.779.931" fill="#76B9B9"/><path d="M5.887.473c-1.813.282-1.387 2.948.385 2.71A1.367 1.367 0 0 0 7.434 1.62C7.337.944 6.684.35 5.887.473" fill="#23848D"/><path d="M9.12.93c-1.515.202-1.195 2.447.302 2.246C10.873 2.981 10.603.732 9.12.93M2.7.94c-1.545.294-1.068 2.465.377 2.231a1.137 1.137 0 0 0 .919-1.326C3.9 1.302 3.353.815 2.7.939" fill="#76B9B9"/><path d="M31.192 3.791l-.004-.458-1.749-.007-.008 4.426 1.767.012c.056-.572.009-1.403.009-2.004 0-.623-.122-1.385.595-1.42.727-.037.59.809.59 1.42 0 .564-.054 1.483.01 2.003h1.755c.066-.518.01-1.44.01-2.003 0-.638-.12-1.387.589-1.42.722-.034.597.815.597 1.42 0 .6-.048 1.432.008 2.003h1.765c.034-.661.003-1.405.003-2.066 0-.654.064-1.295-.234-1.823-.252-.448-.742-.65-1.415-.65-.655-.002-1.078.19-1.51.578-.151-.146-.13-.277-.513-.45-.248-.111-.542-.138-.837-.127-.268.01-.573.066-.808.156-.435.167-.458.3-.62.41M37.98 3.802c.045.148.394.689.485.817.283-.174.446-.374.916-.448.467-.074.843.125.958.417-1.26.302-2.733.466-2.748 1.895-.008.701.429 1.193.975 1.342.359.097.655.01.949-.132.201-.096.596-.341.776-.393.023.578.048.463.718.463h1.195c-.045-.375-.134-.584-.135-1.028-.002-.388 0-.775 0-1.163 0-.371.018-.738-.066-1.089-.372-1.557-2.586-1.456-3.639-.894-.139.074-.252.165-.383.213M24.709 3.85c.137.168.385.685.499.77.124-.085.211-.178.376-.27.508-.283 1.204-.292 1.477.217l-.21.075c-1.125.27-2.51.456-2.534 1.84-.013.697.428 1.197.989 1.347.716.191 1.33-.427 1.714-.527l.068.46 1.849.001c-.203-1.156-.142-.979-.142-2.191 0-.793-.035-1.454-.5-1.864-1.006-.888-3.172-.391-3.586.142M17.362 3.838l.48.782c.563-.423 1.429-.785 1.876-.053-.449.287-2.718.19-2.745 1.916-.011.7.429 1.19.983 1.343.65.178 1.244-.326 1.72-.531l.063.463 1.85.006c-.051-.377-.137-.58-.138-1.03-.002-.551.043-1.799-.07-2.271-.073-.297-.277-.636-.43-.761-.887-.725-2.754-.586-3.589.136M21.471 9.468l-.014.502c1.758 0 2.375-.365 2.373-2.137 0-.545.037-4.306-.018-4.508h-1.737c-.062.233.004 4.353-.021 5.037-.027.734 0 .835-.583 1.106M16.768 7.52l-.43-.933c-1.975.679-2.119-1.55-1.254-2.088.489-.303 1.084-.012 1.321.009l.435-.883c-.18-.193-.92-.379-1.251-.399-1.328-.079-2.781.694-2.87 2.22-.095 1.661 1.273 2.439 2.684 2.42.355-.005 1.064-.12 1.365-.346M44.502 4.433l-.016-1.103-1.762-.004-.011 4.432 1.77.005c.085-1.07-.277-2.455.429-2.877.364-.217.613-.078.966-.042l.552-1.278c-.432-.401-1.245-.629-1.676.255-.092.188-.16.452-.252.612M22.047 2.855l.11.019 1.674-.004V1.142l-1.784.001v1.712" fill="#23848D"/><path d="M40.337 5.239c-.367.128-.64.208-.882.446-.532.522-.16 1.31.365 1.088.17-.072.261-.201.337-.357.154-.316.242-.776.18-1.177M19.731 5.25c-.281.038-.724.255-.908.444-.686.705.22 1.676.723.724.176-.335.185-.76.185-1.168M27.075 5.244c-.331.082-.737.255-.907.443-.679.753.224 1.66.711.742.18-.338.196-.76.196-1.185" fill="#FFFFFE"/></g></svg>