<svg version="1.1" id="Capa_1" xmlns="http://www.w3.org/2000/svg" x="0" y="0" viewBox="0 0 41 10" xml:space="preserve"><style>.st0{fill:#005bab}</style><g id="logos"><g id="Artboard" transform="translate(-421 -115)"><g id="pass" transform="translate(421 115)"><g id="Group"><g id="Logo_Carrefour"><path id="path15-9" class="st0" d="M4.4 0L.3 3.9c-.2.2-.3.4-.3.6 0 .3.1.5.3.7l4.1 3.9h.1s.1 0 .1-.1v-.1c-1-1.2-1.7-2.5-1.7-4.4 0-1.9.7-3.2 1.7-4.4V0h-.2c.1 0 0 0 0 0"/><path id="path17-4" class="st0" d="M7.8 0C6.1 0 5.5 2.3 5.5 5s.7 5 2.3 5c1 0 1.9-.6 1.9-1 0-.1 0-.2-.1-.3-.6-.5-.8-.9-.8-1.3 0-.7.7-1.3 1.3-1.3.8 0 1.3.6 1.3 1.5 0 .8-.3 1.5-.7 2v.1s0 .1.1.1h.1l4.3-4c.2-.2.3-.4.3-.7 0-.3-.1-.5-.3-.7l-4.3-4h-.1s-.1 0-.1.1v.1c.4.5.7 1.2.7 2s-.5 1.5-1.3 1.5c-.6 0-1.3-.6-1.3-1.3 0-.4.2-.8.7-1.3.1-.3.1-.4.1-.5 0-.4-.8-1-1.8-1"/></g><path id="PASS" class="st0" d="M18 2.1h3.1c.7 0 1.2.2 1.5.5s.5.8.5 1.4c0 .6-.2 1.1-.5 1.4-.4.3-.9.5-1.7.5h-1v2.2H18v-6zm1.9 2.6h.5c.4 0 .6-.1.8-.2.1-.1.2-.3.2-.5s-.1-.3-.2-.5c-.1-.1-.4-.2-.7-.2H20v1.4zM27 7.1h-2.1l-.3 1h-1.9l2.3-6h2l2.3 6h-1.9l-.4-1zm-.4-1.3L26 3.7l-.7 2.2h1.3zm2.9.3l1.8-.1c0 .3.1.5.2.7.2.2.5.3.8.3.3 0 .5 0 .7-.2s.2-.3.2-.4c0-.2-.1-.3-.2-.4-.1-.1-.5-.2-.9-.3-.8-.2-1.4-.4-1.7-.7-.3-.3-.5-.7-.5-1.2 0-.3.1-.6.3-.9s.4-.5.8-.6c.2-.2.7-.3 1.3-.3.8 0 1.3.1 1.8.4.4.3.6.7.7 1.4l-1.8.1c0-.3-.1-.5-.3-.6-.1-.1-.4-.2-.6-.2-.2 0-.4 0-.5.1-.1.1-.2.2-.2.3 0 .1 0 .2.1.3.1.1.3.2.6.2.9.2 1.5.4 1.9.6.4.2.6.4.8.7s.2.5.2.8c0 .4-.1.7-.3 1.1-.2.3-.5.6-.9.7-.4.2-.9.3-1.4.3-1 0-1.7-.2-2.1-.6s-.7-.9-.8-1.5zm6.1 0l1.7-.1c0 .3.1.5.2.7.3.2.5.3.9.3.2 0 .5 0 .6-.2s.2-.3.2-.4c0-.2-.1-.3-.2-.4-.1-.1-.5-.2-.9-.3-.8-.2-1.4-.4-1.7-.7-.3-.3-.5-.7-.5-1.2 0-.3.1-.6.3-.9.2-.3.4-.5.8-.6.2-.2.7-.3 1.3-.3.8 0 1.3.1 1.8.4s.6.7.7 1.4l-1.7.1c0-.3-.1-.5-.3-.6-.1-.1-.4-.2-.6-.2-.2 0-.4 0-.5.1-.1.1-.2.2-.2.3 0 .1 0 .2.1.3.1.1.3.2.6.2.8.2 1.4.4 1.7.5.4.2.6.4.8.7.2.3.3.6.3.9 0 .4-.1.7-.3 1.1-.2.3-.5.6-.9.7-.4.2-.9.3-1.4.3-1 0-1.7-.2-2.1-.6s-.7-.9-.7-1.5z"/></g></g></g></g></svg>