<svg width="54" height="10" viewBox="0 0 54 10" xmlns="http://www.w3.org/2000/svg"><g fill="none" fill-rule="evenodd"><path d="M4.05 5.386c.103.071.098.214.19.285l.047.315-.23.334c-.293.152-.73.218-1-.026-.154-.136-.195-.335-.154-.532l.108-.29c.06-.04.143-.05.184-.122.144-.09.328-.07.492-.106.123.04.308-.026.363.142" fill="#F5BC45"/><path d="M3.292 7.239c.093 0 .16.066.246.05.123.046.108.194.236.23.098.192.16.4.21.608-.036.122.067.192.031.304l.036.02a.87.87 0 0 1-.056.362c.02.212-.088.39-.18.573-.066.04-.098.158-.19.137-.163.05-.179.294-.38.263-.127.097-.301.04-.455.046-.086-.046-.21-.035-.27-.11a1.707 1.707 0 0 1-.426-.285c-.052-.112-.17-.162-.185-.29.046-.152-.051-.29-.01-.442l-.031-.253.097-.436c.164-.087.119-.285.282-.346.103-.233.349-.285.538-.401.072-.015.159.025.215-.041.103-.014.2.092.292.01" fill="#DF4E48"/><path d="M11.649.217c-.04.717-.636 1.2-.947 1.803-.134.36-.452.574-.677.898a5.956 5.956 0 0 0-.574.67c.031.167.21.214.313.336.23.137.256.395.455.553.118 0 .118.173.247.152.272.29.492.59.717.904a.662.662 0 0 0 .19.305c.179.258.328.533.512.796.026.294.277.492.353.766.114.148.16.32.263.467.158.346.266.706.454 1.036.036.077-.01.152-.05.208-.072.056-.129-.046-.21-.03-.42-.153-.82-.371-1.21-.604-.4-.32-.84-.548-1.235-.884-.153-.04-.214-.218-.358-.289-.38-.234-.682-.568-1.066-.786-.174-.133-.348-.259-.522-.397-.134-.015-.18-.167-.308-.213-.287-.173-.548-.411-.841-.573l-.025.141c-.194.189-.144.478-.282.686-.005.3-.215.518-.302.782-.24.427-.451.863-.702 1.284-.333.437-.513.965-.983 1.315-.103.127-.22.193-.35.274-.055-.015-.138-.005-.153-.076-.056-.107.015-.27-.061-.365.067-.148.025-.316.056-.478l-.025-.071c.005-.222.118-.411.071-.64.062-.142.087-.299.102-.456.073-.193.135-.401.155-.61a.735.735 0 0 0 .077-.421c.05-.132.06-.29.199-.385.02-.087 0-.174.015-.264.139-.417.308-.818.415-1.244l-.05-.046c-.303-.015-.585.046-.866-.03a7.174 7.174 0 0 1-1.369-.158c-.179-.035-.394-.015-.558-.116-.108.004-.231.024-.334-.031-.21-.102-.466-.086-.675-.197-.16.02-.272-.083-.416-.097-.138.01-.215-.107-.313-.183v-.046c.256-.345.667-.442 1.036-.573.364-.112.768-.122 1.147-.2.241-.039.503.027.743-.014.436.01.856.082 1.286.092.144.02.277.086.42.082l-.004-.062-.406-.548c-.152-.355-.434-.654-.532-1.031-.092-.112-.006-.278-.077-.4-.005-.057.04-.097.067-.142.087-.037.184.025.272-.031.26.06.502.152.763.202.271.108.548.214.789.391.302.214.666.351.901.68.062.057.16.067.241.046.072-.01.088-.096.154-.121.318-.199.676-.31.989-.527.128-.128.333-.144.41-.316.097-.045.184-.106.287-.132.18-.126.359-.264.552-.365.105-.01.186-.066.268-.122.318-.172.65-.315.952-.513.068-.177.268-.137.41-.177.072.015.17.004.2.095" fill="#0099CB"/><path d="M14.36 9.797v.108h39.3V9.69h-39.3v.108zM53.66 8.024c-.286-.083-.628-.375-.75-.515l-1.436-1.623.73-.744c.23-.229.544-.44.885-.532v-.184c-.238.02-.473.03-.712.03-.257 0-.523-.01-.78-.03v.184c.086.037.171.148.171.24 0 .1-.047.237-.246.43l-.78.742v-4.32h-.209c-.343.247-.787.44-1.264.56v.21c.238 0 .455.22.477.596.027.35.075 1.037.075 1.57V7.61c0 .202-.075.367-.361.413v.184c.256-.019.502-.03.759-.03.284 0 .56.03.848.03v-.184c-.23-.046-.324-.157-.324-.431V6.336h.018l.979 1.037c.162.173.275.384.275.486 0 .092-.065.165-.151.165v.184c.323 0 .646-.03.968-.03.275 0 .553.02.828.03v-.184M44.938 4.96c.285 0 .417.157.417.422 0 .296.048.79.048 1.323v.898c0 .313-.114.35-.352.433v.182c.267 0 .542-.026.807-.026.278 0 .543.017.818.026v-.182c-.257-.03-.353-.102-.353-.433v-.752c0-.716.02-1.23.02-1.579 0-.338.61-.43.798-.43.677 0 .78.679.78 1.174v1.587c0 .313-.075.378-.341.433v.182c.304 0 .597-.026.902-.026.238 0 .465.017.703.026v-.182c-.266-.074-.342-.138-.342-.433V5.658c0-.779-.37-1.322-1.31-1.322-.4 0-.828.23-1.161.44.01-.155.01-.301.02-.457h-.191c-.361.22-.702.358-1.263.458v.184M21.603 5.252V4.38c.399-.11.778-.165 1.227-.165.848 0 1.571.22 1.571 1.14 0 .33-.029.809-.038 1.332v.322c0 .424.076.543.286.543a.907.907 0 0 0 .2-.038l.142.14-.713.551c-.362-.046-.649-.222-.763-.452-.322.23-.627.452-1.046.452-.647 0-1.285-.387-1.285-1.067 0-.974.96-1.35 1.828-1.35.152 0 .313.026.446.026 0-.496-.036-1.048-.684-1.048-.467 0-.705.147-.944.486h-.227zm1.855.892a2.773 2.773 0 0 0-.456-.045c-.438 0-.896.221-.896.809 0 .424.344.745.743.745.295 0 .486-.064.64-.156l-.03-1.353zM37.388 2.221c0-.174.114-.184.38-.184 1.027 0 1.416.533 1.416 1.34 0 .799-.57 1.304-1.416 1.304-.123 0-.257-.008-.427-.018l.047-2.442zm-1.064 5.112c0 .395-.124.531-.54.577v.166h1.634c.132 0 .265.009.388.018.134.01.267.019.39.019 1.037 0 2.262-.385 2.262-1.57 0-.954-.598-1.44-1.492-1.68v-.018c.713-.22 1.378-.724 1.378-1.504 0-1.193-1.274-1.634-2.34-1.634-.227 0-.444.037-.871.037-.38 0-.769-.037-1.246-.037v.202c.257.037.409.12.409.468 0 .826.028 1.992.028 3.092v1.864zm1.017-2.276c.198 0 .352-.01.513-.01.913 0 1.445.624 1.445 1.459 0 .707-.484 1.276-1.301 1.276-.59 0-.657-.091-.657-.588V5.057zM32.089 5.252V4.38c.401-.11.78-.165 1.229-.165.846 0 1.57.22 1.57 1.14 0 .33-.029.809-.039 1.332v.322c0 .424.078.543.287.543a.88.88 0 0 0 .2-.038l.142.14-.713.551c-.361-.046-.648-.222-.763-.452-.323.23-.628.452-1.047.452-.646 0-1.285-.387-1.285-1.067 0-.974.963-1.35 1.828-1.35.153 0 .315.026.449.026 0-.496-.04-1.048-.685-1.048-.468 0-.706.147-.944.486h-.23zm1.858.892a2.785 2.785 0 0 0-.458-.045c-.439 0-.894.221-.894.809 0 .424.343.745.74.745.297 0 .488-.064.64-.156l-.028-1.353zM27.426 7.93c.305-.046.504-.276.63-.432l.922-1.14-1.096-1.435c-.181-.23-.247-.293-.523-.413v-.184c.286.01.581.028.867.028.284 0 .572-.018.856-.028v.184c-.114.054-.2.074-.2.211 0 .065.029.185.114.295l.524.689.467-.597c.096-.13.142-.24.142-.305 0-.173-.114-.239-.267-.293v-.184c.257.01.505.028.763.028.246 0 .503-.018.753-.028v.184c-.373.083-.572.303-.78.56l-.811.994 1.028 1.379c.142.183.361.413.6.487v.184c-.287-.01-.561-.028-.847-.028-.287 0-.563.019-.849.028V7.93a.217.217 0 0 0 .19-.202c0-.056-.074-.203-.152-.313l-.513-.708-.514.671c-.057.083-.133.258-.133.34 0 .148.076.193.201.212v.184c-.249-.01-.507-.028-.753-.028-.21 0-.41.019-.62.028V7.93M26.54 4.226c0 .385.04 1.194.04 1.949v1.34c0 .314.152.36.372.415v.184c-.287 0-.571-.028-.857-.028-.257 0-.515.019-.772.028V7.93c.229-.055.334-.101.334-.414V6.377c0-.663-.057-1.03-.134-1.223-.077-.184-.171-.248-.4-.286v-.183c.439-.1.942-.275 1.228-.46h.19zm-.465-1.555c.276 0 .524.194.524.47 0 .275-.248.467-.524.467s-.523-.192-.523-.467c0-.276.247-.47.523-.47zM43.28 7.497c-.15.092-.343.156-.634.156-.4 0-.743-.32-.743-.743 0-.587.456-.807.893-.807.17 0 .352.027.456.045l.028 1.35zM41.627 5.26c.238-.34.474-.488.94-.488.647 0 .685.552.685 1.048-.132 0-.293-.028-.446-.028-.864 0-1.825.376-1.825 1.348 0 .679.637 1.065 1.282 1.065.418 0 .724-.22 1.046-.45.115.23.4.404.76.45l.712-.55-.141-.138a.886.886 0 0 1-.199.036c-.21 0-.286-.119-.286-.54V6.69c.01-.522.038-1 .038-1.33 0-.917-.722-1.137-1.569-1.137-.446 0-.826.054-1.224.164v.873h.227zM20.496 2.937h-.408c-.302-.885-1.258-1.232-2.097-1.232-1.695 0-2.398 1.317-2.398 2.898 0 2.654 1.99 3.105 2.799 3.105.79 0 1.501-.328 1.929-.987l.303.122-.303 1.044c-.778.14-1.267.217-1.9.217-2.906 0-4.182-1.732-4.182-3.427 0-1.937 1.551-3.368 3.733-3.368 1.268 0 1.755.207 2.447.376l.077 1.252" fill="#1A1919"/></g></svg>