<svg width="33" height="11" viewBox="0 0 33 11" xmlns="http://www.w3.org/2000/svg" xmlns:xlink="http://www.w3.org/1999/xlink"><defs><path id="a" d="M9.707 9.688H.286V.27h9.42v9.416z"/></defs><g fill="none" fill-rule="evenodd"><g transform="translate(6.66 .41)"><mask id="b" fill="#fff"><use xlink:href="#a"/></mask><path d="M4.982 8.757c2.012.012 3.68-1.665 3.698-3.716.018-2.124-1.604-3.832-3.653-3.847-2.045-.015-3.701 1.663-3.71 3.759-.01 2.1 1.62 3.792 3.665 3.804m2.994-.073c.405 0 .773.009 1.14-.002.253-.008.347.097.35.347.009.659.017.659-.65.659H.997c-.453 0-.466-.014-.467-.457 0-.078.003-.157 0-.235-.007-.223.097-.318.322-.314.377.009.755.003 1.17.003-2.586-2.243-1.95-5.617-.257-7.158C3.59-.136 6.37-.146 8.188 1.484c1.738 1.56 2.372 4.968-.212 7.2" fill="#000" mask="url(#b)"/></g><path d="M21.456 2.875V9.33c0 .406-.024.428-.437.43-.06 0-.118.002-.177.001-.352-.003-.393-.04-.393-.384 0-2.726.002-5.45-.004-8.175 0-.262.092-.35.355-.378.53-.058.815.122 1.046.633.92 2.034 1.898 4.043 2.855 6.06a.48.48 0 0 0 .168.206v-.279-6.176c0-.403.03-.433.435-.436.068 0 .137.005.206 0 .26-.02.37.086.37.357-.005 2.744-.005 5.489 0 8.234 0 .258-.114.32-.354.346-.526.06-.813-.113-1.045-.628-.915-2.026-1.892-4.024-2.846-6.032-.04-.084-.086-.164-.129-.246l-.05.012M27.3 5.282c0-.754-.009-1.508.001-2.263.016-1.09.57-1.92 1.502-2.277.995-.38 2.144-.14 2.82.595.465.504.633 1.113.617 1.785-.004.18-.094.27-.276.267h-.117c-.58.005-.58.006-.645-.553-.101-.862-.685-1.371-1.527-1.332-.775.036-1.33.634-1.335 1.47a383.37 383.37 0 0 0 .001 4.644c.006.858.582 1.438 1.409 1.454.82.016 1.404-.552 1.463-1.407.01-.155.046-.423.116-.44.248-.056.52-.05.775-.014.06.009.132.222.132.342.003 1.436-.993 2.433-2.437 2.453-1.442.02-2.471-.975-2.497-2.431-.014-.764-.003-1.528-.003-2.293M.727 5.277c0-.774-.013-1.549.003-2.322C.755 1.782 1.45.907 2.537.642 3.67.367 4.804.814 5.343 1.744c.237.41.316.86.327 1.326.005.214-.088.335-.318.32-.048-.003-.098 0-.147 0-.535 0-.535 0-.579-.527-.069-.835-.655-1.375-1.476-1.36-.796.014-1.368.589-1.388 1.446-.022.892-.007 1.783-.008 2.675 0 .667-.014 1.333.006 2 .018.6.258 1.098.845 1.33.568.224 1.121.166 1.588-.266.33-.306.447-.71.434-1.146-.008-.284.108-.382.382-.383.675-.002.704.022.637.69-.128 1.29-1.128 2.166-2.46 2.156-1.369-.01-2.377-.907-2.443-2.23C.701 6.945.735 6.11.735 5.277H.727zM18.897 5.28v4.026c0 .431-.023.453-.443.455-.098 0-.196-.002-.294-.001-.182.001-.27-.093-.274-.27v-.206c-.001-2.665-.003-5.33.005-7.994.001-.145.078-.404.15-.415a2.3 2.3 0 0 1 .771.035c.048.009.08.223.081.343.006 1.343.004 2.685.004 4.027" fill="#000"/><path d="M12.35 5.363c0 .127.004.255-.001.382-.01.221.091.316.314.325.691.027.693.03.693-.65v-.175c0-.545 0-.545-.532-.544-.454 0-.474.022-.474.486v.176m-1.385.053c0-.147.015-.295-.006-.438-.013-.086-.075-.228-.126-.233a3.867 3.867 0 0 0-.748 0c-.052.005-.125.147-.13.23-.016.271-.008.545-.005.818.003.174.092.271.272.273.78.008.753.046.743-.65m.677 3.752c-2.045-.012-3.676-1.705-3.667-3.804.01-2.097 1.666-3.773 3.71-3.76 2.05.016 3.672 1.724 3.654 3.848-.017 2.051-1.686 3.728-3.697 3.716" fill="#FFF"/><path d="M10.964 5.416c.011.696.038.658-.742.65-.18-.002-.27-.1-.272-.273-.003-.273-.01-.547.005-.818.006-.083.078-.225.13-.23.248-.024.5-.024.749 0 .05.005.112.147.125.233.02.143.005.291.005.438M12.35 5.363v-.176c0-.464.02-.485.474-.486.532-.001.532-.001.532.544v.176c0 .68-.002.676-.693.649-.223-.01-.323-.104-.315-.325.006-.127.001-.255.001-.382" fill="#000"/></g></svg>