<svg width="66" height="11" viewBox="0 0 66 11" xmlns="http://www.w3.org/2000/svg"><g fill="#243B66" fill-rule="evenodd"><path d="M2.456 5.652h-.571v3.655h.558c1.444.027 1.906-.67 1.906-1.824 0-1.273-.668-1.831-1.893-1.831m.125 4.452H.836V4.85H2.58c1.85 0 2.84.894 2.84 2.623 0 1.714-.822 2.63-2.84 2.63M7.863 6.349c-1.394 0-1.876.98-1.876 1.903 0 1.098.555 1.918 1.745 1.952.946.009 1.782-.275 1.84-1.298h-.968c0 .414-.337.682-.734.682-.668 0-.88-.486-.887-1.081l2.67-.008c.081-1.09-.396-2.15-1.79-2.15m-.843 1.54c.03-.48.265-.924.814-.924.527 0 .793.392.77.924H7.02M13.944 10.104h-.996l-.008-.595c-.17.471-.632.712-1.203.712-.675 0-1.313-.407-1.321-1.381V6.479h1.013v2.223c-.008.523.198.812.696.82.448 0 .815-.253.815-.959V6.48h1.004v3.625M15.244 6.494v-.575l.976-.508v1.083h.932v.705h-.932v1.75c0 .357.124.56.49.573.139 0 .265.014.45-.035v.623c-.479.066-1.028.19-1.485-.05-.344-.18-.43-.5-.43-1.01V7.199h-.786v-.705h.785M20.951 8.542c.16.322.153.74-.044 1.032-.345.523-1.093.653-1.673.639-.822-.05-1.553-.261-1.518-1.235h.998c-.008.42.256.574.638.59.368 0 .732-.125.732-.458 0-.27-.255-.386-.587-.457-.372-.081-.645-.117-1.063-.286-.337-.16-.667-.427-.667-.936 0-.421.33-.74.764-.916.293-.122.652-.159.96-.159.696 0 1.452.239 1.407 1.112h-.938c0-.132-.029-.277-.14-.365-.204-.18-.836-.203-1.033.096-.22.507.462.543 1.218.749.476.106.8.304.946.594M23.451 6.341c.798 0 1.63.363 1.63 1.358l-.986-.006c0-.466-.254-.75-.738-.728a.925.925 0 0 0-.367.11c-.302.175-.398.66-.398 1.149 0 .514.126 1.016.354 1.198.154.146.425.19.658.146.39-.069.507-.444.514-.773l.962-.006c.014 1.04-.844 1.432-1.739 1.415-1.195-.042-1.746-.812-1.746-1.952 0-1.155.668-1.911 1.856-1.911M25.857 4.859h1.012v2.195c.264-.466.66-.67 1.195-.67.675 0 1.315.501 1.315 1.22v2.5h-1V7.88c0-.493-.212-.82-.688-.82-.45 0-.83.29-.83.959v2.084h-1.004V4.859M32.04 6.349c-1.393 0-1.878.98-1.878 1.903 0 1.098.558 1.918 1.746 1.952.947.009 1.783-.275 1.84-1.298h-.966c0 .414-.337.682-.733.682-.669 0-.881-.486-.888-1.081l2.669-.008c.082-1.09-.396-2.15-1.79-2.15m-.843 1.54c.03-.48.263-.924.815-.924.526 0 .792.392.77.924h-1.585M37.853 7.794l-1.137-.006v1.539h1.099c.734 0 .968-.355.968-.798 0-.342-.248-.74-.93-.735m-.104-2.142h-1.033V7.01h1.048c.55 0 .837-.226.837-.669 0-.414-.33-.689-.852-.689m1.138 4.3c-.344.109-.785.153-1.263.153H35.71v-5.24h2.039c.91 0 1.863.284 1.9 1.295.024.64-.418 1.046-.968 1.228.426.108.77.232 1.004.623.206.35.222.815.053 1.2a1.393 1.393 0 0 1-.851.74M43.941 7.474c0-.74-.807-1.11-1.739-1.104-.888.015-1.533.298-1.547 1.149h.976c-.023-.394.25-.596.608-.602.544 0 .786.244.733.855-.534.03-1.254-.006-1.79.24-.387.181-.69.523-.69 1.067 0 .698.493 1.119 1.211 1.142.513.051 1.102-.175 1.328-.647l.038.53h.872v-2.63zM42.085 9.58c-.375-.028-.594-.21-.594-.558.009-.764.983-.683 1.489-.683.022.602-.03 1.229-.895 1.241zM44.917 6.479h1.012v.581c.265-.471.748-.675 1.291-.675.608 0 1.233.348 1.233 1.22v2.5h-1.014V7.88c.007-.471-.227-.82-.689-.82-.455 0-.83.29-.83.96v2.084h-1.003V6.479M49.428 10.104h.998V4.859h-.998v5.245zm2.568 0l-1.541-2.077 1.394-1.548h1.188L51.591 7.99l1.703 2.113h-1.298zM57.015 8.84h7.276V1.592h-7.276V8.84zm4.725-6.261L57.8 7.812h1.78l3.955-5.233H61.74zm-6.125 7.649h10.078V.204H55.615v10.024z"/></g></svg>