<svg width="42" height="10" viewBox="0 0 42 10" xmlns="http://www.w3.org/2000/svg"><path d="M38.52 2.553l.535.917-2.138 1.299-.65-.841 2.254-1.375zM34.97 5.76c0 .19.114.382.266.382.153 0 .268-.153.268-.382 0-.23-.115-.382-.268-.382-.114 0-.23.153-.267.382 0 0 .038-.23 0 0zm-2.484-.954c-.037.305 0 .61.115.61.077 0 .23-.23.268-.572.038-.345 0-.611-.077-.611-.114-.04-.228.228-.306.573 0 0 .078-.345 0 0zm-2.825 3.742a.208.208 0 0 0 .191.267c.115 0 .229-.076.229-.229a.208.208 0 0 0-.191-.267c-.115-.039-.23.076-.23.229 0 0 0-.153 0 0zm0 1.336c1.336.115 1.527-1.145 1.413-1.909l1.222-.84c.382.764 2.139.687 2.979.19.343.268 1.221.154 1.49-.076L39.207 5.8c.764-.458.955.268.726.497-.382.381-1.07.573-1.222.61l-.039 1.108c2.788-.114 3.361-3.437 1.337-3.437-1.07-.115-2.864 1.49-3.743 1.68 1.031-2.406-3.13-2.596-2.176.42-.42.192-.802.039-.955-.19.917-1.222 1.337-3.17-.19-3.437-.955-.191-1.91 1.45-1.223 3.36-.19.115-.611.23-.611.23l.038-1.413h-1.03c-.306.725-1.07 1.145-1.185.993-.152-.536.573-1.147 1.948-1.185V3.928c-1.795.076-2.94.993-3.131 2.062-.077 1.566 1.336 1.49 2.215.879v.343c-1.719.61-1.719 2.558-.306 2.673zM22.48 7.29c-.038.572.038 1.07.114 1.07.116.037.23-.46.268-1.07.038-.612-.038-1.07-.152-1.108-.076 0-.192.496-.23 1.108 0 0 .038-.612 0 0zM22.405.3l.267 4.048c-1.527 1.49-1.718 5.537-.114 5.652 1.718-.153 1.222-4.086 1.184-4.43-.192-.801.687-.458.763.114l.039 1.834 1.03.038.039-1.566c.038-.649.802-.649.802.038l-.038 1.261h1.107l.039-1.222c-.154-2.177-1.796-1.833-2.216-1.222-.382-.917-1.184-1.032-1.68-.994L23.396.3h-.992zm-3.437 4.545c-.115.152-.153.343-.076.382.076.076.267 0 .382-.192.114-.152.152-.344.076-.382-.076-.076-.267 0-.382.192 0 0 .115-.192 0 0zM16.79 2.668l-.152 2.139h-.344v.954h.23l-.04 1.566.955.038V6.181c0-.153.268-.23.42.19.459 1.414 2.063 1.49 2.712.88V6.142c-.497.344-1.146.573-1.528 0 3.17-1.298.306-4.163-1.222-1.184h-.305l.229-2.29h-.955zm-3.895 2.023c0 .116.076.192.19.192.078 0 .154-.076.154-.192 0-.075-.076-.152-.153-.152-.115 0-.191.077-.191.152 0 0 0-.075 0 0zm-2.062-2.94c-5.767-.878-4.545 8.287.65 5.08 1.297.839 2.52-.23 2.52-.994.381-.038.572.153.572.42v.955h.84l.039-.992c0-.344.229-.459.534-.497l.038-.954c-.343-.078-.725.152-.763.343-.268-.42-.688-.573-1.146-.573-1.108-2.291-3.208.496-1.337 1.107.459.077.191.574-.228.535-.459-.038-.497-.611-.459-.993-.038-.764-1.413-.381-1.222.688-3.17 2.367-4.2-4.086-.077-3.017l.039-1.108zM4.99 4.54c-.076.382 0 .649.076.688.115 0 .23-.268.306-.611.038-.344 0-.65-.115-.688-.114 0-.229.267-.267.61 0 0 .038-.343 0 0zm-2.597.382c0 .152.115.267.23.267.152 0 .229-.115.229-.229 0-.152-.077-.268-.23-.268-.114 0-.229.116-.229.23 0 0 0-.114 0 0zm-.038.993c.306.535 1.108.458 1.833.038-.687-4.66 3.628-4.468 1.451.153-.191.229.496.305.917-.038v.954c-.726.459-1.49.23-1.795-.114-1.718 1.145-4.01.382-3.59-1.72C-.355 2.134 2.356.76 4.036 1.523l-.038 1.222C2.7 2.134 1.63 3.05 1.974 4.12c1.757-1.26 2.902 1.986.382 1.795z" fill="#008146" fill-rule="evenodd"/></svg>