<svg width="48" height="11" viewBox="0 0 48 11" xmlns="http://www.w3.org/2000/svg"><g fill="none" fill-rule="evenodd"><path d="M3.026 9.782c.564-.044 1.724-.304 2.566-.586.845-.281 1.817-.82 2.941-.9 1.124-.078 2.267.062 3.08.758-.757-.049-1.454.055-2.306.233-.848.178-1.846.619-2.78.898a9.739 9.739 0 0 1-2.723.398 8.21 8.21 0 0 1-2.601-.418 6.254 6.254 0 0 1-1.157-.477v-.002c.969.2 1.97.177 2.98.096" fill="#4B9A44"/><path d="M9.233 2.174V.489H.046v8.529c.969.2 1.97.178 2.98.1.564-.048 1.723-.304 2.566-.585.845-.283 1.817-.823 2.94-.904.115-.007.225-.01.335-.014.01-.003.02-.003.026-.003.113-.002.226-.002.34 0V3.696c-.817-.34-1.54-.703-2.203-.703h-.499c-.298 0-1.325.247-1.5.483.098.051.541.01.541.548 0 .4-.414.634-.803.634-.638 0-.978-.59-1.065-.59-.072 0-1.002.526-1.543.526-.482 0-.907-.457-1.023-.548-.107-.081-.541-.463-.541-.55 0-.036.236-.347.324-.347.071 0 .57.372 1 .372.325 0 1.306-.602 1.306-.638-.026-.712-.026-.858.01-1.247a5.54 5.54 0 0 1 .544-.159c.02.068.032.765.295.95 0 0 1.29-.878 2.325-.878h.63c.705 0 1.531.323 2.202.625M4.597 5.445c0 .214-.172.308-.327.308a.3.3 0 0 1-.304-.308c0-.226.382-.304.392-.304.113 0 .24.116.24.304m-2.46-.217c0-.077.299-.485.72-.482.865.003.525 1.383.9 1.827 0 0 .405.106.664.077.201-.025.399-.155.5-.155.048 0 .216.246.216.418 0 0-.363.479-1.043.566a2.111 2.111 0 0 1-.609 0 3.945 3.945 0 0 1-.693-.142C2.33 5.582 2.14 5.228 2.14 5.228" fill="#143C2F"/><g fill="#143C2F"><path d="M13.285 4.319H11.28v-.99h1.871v-.753H11.28v-.862h1.964V.962h-2.99V5.07h3.031v-.751zm2.593-1.877a1.908 1.908 0 0 0-.897-.203c-.682 0-1.147.343-1.147.862 0 .903 1.38.833 1.38 1.235 0 .122-.163.204-.425.204-.333 0-.612-.116-.898-.234v.613c.123.064.549.204.996.204.724 0 1.131-.327 1.131-.903 0-.921-1.381-.932-1.381-1.242 0-.197.205-.221.315-.221.175 0 .548.075.926.315v-.63zm1.515-.15h-.867v4.16h.867v-1.52c.21.122.472.19.718.19.827 0 1.369-.582 1.369-1.474 0-.797-.566-1.41-1.288-1.41-.303 0-.548.094-.799.297v-.243zm0 .792c.222-.17.356-.228.542-.228.42 0 .659.309.659.84 0 .518-.262.844-.693.844a.811.811 0 0 1-.508-.182V3.084zm5.495 1.299c-.21.146-.273.157-.331.157-.094 0-.146-.052-.146-.192V3.084c0-.613-.478-.845-1.172-.845-.443 0-.844.116-1.206.337v.712c.274-.286.677-.467 1.026-.467.378 0 .496.204.477.467-1.159.36-1.648.495-1.648 1.153 0 .35.332.682.774.682.303 0 .584-.088.921-.315.059.222.198.315.484.315.233 0 .577-.11.821-.25v-.49zm-1.352.011a.719.719 0 0 1-.477.21.29.29 0 0 1-.286-.29c0-.28.245-.403.763-.59v.67zm2.582-2.102h-.868V5.07h.868V3.282c.233-.344.396-.46.612-.46.245 0 .43.163.43.553V5.07h.875V3.305c0-.822-.577-1.066-1.014-1.066-.354 0-.623.133-.903.454v-.401zm1.282-1.26c-.034.216-.116.321-.262.321-.256 0-.594-.321-.95-.321-.413 0-.676.327-.717.892h.396c.024-.199.129-.31.269-.31.25 0 .629.322.972.322.415 0 .665-.327.706-.904H25.4zm4.19 3.35c-.205.147-.268.158-.326.158-.094 0-.146-.052-.146-.192V3.084c0-.613-.478-.845-1.176-.845-.438 0-.84.116-1.202.337v.712c.274-.286.67-.467 1.02-.467.384 0 .502.204.484.467-1.16.36-1.649.495-1.649 1.153 0 .35.332.682.775.682.303 0 .577-.088.915-.315.064.222.198.315.49.315.232 0 .576-.11.815-.25v-.49zm-1.346.012a.734.734 0 0 1-.484.21.286.286 0 0 1-.28-.29c0-.28.245-.403.764-.59v.67zm1.8-3.432V5.07h1.696c1.638 0 2.384-.868 2.384-2.051 0-1.125-.77-2.057-2.267-2.057h-1.813zm1.02.752h.66c.966 0 1.35.595 1.35 1.299 0 .606-.308 1.306-1.34 1.306h-.67V1.714zm5.63 3.356h.874V2.292h-.88v1.77c-.088.274-.327.478-.595.478-.226 0-.437-.14-.437-.53V2.292h-.873v1.777c0 .716.465 1.054 1.013 1.054.35 0 .624-.135.897-.455v.402zM41 4.208c-.409.297-.682.396-1.032.396-.548 0-.885-.285-.915-.78h1.994c.04-1.015-.624-1.585-1.435-1.585-.85 0-1.462.6-1.462 1.45 0 .87.636 1.434 1.608 1.434.216 0 .741 0 1.242-.367v-.548zm-1.929-.845c.04-.385.262-.606.606-.606.338 0 .565.228.6.606h-1.206zm3.438-1.071h-.874V5.07h.874V3.869c.192-.512.397-.809.717-.809.14 0 .29.058.519.204l.239-.77c-.252-.185-.402-.255-.578-.255-.337 0-.623.273-.885.85h-.012v-.797zM47.154 3.7v-.034c-.013-1.056-.886-1.428-1.562-1.428-.816 0-1.567.495-1.567 1.438 0 .875.657 1.446 1.567 1.446.612 0 1.55-.333 1.562-1.422zm-.933-.04c0 .605-.222.943-.629.943-.333 0-.635-.21-.635-.927 0-.623.256-.92.635-.92.443 0 .63.361.63.903zM14.89 6.59c-.413-.19-.678-.253-1.008-.253-.909 0-1.581.636-1.581 1.504 0 .866.69 1.515 1.597 1.515.343 0 .697-.083 1.045-.253V7.98h-.85v.189h.626v.79a1.68 1.68 0 0 1-.808.184c-.926 0-1.362-.638-1.362-1.297 0-.744.554-1.298 1.296-1.298.356 0 .685.094 1.045.294V6.59zm1.905.978c-.188-.164-.312-.23-.448-.23-.213 0-.449.19-.673.549h-.01v-.508h-.207v1.936h.206V8.1c.212-.36.43-.555.619-.555.113 0 .207.053.39.217l.123-.194zm1.634 1.747h.207V7.38h-.207v1.358c-.172.265-.324.413-.631.413-.283 0-.53-.184-.53-.579V7.38h-.207v1.199c0 .578.39.778.72.778.3 0 .46-.112.637-.359h.011v.318zm.956-1.936h-.207v2.927h.207V9.21c.218.106.377.147.572.147.542 0 .967-.448.967-1.015 0-.579-.407-1.003-.955-1.003-.207 0-.366.041-.584.147V7.38zm0 .309c.2-.106.336-.143.507-.143.465 0 .802.342.802.814 0 .472-.312.79-.772.79-.195 0-.337-.035-.537-.142v-1.32zm3.87.66c0-.579-.42-1.01-.98-1.01-.567 0-.991.431-.991 1.01 0 .578.424 1.008.99 1.008.562 0 .98-.43.98-1.009zm-.22 0c0 .465-.33.802-.76.802-.442 0-.773-.337-.773-.803 0-.46.33-.802.773-.802.43 0 .76.342.76.802zm4.111-1.97v1.616c0 .837-.506 1.15-1.002 1.15-.53 0-1.002-.349-1.002-1.121V6.378h-.23v1.651c0 .884.566 1.327 1.232 1.327.596 0 1.233-.365 1.233-1.375V6.378h-.23zm.974 1.001h-.206v1.936h.206V7.958c.171-.284.353-.413.637-.413.336 0 .525.23.525.667v1.103h.207v-1.18c0-.525-.307-.797-.72-.797-.283 0-.46.108-.637.378h-.012v-.337zm1.94 1.936h.207V7.38h-.206v1.936zm0-2.583h.207v-.354h-.206v.354zm2.142.707c-.218-.07-.342-.1-.513-.1-.549 0-.938.43-.938 1.038 0 .584.377.98.95.98.177 0 .318-.03.536-.101v-.219c-.218.09-.347.113-.525.113-.454 0-.743-.307-.743-.796 0-.484.295-.809.732-.809.159 0 .277.023.5.118v-.224zm1.976 1.54c-.1.082-.224.17-.271.17-.036 0-.047-.017-.047-.094V7.847c0-.408-.366-.509-.608-.509-.206 0-.383.066-.625.207v.212c.23-.17.383-.242.59-.242.294 0 .436.136.436.396v.248c-.566.023-1.133.2-1.133.7 0 .273.23.497.526.497.206 0 .39-.077.607-.242.017.195.041.242.136.242.082 0 .165-.03.359-.177l.03-.03v-.17zm-.525-.048c-.207.183-.354.254-.542.254-.22 0-.385-.141-.385-.326 0-.334.42-.553.927-.53v.602zm1.056-1.552h-.207v2.148c0 .46-.147.596-.419.602l.048.177c.306.006.578-.225.578-.774V7.38zm-.207-.647h.207v-.354h-.207v.354zm2.33 2.247c-.106.082-.23.17-.277.17-.035 0-.047-.017-.047-.094V7.847c0-.408-.36-.509-.602-.509-.213 0-.39.066-.625.207v.212c.224-.17.383-.242.59-.242.289 0 .43.136.43.396v.248c-.566.023-1.126.2-1.126.7 0 .273.224.497.518.497.208 0 .39-.077.609-.242.017.195.04.242.135.242.083 0 .165-.03.36-.177l.035-.03v-.17zm-.53-.048c-.201.183-.354.254-.538.254-.224 0-.383-.141-.383-.326 0-.334.413-.553.92-.53v.602z"/></g></g></svg>