<svg width="50" height="20" viewBox="0 0 50 20" xmlns="http://www.w3.org/2000/svg" xmlns:xlink="http://www.w3.org/1999/xlink"><defs><path id="a" d="M11.226 12.667H.114V.079h11.112z"/></defs><g fill="none" fill-rule="evenodd"><path d="M7.722 5.814h5.185V.494H7.722v5.32zm1.324-1.358h2.537V1.852H9.046v2.604zM0 .494V18.83h12.907V6.72H6.84V.493H0zm1.324 1.358h4.192v6.225h6.067v9.395H1.323V1.852zM25.905 8.93h-6.134v2.525h5.63v2.065h-5.63v3.058h6.417v2.139h-8.784V6.823h8.501zM34.859 6.823h2.516l-3.952 11.894h-2.288l-3.92-11.894h2.587l2.516 9.03z" fill="#000"/><g transform="translate(38.272 6.38)"><mask id="b" fill="#fff"><use xlink:href="#a"/></mask><path d="M7.959 9.471c.563-.726.845-1.758.845-3.098 0-1.334-.282-2.365-.845-3.094-.564-.73-1.325-1.094-2.285-1.094-.96 0-1.725.363-2.296 1.09C2.806 4 2.52 5.034 2.52 6.373c0 1.34.285 2.372.857 3.098.571.727 1.337 1.09 2.296 1.09.96 0 1.721-.363 2.285-1.09m1.514 1.808c-.876.925-2.142 1.388-3.799 1.388-1.656 0-2.923-.463-3.798-1.388C.7 10.144.114 8.509.114 6.373c0-2.179.587-3.814 1.762-4.906C2.75.542 4.018.08 5.674.08c1.657 0 2.923.463 3.799 1.388 1.169 1.092 1.753 2.727 1.753 4.906 0 2.135-.584 3.771-1.753 4.906" fill="#000" mask="url(#b)"/></g></g></svg>