<svg width="57" height="10" viewBox="0 0 57 10" xmlns="http://www.w3.org/2000/svg"><g fill-rule="nonzero" fill="none"><path d="M12.932 7.25c-.375 0-.667-.042-.958-.167a2.364 2.364 0 0 1-.75-.5 2.364 2.364 0 0 1-.5-.75 2.242 2.242 0 0 1-.167-.916c0-.334.042-.667.167-.917.125-.292.291-.542.5-.75.208-.208.458-.375.75-.458.291-.125.583-.167.916-.167.334 0 .667.042.917.167.25.083.5.25.667.458l-.459.458a1.85 1.85 0 0 0-.458-.333c-.167-.083-.417-.125-.667-.125-.25 0-.458.042-.666.125a1.498 1.498 0 0 0-.5.333c-.125.167-.25.334-.334.542a1.727 1.727 0 0 0-.125.667c0 .25.042.458.125.666.084.209.209.375.334.542.166.167.333.25.541.375.209.125.459.125.709.125.25 0 .458-.042.625-.083.208-.042.333-.125.5-.209v-.791H12.89v-.625h1.792v1.75c-.083.083-.167.125-.292.208-.125.083-.25.125-.375.167l-.5.125a2.46 2.46 0 0 1-.583.083M14.765 2.667h.75l1 2.416c.042.084.084.167.084.25.041.084.041.167.083.25.042.084.042.209.083.292.042-.083.042-.208.084-.292.041-.083.041-.166.083-.25a.592.592 0 0 0 .083-.25l1-2.416h.667L16.765 7.25h-.083l-1.917-4.583zM20.932 7.25c-.333 0-.625-.042-.917-.167a2.364 2.364 0 0 1-.75-.5 2.364 2.364 0 0 1-.5-.75 2.242 2.242 0 0 1-.166-.916c0-.334.041-.667.166-.917.125-.292.292-.542.5-.75.209-.208.459-.375.75-.458.292-.125.584-.167.917-.167.792 0 1.417.292 1.792.917l-.542.333c-.125-.208-.292-.375-.5-.458-.208-.125-.458-.167-.75-.167-.25 0-.458.042-.667.125a1.498 1.498 0 0 0-.5.333c-.125.125-.25.334-.333.542a1.727 1.727 0 0 0-.125.667c0 .25.042.458.125.666.083.209.208.375.333.542.125.167.292.25.5.375.209.083.417.125.667.125.333 0 .583-.083.792-.208.208-.125.416-.292.541-.5l.542.375a2.422 2.422 0 0 1-.75.708c-.292.167-.708.25-1.125.25M26.257 7.25c-.375 0-.667-.042-.959-.167a2.364 2.364 0 0 1-.75-.5 2.364 2.364 0 0 1-.5-.75 2.242 2.242 0 0 1-.166-.916c0-.334.041-.667.166-.917.125-.292.292-.542.5-.75.209-.208.459-.375.75-.458.292-.125.584-.167.917-.167.333 0 .667.042.917.167.25.083.5.25.666.458l-.458.458a1.85 1.85 0 0 0-.458-.333c-.167-.083-.417-.125-.667-.125-.25 0-.458.042-.667.125a1.498 1.498 0 0 0-.5.333c-.125.167-.25.334-.333.542a1.727 1.727 0 0 0-.125.667c0 .25.042.458.125.666.083.209.208.375.333.542.167.167.334.25.542.375.208.125.458.125.708.125.25 0 .459-.042.625-.083.209-.042.334-.125.5-.209v-.791h-1.208v-.625h1.875v1.75c-.083.083-.167.125-.292.208-.125.083-.25.125-.375.167l-.5.125c-.25.041-.458.083-.666.083M29.757 6c-.167 0-.25.042-.334.083-.083.042-.125.125-.125.25 0 .25.167.375.542.375.208 0 .375-.041.5-.125.125-.083.167-.208.167-.375V6h-.75zm.708-.5c0-.208-.042-.375-.125-.5a.637.637 0 0 0-.417-.167c-.166 0-.333.042-.458.084-.125.083-.208.125-.292.25l-.375-.375c.125-.167.292-.25.459-.375.166-.084.416-.125.708-.125.167 0 .333.041.458.083s.25.125.375.208c.084.084.167.209.25.375.042.167.084.334.084.542v1.667h-.667V6.75c-.083.167-.208.25-.375.333-.125.084-.292.125-.5.125-.125 0-.25 0-.375-.041A1.248 1.248 0 0 1 28.882 7c-.084-.083-.167-.167-.209-.292a1.233 1.233 0 0 1-.083-.416c0-.167.042-.292.083-.375.042-.084.125-.209.25-.25.084-.084.209-.125.334-.167.125-.042.291-.042.458-.042h.75V5.5zM34.007 5.542c-.042-.209-.125-.334-.209-.459-.125-.125-.291-.166-.541-.166-.209 0-.417.041-.542.166a1 1 0 0 0-.292.5h1.584v-.041zM32.423 6c.042.208.125.375.292.5.167.125.333.167.625.167.167 0 .333-.042.458-.084a.907.907 0 0 0 .334-.208l.375.417a1.85 1.85 0 0 1-.459.333 1.796 1.796 0 0 1-.708.125c-.25 0-.458-.042-.667-.125-.208-.083-.375-.167-.5-.292a1.85 1.85 0 0 1-.333-.458 1.33 1.33 0 0 1-.125-.583c0-.209.042-.417.125-.584.083-.166.167-.333.333-.458.125-.125.292-.25.459-.292a1.33 1.33 0 0 1 .583-.125c.25 0 .458.042.625.125.167.084.333.209.458.334.125.166.209.333.292.541.042.209.083.417.083.667h-2.25zM36.257 7.25c-.334 0-.584-.042-.792-.167-.208-.125-.375-.25-.458-.416l.458-.334c.083.125.208.209.333.292.125.042.25.083.417.083a.832.832 0 0 0 .375-.083.23.23 0 0 0 .125-.208c0-.042 0-.084-.042-.125-.041-.042-.083-.084-.125-.084-.041-.041-.125-.041-.208-.083-.083-.042-.167-.042-.292-.083-.083-.042-.208-.042-.291-.084-.084-.041-.209-.083-.25-.166-.084-.084-.125-.167-.167-.25a.785.785 0 0 1-.083-.334c0-.125.041-.25.083-.375.042-.083.125-.208.208-.25.084-.083.209-.125.334-.166.125-.042.25-.042.375-.042.208 0 .416.042.583.125.167.083.292.167.417.292l-.375.375c-.084-.084-.167-.125-.25-.209a.785.785 0 0 0-.334-.083c-.25 0-.375.083-.375.25 0 .042 0 .083.042.125.042.042.042.083.125.083.042.042.125.042.208.084.084.041.167.041.292.083.125.042.208.042.333.083a.672.672 0 0 1 .292.167c.083.083.167.167.208.25a.832.832 0 0 1 .084.375c0 .125 0 .25-.042.333a.672.672 0 0 1-.167.292c-.083.083-.208.125-.333.167-.333.041-.5.083-.708.083M39.298 7.25a1.33 1.33 0 0 1-.583-.125c-.167-.083-.333-.167-.458-.292a1.85 1.85 0 0 1-.334-.458 1.33 1.33 0 0 1-.125-.583c0-.209.042-.417.125-.584.084-.166.167-.333.334-.458.125-.125.291-.25.458-.292a1.33 1.33 0 0 1 .583-.125c.25 0 .5.042.667.125.167.084.333.209.458.375l-.5.375-.25-.25c-.125-.041-.25-.083-.375-.083-.25 0-.458.083-.583.25a1.023 1.023 0 0 0-.208.625c0 .25.083.458.208.625.125.167.333.25.583.25.167 0 .292-.042.417-.083a.747.747 0 0 0 .292-.209l.458.417a1.302 1.302 0 0 1-.458.375c-.25.083-.459.125-.709.125M42.298 6.667c.25 0 .459-.084.584-.25.125-.167.208-.375.208-.625s-.083-.459-.208-.625c-.125-.167-.334-.25-.584-.25-.25 0-.458.083-.583.25-.167.166-.208.375-.208.625s.083.458.208.625c.125.166.333.25.583.25m0 .583a1.33 1.33 0 0 1-.583-.125c-.167-.083-.333-.167-.5-.292a1.85 1.85 0 0 1-.333-.458 1.33 1.33 0 0 1-.125-.583c0-.209.041-.417.125-.584.083-.166.166-.333.333-.458a1 1 0 0 1 .5-.292 1.33 1.33 0 0 1 .583-.125c.209 0 .417.042.584.125.166.084.333.167.458.292.125.125.25.292.333.458.084.167.125.375.125.584 0 .208-.041.416-.125.583-.083.167-.166.333-.333.458-.125.125-.292.25-.458.292a1.33 1.33 0 0 1-.584.125M46.447 6.542a.938.938 0 0 0 .625-.209.792.792 0 0 0 .209-.541.792.792 0 0 0-.209-.542c-.125-.125-.333-.208-.625-.208h-1v1.541h1v-.041zm-.125-2.125c.209 0 .375-.042.459-.167.083-.125.166-.25.166-.417a.535.535 0 0 0-.166-.416c-.084-.125-.25-.167-.5-.167h-.875v1.167h.916zm-1.583-1.75h1.625c.208 0 .417.041.542.083a.865.865 0 0 1 .416.25c.125.125.167.208.25.375.042.125.084.292.084.458 0 .209-.042.417-.167.542-.083.167-.25.25-.458.333.291.084.541.209.708.417.167.208.25.458.25.75 0 .208-.042.375-.083.542a1.496 1.496 0 0 1-.292.416c-.125.125-.292.209-.458.292-.167.083-.375.083-.625.083h-1.75V2.667h-.042zM50.447 5.542c-.041-.209-.125-.334-.208-.459-.125-.125-.292-.166-.542-.166-.208 0-.416.041-.541.166a1 1 0 0 0-.292.5h1.583v-.041zM48.864 6c.042.208.125.375.292.5.166.125.333.167.625.167.166 0 .333-.042.458-.084a.907.907 0 0 0 .333-.208l.375.417a1.85 1.85 0 0 1-.458.333 1.796 1.796 0 0 1-.708.125c-.25 0-.459-.042-.667-.125-.208-.083-.375-.167-.5-.292a1.85 1.85 0 0 1-.333-.458 1.33 1.33 0 0 1-.125-.583c0-.209.041-.417.125-.584.083-.166.166-.333.333-.458.125-.125.292-.25.458-.292a1.33 1.33 0 0 1 .584-.125c.25 0 .458.042.625.125.166.084.333.209.458.334.125.166.208.333.292.541.041.209.083.417.083.667h-2.25zM52.657 7.167h-.666V2.375h.666v3.042c0 .083 0 .166-.041.25l1.125-1.25h.75l-1.042 1.166 1.167 1.625h-.792L52.99 6l-.334.375v.792z" fill="#1C1D1C"/><path d="M55.609 6c-.167 0-.25.042-.333.083-.084.042-.125.125-.125.25 0 .25.166.375.541.375.209 0 .375-.041.5-.125.125-.083.167-.208.167-.375V6h-.75zm.708-.5c0-.208-.041-.375-.125-.5a.637.637 0 0 0-.416-.167c-.167 0-.334.042-.459.084-.125.083-.208.125-.291.25l-.375-.375c.125-.167.291-.25.458-.375.167-.084.417-.125.708-.125.167 0 .334.041.459.083s.25.125.375.208c.083.084.166.209.25.375.041.167.083.334.083.542v1.667h-.667V6.75c-.083.167-.208.25-.375.333-.125.084-.291.125-.5.125-.125 0-.25 0-.375-.041A1.248 1.248 0 0 1 54.734 7a.747.747 0 0 1-.208-.292c-.042-.125-.084-.25-.084-.416 0-.167.042-.292.084-.375.041-.084.125-.209.25-.25.083-.084.208-.125.333-.167.125-.042.292-.042.458-.042h.75V5.5z" fill="#1C1D1C"/><path d="M7.887 1.489A4.618 4.618 0 0 1 9.423 4.95a4.642 4.642 0 0 1-4.636 4.636C2.246 9.587.124 7.493.124 4.924A4.642 4.642 0 0 1 4.759.288c.838 0 1.536.14 2.29.614l-.558.587c-.587-.307-1.09-.391-1.732-.391C2.637 1.07.905 2.8.905 4.924A3.861 3.861 0 0 0 4.76 8.777a3.861 3.861 0 0 0 3.854-3.853c0-.838-.251-1.592-.698-2.234l-.112-.168-.14.168a72.033 72.033 0 0 0-2.54 2.54l-.476-.502 1.927-1.927L7.887 1.49z" fill="#007592"/></g></svg>