<svg width="50" height="11" viewBox="0 0 50 11" xmlns="http://www.w3.org/2000/svg"><g fill="none" fill-rule="evenodd"><path d="M38.02 5.429s.015-.111.014-.146c-.001-.034.016-.072.018-.081.002-.01.016-.036.019-.043.001-.008.017-.041.017-.056a.188.188 0 0 1 .017-.049c.01-.057.026-.066.026-.072.001-.006.022-.053.022-.053l.025-.061.033-.081c0-.006.02-.042.023-.049 0-.006.024-.038.027-.049 0-.009.032-.063.033-.067l.043-.085.028-.045.033-.056a.59.59 0 0 1 .032-.054c.003-.006.025-.035.025-.042.001-.006.015-.02.02-.03.003-.02.05-.089.054-.093.004-.003.021-.036.026-.04.005-.005.033-.06.042-.073a.389.389 0 0 1 .032-.037s.026-.042.035-.049a.36.36 0 0 0 .022-.036c.003-.01.06-.085.066-.094.006-.01.02-.025.022-.028a.25.25 0 0 0 .048-.058c.006-.017.03-.04.034-.045.005-.005.034-.03.04-.042.004-.012.041-.054.044-.059.005-.003.054-.074.058-.078.005-.005.08-.089.086-.094a.926.926 0 0 1 .048-.055l.062-.068s.012-.008.02-.023c.009-.013.107-.12.113-.124.006-.005.025-.026.034-.033a.137.137 0 0 0 .041-.038c.008-.016.06-.06.06-.06s.053-.055.062-.062c.008-.006.122-.121.13-.127.01-.004.095-.084.095-.084s.03-.021.033-.03a.27.27 0 0 1 .053-.051c.009-.005.032-.025.032-.025s.012-.015.017-.019l.02-.019s.065-.053.067-.057c.002-.004.072-.055.072-.055l.058-.044a.238.238 0 0 1 .053-.043c.008-.003.027-.024.032-.027l.036-.034.036-.023a.153.153 0 0 0 .025-.027c.007-.01.019-.01.026-.014.004-.001.054-.037.054-.037l.007-.01s.01 0 .016-.009c.005-.01.032-.023.032-.023l.015-.012.075-.051c.004-.003.016-.011.018-.016.002-.006.007-.014.028-.02.022-.003.022-.015.028-.019.005-.003.019-.014.03-.016.01-.003.01-.009.014-.015.005-.008.011-.006.015-.006a.364.364 0 0 0 .04-.023c.002-.003.02-.01.026-.017l.012-.01s.021-.007.023-.013c.003-.01.028-.018.034-.02.005-.003.072-.04.073-.043.002-.003.022-.013.022-.013s.015 0 .025-.012c.011-.013.03-.014.034-.018.004-.004.059-.03.063-.035.005-.004.01-.011.014-.012.003 0 0 .003.014-.007.012-.01.073-.036.073-.036l.018-.012c0-.004.024-.01.028-.013.003-.002.028-.014.033-.019l.045-.021a.315.315 0 0 0 .046-.025c0-.002.026-.013.033-.014.009 0 .009 0 .011-.004l.02-.013c.012-.008.068-.03.072-.032l.031-.009.064-.034.04-.02c.004-.002.016.003.026-.006.01-.008.089-.042.095-.046a.102.102 0 0 1 .03-.014c.01-.003.054-.016.058-.024.003-.006.012-.004.018-.006.005 0 .07-.028.081-.032.01-.003.073-.028.078-.032a19.11 19.11 0 0 0 .145-.058c.007-.004.041-.015.047-.018a2.99 2.99 0 0 1 .1-.039c.004-.002.02 0 .023-.006a.334.334 0 0 1 .056-.024l.042-.015.168-.062c.004-.003.098-.03.105-.036.006-.004.087-.03.092-.032a.469.469 0 0 0 .07-.022.805.805 0 0 1 .15-.047c.015-.008.085-.026.085-.026l.078-.03c.019-.002.034-.019.066-.02.029 0 .04-.008.056-.013.017-.006.217-.062.236-.065.019-.004.07-.019.07-.019s.004-.001.026-.014a.351.351 0 0 1 .071-.02s.045-.006.05-.008l.069-.016c.032-.012.249-.041.298-.051.024-.004.028-.012.05-.015.022 0 .104.003.128-.004a.115.115 0 0 1 .062.002c.012.002.046.01.085.008.038-.001.106-.003.14-.006.036 0 .036.008.076 0a.685.685 0 0 1 .151.016c.007 0 .03.01.039.007a.176.176 0 0 1 .043.004.15.15 0 0 1 .076.022.086.086 0 0 0 .044.015c.005-.001.033.012.057.012.023 0 .056 0 .077.003l.06.01c.024.002.052.002.052.002.024.002.052.02.063.022l.057.018c.009.001.047.012.05.012l.01.003c.067.01.103.031.105.033.006 0 .027.01.031.012a.267.267 0 0 0 .061.019c.017.002.03.014.04.014.01 0 .073.023.073.023 0 .004.018.007.027.008.009.001.064.028.073.03.01.003.04.02.049.02.006 0 .058.027.06.028.005 0 .04.022.042.024a.151.151 0 0 0 .03.015.728.728 0 0 1 .049.024.164.164 0 0 0 .042.015c.01 0 .03.01.03.012.003 0 .01.008.025.01.014 0 .023.01.027.012a.16.16 0 0 1 .025.008s.021.016.025.017c.003 0 .044.02.05.02a.75.75 0 0 1 .052.025.074.074 0 0 1 .035.023l.014.006a.15.15 0 0 1 .015.01s.014.005.016.007a.06.06 0 0 0 .023.01c.008.003.02.017.02.017.014 0 .066.036.072.038a.216.216 0 0 1 .041.024.517.517 0 0 0 .04.028l.01.005c.007.001.022.013.022.016.002.003.004.008.021.014.019.007.034.027.038.03.006.002.014.01.018.012.018.007.082.05.093.065a.167.167 0 0 0 .036.024c.014.005.019.01.036.017.018.009.047.034.06.042l.07.054c.013.01.086.065.099.066a.188.188 0 0 1 .045.023s.036.03.042.043a.11.11 0 0 0 .036.032.294.294 0 0 1 .057.057.081.081 0 0 0 .028.027s.016.015.016.023c0 .007.003.015.01.018.004.004.02.02.024.045 0 0-.001.008.006.02a.15.15 0 0 1 .024.062v.02c.002.023.026.04.027.044.005.006.007.02.007.034 0 .014.01.024.018.047.009.022.006.05.006.05-.006.035.003.042.004.055.002.025-.001.104-.001.104a.21.21 0 0 1-.038.098.17.17 0 0 0-.016.031s-.002.002-.005.012c-.003.013-.01.024-.01.024-.002.006-.004.029-.005.032-.003.004 0 .034 0 .053 0 .018.005.024 0 .037-.005.012 0 .016-.003.028-.008.015-.03.039-.03.045 0 .006-.011.019-.023.038-.01.018-.02.03-.021.048a.216.216 0 0 1-.044.082.15.15 0 0 0-.03.032c-.004.006-.016.031-.03.042a.756.756 0 0 0-.052.054c-.003.005-.039.022-.039.022s-.024.008-.043.023c-.016.011-.055.04-.06.042-.005.003-.022.004-.04.014-.016.01-.09-.014-.118-.02a.214.214 0 0 0-.066-.005c-.01.001-.042-.022-.06-.027-.017-.005-.061-.032-.069-.032-.008 0-.029 0-.04-.01-.01-.008-.054-.023-.06-.025a2.737 2.737 0 0 0-.09-.017c-.012-.003-.062-.022-.07-.02-.01.003-.059-.01-.09-.017a.351.351 0 0 0-.08-.002.22.22 0 0 1-.063 0 .689.689 0 0 0-.127 0c-.013.006-.064-.007-.079-.007-.014 0-.156 0-.17.007a.466.466 0 0 1-.135.008c-.05-.002-.063-.008-.07-.004a.15.15 0 0 1-.084-.016c-.03-.016-.062.004-.074.01a.75.75 0 0 1-.116.01c-.018 0-.068-.004-.076.004a.319.319 0 0 1-.093.024c-.018 0-.042.012-.052.016-.01.003-.073 0-.08.006a.145.145 0 0 1-.058.014.34.34 0 0 0-.087.023c-.01.006-.052.003-.064.007a.905.905 0 0 1-.109.007c-.019 0-.031.01-.05.014-.02.004-.06.017-.09.027a.361.361 0 0 1-.078.013c-.014 0-.097.022-.123.026-.025.006-.074.025-.134.034-.06.007-.111.034-.143.043a3.65 3.65 0 0 1-.084.022c-.005 0-.088.02-.138.016-.052-.003-.074.035-.084.05-.008.014-.105.04-.116.044-.011.003-.092.046-.101.05a.16.16 0 0 1-.053.013.193.193 0 0 0-.088.031.32.32 0 0 1-.052.031c-.012.003-.03.018-.08.053a.465.465 0 0 1-.118.062c-.037.014-.07.041-.074.044a.11.11 0 0 1-.038.022.137.137 0 0 0-.049.016.139.139 0 0 1-.039.025l-.075.03c-.017.008-.041.018-.063.056a.163.163 0 0 1-.099.082c-.052.018-.06.04-.067.047-.007.01-.024.02-.033.025-.01.004-.025.018-.038.029-.013.009-.05.017-.058.03-.007.015-.038.033-.068.055-.028.023-.032.017-.086.038a.143.143 0 0 0-.083.07c-.01.019-.045.033-.056.038-.012.005-.044-.002-.053.019-.01.021-.032.043-.04.05-.007.008-.051.07-.063.071a.318.318 0 0 0-.082.068c-.013.017-.035.033-.038.036-.006.004-.022.004-.022.004s-.041.044-.048.045c-.008.004-.041.047-.05.053-.01.004-.05.038-.071.05a.286.286 0 0 0-.072.057c-.021.026-.037.03-.046.046a.053.053 0 0 1-.03.026c-.007.004.007 0-.038.025a.204.204 0 0 0-.074.08c-.007.01-.02.03-.038.039-.018.009-.05.03-.056.033-.015.009-.051.03-.06.048a.085.085 0 0 1-.027.04c-.01.01-.027.033-.04.044l-.934 1.672s-.035.133-.045.159a.178.178 0 0 0-.014.088.842.842 0 0 1-.003.137c-.001.018-.015.042-.01.055.003.011.009.042.003.051a.142.142 0 0 0-.004.07.67.67 0 0 1 .007.151c-.006.02-.001.036-.001.036s.013.026.013.054c0 .013.004.043.006.047a.334.334 0 0 1 .013.053c0 .008.008.062.009.065.002.004.013.03.015.044.003.013.025.053.027.061.001.008.014.03.018.034.005.003.036.04.041.046.005.004.047.06.059.091.01.03.025.043.032.05.006.008.01.02.013.03.005.009.039.036.04.04l.035.032c.01.012.01.002.037.027.027.026.05.03.063.062a.147.147 0 0 0 .047.051s.02.01.025.026c.005.015.019.017.025.022.005.002.018.021.023.025a.403.403 0 0 0 .06.06c.007.012.018.015.023.018.006.001.015.014.015.014s.015.004.025.014c.008.01.019.017.023.018.005 0 .02.009.026.017.007.01.03.03.034.034a.16.16 0 0 0 .03.02.11.11 0 0 1 .032.036l.02.008a.197.197 0 0 0 .022.007c.01.004.042.03.047.033.007.003.02.01.024.01s.018.015.024.017l.026.02a.317.317 0 0 0 .045.039c.007.003.017.013.025.017.009.003.02.01.023.015.003.005.008.007.012.012.006.004.058.021.065.026.007.006.034.028.038.035.004.006.013.012.033.015.018.002.036.002.047.009a.103.103 0 0 0 .033.018c.01.002.033.016.033.016s.027.006.032.01c.006.004.014.007.017.011.003.003.03.019.034.019.004 0 .021.013.028.015.008.003.043.015.07.05l.047.01c.015.003.04.013.046.014.005.002.036.013.045.018.01.005.04.019.046.019.004 0 .042.005.064.024.006.004.021.004.028.006a.113.113 0 0 1 .037.011c.005.004.042.02.042.02l.029.003c.004.001.032.015.036.015.005 0 .044.006.061.015a.4.4 0 0 0 .049.018c.006 0 .04.009.048.008.008 0 .057.003.067.01.01.007.053.022.06.023.01.002.058.005.07.014.01.007.037.009.045.008a.36.36 0 0 1 .068.014c.004.003.029.004.04.006.01 0 .04.006.047.009a.283.283 0 0 0 .064.013.691.691 0 0 1 .1.015c.013.005.04.01.048.01a.92.92 0 0 1 .15.017c.007 0 .114 0 .143.003.028.003.075.002.08.002l.063.003c.014 0 .032-.005.04-.005.006-.001.08.002.088.002.011 0 .034-.004.04-.004.006 0 .128-.004.153-.002a1.197 1.197 0 0 0 .15-.006l.054-.001a7.813 7.813 0 0 0 .246-.016l.078-.006c.018-.003.09-.014.1-.014.006 0 .075-.008.083-.01.009-.001.074-.004.086-.008.01-.004.038-.006.055-.007l.077-.01c.004-.003.086-.013.091-.014.006 0 .063-.015.092-.019.03 0 .054-.009.076-.013l.08-.011c.009-.002.11-.02.12-.02.007 0 .108-.024.123-.027.014-.004.119-.025.125-.028l.087-.021a2.292 2.292 0 0 1 .223-.055l.09-.026c.014-.003.086-.023.093-.023.005 0 .09-.027.1-.031.01-.003.126-.036.132-.039a7.57 7.57 0 0 1 .19-.054c.023-.004.104-.034.109-.034.004 0 .107-.035.116-.037.007-.001.171-.056.183-.06.013-.004.105-.031.109-.031.003 0 .115-.045.131-.046.018-.002.042-.024.054-.025.012-.001.04-.013.04-.013l.025-.005s.054-.026.067-.026c.012.001.036-.009.041-.01l.056-.016c.007-.003.026-.01.046-.011l.05.002s.006.013.002.015a.608.608 0 0 0-.02.014s-.023.015-.023.021c0 .006-.01.013-.012.015a.093.093 0 0 0-.013.036c.002.004 0 .012 0 .012s.002.033-.001.035l-.024.022c-.004.005-.007.005-.017.009a.127.127 0 0 0-.048.048.12.12 0 0 1-.064.044c-.015.003-.04.023-.054.027-.015.003-.057.03-.069.032a.43.43 0 0 0-.109.061c-.008.01-.043.036-.045.04-.003.003-.029.01-.033.012-.002.002-.052.027-.055.03-.004 0-.027.014-.033.016l-.024.016c-.007.003-.01.017-.022.022-.011.005-.017.037-.018.049-.002.011-.01.037-.017.04-.007.002-.03.027-.035.032-.005.005-.017.023-.026.027a.118.118 0 0 0-.032.02c-.016.015 0 .007-.01.015-.014.012-.023.024-.036.034l-.028.014c-.02.008-.025.023-.034.03-.01.008-.027.013-.045.022a.332.332 0 0 0-.057.036.1.1 0 0 1-.045.016c-.015 0-.038.03-.061.039-.024.01-.042.025-.052.031a.597.597 0 0 1-.08.036.227.227 0 0 0-.052.029.123.123 0 0 1-.046.014.208.208 0 0 0-.045.024c-.014.01-.06.04-.068.052-.009.012-.031.015-.04.016a.32.32 0 0 0-.059.02c-.005.006-.004.014-.026.018-.024.004-.035.017-.046.026a1.299 1.299 0 0 0-.06.047.101.101 0 0 1-.04.02c-.015.003-.026.02-.034.026a.277.277 0 0 1-.052.022c-.01.003-.041.007-.057.02-.017.013-.033.021-.042.032-.013.013-.03.017-.039.02a.183.183 0 0 0-.033.031c-.004.006-.028.012-.05.025a.15.15 0 0 1-.065.02c-.02.001-.032.017-.07.025-.04.01-.02.011-.046.014-.023.003-.036.003-.047.012a.13.13 0 0 1-.052.023c-.034.004-.03.016-.048.029-.019.012-.06.018-.08.021a.334.334 0 0 0-.063.014.163.163 0 0 1-.038.011.611.611 0 0 0-.035.008c-.004.002-.04-.001-.05.01-.01.012-.048.019-.068.019-.019 0-.036.012-.042.012a.124.124 0 0 0-.038.006.412.412 0 0 1-.069.01.198.198 0 0 0-.064.025c-.006.003-.009.006-.033.006-.025 0-.026.012-.043.015-.021.003-.027.006-.035.007-.01.001-.023.004-.04.01-.02.01-.048.008-.081.007-.035-.002-.023.001-.04.004a.102.102 0 0 0-.047.029c-.009.01-.047.001-.053.006-.004.003-.029.008-.029.008s-.022-.006-.04.005c-.018.012-.077.015-.091.016a.38.38 0 0 0-.061.017c-.005.002-.04.017-.048.019a.218.218 0 0 0-.07.025.157.157 0 0 1-.086.014c-.01 0-.053.02-.06.025-.007.003-.03.012-.034.012-.005 0-.026.006-.032.004a.444.444 0 0 0-.077.002.237.237 0 0 1-.06 0c-.026 0-.056.022-.06.025l-.029.016s-.04.018-.045.018c-.003 0-.06-.001-.065.002-.033.027-.107.015-.112.017-.006 0-.015.008-.015.008s-.042-.004-.05.002c-.007.005-.081.003-.081.003s-.027.002-.044.005c-.017.003-.044-.004-.06-.003a.843.843 0 0 1-.07.006c-.01 0-.095-.003-.105 0a.132.132 0 0 1-.035.005c-.004 0-.027-.006-.037-.006-.01 0-.034-.005-.044-.005-.01 0-.027.005-.032.006-.006.003-.031-.002-.047-.003-.012-.003-.023-.003-.032.002a.135.135 0 0 1-.057.001c-.014-.002-.023.003-.04.011-.018.007-.05 0-.056-.004a.113.113 0 0 0-.045 0c-.005.003-.029 0-.034.002-.004.002-.025.002-.03.002-.006.001-.028.002-.032.005-.013.008-.034.005-.038.002a.057.057 0 0 0-.027-.003c-.012 0-.037.007-.037.007s-.03 0-.037-.003a.193.193 0 0 0-.048-.002.19.19 0 0 1-.052-.002c-.008-.004-.03 0-.034.001a.221.221 0 0 1-.049-.01.14.14 0 0 0-.04-.002.106.106 0 0 1-.032-.004c-.009-.002-.041 0-.048 0a.067.067 0 0 1-.032-.004.17.17 0 0 0-.033-.005.104.104 0 0 1-.029-.01c-.005-.003-.028-.003-.032-.002a.221.221 0 0 1-.04-.012h-.092c-.007 0-.022-.004-.025-.008a.104.104 0 0 0-.032-.009c-.005 0-.025-.011-.038-.016-.014-.004-.035.003-.035.003s-.027-.003-.032-.007c-.006-.003-.02-.011-.031-.011a.105.105 0 0 1-.042-.01c-.01-.007-.047-.008-.051-.008a.09.09 0 0 1-.033-.009.07.07 0 0 0-.03-.01.083.083 0 0 1-.034-.018.23.23 0 0 0-.074-.011c-.008 0-.017-.009-.02-.008a.179.179 0 0 1-.067-.019c-.008-.008-.035-.012-.042-.012a.2.2 0 0 1-.063-.015c-.02-.014-.039-.012-.047-.017a1.02 1.02 0 0 0-.069-.028c-.005-.003-.047-.016-.055-.02-.008-.002-.045-.01-.066-.028-.02-.017-.032-.012-.042-.017-.008-.004-.027-.016-.036-.016a.684.684 0 0 1-.084-.036.528.528 0 0 0-.046-.017c-.024-.007-.039-.014-.039-.014s-.021-.02-.032-.025a.47.47 0 0 1-.059-.032.214.214 0 0 0-.054-.025c-.007 0-.034-.024-.038-.028a.894.894 0 0 0-.06-.036c-.01-.006-.034-.016-.039-.018-.005-.003-.02-.022-.033-.025-.014-.002-.042-.025-.046-.027-.003-.003-.043-.024-.047-.028a1.177 1.177 0 0 1-.137-.092c-.003-.006-.013-.02-.023-.023-.01-.004-.029-.011-.033-.017a.101.101 0 0 0-.026-.024.177.177 0 0 1-.042-.03.227.227 0 0 0-.038-.027c-.005 0-.025-.01-.026-.017a.222.222 0 0 0-.034-.035s-.037-.024-.043-.032a.33.33 0 0 0-.044-.036c-.012-.008-.048-.045-.053-.047-.006-.003-.032-.048-.036-.052l-.03-.024s-.04-.037-.045-.04c-.004-.001-.022-.03-.03-.033a.486.486 0 0 1-.071-.06c-.005-.007-.02-.024-.026-.035-.006-.01-.043-.035-.043-.035l-.04-.042-.046-.057-.057-.054-.029-.032s-.05-.064-.06-.069c-.011-.004-.074-.087-.074-.087s-.041-.056-.047-.06c-.005 0-.024-.037-.036-.047a.341.341 0 0 1-.038-.059s0-.01-.01-.015c-.008-.005-.01-.02-.01-.02l-.018-.024s-.015-.03-.02-.034c-.008-.003-.043-.052-.047-.056-.003-.003-.062-.102-.062-.102s-.025-.05-.029-.052a.424.424 0 0 1-.03-.052l-.03-.056-.027-.046c-.007-.016-.02-.032-.022-.04-.002-.007-.032-.065-.035-.073a.336.336 0 0 0-.023-.047c-.003-.003-.005-.011-.01-.02l-.052-.119c-.003-.003-.012-.035-.012-.035l-.005-.017a.72.72 0 0 1-.036-.082.63.63 0 0 0-.037-.087c-.004-.008-.017-.063-.02-.065a.319.319 0 0 1-.025-.07.463.463 0 0 0-.031-.081.61.61 0 0 1-.013-.058s-.016-.063-.02-.064c-.003-.002-.026-.114-.026-.114s-.007-.06-.01-.073c-.002-.013-.01-.045-.013-.048-.004-.005-.003-.07-.003-.07s-.009-.087-.014-.09c-.002-.005-.006-.03-.002-.044a.249.249 0 0 0-.005-.053l-.002-.058c0-.012.006-.038.004-.057-.002-.02-.01-.029-.014-.038a.092.092 0 0 1 .003-.052c.003-.009-.002-.058-.002-.058l.156-1.361z" fill="#E73232" fill-rule="nonzero"/><path d="M32.927 6.104c0-.495 3.745-.896 8.347-.896 4.61 0 8.354.4 8.354.896 0 .49-3.744.897-8.354.897-4.602 0-8.347-.408-8.347-.897zM47.623 7.694c0-.342.289-.62.647-.62.356 0 .644.278.644.62 0 .343-.288.62-.644.62a.633.633 0 0 1-.647-.62z" fill="#0062AD" fill-rule="nonzero"/><path d="M8.417 5.412c.078-.361.39-.552.767-.552.35 0 .669.219.733.552h-1.5zM11.118 6c0-1.195-.731-1.945-1.998-1.945-1.187 0-2.019.703-2.019 1.87 0 1.208.904 1.863 2.112 1.863.832 0 1.65-.376 1.856-1.201H9.825c-.143.233-.342.32-.62.32-.533 0-.809-.272-.809-.777h2.722V6zM22.116 5.129c.526 0 .832.362.832.79 0 .444-.306.786-.832.786s-.83-.342-.83-.785c-.001-.43.304-.791.83-.791zm2.082-.962h-1.293v.341c-.27-.308-.71-.457-1.13-.457-1.081 0-1.828.86-1.828 1.862 0 1.005.76 1.871 1.842 1.871.427 0 .875-.157 1.102-.505h.014v.389h1.293v-3.5zM29.378 5.095c.527 0 .832.361.832.79 0 .445-.305.785-.832.785-.525 0-.83-.34-.83-.785 0-.429.305-.79.83-.79zm2.082-.964h-1.292v.342c-.27-.307-.71-.457-1.13-.457-1.082 0-1.828.86-1.828 1.863 0 1.004.76 1.87 1.842 1.87.426 0 .874-.157 1.103-.506h.013v.39h1.292V4.13zM.81 2.304c-.399 0-.726.314-.726.696 0 .383.327.696.726.696.397 0 .724-.313.724-.696 0-.382-.327-.696-.724-.696zm.646 1.867H.163v3.502h1.293V4.17zM25.82 2.265c-.398 0-.725.314-.725.696 0 .382.327.695.725.695.398 0 .726-.313.726-.695 0-.382-.328-.696-.726-.696zm.648 1.866h-1.295v5.25h1.295V4.13zM4.483 5.133c.526 0 .831.361.831.792 0 .443-.305.786-.831.786-.525 0-.832-.343-.832-.786 0-.43.307-.792.832-.792zM2.4 7.673h1.293v-.39c.249.349.69.506 1.117.506 1.087 0 1.842-.86 1.842-1.87 0-1.004-.748-1.864-1.827-1.864-.42 0-.854.15-1.132.457v-2.33H2.4v5.49z" fill="#161715"/><path d="M13.179 4.137h-1.294v3.5h1.294V6.225c0-.6.177-1.058.896-1.058.198 0 .369.021.546.117V4.089h-.248c-.505 0-.932.19-1.18.62h-.014v-.572zM18.927 6.308c-.261.245-.622.395-1.015.395-.795 0-1.438-.618-1.438-1.382 0-.764.644-1.382 1.438-1.382.415 0 .79.167 1.051.437l1.015-.972a2.922 2.922 0 0 0-2.065-.84c-1.586 0-2.872 1.234-2.872 2.757 0 1.523 1.286 2.758 2.872 2.758.777 0 1.492-.296 2.01-.777l-.996-.994z" fill="#161715" fill-rule="nonzero"/></g></svg>