<svg xmlns="http://www.w3.org/2000/svg" viewBox="0 0 41 10"><g transform="matrix(1 0 0 -1 .005 6.342)"><linearGradient id="a" gradientUnits="userSpaceOnUse" x1="-274.511" y1="-484.149" x2="-274.511" y2="-482.403" gradientTransform="matrix(28.5174 0 0 4.4463 7842.582 2149.308)"><stop offset="0" stop-color="#a61c22"/><stop offset=".8" stop-color="#da1c2d"/><stop offset="1" stop-color="#da1c2d"/></linearGradient><path d="M24.9 4.5c-.4-.5-.7-1.2-1.2-2-.4-.9-.8-1.7-1.1-2.4h1.5c.1.3.2.6.3.8h2.4c.1-.3.2-.5.3-.8h1.5c-.3.7-.6 1.5-1.1 2.4-.5.8-.9 1.5-1.2 2h-1.4zm.7-1c.3-.5.6-1.1.9-1.7h-1.7c.2.6.5 1.1.8 1.7zm-11.1 1c-.1-.7-.1-1.5-.1-2.2 0-.7 0-1.4.1-2.2h1.4c-.1.6-.1 1.1-.1 1.7h1.4c.1-.1.3-.3.4-.6.2-.3.4-.6.5-1.1h1.5c-.2.4-.4.7-.7 1.2-.2.3-.4.5-.5.6.6.2.9.7.9 1.3 0 .3-.1.7-.3.9-.3.3-.8.4-1.5.4h-3zm1.3-.8H17c.4 0 .7-.1.8-.2.1-.1.1-.2.1-.4s-.1-.5-.3-.6h-1.8c-.1.4 0 .8 0 1.2zM9 4.5c-.1-.7-.1-1.5-.1-2.2 0-.7 0-1.5.1-2.2h4.2c0 .3 0 .6-.1.9h-2.9v.9h2.7v.8h-2.7v.9h2.9c0 .3 0 .6.1.9H9zm-6.1 0c0-.6-.1-1.5-.1-2.2 0-.7 0-1.4.1-2.2h2.6c.9 0 1.5.1 1.9.3.3.2.4.6.4 1 0 .5-.3.9-.8 1.1.4.2.6.5.6.9s-.1.6-.3.8c-.4.3-1.1.3-1.9.3H2.9zm1.3-.8h1.2c.5 0 .6 0 .8-.2.1-.1.1-.2.1-.3 0-.2-.1-.4-.2-.5H4.2v1zm0-1.8h1.7c.2 0 .4 0 .5-.1.1-.1.1-.2.1-.3 0-.2 0-.3-.1-.4C6.2 1 6 .9 5.7.9H4.2v1zm16.4 2.6c-.1-.6-.1-1.5-.1-2.3 0-.8 0-1.5.1-2.2h1.2c.1.7.1 1.4.1 2.2 0 .8 0 1.6-.1 2.3h-1.2zM.1 4.5C0 3.9 0 3.1 0 2.3 0 1.5 0 .8.1.1h1.2c.1.7.1 1.4.1 2.2 0 .8 0 1.6-.1 2.3H.1z" fill="url(#a)"/></g><g transform="matrix(1 0 0 -1 28.469 9.971)"><linearGradient id="b" gradientUnits="userSpaceOnUse" x1="-287.041" y1="-454.898" x2="-286.043" y2="-453.897" gradientTransform="matrix(10.7976 0 0 6.2131 3099.776 2825.896)"><stop offset="0" stop-color="#a61c22"/><stop offset=".5" stop-color="#dc1c2e"/><stop offset="1" stop-color="#dc1c2e"/></linearGradient><path d="M2.1 2.3L.1.2c7.3 0 9 1.7 10 4l.8 2.2c-2.5-.1-6.2-1.5-8.8-4.1" fill="url(#b)"/></g><g transform="matrix(1 0 0 -1 33.03 5.226)"><linearGradient id="c" gradientUnits="userSpaceOnUse" x1="-278.545" y1="-488.901" x2="-277.541" y2="-487.913" gradientTransform="matrix(7.2156 0 0 4.2316 2009.895 2069.08)"><stop offset="0" stop-color="#ed7417"/><stop offset=".85" stop-color="#facd08"/><stop offset="1" stop-color="#facd08"/></linearGradient><path d="M2.5 2.5L.1.1c2.2 1.6 4.5 2.6 6.7 2.8l.5 1.4c-3.3 0-3.7-.7-4.8-1.8" fill="url(#c)"/></g><path d="M1.1 9.8c-.7 0-1-.3-1-1s.3-1 1-1c.2 0 .4 0 .6.1v.4c-.2-.2-.3-.2-.5-.2s-.4 0-.4.1-.2.3-.2.5 0 .4.1.5.3.2.5.2h.3c.1 0 .2-.1.3-.1v.4c-.1 0-.2.1-.3.1h-.4zm2.4-.5h-.7l-.2.4h-.4l.8-2h.5l.7 2h-.5l-.2-.4zM3.4 9l-.3-.8-.2.8h.5zm2.4.7l-.4-.6h-.3v.7h-.4v-2h1c.2 0 .4.1.5.2.1 0 .2.2.2.4 0 .1 0 .3-.1.4-.1.1-.2.1-.4.2l.5.8h-.6zm-.2-1c.2 0 .3-.1.3-.3 0-.1 0-.2-.1-.2s-.1-.1-.2-.1h-.5v.6h.5zm1.4-1h.8c.3 0 .6.1.7.3.2.2.2.4.2.8 0 .3-.1.6-.2.7-.1.2-.3.2-.7.2H7v-2zm.8 1.7c.2 0 .3-.1.4-.2.1-.1.1-.2.1-.5 0-.2 0-.4-.1-.5-.1 0-.2-.1-.4-.1h-.3v1.3h.3zm2.3.4h-.4c-.1 0-.2-.1-.3-.1v-.5c.1.1.2.1.3.2.1 0 .2.1.3.1.2 0 .3-.1.3-.2s0-.1-.1-.1c-.1-.2-.2-.2-.3-.3h-.1c-.1 0-.3-.1-.3-.2-.1-.1-.2-.2-.2-.4 0-.1 0-.2.1-.3.1-.1.1-.2.3-.2.1-.1.3-.1.4-.1h.3c.1 0 .2.1.3.1v.5c-.1-.1-.2-.1-.3-.2-.1 0-.2-.1-.3-.1-.1 0-.2 0-.2.1-.1 0-.1.1-.1.2v.1l.1.1s.1 0 .2.1c.1 0 .2.1.3.1.1 0 .1.1.2.2s.1.2.1.3c0 .1 0 .2-.1.3-.1.1-.1.2-.2.2-.1.1-.2.1-.3.1z" fill="#c41c29"/></svg>