<svg width="33" height="9" viewBox="0 0 33 9" xmlns="http://www.w3.org/2000/svg"><g fill="none" fill-rule="evenodd"><g fill="#091C5A"><path d="M.437 2.283c.246 0 .417.052.523.158.12.12.173.315.173.637v4.011c0 .555-.117.803-.804.803H.234v.246h3.09v-.245l-.093-.001c-.681-.008-.796-.254-.796-.803V3.077c0-.32.053-.515.172-.634.107-.108.281-.16.532-.16h.185v-.25H.234v.25h.203zM10.32 6.092s-.054-.25-.062-.391V3.869c-.012-1.069.134-1.6-.802-1.597v-.24h2.152v.24c-.963-.004-.842.528-.848 1.597v4.278l-.306-.003-4.646-4.857s.053.25.06.39v3.001c-.026 1.095.11 1.227.816 1.214v.25H4.44v-.25c.707.001.846-.093.845-1.303v.072-2.957l-.006-.469c.027-.607-.198-.96-.884-.954v-.24h2.065l3.858 4.05zM18.107 1.916h-.237l-.011.08c-.016.122-.064.325-.202.325a.71.71 0 0 1-.248-.07 4.368 4.368 0 0 0-1.627-.335c-1.02 0-1.944.365-2.605 1.027a3.25 3.25 0 0 0-.934 2.334c.005.858.342 1.563 1.034 2.158.696.595 1.476.85 2.61.85.944 0 1.485-.136 2.314-.581l.146-.079v-1.6c0-.683.083-.79.639-.812l.09-.003v-.238h-2.715v.238l.09.003c.62.024.737.135.737.7v1.483c-.46.302-.793.417-1.214.417-.623 0-1.177-.24-1.603-.665-.498-.498-.742-1.224-.742-2.044 0-.883.236-1.637.721-2.121.386-.386.9-.6 1.484-.6.523 0 1.13.224 1.546.554.34.277.515.545.647.988l.02.067h.232l-.172-2.076z"/></g><path d="M29.998 8.122c.151-.023.312-.02.432-.13a1.982 1.982 0 0 0 1.428-.328c.21-.17.401-.368.555-.584a2.1 2.1 0 0 0 .312-.58c.051-.13.092-.267.123-.408.146-.66.069-1.4-.146-2.029a3.6 3.6 0 0 0-.134-.338c-.269-.555-.635-1.154-1.198-1.505a2.406 2.406 0 0 1-.79-.82c-.097-.088-.19-.204-.316-.225.034.057.072.113.082.18l-.008.008c-.134.004-.238-.066-.33-.152l.101-.092c-.038-.019-.082-.026-.124-.036-.385-.044-.702.134-1.044.22l-.006.018c.21.094.254.325.376.481.03-.036.082-.01.124-.013.061.004.119.048.178.032.002-.05-.027-.091-.036-.137.036-.017.08-.002.12 0 .11.065.288-.011.357.137a2.076 2.076 0 0 0-.363.063c.008.048.056.086.052.134a1.198 1.198 0 0 0-.321-.082l-.006.017c.143.168.34.267.54.326.29.067.543-.07.821-.023.684.313 1.268 1.029 1.522 1.708.013.032.025.065.036.099.213.62.253 1.382.04 2.03-.113.268-.238.522-.438.74-.076.094-.16.177-.25.247-.287.223-.64.321-1.005.221-.023-.015-.069-.02-.061-.059a4.018 4.018 0 0 0 .107-1.124l-.001-.042a3.678 3.678 0 0 0-.29-1.308 4.553 4.553 0 0 0-.41-.721c-.2-.275-.448-.511-.765-.63-.195-.051-.436-.06-.583.101a.392.392 0 0 0-.133.352c-.165.103-.35.16-.55.177-.05.004-.1.022-.15.021a.845.845 0 0 1-.143-.005c-.242-.03-.487-.16-.673-.309-.003-.1-.01-.193-.013-.298a.359.359 0 0 1-.202-.284l.01-.01a.81.81 0 0 1 .17.082 1.26 1.26 0 0 0-.129-.425c-.069-.029-.137-.051-.202-.086a.325.325 0 0 1-.133-.22c.066.064.183.041.234.11-.09-.265-.091-.569-.238-.811-.075-.18-.27-.261-.403-.393-.052-.063-.073-.15-.166-.16-.077-.02-.082-.105-.096-.16.048.005.088.038.128.045-.11-.293-.208-.62-.508-.806l-.051.032c-.117.017-.241.025-.357.029.051-.076.143-.109.215-.144a.513.513 0 0 0-.258-.095c-.06.061-.171.092-.25.11l-.01-.009c-.001-.068-.017-.152.087-.17-.1-.047-.264-.028-.366 0-.028.075-.11.142-.104.23-.06.06-.101.143-.163.187-.001-.147.061-.283.088-.406-.086.032-.173.078-.257.118a3.528 3.528 0 0 0-.424-.216c-.013-.006-.042-.011-.036.014.124.089.076.257.09.385l-.079-.065C23.57.24 23.46.17 23.44.063c-.13.025-.213.06-.334.111l-.016.01c.09 0 .166.07.21.14-.136.008-.256-.045-.39-.059-.013-.013-.025-.028-.046-.026-.066.025-.124.072-.183.118-.131.13-.265.273-.328.445.044.007.1.005.132.032-.073.044-.136.118-.206.16-.025.1-.021.212-.027.32-.056.085-.13.159-.166.253-.119.382-.15.808-.132 1.243-.038.036-.088.06-.124.088l.004.389h.01c.016-.082.114-.128.173-.183h.02c-.01.087-.022.175-.024.265l-.11.091c-.111.098-.018.245-.027.367.008.032.013.08.036.088.014-.048.055-.082.082-.125.048-.01.09-.05.134-.055a2.062 2.062 0 0 1-.096.28.324.324 0 0 0-.058.048.139.139 0 0 0-.04.07c.087.453.222.899.377 1.324-.105.178-.165.387-.252.57a.988.988 0 0 0-.034.078c-.088.222-.115.47-.224.683a.575.575 0 0 0-.737.06.51.51 0 0 0-.376.068.499.499 0 0 0-.167.204.413.413 0 0 0-.03.181.439.439 0 0 0-.16.242c-.04.206.033.42.15.58h9.517v-.001z" fill="#FFF"/><path d="M28.735 3.898c-.002.07-.039.149-.006.208.046-.073.122-.07.183-.103.17-.021.332.054.49.108-.04-.089-.066-.188-.11-.27-.088-.032-.221.054-.237-.129-.053-.065-.137-.018-.192-.014a.588.588 0 0 0-.128.2zM22.9 2.187a.01.01 0 0 0-.003-.002v.002h.004zM23.593 3.882l.115-.11c.01 0 .017.001.023.01l-.01.21a.298.298 0 0 0 .197.073c.006-.057.05-.097.074-.147.022-.04.008-.099.05-.128l.013.014c.014.062.01.133.043.188.003.03.009.07.013.096.084.004.16-.02.225-.05-.004-.072.021-.131.032-.198.018-.023-.02-.065.027-.063.027.057.074.116.101.177.11-.112.157-.26.183-.412-.032-.044-.082-.044-.12-.072-.324-.105-.74-.126-1.054.036a.49.49 0 0 0 .088.376zM20.56 7.46c-.014.148 0 .286.013.43.04.048.111.104.182.108l.013-.098c.03-.136-.064-.28.035-.394.069.017.138.044.197.069a.3.3 0 0 0-.168-.349l-.271.235z" fill="#FFF"/><path d="M21.03 7.255c-.074.223-.13.499-.04.733.052-.034.106-.066.151-.114-.009-.18-.034-.371.073-.52.093.029.157.118.193.206a.353.353 0 0 0 .059-.298c.004-.083-.092-.064-.138-.099.016-.07.014-.152.088-.192l-.229.023c-.059.083-.124.166-.156.261zM21.502 7.914c.01.017 0 .047.02.051.028-.16.158-.264.229-.405.034-.047.032-.114.087-.15.075 0 .128.053.201.059.023.017-.012.032-.013.05-.015.13-.065.239-.056.372h.013c.102-.107.17-.222.245-.344l.013-.109c.017-.13-.124-.213-.216-.267l.082-.105-.114-.04a.522.522 0 0 0-.348.174c-.116.213-.135.454-.143.714zM22.016 6.782c.044.013.084-.023.128-.004.175.065.359.132.49.278l.157.399.078-.246-.051-.134c-.044-.095-.164-.087-.247-.091-.034-.038.002-.082.014-.118.04-.136-.126-.128-.193-.183.004-.082-.095-.054-.151-.061l-.019-.023c-.011-.017-.04-.017-.055-.004-.004-.006-.012-.01-.008-.02l-.042.01a.27.27 0 0 0-.101.197zM22.127 6.343c.005.025.02.05.04.065.086-.023.167-.082.267-.046.128.113.261.23.416.292l.056-.01c.034.012.072.014.095.052.021.052-.032.082-.05.124.087.063.052.176.106.252l.137-.183c-.032-.08.002-.218-.124-.225A.12.12 0 0 1 23 6.553c-.082-.075-.183-.107-.265-.183-.067-.054-.107-.136-.193-.155a.713.713 0 0 0-.192-.064c-.129-.02-.14.133-.224.192zM22.31 5.968l.023.036c.095-.006.181-.048.275-.046.063.038.145.036.21.069.051.07.107.15.183.198.155.023.24.189.294.31v-.058a.407.407 0 0 0-.033-.252c-.038-.038-.093-.063-.133-.097-.008-.025-.002-.037.006-.06-.06-.063-.147-.097-.22-.146-.101-.147-.296-.107-.45-.147l-.155.193zM22.307 4.617c.024.08.053.18.069.265.076-.16.225-.23.357-.362a.703.703 0 0 0-.254-.088v-.004c-.06.056-.15.113-.172.19zM22.654 5.243l.121-.098c.122-.098.222-.21.24-.336-.086-.04-.2-.013-.283.01-.03.139-.076.275-.078.424zM22.716 5.514c.132.009.26.038.367-.045l.107-.386c-.034-.003-.069-.02-.101-.007a.9.9 0 0 1-.373.438zM22.759 4.248c.095.126.253.267.416.307-.019-.16-.17-.271-.25-.408l-.004-.046a.801.801 0 0 0-.198-.118c-.01.092.017.18.036.265zM23.22 5.599a.5.5 0 0 0 .304-.04c.136-.043.21-.246.256-.405h-.17l-.183.244c-.072.053-.142.131-.206.201zM23.2 4.075c.04.164.13.313.252.454l.032-.314-.284-.14zM23.924 4.895c.016-.115-.04-.249-.056-.366-.081-.047-.195-.042-.278-.088.005.182.172.337.334.454zM23.652 5.788c.12-.039.237-.08.347-.142.071-.101.178-.194.193-.313-.088.025-.164-.003-.246.037-.05.09-.08.192-.175.257-.016.065-.086.11-.119.16zM23.84 6.024l.17.264a.298.298 0 0 0 .284-.037l-.062-.24c-.12.054-.263.037-.393.013zM24.078 4.678l.078.263c.189-.114.227-.28.223-.455-.108.092-.172.148-.301.192zM24.454 5.114c.002.04.012.077.033.108.148.058.164.256.301.33.09.044.193-.01.271-.05-.059-.072-.126-.123-.183-.2-.04-.018-.08-.045-.078-.099l-.344-.089zM24.583 6.069c.092.105.217.159.346.188-.021-.03.014 0 .02-.018l-.163-.356c-.081.002-.165.018-.24.013.005.06.019.118.037.173zM24.884 4.882a1.328 1.328 0 0 1-.129-.455c-.081.076-.165.125-.24.202-.036.156.25.195.37.253zM25.023 4.71c.085.09.273.059.379.032-.05-.069-.212-.109-.24-.183a1.37 1.37 0 0 0-.103-.38c-.083.162-.184.355-.036.53zM25.128 5.14c.191.197.378.426.645.342.02-.019.052-.016.056-.051-.079-.07-.163-.125-.243-.189l-.091-.19h-.042c-.104.05-.215.068-.325.087zM25.132 6.729h.013c.115-.11.25-.146.386-.192.036.016.013.064.046.082.082-.041.181-.032.265-.066.101.005.184.007.265.06.065.102.188.09.272.159l-.014-.16c-.177-.249-.454-.267-.71-.262l-.006-.033a.393.393 0 0 0-.186.049c-.082.004-.16.052-.24.082-.036.087-.064.191-.091.28zM25.297 4.317c.084.097.209.171.351.147-.073-.063-.157-.13-.162-.22.022-.17-.19-.183-.292-.27.034.114.03.242.103.343z" fill="#FFF"/><path d="M25.266 6.999h.022c.101-.064.248-.016.348-.083.055-.028.059.048.097.069.094.057.105.229.237.189.158.082.118.275.124.416l.147-.092c-.013-.074.028-.164-.02-.229-.035-.082-.135-.09-.182-.156.057-.098-.073-.143-.1-.214l.008-.01.202.027c.07.042.094.119.115.19.158.026.197.205.252.32.033-.079.046-.163.078-.239.002-.063-.082-.063-.124-.091a.342.342 0 0 0-.14-.248c-.177-.044-.331-.141-.524-.141l-.16.05c-.088.02-.182-.006-.248.054-.1.008-.108.117-.132.188zM25.367 6.275l.036.02c.078-.043.157-.093.239-.13.127-.043.227.13.334.021.04-.034.074.016.105.044.046.1.153.093.233.12-.04-.13-.09-.308-.23-.329-.055-.03-.12-.027-.173-.066-.147-.194-.243.16-.403.073-.057.076-.128.147-.141.247z" fill="#FFF"/><path d="M25.403 7.141c.064.052.13.14.228.128.124.055.072.212.14.294l.072-.061-.006-.004.01-.01.004.006c.02-.057-.008-.159-.042-.225-.046-.03-.1.002-.143-.027-.006-.06-.046-.091-.092-.13-.032-.022-.074.008-.11.006l-.061.023zM25.642 4.838c.063.135.185.219.282.312.08.047.185.059.271.034a2.063 2.063 0 0 1-.225-.287c-.027-.05-.032-.11-.069-.155-.09.022-.19.02-.26.096zM25.747 4.177c.115.154.292.092.455.097v-.018l-.25-.227a.67.67 0 0 0-.205.148zM22.232 2.335l.157.344c-.003-.195.124-.357.097-.555L22.602 2l-.246.054a.524.524 0 0 0-.124.28zM22.307 1.87l.213-.125v-.316c-.09.054-.139.146-.208.219l-.005.221z" fill="#FFF"/><path d="M25.403 2.087c-.036.048-.091.06-.137.069.08-.147.118-.351.055-.517.042-.015.088-.023.128-.046l-.004-.004.106-.091c.139-.096.085-.277.137-.412-.069-.107-.09-.237-.19-.327l.007-.003c-.079-.1-.22-.088-.327-.138-.141-.047-.25.05-.351.115-.044.007-.017.065-.065.063-.027.07-.06.147-.079.225-.189-.027-.393-.006-.544.1-.08-.058-.177-.07-.271-.096-.069-.014-.147.011-.196-.027-.073-.082-.088-.23-.213-.252-.043-.015-.053-.062-.053-.105-.082-.013-.155-.05-.235-.068-.122-.056-.219.032-.31.091-.04.018-.087.023-.125.046a1.746 1.746 0 0 0-.177.334.693.693 0 0 0 .105.265c.044.124.181.221.298.27a1.123 1.123 0 0 0 0 .606l-.004.001-.006.006c-.018 0-.038.003-.053-.006h-.002a.831.831 0 0 0 .251.479c.05.017.039.076.06.114.013.017.015.054.009.069a1.499 1.499 0 0 0-.802.2c-.06.03-.034.115-.04.174.168-.11.35-.193.55-.229.086-.006.183-.027.266-.004l.01.164c-.228.118-.476.187-.671.382.004.059-.007.127.01.177l.174-.141c.167-.128.343-.237.536-.307.052.061.105.126.174.164.116-.075.242-.13.376-.164.07-.042.183-.004.229-.088l.032-.173c-.005-.004-.009-.012-.019-.01a.263.263 0 0 1-.14-.246.257.257 0 0 1-.102.027c-.03-.008-.06-.015-.073-.046-.002-.038-.02-.095.017-.124.124-.076.285-.08.442-.068.116.015.284.009.324.147-.005.04-.002.083-.042.11-.042.023-.09-.002-.128-.019-.03.093-.082.199-.187.229l.014.11c.013.05.017.132.095.115.182.044.342.137.5.238.054-.053.096-.114.134-.17.282.096.527.308.76.504l.01-.16a2.614 2.614 0 0 0-.724-.445c.01-.051.02-.1.022-.156.304.017.592.11.843.258l-.005-.138a1.873 1.873 0 0 0-.866-.238.096.096 0 0 1-.013-.06c.152-.024.26-.182.298-.32.078-.09.19-.187.164-.32l.011-.034c.01-.034.019-.069.007-.1z" fill="#FFF"/><path d="M25.67 2.577l.22-.05.024-.087c.063-.128-.07-.223-.135-.324l-.11.461zM26.064 3.207c.106.09.208.237.395.192-.014-.06-.057-.111-.084-.167-.049-.044-.065-.171-.162-.126-.073-.039-.092-.102-.138-.153-.021.078-.008.176-.01.254zM26.09 3.756c.033.057.042.13.074.18.058.05.144.042.215.033.065-.019.106.07.166.019-.075-.06-.12-.168-.192-.245-.084-.084-.174-.011-.262.013zM26.192 4.673c.132.111.3.22.475.181.019-.013.052-.01.055-.043-.109-.054-.223-.208-.337-.24-.063-.138-.145.035-.225.024.001.033.024.057.032.078zM26.589 6.312l.04.06c.041.2.219.382.122.6.08.04.105.106.156.16h.014c.062-.166.019-.338-.014-.504.025-.15-.192-.238-.318-.316zM26.622 4.397c.121.108.315.118.454.064-.088-.056-.186-.118-.259-.194l-.195.13zM27.093 4.992c-.014.104.062.19.143.241.03-.061.079-.113.084-.182a.448.448 0 0 0-.194-.272c-.02.068-.04.134-.033.213zM27.1 5.814c-.02.09.12.101.18.15.049.042-.033.071-.033.111.103.093.162.2.162.324.041-.116.103-.227.125-.347-.01-.084-.2-.066-.17-.16.054-.095-.01-.189-.046-.274-.011-.014-.035-.04-.056-.033-.05.078-.171.133-.163.229zM27.36 5.36l.14.192c.063-.005.103-.047.151-.077.038-.08-.062-.132-.091-.197-.025-.046 0-.107-.046-.147-.035-.015-.076-.04-.117-.033l-.037.262zM27.488 4.853a.554.554 0 0 1 .21.2c.067.194.174.37.252.559.028.131.051.249.088.378.013.034.005.101.059.096.015-.145.044-.285.046-.435-.048-.063-.111-.09-.17-.128V5.51c.008-.033.034-.071.074-.065.017-.02.069-.038.046-.073-.099-.099-.093-.27-.252-.3-.055-.023-.069-.08-.074-.134a.456.456 0 0 0-.28-.085zM27.581 5.886c.122.09.08.22.07.34-.02.072.095.03.131.068.074.088.03.216.004.311.065-.078.14-.147.19-.232-.003-.033.049-.048.047-.088.021-.055-.06-.03-.093-.037-.029-.005-.06-.02-.05-.051.062-.096.005-.21-.02-.305-.028-.078.013-.183-.033-.252-.076.084-.303.103-.246.246zM27.757 4.532c.17.172.294.344.477.51.004-.074-.005-.143-.01-.215-.026-.051-.076-.09-.118-.128-.135-.013-.206-.195-.35-.167zM28.202 5.441c.005.017.016.032.027.05.105.122.205.248.278.38-.021-.142.114-.318-.065-.426-.024-.046-.105-.03-.156-.027l-.084.023zM28.66 6.84c.054.025.122-.02.174-.05.048-.013.088.015.124.04.015.031 0 .06.005.09.115.033.228.076.33.144l.031-.033c.008-.084-.057-.144-.118-.191-.04-.024-.1-.01-.128-.047.02-.031.02-.078.017-.114a.272.272 0 0 1-.155-.05c-.032-.01-.06-.037-.087 0-.096.066-.101.164-.193.211zM28.794 4.566a.306.306 0 0 0 .137-.086c.128-.165.313-.055.462-.057a1.56 1.56 0 0 0-.105-.208c-.053-.03-.103-.065-.164-.065-.13-.107-.217.073-.317.162a.416.416 0 0 0-.013.254zM28.798 4.876c0-.006 0-.013.005-.015.017.018-.002.059.027.068.05-.028.096-.068.141-.104.128 0 .205-.142.33-.142.21.044.419.091.602.209a.466.466 0 0 0-.229-.333c-.061-.024-.11.013-.153.052-.128.092-.061-.132-.15-.137-.117.042-.238.087-.367.074-.077.033-.13.113-.216.104-.004.072-.013.16.01.224zM28.886 5.328c.04.053.106.043.164.053l.166-.081c.002-.038-.05-.048-.039-.09.046-.065.11-.02.166-.047.08-.014.163-.114.243-.04-.002.012.004.029-.004.04-.025.075.017.12.063.148.094.022.181.13.275.081-.01-.097-.03-.188-.05-.281-.078-.017-.133-.098-.206-.132-.032.039-.074.067-.114.063-.148-.043-.323-.158-.472-.04-.054.08-.149.056-.221.092.004.082.011.16.029.234zM28.948 6.386c-.011.032-.044.086.015.101.123.004.28-.059.375.036.032.025.017.077.015.11l.16.133c.016-.08.044-.153.046-.239a.267.267 0 0 0-.097-.16c-.105 0-.166-.123-.279-.107-.059-.014-.11.038-.17.038-.027.027-.042.06-.065.088z" fill="#FFF"/><path d="M28.994 5.497c.025.057.054.15.101.155.113-.054.277-.088.403-.029.042.008.042.06.033.095.065.042.143.075.212.121l-.02-.126c-.003-.136-.16-.149-.17-.283a.69.69 0 0 0-.406-.025c-.044.044-.107.038-.16.05-.004.017.005.027.007.042zM29.027 6.105c.074-.021.122-.103.202-.11a.372.372 0 0 1 .307.156c.047.03.037.109.096.109-.017-.094.013-.18.01-.275-.081-.134-.279-.03-.354-.187l-.14.01c-.102.024-.075.142-.089.223-.011.024-.034.043-.032.074zM29.727 6.94c.084.117.268.207.287.343.043-.037.073-.079.102-.119-.002-.038-.065-.038-.09-.068-.024-.05.015-.094.025-.138a.437.437 0 0 0-.213-.179l-.11.16zM29.962 6.673l.195.219c.083-.11.083-.27.05-.403-.018-.025-.053-.065-.102-.047-.073.063-.083.159-.143.23zM29.403 1.47c.05.035.097.068.156.073.04-.03.092-.051.142-.032.07.064.156-.014.238-.009a.907.907 0 0 0-.238-.212c-.107.032-.193.14-.298.18zM30.15 1.61c.103.011.177.124.247.219.088.016.155.093.207.173l-.033-.128a.874.874 0 0 0-.154-.327.632.632 0 0 0-.267.062z" fill="#FFF"/><path d="M23.024.76l.056.005c.149.075.39.113.402.328-.15.06-.295.14-.415.261-.092-.093-.277-.042-.308-.205.029-.155.084-.35.265-.39zM23.168 1.727c.173-.015.341.009.521-.006.044.019.09.057.11.101-.005.206-.068.403-.078.614-.078.033-.154.098-.173.183-.071.021-.134.064-.203.096-.03-.065-.025-.162.03-.216.073-.105.266-.08.25-.246.05-.08.003-.183.005-.267-.02-.063-.038.021-.069.019-.061.013-.124.017-.177-.013-.04-.042-.09-.076-.102-.134-.053-.026-.116-.068-.143-.124l.029-.007zM23.38 2.972c.116.016.238-.035.338.021-.022.038-.079.054-.124.065l-.181.084c-.068-.016-.03-.124-.033-.17zM23.725 1.403c.088-.037.183-.115.277-.078-.067.09-.12.205-.172.313l-.282-.008a.475.475 0 0 1 .177-.227zM24.504 1.317c.127-.027.12.173.237.181.02.033.05.062.038.11-.067.033-.166.017-.242.038-.101-.067-.036-.278-.195-.264-.009-.016-.027-.049-.004-.06a.32.32 0 0 1 .166-.005zM24.409 1.826c.047-.067.12-.072.189-.086l.494.01c.021.019-.019.036-.019.059-.03.028-.074.036-.101.063-.065.002-.06.078-.105.11-.07.07-.174.039-.256.027a.22.22 0 0 1-.074-.082l-.023.023c.029.107.02.225.042.334l.118.078c.002.175.208.128.298.225a.534.534 0 0 1-.109.17.638.638 0 0 0-.242-.147c-.008-.103-.12-.164-.184-.216-.017-.186-.02-.377-.05-.558l.022-.01zM24.6 3.003h.325l-.04.17-.325-.138c-.008-.027.021-.035.04-.032zM25 .842l.17-.054c.098.046.19.103.28.168.07.13.058.305.026.45-.052.057-.164 0-.206.092h-.008c-.063-.18-.242-.34-.409-.422.027-.091.056-.18.148-.234z" fill="#F60"/><path d="M28.983 8.108H30c.151-.023.311-.019.432-.13a1.983 1.983 0 0 0 1.428-.327c.211-.171.401-.369.555-.584.135-.19.243-.367.312-.58a2.72 2.72 0 0 0 .123-.408c.145-.661.069-1.4-.146-2.03a3.732 3.732 0 0 0-.134-.337c-.269-.555-.634-1.154-1.198-1.505a2.41 2.41 0 0 1-.79-.82c-.097-.088-.19-.205-.316-.226.034.058.072.113.082.18l-.008.01c-.133.003-.239-.067-.33-.154l.101-.091c-.038-.019-.082-.027-.124-.036-.386-.044-.703.133-1.044.22l-.006.018c.21.094.254.324.376.481.03-.037.082-.01.124-.014.061.004.119.048.177.033.003-.052-.026-.092-.036-.137.036-.018.08-.002.12 0 .111.064.289-.012.358.137a2.076 2.076 0 0 0-.363.063c.008.047.055.086.052.133a1.198 1.198 0 0 0-.321-.082l-.006.017c.144.168.34.267.54.327.289.066.542-.07.821-.023.684.313 1.268 1.028 1.522 1.707l.036.099c.213.62.253 1.383.04 2.03-.114.269-.238.522-.439.741-.075.093-.16.176-.25.247-.287.223-.64.32-1.004.22-.023-.014-.069-.018-.062-.058a4.022 4.022 0 0 0 .107-1.124v-.042a3.669 3.669 0 0 0-.29-1.309 4.53 4.53 0 0 0-.41-.72c-.2-.275-.448-.512-.766-.63-.194-.052-.435-.061-.582.1a.39.39 0 0 0-.134.352c-.164.104-.349.16-.55.177-.049.004-.1.022-.15.022a.818.818 0 0 1-.142-.006c-.243-.03-.487-.16-.673-.309-.004-.099-.01-.192-.013-.297a.36.36 0 0 1-.203-.284l.01-.01c.061.019.115.05.17.082a1.25 1.25 0 0 0-.128-.425c-.069-.029-.138-.051-.203-.086a.326.326 0 0 1-.133-.221c.067.065.183.042.235.11-.09-.265-.092-.568-.239-.81-.074-.18-.27-.262-.403-.393-.051-.063-.072-.15-.166-.16-.076-.02-.082-.106-.095-.16.047.005.087.038.128.045-.111-.294-.208-.62-.508-.807l-.052.033a3.14 3.14 0 0 1-.357.028c.052-.076.143-.108.216-.143a.516.516 0 0 0-.258-.095c-.061.061-.172.091-.25.108l-.01-.007c-.001-.068-.017-.153.086-.17-.1-.047-.263-.028-.365 0-.029.075-.11.141-.105.229-.058.061-.1.143-.162.187-.002-.147.06-.282.088-.406-.086.032-.174.078-.257.118a3.515 3.515 0 0 0-.424-.215c-.013-.006-.042-.012-.036.013.124.09.076.257.09.385l-.08-.065c-.037-.097-.148-.167-.167-.274-.13.024-.213.059-.333.11l-.017.01c.09 0 .166.07.21.14-.135.009-.256-.045-.389-.058-.013-.014-.025-.029-.046-.027-.067.025-.124.073-.183.119-.132.13-.266.273-.329.444.045.008.1.006.132.033-.072.043-.135.118-.206.16-.025.099-.021.211-.027.32-.055.084-.13.158-.166.252-.118.383-.149.808-.131 1.243-.039.036-.088.06-.124.088l.003.39h.01c.017-.083.115-.129.174-.184h.019c-.01.088-.021.175-.023.265l-.11.092c-.111.097-.018.244-.027.366.007.032.013.08.036.088.013-.048.055-.082.082-.124.048-.012.09-.05.133-.056a1.99 1.99 0 0 1-.095.28.35.35 0 0 0-.058.048.138.138 0 0 0-.039.071c.086.452.22.898.376 1.324-.106.177-.165.386-.252.569a1.164 1.164 0 0 0-.035.078c-.087.222-.114.47-.223.683a.576.576 0 0 0-.737.059.512.512 0 0 0-.377.069.502.502 0 0 0-.166.204.414.414 0 0 0-.03.181.438.438 0 0 0-.16.242c-.04.206.032.42.15.579h8.499z" fill="#FFF"/><path d="M32.705 4.05a3.732 3.732 0 0 0-.134-.338c-.269-.555-.634-1.154-1.198-1.505a2.41 2.41 0 0 1-.79-.82c-.097-.088-.19-.204-.316-.225.034.057.072.112.082.179l-.008.01c-.133.003-.239-.067-.33-.153l.101-.092c-.038-.019-.082-.027-.124-.036-.386-.044-.703.133-1.044.22l-.006.018c.21.094.254.324.376.481.03-.036.082-.01.124-.013.061.003.119.047.177.032.003-.051-.026-.091-.036-.137.036-.018.08-.002.12 0 .111.065.289-.012.358.137a2.076 2.076 0 0 0-.363.063c.008.048.055.086.052.134a1.198 1.198 0 0 0-.321-.083l-.006.017c.144.168.34.268.54.327.289.066.542-.07.821-.023.684.313 1.268 1.028 1.522 1.707.013.033.024.066.036.1.213.62.253 1.382.04 2.029-.114.27-.238.523-.439.742-.075.092-.16.175-.25.246-.287.223-.64.32-1.004.22-.023-.014-.069-.018-.062-.058a4.022 4.022 0 0 0 .107-1.124v-.042a3.669 3.669 0 0 0-.29-1.308 4.53 4.53 0 0 0-.41-.722c-.2-.274-.448-.511-.766-.63-.194-.05-.435-.06-.582.102a.39.39 0 0 0-.134.35c-.164.105-.349.161-.55.178-.049.005-.1.022-.15.022a.818.818 0 0 1-.142-.006c-.243-.03-.487-.16-.673-.309-.004-.098-.01-.192-.013-.297a.36.36 0 0 1-.203-.284l.01-.01c.061.02.115.05.17.082a1.25 1.25 0 0 0-.128-.425c-.069-.029-.138-.051-.203-.086a.326.326 0 0 1-.133-.221c.067.065.183.042.235.11-.09-.264-.092-.568-.239-.81-.074-.18-.27-.261-.403-.393-.051-.063-.072-.15-.166-.16-.076-.02-.082-.105-.095-.16.047.005.087.038.128.045-.111-.294-.208-.62-.508-.806l-.052.032a3.14 3.14 0 0 1-.357.029c.052-.077.143-.109.216-.144a.516.516 0 0 0-.258-.095c-.061.061-.172.091-.25.109l-.01-.008c-.001-.068-.017-.153.086-.17-.1-.047-.263-.028-.365 0-.029.075-.11.142-.105.23-.058.06-.1.142-.162.186-.002-.147.06-.282.088-.406-.086.032-.174.078-.257.118a3.515 3.515 0 0 0-.424-.215c-.013-.006-.042-.012-.036.013.124.09.076.257.09.385l-.08-.064c-.037-.098-.148-.168-.167-.275-.13.025-.213.06-.333.11l-.017.01c.09 0 .166.07.21.141-.135.008-.256-.046-.389-.059-.013-.013-.025-.029-.046-.027-.067.025-.124.073-.183.119-.132.13-.266.273-.329.444.045.008.1.006.132.033-.072.044-.135.118-.206.16-.025.1-.021.212-.027.32-.055.084-.13.159-.166.252-.118.383-.149.809-.131 1.244-.039.036-.088.059-.124.087l.003.39h.01c.017-.083.115-.128.174-.184h.019c-.01.088-.021.176-.023.266l-.11.091c-.111.097-.018.244-.027.366.007.032.013.08.036.088.013-.048.055-.082.082-.124.048-.012.09-.05.133-.055a1.99 1.99 0 0 1-.095.28.35.35 0 0 0-.058.047.138.138 0 0 0-.039.071c.086.452.22.899.376 1.324-.106.177-.165.386-.252.57a1.164 1.164 0 0 0-.035.077c-.087.222-.114.47-.223.683a.576.576 0 0 0-.737.059.512.512 0 0 0-.377.069.502.502 0 0 0-.166.204.414.414 0 0 0-.03.181.438.438 0 0 0-.16.242c-.04.207.032.42.15.58h3.374a1.099 1.099 0 0 1-.13-.212c-.072-.11-.023-.264-.03-.39a7.206 7.206 0 0 1 .265-.494l.155-.059c.082 0 .15-.059.229-.038.105.105.105-.105.206-.114.237-.03.472-.008.605.192 0 .027.042.027.033.052-.03.009-.06-.01-.092-.01-.145-.036-.315-.128-.458-.046l-.02.104a1.05 1.05 0 0 0-.017.106.578.578 0 0 1 .243.166c.047-.094.149-.136.238-.166.079.017.165.02.23.069.12.11.06.3.05.44.108.061.228.096.339.155-.052.046-.12.065-.183.088l-.183-.037c-.021-.015-.058-.015-.065-.042a.958.958 0 0 0-.174.235h2.615a1.38 1.38 0 0 0-.122-.212c-.053-.114-.032-.27-.038-.393l.245-.372c.133-.002.284-.051.429-.026a.16.16 0 0 0 .021-.012c.06-.041.079-.138.168-.126.16-.043.283.03.403.101a.189.189 0 0 1-.012.025c-.05.08-.145-.009-.214.015-.028.03.014.067.02.102.024.034-.026.03-.042.036a.131.131 0 0 1-.115-.036c-.008-.01-.002-.021-.017-.023-.035.057-.084.108-.098.173.044.042.103.084.124.138.044.063-.034.11-.05.166-.005.01-.022.01-.028 0-.04-.023-.074-.08-.118-.066-.039.17.013.34-.01.51.074.017.162-.004.242 0l.033-.359c.034-.232.172-.427.334-.605.175-.12.288.117.418.199.021.004.014.027.023.04-.002.038-.042.053-.069.065-.08.028-.14-.06-.189-.11-.047.05-.069.12-.124.16l.02.005c.063.063.123.13.137.214a.24.24 0 0 1-.115.189 1.889 1.889 0 0 1-.127-.275c.002.004-.003.005-.006.01-.106.028-.133.146-.151.242.006.093-.065.131-.046.225H30c.151-.023.312-.02.432-.13a1.983 1.983 0 0 0 1.428-.328c.211-.17.402-.368.555-.584.136-.19.243-.367.312-.58a2.72 2.72 0 0 0 .123-.408c.145-.66.069-1.4-.146-2.028z" fill="#F60"/><path d="M23.944 7.59c.076-.048.2-.06.217-.17-.03-.023-.059-.052-.094-.06l-.08.023c.005-.046.031-.097.047-.146l.259-.082a1.986 1.986 0 0 0-.061.389c.023.194.053.402.155.564h-.279c-.031-.179-.224-.309-.164-.518zM24.57 7.36h.02l.257.167.037-.006c-.02.195-.035.385-.037.587h-.278c-.056-.188-.15-.387-.139-.59.048-.052.08-.117.14-.157zM24.956 7.544c.046-.048.065-.128.157-.137.065.001.125.009.174.045.084.084.002.191-.029.275a2.74 2.74 0 0 1-.145.381h-.244l.087-.564zM27.846 7.485c.049.053.064.126.138.173a.316.316 0 0 0 .049-.292l-.065-.055c.083-.017.17-.023.252-.036-.036.101-.103.193-.092.31.003.173.036.344.054.523h-.245c-.089-.168-.178-.328-.171-.522.026-.035.044-.075.08-.101z" fill="#F60"/><path d="M28.737 3.885c-.002.07-.038.148-.006.208.047-.073.123-.07.184-.103.17-.022.332.054.49.108-.04-.09-.066-.189-.11-.27-.088-.032-.222.054-.237-.13-.053-.064-.137-.018-.193-.013a.58.58 0 0 0-.128.2zM22.903 2.174l-.004-.003v.003h.004zM23.596 3.869l.115-.11c.01 0 .017.001.023.008l-.01.212a.298.298 0 0 0 .197.073c.006-.057.05-.098.074-.147.021-.04.008-.1.05-.128l.013.013c.013.064.01.134.042.19l.013.095a.473.473 0 0 0 .226-.05c-.004-.073.02-.132.032-.198.017-.023-.021-.065.027-.063.027.057.074.116.101.177.11-.112.157-.259.183-.412-.032-.043-.082-.043-.12-.072-.325-.105-.74-.126-1.054.036a.485.485 0 0 0 .088.376zM20.563 7.448c-.015.147 0 .284.012.43.04.047.112.103.183.106l.012-.097c.03-.136-.064-.28.035-.394.07.017.138.044.198.069a.3.3 0 0 0-.168-.35l-.272.236z" fill="#FFF"/><path d="M21.033 7.241c-.074.224-.13.499-.04.734.052-.035.105-.067.151-.115-.01-.18-.034-.37.073-.52.093.03.156.119.192.206a.351.351 0 0 0 .06-.297c.004-.084-.092-.065-.138-.099.015-.07.013-.152.088-.193l-.229.023c-.059.084-.124.166-.157.261zM21.505 7.9c.01.017 0 .048.02.052.028-.16.158-.264.229-.405.034-.047.032-.115.087-.15.075 0 .128.053.2.058.024.018-.01.033-.013.052-.015.13-.064.237-.055.37h.013c.101-.106.17-.221.245-.343l.013-.109c.017-.13-.124-.213-.216-.267l.082-.105-.115-.04a.52.52 0 0 0-.347.174c-.116.213-.135.454-.143.714zM22.019 6.769c.044.013.084-.023.127-.004.176.065.36.131.491.278l.157.399.078-.247-.051-.133c-.044-.095-.165-.087-.247-.091-.034-.038.002-.082.014-.118.04-.136-.126-.128-.193-.184.004-.081-.096-.053-.151-.06l-.02-.023c-.01-.018-.04-.018-.055-.004-.003-.006-.01-.01-.007-.02l-.042.01a.268.268 0 0 0-.101.197zM22.13 6.33c.005.024.02.05.04.065.085-.023.168-.083.267-.046.128.112.261.23.416.292l.056-.01c.034.011.072.013.095.052.02.051-.033.081-.05.123.086.064.052.176.105.252l.138-.183c-.032-.08.002-.217-.124-.225a.12.12 0 0 1-.07-.11c-.081-.075-.182-.107-.264-.184-.067-.053-.107-.135-.193-.154a.702.702 0 0 0-.193-.064c-.128-.02-.14.133-.224.192zM22.313 5.954l.023.037c.095-.006.18-.048.275-.046.062.038.145.036.21.068.051.071.107.15.182.199.155.022.241.189.294.31v-.058a.413.413 0 0 0-.032-.252c-.038-.039-.094-.063-.133-.097-.008-.025-.002-.037.005-.06-.06-.063-.147-.097-.22-.147-.1-.147-.295-.106-.45-.147l-.154.193zM22.31 4.604c.024.08.053.18.07.265.074-.16.224-.232.356-.362a.705.705 0 0 0-.254-.088v-.005c-.06.056-.151.113-.172.19zM22.656 5.23l.122-.098c.121-.098.222-.211.24-.336-.086-.04-.2-.013-.283.01-.03.138-.076.274-.079.424zM22.72 5.5c.131.009.26.039.366-.045l.107-.386c-.035-.002-.069-.02-.101-.006a.902.902 0 0 1-.373.438zM22.762 4.235c.095.126.254.266.416.307-.019-.16-.171-.271-.25-.408l-.004-.046a.788.788 0 0 0-.198-.118c-.01.091.017.179.036.265zM23.223 5.586c.102.023.21 0 .304-.04.135-.044.21-.247.256-.405h-.17l-.183.244c-.073.052-.141.13-.207.201zM23.203 4.061c.04.165.13.314.251.455l.033-.314-.284-.14zM23.927 4.882c.016-.115-.04-.25-.056-.367-.081-.046-.195-.042-.279-.087.006.182.173.337.335.454zM23.655 5.775c.12-.039.237-.08.348-.142.07-.102.177-.194.192-.313-.088.025-.164-.004-.246.037-.05.09-.08.192-.176.257-.015.065-.086.109-.118.16zM23.842 6.01l.17.265a.299.299 0 0 0 .284-.038l-.06-.24c-.121.054-.264.038-.394.013zM24.08 4.665l.079.263c.189-.114.228-.28.222-.455-.108.092-.17.148-.3.192zM24.457 5.1c.002.04.011.077.032.109.149.058.164.255.302.33.09.044.193-.01.27-.05-.058-.073-.125-.123-.182-.2-.04-.018-.08-.045-.079-.1l-.343-.089zM24.587 6.056c.091.104.215.159.345.188-.022-.03.014 0 .019-.018l-.162-.357c-.081.003-.165.02-.24.014.005.06.018.118.038.173zM24.887 4.869a1.35 1.35 0 0 1-.13-.455c-.08.076-.164.125-.24.202-.035.156.251.194.37.253zM25.025 4.696c.087.09.275.06.38.033-.05-.069-.212-.11-.24-.183a1.352 1.352 0 0 0-.103-.38c-.084.162-.184.355-.037.53zM25.13 5.126c.192.197.379.426.646.342.019-.018.052-.016.055-.05-.078-.07-.162-.125-.242-.19l-.092-.189h-.042a1.232 1.232 0 0 1-.324.087zM25.135 6.715h.013c.115-.11.25-.146.386-.192.036.016.013.064.046.083.082-.041.181-.032.265-.067.101.005.183.007.265.06.066.102.187.09.272.16l-.014-.16c-.177-.25-.454-.268-.71-.263l-.006-.032a.393.393 0 0 0-.187.048c-.082.005-.16.052-.238.082-.037.087-.066.193-.092.281zM25.3 4.303c.084.098.209.172.35.148-.072-.064-.157-.13-.16-.22.02-.17-.19-.183-.294-.271.035.115.03.242.104.343z" fill="#FFF"/><path d="M25.268 6.985h.023c.101-.063.248-.015.348-.082.055-.029.059.048.097.069.094.057.105.228.237.188.158.082.118.275.124.416l.147-.091c-.013-.075.029-.164-.02-.23-.036-.081-.135-.089-.183-.155.058-.098-.072-.144-.099-.214l.008-.01.202.027c.07.042.094.118.115.189.158.027.196.206.252.32.032-.078.046-.162.078-.238.002-.063-.082-.063-.124-.092a.338.338 0 0 0-.141-.247c-.176-.045-.33-.142-.523-.142l-.16.05c-.088.02-.182-.006-.249.055-.1.008-.107.116-.132.187zM25.37 6.262l.036.02c.078-.043.156-.093.239-.13.127-.043.226.13.334.02.04-.033.074.017.104.045.047.1.153.093.234.12-.04-.13-.09-.308-.23-.329-.055-.03-.12-.027-.173-.066-.147-.194-.242.16-.403.074-.057.075-.128.146-.142.246z" fill="#FFF"/><path d="M25.406 7.128c.063.052.13.14.229.128.123.055.071.212.139.294l.072-.062-.006-.004.01-.009.004.005c.02-.057-.008-.158-.042-.225-.046-.03-.1.002-.143-.026-.006-.062-.046-.092-.092-.13-.032-.023-.074.008-.11.006l-.061.023zM25.645 4.825c.062.134.185.218.282.311a.36.36 0 0 0 .271.034 2.074 2.074 0 0 1-.225-.287c-.027-.049-.033-.11-.069-.154-.09.022-.19.02-.26.096zM25.75 4.164c.115.154.292.092.454.097v-.019l-.25-.226a.659.659 0 0 0-.204.148zM22.235 2.322l.157.343c-.003-.194.124-.357.097-.555l.116-.122-.246.053a.522.522 0 0 0-.124.28zM22.31 1.856l.213-.124v-.316c-.09.054-.138.146-.208.218l-.005.222z" fill="#FFF"/><path d="M25.406 2.074c-.036.047-.091.06-.137.068.08-.146.118-.35.055-.516.042-.016.088-.023.128-.046l-.004-.004.105-.092c.14-.095.086-.276.137-.412-.068-.106-.09-.236-.188-.326l.005-.004c-.078-.099-.22-.087-.326-.137-.142-.047-.25.05-.352.115-.044.007-.017.064-.065.062-.026.07-.059.147-.078.226-.189-.027-.393-.006-.544.1-.08-.059-.177-.07-.271-.097-.069-.013-.147.012-.197-.026-.072-.082-.088-.231-.212-.252-.044-.015-.053-.063-.053-.105-.082-.014-.155-.052-.235-.069-.122-.055-.22.033-.31.092-.041.017-.087.023-.125.045a1.803 1.803 0 0 0-.178.334.702.702 0 0 0 .105.265c.044.124.182.222.298.271a1.121 1.121 0 0 0 0 .605l-.003.002-.006.005c-.018 0-.038.004-.053-.005H22.9a.837.837 0 0 0 .251.478c.05.018.038.077.06.115.013.017.015.053.01.068a1.5 1.5 0 0 0-.803.2c-.061.031-.034.115-.04.174.168-.11.35-.192.55-.229.086-.005.183-.026.265-.004l.01.165c-.227.118-.476.187-.67.381.003.06-.008.128.01.178l.173-.142a2.06 2.06 0 0 1 .536-.307c.052.061.106.127.174.164.117-.074.243-.13.377-.164.07-.042.183-.003.229-.087l.032-.174c-.005-.004-.01-.012-.02-.01a.262.262 0 0 1-.14-.245.25.25 0 0 1-.101.026c-.03-.007-.06-.015-.073-.046-.002-.038-.021-.095.017-.124.124-.076.285-.08.441-.068.117.015.285.01.325.147-.006.04-.002.084-.042.11-.042.023-.09-.002-.128-.02-.03.095-.082.2-.187.23l.013.11c.013.05.017.132.096.115.181.044.342.137.5.238.054-.053.095-.114.133-.17.283.096.527.308.76.504l.01-.16a2.6 2.6 0 0 0-.724-.444c.01-.052.021-.102.023-.157.304.017.592.11.842.257l-.004-.137a1.867 1.867 0 0 0-.866-.238.093.093 0 0 1-.014-.06c.153-.024.262-.182.298-.32.079-.09.191-.187.165-.32a.673.673 0 0 1 .01-.034c.01-.033.02-.068.008-.1z" fill="#FFF"/><path d="M25.672 2.564l.22-.05.026-.087c.062-.128-.07-.223-.136-.324l-.11.461zM26.067 3.193c.105.091.208.237.395.193-.014-.062-.057-.112-.084-.167-.048-.045-.065-.172-.162-.127-.073-.038-.092-.102-.138-.152-.021.078-.008.175-.01.253zM26.093 3.743c.033.056.042.13.074.18.058.049.144.04.215.033.065-.019.106.07.166.019-.075-.06-.12-.167-.191-.246-.085-.083-.175-.01-.264.014zM26.195 4.66c.132.11.299.219.475.18.019-.012.051-.01.055-.042-.109-.054-.223-.208-.337-.24-.063-.138-.146.035-.226.024.002.032.025.056.033.078zM26.591 6.298l.04.061c.042.199.22.382.122.599.082.04.106.107.157.16h.014c.062-.165.019-.337-.014-.503.025-.15-.192-.238-.319-.317zM26.624 4.383c.121.108.315.119.455.065a1.427 1.427 0 0 1-.26-.194l-.195.13zM27.096 4.978c-.013.104.062.19.143.241.03-.06.078-.113.084-.181a.451.451 0 0 0-.195-.273c-.018.068-.04.135-.032.213zM27.102 5.8c-.02.09.121.102.18.151.049.042-.032.071-.032.11.103.094.162.2.162.325.04-.116.103-.227.124-.347-.01-.084-.2-.067-.17-.16.054-.095-.01-.189-.046-.275-.01-.013-.035-.04-.056-.032-.05.078-.17.133-.162.229zM27.363 5.347l.14.192c.062-.006.103-.047.151-.078.038-.08-.062-.132-.091-.197-.025-.046 0-.106-.047-.146-.035-.016-.075-.04-.115-.033l-.038.262zM27.49 4.84a.556.556 0 0 1 .21.2c.067.194.174.37.252.558.03.132.052.25.088.379.014.034.006.1.06.095.015-.145.043-.284.045-.435-.047-.063-.11-.09-.17-.127v-.014c.008-.032.035-.07.075-.064.017-.02.069-.039.046-.073-.1-.099-.094-.27-.252-.3-.055-.023-.069-.08-.074-.134a.455.455 0 0 0-.28-.086zM27.584 5.873c.122.09.08.22.07.34-.02.072.095.03.13.068.075.088.032.216.006.311.064-.078.138-.147.188-.233-.002-.032.05-.048.048-.088.021-.055-.06-.03-.093-.036-.029-.006-.06-.02-.05-.051.061-.096.005-.21-.02-.305-.028-.079.013-.184-.033-.252-.077.084-.304.103-.246.246zM27.76 4.519c.17.172.294.344.477.51.004-.074-.006-.143-.01-.215-.026-.052-.076-.09-.118-.128-.135-.013-.206-.196-.35-.167zM28.204 5.428c.006.017.017.032.028.05.105.122.205.247.278.379-.022-.141.113-.317-.065-.425-.024-.046-.105-.031-.157-.027l-.084.023zM28.663 6.826c.053.026.122-.02.174-.05.047-.012.087.015.124.04.015.032 0 .061.006.09.114.034.226.077.328.145l.032-.033c.008-.084-.057-.145-.119-.192-.04-.023-.099-.01-.127-.046.019-.032.019-.079.017-.114a.273.273 0 0 1-.155-.05c-.032-.01-.06-.038-.088 0-.095.066-.1.164-.192.21zM28.797 4.553c.047-.02.097-.038.137-.087.128-.165.313-.054.462-.057a1.575 1.575 0 0 0-.105-.208c-.054-.03-.103-.064-.164-.064-.13-.108-.218.073-.317.162a.41.41 0 0 0-.013.254zM28.8 4.863c0-.007 0-.013.006-.015.017.017-.002.06.027.067.05-.028.095-.067.14-.104.129 0 .205-.141.33-.141.211.043.42.091.602.208a.465.465 0 0 0-.229-.332c-.06-.024-.109.013-.152.052-.128.092-.061-.133-.15-.137-.118.041-.238.087-.368.074-.076.033-.13.113-.216.104-.003.072-.012.16.01.224zM28.888 5.314c.04.053.107.044.164.053l.166-.081c.002-.038-.05-.048-.038-.09.046-.065.109-.02.166-.046.08-.014.163-.114.243-.04-.003.012.003.028-.004.04-.025.074.017.12.063.148.093.022.18.13.275.08-.01-.097-.03-.187-.05-.28-.078-.017-.134-.098-.206-.132-.032.039-.075.067-.115.062-.147-.043-.323-.157-.471-.04-.054.081-.15.057-.222.093.004.08.012.16.03.233zM28.951 6.373c-.011.032-.044.085.016.1.122.004.278-.059.374.037.032.025.017.076.015.109l.16.133c.015-.08.044-.153.046-.238a.267.267 0 0 0-.097-.16c-.105 0-.166-.123-.28-.108-.058-.013-.11.04-.17.04-.025.026-.04.058-.064.087z" fill="#FFF"/><path d="M28.997 5.484c.025.056.054.149.101.155.113-.054.277-.088.403-.029.042.008.042.06.033.094.064.042.143.076.211.122l-.019-.126c-.004-.137-.16-.149-.17-.284a.688.688 0 0 0-.406-.025c-.044.044-.107.038-.16.05-.004.018.005.028.007.043zM29.03 6.091c.074-.02.122-.102.202-.11.122.002.23.052.307.157.046.03.036.108.096.108-.018-.093.013-.179.009-.275-.08-.133-.278-.03-.353-.187l-.141.01c-.101.025-.075.143-.088.224-.011.024-.034.043-.033.073zM29.73 6.926c.084.118.268.208.286.343.043-.036.073-.078.103-.118-.003-.038-.065-.038-.089-.069-.025-.05.013-.093.024-.137a.444.444 0 0 0-.213-.18l-.11.16zM29.965 6.66l.194.219c.084-.11.084-.271.052-.403-.019-.025-.054-.065-.103-.047-.073.062-.084.159-.143.23zM29.406 1.457c.05.035.097.067.156.073.04-.03.092-.052.142-.032.07.065.156-.014.238-.008a.913.913 0 0 0-.238-.214c-.107.032-.193.14-.298.181zM30.152 1.596c.103.012.178.125.248.219.088.016.154.094.207.173l-.033-.127c-.024-.128-.088-.227-.155-.328a.644.644 0 0 0-.267.063z" fill="#FFF"/><path d="M23.027.747l.056.005c.148.075.389.113.403.328-.151.06-.297.14-.417.262-.091-.094-.277-.042-.307-.206.029-.155.084-.35.265-.39zM23.17 1.714c.175-.016.342.009.522-.006.044.019.09.057.11.1-.005.207-.068.403-.078.615-.078.032-.154.097-.174.183-.07.021-.133.063-.202.095-.03-.064-.025-.162.029-.215.074-.105.267-.08.252-.247.05-.08.002-.183.003-.266-.019-.064-.038.02-.068.019-.061.013-.124.016-.178-.014-.04-.042-.089-.077-.1-.133a.312.312 0 0 1-.144-.124l.029-.007zM23.383 2.958c.116.017.238-.035.338.022-.022.038-.079.054-.125.065l-.18.084c-.068-.016-.03-.124-.033-.17zM23.727 1.39c.089-.037.184-.115.278-.078-.068.09-.121.205-.172.313l-.282-.008a.478.478 0 0 1 .176-.227zM24.506 1.304c.128-.027.121.173.238.18.02.033.05.062.038.111-.068.032-.166.017-.242.038-.101-.068-.036-.278-.195-.264-.009-.017-.027-.05-.005-.06.05-.021.115-.013.166-.005zM24.412 1.812c.047-.066.12-.072.189-.085l.494.009c.021.02-.019.036-.019.06-.03.028-.074.036-.101.062-.065.002-.06.079-.105.111-.07.07-.174.038-.256.027a.225.225 0 0 1-.075-.082l-.023.023c.03.106.022.225.043.333l.118.079c.002.175.208.127.298.225a.525.525 0 0 1-.109.17.648.648 0 0 0-.242-.148c-.008-.102-.12-.163-.183-.215-.018-.187-.022-.378-.052-.559l.023-.01zM24.603 2.99h.325l-.04.17-.326-.138c-.007-.027.022-.035.041-.033zM25.003.829l.17-.054c.098.046.19.103.279.168.07.13.06.305.027.45-.052.057-.165 0-.206.091h-.008c-.063-.179-.243-.34-.409-.42.027-.092.056-.182.147-.235z" fill="#F60"/></g></svg>