<svg width="49" height="15" viewBox="0 0 49 15" xmlns="http://www.w3.org/2000/svg"><g fill="none" fill-rule="evenodd"><path d="M.077 9.843h2.325V3.397H.077v6.446zm0-7.343h2.325V.684H.077V2.5zM39.203 9.843h2.323V3.397h-2.323v6.446zm0-7.343h2.323V.684h-2.323V2.5zM3.553 3.397h2.323v.92c.57-.555 1.286-1.086 2.139-1.086.629 0 1.89.348 1.89 1.948v4.664H7.582V5.76c0-.46-.111-.932-.705-.932-.346 0-.668.278-1.001.58v4.435H3.553V3.397M10.56 3.397h2.448l1.26 3.476h.026l1.284-3.476h1.734l-2.55 6.446H13.07l-2.51-6.446M17.886 14.003h7.791V.637h-7.791z" fill="#1F5352"/><path d="M23.79 7.714c-.32.549-.932.915-1.538.915-.977 0-1.658-.664-1.658-1.612v-.123h4.562v-.058c0-2.232-1.221-3.513-3.347-3.513-2.026 0-3.387 1.314-3.387 3.27 0 1.986 1.328 3.269 3.387 3.269 1.437 0 2.478-.5 3.278-1.573-.062-.029-1.26-.557-1.297-.575M20.68 5.78c.016-.88.446-1.367 1.213-1.367.294 0 .549.1.736.29.245.25.37.634.352 1.084l-.001.118h-2.302l.002-.125" fill="#FFFFFE"/><path d="M26.84 3.397h2.325v1.005h.027c.467-.726 1.43-1.124 2.321-1.171v2.385c-.494-.233-.925-.33-1.259-.33-.432 0-.744.159-1.089.439v4.118h-2.324V3.397M33.331 7.796c.482.665 1.05.883 1.881.883.629 0 1.023-.23 1.023-.508 0-.218-.073-.399-1.334-.594-1.199-.182-1.818-.363-2.227-.799a1.908 1.908 0 0 1-.518-1.285c0-1.237 1.05-2.262 2.82-2.262 1.086 0 2.334.25 2.905 1.269l-1.373.787c-.174-.41-.915-.653-1.41-.653-.495 0-.89.108-.89.495 0 .267.237.353 1.04.448 2.088.266 3.116.91 3.116 2.17 0 1.344-.93 2.263-3.376 2.263-1.236 0-2.3-.325-3.028-1.355l1.371-.86M43.64 7.796c.484.665 1.05.883 1.877.883.633 0 1.026-.23 1.026-.508 0-.218-.073-.399-1.333-.594-1.198-.182-1.815-.363-2.224-.799a1.9 1.9 0 0 1-.52-1.285c0-1.237 1.05-2.262 2.82-2.262 1.085 0 2.336.25 2.903 1.269l-1.373.787c-.173-.41-.914-.653-1.409-.653-.494 0-.89.108-.89.495 0 .267.237.353 1.039.448 2.09.266 3.115.91 3.115 2.17 0 1.344-.926 2.263-3.375 2.263-1.235 0-2.298-.325-3.028-1.355l1.373-.86M26.818 10.933v3.07h1.491c.286 0 .612 0 .855-.166.233-.155.409-.393.409-.66 0-.4-.282-.69-.697-.765v-.01c.35-.083.603-.316.603-.663 0-.291-.138-.515-.409-.672-.227-.134-.499-.134-.76-.134h-1.492zm.776.543h.472c.13 0 .336-.01.447.047.108.06.165.166.165.28a.34.34 0 0 1-.14.276c-.12.08-.278.071-.413.071h-.531v-.674zm0 1.219h.575c.127 0 .28 0 .393.061a.34.34 0 0 1 .189.292.37.37 0 0 1-.175.32c-.12.076-.3.065-.441.065h-.541v-.738zM33.315 10.933h-.903l-1.071 3.07h.687l.206-.633h1.08l.204.633h.841l-1.044-3.07zm-.89 1.874l.355-1.077.355 1.077h-.71zM38.894 10.933h-.604v1.803h-.009l-1.112-1.803h-.84v3.07h.6V11.94h.02l1.277 2.063h.668v-3.07M43.836 12.076c-.088-.74-.514-1.19-1.35-1.19-1.001 0-1.496.73-1.496 1.582 0 .837.479 1.58 1.471 1.58.768 0 1.293-.415 1.375-1.119l-.758-.044c-.042.293-.214.576-.578.576-.588 0-.64-.54-.64-.96 0-.375.052-1.037.601-1.037.428 0 .554.32.559.66l.816-.048M47.239 14.049c.452 0 .846-.17 1.104-.519.213-.292.315-.718.315-1.066 0-.373-.12-.808-.36-1.107-.268-.335-.616-.47-1.06-.47-.986 0-1.429.762-1.429 1.577 0 .385.108.782.352 1.098.262.343.626.487 1.078.487m0-2.575c.243 0 .383.097.481.3.097.207.122.47.122.694 0 .201-.025.457-.104.646-.086.227-.231.347-.5.347-.548 0-.61-.612-.61-.997 0-.194.027-.455.107-.64.092-.224.236-.35.504-.35" fill="#1F5352"/></g></svg>