<svg width="44" height="10" viewBox="0 0 44 10" xmlns="http://www.w3.org/2000/svg"><g fill="none" fill-rule="evenodd"><path d="M.742 8.844V1.155C.742.482 1.184.04 1.799.04c.6 0 1.048.443 1.048 1.116V5.29l2.186-2.24c.271-.267.587-.417.9-.385.519.045.912.47.867 1.017a1.012 1.012 0 0 1-.303.65L5.2 5.614 6.764 8.32c.13.226.185.438.185.641a.985.985 0 0 1-.999.999c-.41 0-.768-.213-.993-.614l-1.252-2.25-.858.85v.898c0 .668-.448 1.116-1.048 1.116-.615 0-1.057-.448-1.057-1.116zm.696.068c0 .194.157.352.352.352a.352.352 0 0 0 0-.705.353.353 0 0 0-.352.353zm0-7.825a.353.353 0 0 0 .704 0A.349.349 0 0 0 1.79.74a.349.349 0 0 0-.352.347zm4.065 2.521c0 .195.154.348.352.348.19 0 .348-.153.348-.348a.35.35 0 0 0-.7 0zm.05 5.313c0 .19.158.348.352.348.19 0 .348-.159.348-.348a.352.352 0 0 0-.348-.352.353.353 0 0 0-.353.352z" fill="#000"/><path d="M5.48 8.921a.423.423 0 1 0 .847-.006.423.423 0 0 0-.846.006" fill="#DA3337"/><g fill="#000"><path d="M8.014 8.62c0 .244.154.374.351.374.197 0 .35-.13.35-.374v-.853l.68-.79 1.117 1.82a.333.333 0 0 0 .308.197c.197 0 .33-.13.33-.308 0-.086 0-.13-.045-.219l-1.25-1.972.9-.986c.086-.088.109-.155.109-.24a.276.276 0 0 0-.285-.286.366.366 0 0 0-.263.109L8.714 6.933V3.711c0-.24-.152-.373-.349-.373-.197 0-.35.132-.35.373v4.91M15.138 5.354c0-.241-.153-.371-.35-.371-.198 0-.352.13-.352.371v2.083c0 .593-.35.965-.875.965-.594 0-.856-.372-.856-1.007v-2.04c0-.242-.154-.372-.351-.372-.197 0-.35.13-.35.371V7.57c0 .897.504 1.468 1.359 1.468.526 0 .876-.218 1.073-.526v.108c0 .244.154.374.352.374.197 0 .35-.13.35-.374V5.354M17.725 8.994c.262 0 .394-.13.394-.33 0-.174-.132-.306-.35-.306-.416 0-.526-.132-.526-.547V5.639c0-.041.022-.041.065-.041h.505a.3.3 0 0 0 .306-.308c0-.154-.132-.263-.306-.263h-.505c-.043 0-.065-.022-.065-.044v-.878c0-.22-.154-.37-.352-.37-.174 0-.328.15-.328.37v.878a.047.047 0 0 1-.044.044h-.241c-.176 0-.286.109-.286.263 0 .175.11.308.286.308h.24c.024 0 .045 0 .045.041v2.194c0 .831.285 1.16 1.096 1.16h.066M21.647 8.994c.154 0 .286-.153.286-.308a.497.497 0 0 0-.065-.24l-1.096-1.557.964-1.38a.417.417 0 0 0 .065-.22c0-.176-.11-.306-.285-.306a.301.301 0 0 0-.284.174l-.855 1.183h-.021l-.834-1.183a.301.301 0 0 0-.284-.174c-.197 0-.308.13-.308.307 0 .064.023.152.066.22l.987 1.38-1.096 1.556c-.044.088-.088.154-.088.24 0 .155.131.308.307.308.11 0 .22-.044.307-.174l.943-1.36h.021l.965 1.36c.065.13.174.174.305.174M24.301 8.446c-.526 0-.833-.197-.833-.613 0-.438.307-.637.987-.637h.766c.045 0 .066.023.066.044v.438c0 .483-.394.768-.986.768m1.863.021l-.153-.262c-.044-.111-.066-.175-.066-.394V6.407c0-.965-.484-1.468-1.534-1.468-.55 0-.943.132-1.207.285a.32.32 0 0 0-.153.285c0 .175.109.286.285.286.066 0 .132-.023.197-.045.197-.11.505-.197.812-.197.68 0 .942.307.942.854v.196c0 .023-.021.045-.066.045h-.876c-.964 0-1.534.396-1.534 1.207 0 .745.503 1.183 1.381 1.183.569 0 .942-.174 1.205-.46l.175.242a.342.342 0 0 0 .286.174c.197 0 .35-.13.35-.33a.537.537 0 0 0-.044-.197M28.904 8.402c-.438 0-.723-.22-.855-.613-.065-.22-.087-.46-.087-.811 0-.33.022-.571.087-.79.132-.393.417-.612.855-.612s.746.219.855.611c.088.22.11.461.11.79 0 .352-.022.593-.11.812-.109.393-.417.613-.855.613m-1.293.592c.197 0 .351-.13.351-.374v-.108c.176.33.524.526 1.118.526.657 0 1.14-.374 1.358-.986.087-.308.132-.615.132-1.074 0-.439-.045-.746-.132-1.075-.218-.613-.7-.964-1.358-.964-.594 0-.942.218-1.118.526V3.711c0-.24-.154-.373-.35-.373-.199 0-.353.132-.353.373v4.91c0 .243.154.373.352.373M32.96 8.446c-.527 0-.812-.197-.812-.613 0-.438.307-.637.964-.637h.79c.02 0 .043.023.043.044v.438c0 .483-.37.768-.986.768m1.864.021l-.131-.262c-.067-.111-.067-.175-.067-.394V6.407c0-.965-.504-1.468-1.556-1.468-.527 0-.943.132-1.184.285a.3.3 0 0 0-.175.285c0 .175.11.286.306.286a.527.527 0 0 0 .176-.045 1.83 1.83 0 0 1 .812-.197c.7 0 .941.307.941.854v.196c0 .023-.022.045-.044.045h-.897c-.966 0-1.536.396-1.536 1.207 0 .745.527 1.183 1.403 1.183.57 0 .942-.174 1.206-.46l.154.242c.087.108.175.174.307.174.197 0 .35-.13.35-.33 0-.064-.022-.152-.065-.197M35.919 8.62c0 .244.154.374.35.374.198 0 .352-.13.352-.374V6.54c0-.593.372-.964.897-.964.593 0 .878.371.878 1.005v2.04c0 .243.153.373.35.373.198 0 .33-.13.33-.374V6.407c0-.898-.483-1.468-1.36-1.468-.526 0-.898.218-1.095.526v-.11c0-.242-.154-.372-.352-.372-.196 0-.35.13-.35.371V8.62M40.39 8.62c0 .244.155.374.329.374.218 0 .35-.13.35-.374v-.853l.703-.79 1.096 1.82c.087.131.196.197.327.197.198 0 .33-.13.33-.308 0-.086-.022-.13-.066-.219L42.23 6.495l.9-.986c.064-.088.11-.155.11-.24a.276.276 0 0 0-.286-.286.37.37 0 0 0-.264.109L41.07 6.933V3.711c0-.24-.133-.373-.351-.373-.174 0-.328.132-.328.373v4.91"/></g></g></svg>