<svg width="34" height="11" viewBox="0 0 34 11" xmlns="http://www.w3.org/2000/svg"><g fill="none" fill-rule="evenodd"><path d="M.69 6.545V3.643H.048V6.7c0 .129.045.241.133.324.084.08.197.122.334.122h1.777v-.6H.69zM3.923 5.832l.475-1.277.461 1.277h-.936zm.885-1.941a.404.404 0 0 0-.404-.278.4.4 0 0 0-.4.279l-1.24 3.254h.673l.277-.721h1.352l.277.72h.68L4.807 3.892zM7.299 5.677h1.038l.193.202a.686.686 0 0 1 .122.163.39.39 0 0 1 .035.164c0 .11-.033.19-.102.252-.07.062-.19.096-.352.096H7.3v-.877zm1.231-.939a1.14 1.14 0 0 1-.082.172l-.13.183H7.298v-.867h.883c.101 0 .236.014.296.085a.355.355 0 0 1 .084.25.516.516 0 0 1-.032.177zm.708 1.089a1.08 1.08 0 0 0-.21-.304l-.164-.17.123-.168a1.48 1.48 0 0 0 .141-.28.989.989 0 0 0 .06-.344c0-.301-.096-.534-.287-.692-.18-.149-.42-.226-.713-.226H7.13a.459.459 0 0 0-.33.116.422.422 0 0 0-.13.322V6.7c0 .129.048.241.134.324a.47.47 0 0 0 .335.122h1.074c.33 0 .598-.085.793-.252a.88.88 0 0 0 .305-.701.903.903 0 0 0-.074-.366zM10.673 5.925a1.677 1.677 0 0 1-.075-.526c0-.392.09-.69.26-.89.167-.196.4-.292.712-.292.153 0 .293.026.414.076s.22.121.305.218c.083.1.149.222.195.365.049.149.073.326.073.523 0 .395-.087.697-.26.898-.168.195-.4.291-.707.291-.153 0-.292-.026-.415-.078a.784.784 0 0 1-.303-.215 1.06 1.06 0 0 1-.199-.37m2.414-1.266a1.584 1.584 0 0 0-.33-.564 1.437 1.437 0 0 0-.514-.351 1.775 1.775 0 0 0-.653-.119 1.82 1.82 0 0 0-.656.119c-.203.079-.379.199-.522.353a1.581 1.581 0 0 0-.337.565 2.228 2.228 0 0 0-.115.741c0 .277.039.527.112.743.08.222.189.412.33.563.143.154.315.272.514.352.196.078.416.118.654.118.236 0 .457-.038.652-.115a1.4 1.4 0 0 0 .526-.349c.145-.153.257-.344.336-.563.077-.216.116-.469.116-.749 0-.276-.039-.527-.113-.744M14.483 4.226h.847c.082 0 .151.01.203.032a.278.278 0 0 1 .115.077.322.322 0 0 1 .066.125c.015.06.024.125.024.196a.446.446 0 0 1-.048.201c-.04.078-.084.15-.133.22l-.135.184h-.939V4.226zm1.414 1.39l.195-.251c.072-.097.135-.203.187-.318a.955.955 0 0 0 .084-.397c0-.325-.094-.579-.28-.752-.185-.17-.436-.255-.749-.255h-1.026a.461.461 0 0 0-.33.116.417.417 0 0 0-.13.321v3.066h.635v-1.3h.833l.612 1.3h.7l-.731-1.53zM18.258 5.832l.476-1.277.461 1.277h-.937zm.885-1.941a.403.403 0 0 0-.402-.278.4.4 0 0 0-.402.279l-1.238 3.254h.672l.275-.721h1.355l.275.72h.68l-1.215-3.254zM21.478 6.545V3.643h-.642V6.7c0 .129.046.242.132.324a.47.47 0 0 0 .335.122h1.777v-.6h-1.602zM17.215 8.736h.266v1.638c0 .14-.07.229-.21.261a2.451 2.451 0 0 1-.625.088.937.937 0 0 1-.34-.056.583.583 0 0 1-.227-.15.544.544 0 0 1-.127-.226.9.9 0 0 1-.042-.278V8.736h.265v1.251c0 .069.007.134.023.196a.392.392 0 0 0 .081.156.4.4 0 0 0 .157.1.655.655 0 0 0 .24.038l.09-.003a.768.768 0 0 0 .115-.012c.042-.005.092-.013.144-.023a1.7 1.7 0 0 0 .19-.044v-1.66zM19.137 10.67a2.428 2.428 0 0 1-.417.06c-.378 0-.568-.209-.568-.625V8.973h-.313v-.24h.313v-.457l.266-.055v.511h.672v.24h-.672v1.112c0 .138.024.239.071.301.046.068.125.099.24.099.04 0 .086-.005.14-.014.053-.008.127-.022.227-.044l.041.245zM14.198 9.441h.355l.65-.706h.35l-.768.835.768 1.139h-.317l-.683-1.01h-.355v1.01h-.262V8.275l.262-.055zM22.665 10.427c-.092.022-.18.039-.263.05a1.328 1.328 0 0 1-.21.02.527.527 0 0 1-.31-.08c-.072-.05-.109-.131-.109-.238 0-.127.044-.216.134-.267a.74.74 0 0 1 .374-.081h.603v.545l-.219.051zm.475-1.05a.767.767 0 0 0-.055-.303.595.595 0 0 0-.384-.325 1.1 1.1 0 0 0-.28-.034c-.002 0-.382-.009-.838.106l.053.242s.425-.117.778-.103h.005c.139 0 .249.034.334.095.087.064.13.173.13.322v.226h-.599c-.104 0-.203.01-.297.03a.708.708 0 0 0-.248.102.493.493 0 0 0-.17.179.566.566 0 0 0-.064.28c0 .169.055.303.17.398.113.095.273.143.48.143.078 0 .168-.009.266-.025.096-.018.19-.038.28-.063l.143-.037.04-.006v.111h.256V9.377zM21.147 10.709l-.553-.99.54-.983h-.327l-.424.834h-.124l-.423-.834h-.327l.54.982-.554.99h.315l.448-.88h.126l.448.88z" fill="#4E184A"/><path fill="#B40055" d="M24.781 8.412h8.735v-3.15H24.78z"/><path fill="#8CBA15" d="M33.516 4.649l-8.735 6.113V6.903L33.516.79z"/><path fill="#4E184A" d="M32.64 5.261h-5.513L24.78 6.903v1.51h3.357z"/><path d="M27.652 6.996c-.026.133.004.552.163.584.11.023.19-.057.286-.105.008.188.017.366.023.556h-.884c.056-.46.072-.765.088-1.04a1.102 1.102 0 0 1-.536-.222.593.593 0 0 1-.236-.433c-.02-.308.385-.693.906-.693.095 0 .205-.003.328.025a.753.753 0 0 0-.091.326.54.54 0 0 0-.17-.024c-.378 0-.48.255-.48.351 0 .251.246.337.429.353a.563.563 0 0 0 .374-.092.332.332 0 0 0 .146-.17c.095.05.315.066.477.01-.037.326-.467.561-.823.574" fill="#FEFEFE"/></g></svg>