<svg width="56" height="10" viewBox="0 0 56 10" xmlns="http://www.w3.org/2000/svg"><path d="M5.93 7.557v1.907H.722V.958h2.197v6.6h3.01zm.752-5.055H8.7V.958H6.682v1.544zm0 6.962H8.7V3.29H6.682v6.175zm9.182-3.208c0 1.725-.813 3.42-2.74 3.42-.722 0-1.294-.302-1.685-.908h-.03v.727H9.482V.958h2.017v2.997h.03c.422-.575.993-.848 1.746-.848 1.746 0 2.589 1.514 2.589 3.149zm-2.017.06c0-.787-.301-1.665-1.204-1.665-.542 0-1.234.394-1.234 1.665 0 1.09.3 1.786 1.234 1.786.903 0 1.204-.938 1.204-1.786zm9.091.545h-4.515c.03.848.512 1.392 1.385 1.392.481 0 .963-.211 1.144-.665h1.866c-.361 1.422-1.686 2.058-3.07 2.058-2.018 0-3.372-1.21-3.372-3.3 0-1.907 1.505-3.269 3.311-3.269 2.258.03 3.342 1.695 3.251 3.784zm-2.016-1.12c-.03-.696-.512-1.271-1.205-1.271-.722 0-1.174.514-1.294 1.271h2.499zm4.575-1.362l-.03-1.09H23.51v6.175h2.017V6.407c0-.787.512-1.453 1.506-1.453.27 0 .511.06.782.121V3.198c-.15-.03-.33-.06-.481-.06-.843.03-1.536.454-1.837 1.24zm9.423 1.907c0 1.725-.813 3.36-2.71 3.36-.692 0-1.294-.303-1.655-.878h-.03v.696h-1.897V.958h1.987v3.088h.03c.422-.575.994-.848 1.746-.848 1.686 0 2.529 1.483 2.529 3.088zm-1.987.06c0-.787-.301-1.634-1.174-1.634-.542 0-1.204.363-1.204 1.634 0 1.06.3 1.756 1.204 1.756.873.03 1.174-.908 1.174-1.756zm12.915-3.148c-.723 0-1.536.394-1.897 1h-.03V3.38h-1.927v6.115h1.987v-3.33c0-.666.331-1.302 1.084-1.302 1.084 0 .993.848.993 1.695v2.967h1.987V5.559c0-.878-.15-2.36-2.197-2.36zM52.71 5.68l2.228-2.3h-2.318l-1.806 2.028V.958h-1.987v8.506h1.987V7.497l.512-.515 1.475 2.452h2.408L52.711 5.68zm-11.5 3.784h-1.745a3.23 3.23 0 0 1-.12-.575c-.513.545-1.265.757-1.988.757-1.144 0-2.047-.575-2.047-1.847 0-1.967 2.138-1.816 3.522-2.119.332-.06.542-.181.542-.575 0-.454-.542-.635-.963-.635-.542 0-.903.242-.993.756h-1.837c.03-.787.392-1.301.933-1.634.542-.303 1.235-.424 1.927-.424 1.445 0 2.83.333 2.83 2.028v4.268h-.06zM39.316 6.62c-.27.181-.783.212-1.204.333-.452.09-.813.303-.813.787 0 .484.391.696.813.696.933-.03 1.234-.545 1.204-1.816z" fill-rule="nonzero" fill="#3D3935"/></svg>