<svg width="50" height="11" viewBox="0 0 50 11" xmlns="http://www.w3.org/2000/svg" xmlns:xlink="http://www.w3.org/1999/xlink"><defs><path id="a" d="M0 .025h7.612v6.05H0z"/></defs><g fill="none" fill-rule="evenodd"><path d="M2.167 4.63c0 1.096 0 2.168.002 3.24 0 .156.109.246.29.253.128.005.256.005.383 0 .077-.003.104.019.109.1.024.435.027.435-.409.435-.572 0-1.144-.003-1.716.002-.117.001-.165-.018-.163-.151.006-.384 0-.385.39-.385.312 0 .366-.054.366-.369V4.74c0-.31-.072-.38-.382-.381-.372-.001-.367-.001-.373-.37C.66 3.86.69 3.818.826 3.82c.66.007 1.321.007 1.982 0 .116-.002.158.034.191.14.294.956.595 1.91.894 2.864.014.047.03.094.06.182.1-.278.191-.522.277-.767.27-.766.539-1.531.803-2.299.033-.095.081-.12.177-.12.65.005 1.3.006 1.95 0 .103 0 .141.036.169.126.288.935.58 1.868.871 2.802.023.073.049.146.087.261.102-.286.193-.536.281-.787.267-.755.534-1.51.795-2.268.034-.097.074-.135.183-.134.633.006 1.266.006 1.9 0 .115 0 .164.016.162.15-.007.386 0 .386-.39.387-.323 0-.384.061-.384.39V7.73c0 .305.09.394.396.394.377 0 .37 0 .377.383.003.127-.035.155-.157.154-.739-.006-1.477-.006-2.216 0-.113 0-.152-.024-.151-.145.002-.392-.003-.392.384-.392.06 0 .124.008.182-.005.123-.025.22-.086.22-.23.002-1.092.001-2.186-.027-3.287-.06.167-.12.334-.177.502-.388 1.14-.777 2.28-1.16 3.42-.034.104-.078.136-.184.136-.47 0-.466.002-.615-.457L6.611 4.83c-.022-.068-.044-.137-.1-.213-.003.066-.01.12-.01.174v2.95c0 .293.092.383.39.383.385 0 .382 0 .382.393 0 .1-.015.145-.133.144-.75-.006-1.5-.005-2.25 0-.108 0-.14-.029-.14-.139-.002-.398-.006-.398.393-.398.056 0 .113.007.166-.004.13-.026.228-.09.228-.241v-3.28c-.059.03-.059.08-.072.12-.432 1.265-.864 2.53-1.29 3.797-.036.106-.078.146-.195.145-.459-.004-.458 0-.603-.448L2.275 4.824c-.02-.062-.03-.128-.108-.193" fill="#233D90"/><g transform="translate(2.33 .333)"><mask id="b" fill="#fff"><use xlink:href="#a"/></mask><path d="M5.999 6.075l-.568-1.82c-.089-.285-.182-.57-.267-.857-.025-.083-.064-.112-.152-.112-.766.003-1.533.005-2.299-.001-.123-.001-.15.07-.179.154-.28.842-.586 1.675-.835 2.527-.006.02-.015.04-.036.096-.08-.255-.151-.477-.22-.7-.202-.645-.405-1.29-.601-1.937-.034-.111-.089-.147-.202-.14-.154.01-.31.004-.466.003-.193 0-.194-.001-.151-.198a3.707 3.707 0 0 1 .67-1.49C1.552.486 2.689-.05 4.094.033c1.701.1 3.171 1.404 3.508 3.074.029.145.01.192-.15.186-.174-.007-.391-.079-.515.033-.112.103-.132.31-.188.471-.255.739-.51 1.477-.749 2.278" fill="#5DA3CE" mask="url(#b)"/></g><path d="M15.528 6.911c.07-.378.14-.757.208-1.135.112-.616.224-1.23.333-1.846.012-.071.033-.108.114-.107.483.003.966.004 1.45-.001.118-.002.101.068.101.139v2.133c0 .805-.002 1.61.002 2.415.001.114-.024.156-.145.152-.25-.01-.5-.01-.75 0-.125.005-.157-.032-.156-.156.005-1.1.003-2.2.002-3.3 0-.063.017-.13-.044-.224l-.18.901c-.171.874-.344 1.747-.51 2.621-.023.119-.06.166-.187.158a3.966 3.966 0 0 0-.566 0c-.13.01-.171-.045-.194-.156a646.04 646.04 0 0 0-.47-2.307l-.245-1.163c-.086.058-.052.13-.052.186a419.57 419.57 0 0 0 .002 3.266c0 .135-.028.182-.17.174a9.12 9.12 0 0 0-.717-.001c-.095.002-.123-.029-.123-.123.003-1.533.003-3.066 0-4.599 0-.1.038-.116.126-.116.467.004.934.007 1.4-.002.118-.002.146.047.164.145.147.794.296 1.587.445 2.38.035.189.074.377.11.565l.052.001zM20.33 5.712c0-.583.002-1.166-.002-1.75-.001-.105.022-.144.136-.14.294.007.589.006.883 0 .097-.002.119.03.119.122-.003 1.089.003 2.177-.006 3.266a1.936 1.936 0 0 1-.185.87c-.245.484-.69.626-1.183.669-.25.022-.5.01-.746-.042-.643-.137-.994-.56-1.047-1.239-.05-.643-.022-1.287-.028-1.93-.004-.522.002-1.044-.003-1.566-.001-.11.018-.155.142-.151.283.01.566.009.85 0 .116-.003.147.031.147.148-.005 1.116-.003 2.232-.003 3.348 0 .14.011.277.06.408a.42.42 0 0 0 .41.283c.194-.002.332-.1.402-.288a.908.908 0 0 0 .055-.325c-.002-.561-.001-1.122-.001-1.683M26.167 5.72v1.666c0 .088.003.176.028.263.07.245.225.371.45.358.232-.013.392-.166.424-.414.013-.099.018-.2.018-.299.001-1.1.004-2.2-.002-3.299-.001-.138.031-.18.173-.174.277.011.555.006.833.001.092-.001.124.024.124.12-.007 1.145.005 2.289-.017 3.432-.016.85-.5 1.323-1.35 1.375a2.597 2.597 0 0 1-.793-.056c-.59-.146-.917-.523-.988-1.125a6.017 6.017 0 0 1-.034-.714c0-.961.002-1.922-.002-2.883 0-.112.022-.154.144-.15.288.01.578.008.866 0 .106-.002.13.032.129.132-.005.589-.003 1.178-.003 1.766M30.209 4.738c-.128.685-.25 1.348-.376 2.01-.018.093.016.115.102.113.194-.005.389-.01.583.001.13.008.13-.053.111-.148-.103-.527-.201-1.055-.308-1.58-.026-.126-.019-.263-.112-.396m1.943 3.92c-.357 0-.717-.002-1.076 0-.089 0-.092-.065-.104-.123-.046-.233-.095-.466-.132-.7-.013-.082-.048-.1-.12-.1a62.26 62.26 0 0 1-.966 0c-.086-.002-.112.035-.125.115-.037.235-.092.467-.124.702-.015.104-.066.107-.145.107-.3-.003-.6-.007-.9.001-.128.004-.142-.036-.113-.15.272-1.049.54-2.097.807-3.146.12-.466.237-.932.351-1.398.026-.106.064-.15.185-.146.383.01.766.007 1.15.002.083-.001.13.017.152.104.387 1.566.776 3.132 1.165 4.698.001.005-.002.011-.005.033" fill="#233D90"/><path d="M3.196 8.372c.046.133.098.264.137.399.024.083.063.115.151.113.228-.006.456-.007.684 0 .097.004.136-.035.163-.122.054-.179.118-.355.203-.528 0 .168.005.337-.002.505-.005.104.021.146.136.146.9-.005 1.8-.004 2.7 0 .107 0 .134-.04.129-.138a1.49 1.49 0 0 1 .027-.39c.046.136.095.27.136.408.027.088.073.122.168.12a9.78 9.78 0 0 1 .666 0c.105.004.147-.04.174-.132.053-.175.115-.347.2-.52 0 .17.007.342-.001.512-.006.113.037.142.143.14.272-.007.545.004.817-.006.134-.005.184.028.179.172-.012.305-.003.61-.004.916-.002.253.031.225-.219.225H2.7c-.105 0-.21-.002-.316.002-.086.003-.119-.032-.118-.118.002-.36.003-.722 0-1.083-.002-.09.034-.113.117-.112.222.004.444-.002.666.002.086.002.121-.025.118-.114-.006-.13-.002-.26-.002-.391l.03-.006" fill="#5DA3CE"/><path d="M22.688 6.698c0-.6-.003-1.2.002-1.8.001-.114-.026-.154-.146-.15-.25.01-.5-.001-.75.005-.097.002-.137-.018-.133-.127.008-.227.004-.455.001-.683 0-.077.007-.121.105-.12.988.002 1.977.002 2.966 0 .081 0 .104.027.103.105-.004.239-.006.478 0 .716.002.094-.036.11-.118.108-.244-.004-.489.01-.732-.005-.164-.011-.186.052-.185.195.005 1.177 0 2.354.007 3.532 0 .155-.043.194-.191.187a9.877 9.877 0 0 0-.783 0c-.116.003-.15-.03-.149-.147.006-.606.003-1.211.003-1.816M43.195 6.195c0 .14-.003.235 0 .33.018.477.055.952.295 1.38.218.39.589.547 1.026.457.442-.09.64-.412.753-.8.196-.68.19-1.378.115-2.076-.033-.308-.096-.612-.25-.888-.234-.414-.64-.583-1.1-.457-.373.102-.556.384-.67.722-.152.447-.178.91-.169 1.332m2.653.106c-.005.492-.036 1.04-.251 1.556-.377.906-1.477 1.19-2.198.563-.293-.254-.435-.6-.511-.969-.182-.869-.19-1.74.052-2.6.127-.453.365-.84.835-1.008.629-.226 1.44-.094 1.8.74.18.418.272.945.273 1.718M47.674 8.735a1.804 1.804 0 0 1-.55-.062c-.558-.165-.854-.599-.869-1.285-.001-.07-.052-.181.042-.205.11-.027.232-.01.346.002.046.005.028.067.026.102-.005.14.012.278.046.412.137.539.577.734 1.1.678.752-.08.959-.665.854-1.203-.054-.278-.232-.458-.472-.587-.25-.134-.524-.206-.789-.299a4.552 4.552 0 0 1-.398-.162c-.566-.26-.754-.802-.634-1.423.104-.539.55-.906 1.119-.946.217-.015.433-.01.645.04.486.113.777.464.83.995.027.267.027.262-.243.268-.114.003-.156-.018-.17-.148-.08-.69-.704-1.017-1.332-.705-.554.274-.624 1.097-.126 1.481.247.19.543.27.83.368.23.078.462.153.67.284.3.188.476.454.506.812.02.234.012.465-.058.69-.18.577-.655.891-1.373.893M32.837 6.244c-.012.505.008 1.009.198 1.486.238.595.84.834 1.348.536.323-.19.44-.512.518-.854.01-.048.014-.099.027-.146.023-.078-.036-.2.045-.228.105-.035.23-.011.347-.012.035 0 .041.024.048.054.122.554-.432 1.461-1.006 1.601-.803.195-1.463-.086-1.758-.94-.229-.663-.234-1.35-.187-2.038.029-.417.103-.824.291-1.202.39-.78 1.455-1.014 2.13-.466.35.285.45.682.492 1.105.005.052-.01.086-.07.085a5.662 5.662 0 0 0-.284 0c-.074.002-.076-.045-.078-.098a1.352 1.352 0 0 0-.07-.375c-.116-.35-.348-.577-.72-.632-.416-.06-.753.072-.974.445-.21.353-.26.75-.295 1.147-.015.176-.002.355-.002.532M42.531 3.824l-.946 3.589c-.095.358-.194.714-.282 1.073-.03.124-.068.182-.214.177-.366-.014-.366-.004-.462-.368-.38-1.436-.757-2.873-1.141-4.308-.035-.13-.024-.171.122-.166.29.01.288.002.357.284l.97 3.942c.011.043.028.084.057.173.066-.261.123-.48.177-.7.292-1.187.584-2.372.87-3.559.028-.114.076-.152.19-.14.092.012.187.003.302.003M36.73 6.422c0-.694-.003-1.387.003-2.081.001-.126-.033-.16-.157-.156-.322.009-.644-.006-.966.006-.168.006-.123-.1-.122-.184 0-.083-.047-.187.12-.186.888.007 1.777.007 2.664 0 .181-.002.12.111.128.196.009.098.016.18-.136.175-.316-.013-.633.003-.949-.007-.126-.004-.155.032-.154.155.004 1.371 0 2.742.007 4.113 0 .163-.031.222-.205.21-.232-.018-.233-.005-.233-.243V6.422zM38.73 6.422c0-.694-.003-1.833.003-2.526.001-.126.427-.124.428-.001.004 1.37 0 3.187.007 4.558 0 .163-.031.222-.205.21-.232-.018-.233-.005-.233-.243V6.422z" fill="#233D90"/><path d="M8.943 7.92l.702-2.155.022.002v1.036c0 .31-.005.62.002.93.003.138-.05.192-.183.189-.176-.005-.352-.001-.543-.001M5.335 5.774c0 .666 0 1.332.002 1.998 0 .1-.042.144-.137.145-.145.001-.29-.004-.433.006-.13.009-.148-.033-.108-.15.171-.505.334-1.011.5-1.517l.154-.487.022.005M6.709 5.832l.64 1.96c.029.087.026.137-.087.13-.116-.007-.233-.003-.35 0-.146.002-.207-.062-.205-.213.005-.61.002-1.22.002-1.877M2.375 5.838c.21.642.41 1.246.605 1.852.077.244.113.231-.16.23-.077 0-.155-.002-.233.001-.151.006-.217-.053-.215-.216.008-.611.003-1.222.003-1.867" fill="#5DA3CE"/><path d="M30.209 4.738c.093.133.086.27.112.395.107.526.205 1.054.308 1.58.019.096.02.157-.111.15a7.087 7.087 0 0 0-.583-.002c-.086.002-.12-.02-.102-.112l.376-2.01M43.195 6.195c-.009-.421.017-.885.169-1.332.114-.338.297-.62.67-.722.46-.126.866.043 1.1.457.154.276.217.58.25.888.075.698.081 1.396-.115 2.077-.112.387-.311.71-.753.8-.437.089-.808-.068-1.026-.458-.24-.428-.277-.903-.295-1.38-.003-.095 0-.19 0-.33" fill="#FEFEFE"/></g></svg>