<svg width="53" height="11" viewBox="0 0 53 11" xmlns="http://www.w3.org/2000/svg"><g fill="none" fill-rule="evenodd"><path d="M42.273 8.713a.283.283 0 0 0-.204-.076h-.373v.57h.373a.287.287 0 0 0 .204-.073.278.278 0 0 0 .077-.21.282.282 0 0 0-.077-.21zm-.002.693l.381.805h-.292l-.35-.768h-.314v.768h-.25V8.389h.642a.498.498 0 0 1 .374.15.474.474 0 0 1 .103.17.62.62 0 0 1 .036.212.501.501 0 0 1-.095.32.473.473 0 0 1-.235.165zm-1.89-.605l-.26.81h.51l-.25-.81zm.434 1.41l-.114-.366h-.653l-.115.366h-.267l.607-1.822h.203l.607 1.822h-.268zm-2.444 0V8.389h.251v1.574h.798v.248h-1.049zm-.546-.357a.57.57 0 0 1-.55.373.61.61 0 0 1-.234-.046.556.556 0 0 1-.313-.327.686.686 0 0 1-.045-.257V8.39h.25v1.195c0 .123.031.22.093.29a.32.32 0 0 0 .25.104.32.32 0 0 0 .25-.105.416.416 0 0 0 .093-.289V8.39h.252v1.208c0 .094-.015.18-.046.257zm-1.872-1.137a.292.292 0 0 0-.213-.08h-.363v.607h.363c.088 0 .16-.026.213-.078.053-.053.08-.127.08-.224 0-.098-.027-.172-.08-.225zm.293.446a.484.484 0 0 1-.274.29.55.55 0 0 1-.218.042h-.377v.716h-.252V8.389h.629a.508.508 0 0 1 .386.158.475.475 0 0 1 .106.175.625.625 0 0 1 .038.22c0 .08-.012.154-.038.221zm-1.848-.092a1.205 1.205 0 0 0-.014-.154.392.392 0 0 0-.03-.104.314.314 0 0 0-.158-.16.31.31 0 0 0-.138-.03c-.05 0-.096.01-.138.03a.327.327 0 0 0-.159.16.432.432 0 0 0-.03.104 1.21 1.21 0 0 0-.014.154 6.923 6.923 0 0 0 0 .458c.002.061.006.112.013.154a.347.347 0 0 0 .19.265.31.31 0 0 0 .138.03.314.314 0 0 0 .247-.113.321.321 0 0 0 .049-.077.413.413 0 0 0 .03-.105c.008-.042.012-.093.014-.154a6.046 6.046 0 0 0 0-.458zm.253.466c-.002.07-.006.135-.016.193a.562.562 0 0 1-.14.302.57.57 0 0 1-.438.195.558.558 0 0 1-.434-.195.513.513 0 0 1-.094-.14.662.662 0 0 1-.047-.162 1.256 1.256 0 0 1-.018-.193l-.002-.237.002-.236c.001-.071.008-.136.018-.194a.656.656 0 0 1 .047-.16.6.6 0 0 1 .288-.285.558.558 0 0 1 .24-.052.57.57 0 0 1 .438.195.55.55 0 0 1 .14.302c.01.058.014.123.016.194a10.12 10.12 0 0 1 0 .473zm-1.89-.82a.289.289 0 0 0-.213-.08h-.363v.607h.363a.295.295 0 0 0 .212-.078c.054-.053.08-.127.08-.224 0-.098-.026-.172-.08-.225zm.294.446a.498.498 0 0 1-.493.332h-.377v.716h-.25V8.389h.627a.513.513 0 0 1 .387.158.489.489 0 0 1 .106.175.649.649 0 0 1 0 .441zm-2.582-.092a1.447 1.447 0 0 0-.013-.154.34.34 0 0 0-.19-.264.305.305 0 0 0-.137-.03.31.31 0 0 0-.139.03.293.293 0 0 0-.107.082.277.277 0 0 0-.05.078.392.392 0 0 0-.031.104 1.34 1.34 0 0 0-.014.154 6.923 6.923 0 0 0 0 .458c.002.061.007.112.014.154a.413.413 0 0 0 .03.105.29.29 0 0 0 .05.077.314.314 0 0 0 .247.113c.05 0 .095-.01.138-.03a.34.34 0 0 0 .19-.265c.006-.042.01-.093.012-.154a6.846 6.846 0 0 0 0-.458zm.253.466c-.001.07-.007.135-.017.193a.543.543 0 0 1-.139.302.567.567 0 0 1-.437.195.56.56 0 0 1-.436-.195.54.54 0 0 1-.092-.14.677.677 0 0 1-.048-.162 1.296 1.296 0 0 1-.017-.193 10.042 10.042 0 0 1 0-.473c.001-.071.007-.136.017-.194a.67.67 0 0 1 .048-.16.602.602 0 0 1 .287-.285.56.56 0 0 1 .241-.052.567.567 0 0 1 .437.195.532.532 0 0 1 .14.302c.01.058.015.123.016.194.001.07.003.149.003.236s-.002.166-.003.237zm-1.952-.828a.293.293 0 0 0-.223-.087.317.317 0 0 0-.293.188.446.446 0 0 0-.03.105 1.352 1.352 0 0 0-.015.155 3.738 3.738 0 0 0-.005.23c0 .093 0 .17.005.231.003.06.007.112.014.155a.473.473 0 0 0 .031.104.327.327 0 0 0 .293.188.294.294 0 0 0 .224-.087.45.45 0 0 0 .114-.225h.254a.807.807 0 0 1-.074.24.61.61 0 0 1-.13.178.522.522 0 0 1-.176.107.62.62 0 0 1-.451-.014.6.6 0 0 1-.288-.286.71.71 0 0 1-.048-.16 1.296 1.296 0 0 1-.017-.194 10.17 10.17 0 0 1 0-.473c.001-.071.007-.136.017-.194a.702.702 0 0 1 .048-.16.59.59 0 0 1 .288-.285.563.563 0 0 1 .24-.052c.154 0 .283.049.389.144a.694.694 0 0 1 .202.418h-.256a.453.453 0 0 0-.113-.226zm-1.52 1.502l-.766-1.282v1.282h-.25V8.389h.23l.765 1.28v-1.28h.25v1.822h-.23zM25.171 8.8l-.258.81h.51l-.252-.81zm.435 1.41l-.114-.366h-.654l-.114.366h-.268l.608-1.822h.203l.607 1.822h-.268zm-1.785-.727c-.047-.05-.114-.077-.202-.077h-.396v.556h.396c.088 0 .155-.026.202-.077a.29.29 0 0 0 .07-.202.284.284 0 0 0-.07-.2zm-.03-.78a.281.281 0 0 0-.196-.067h-.372v.522h.372c.081 0 .146-.022.197-.066.05-.045.073-.11.073-.195s-.024-.15-.073-.194zm.274.716a.439.439 0 0 1 .057.121.615.615 0 0 1-.016.377.472.472 0 0 1-.104.162.414.414 0 0 1-.159.097.58.58 0 0 1-.2.034h-.67V8.389h.644c.155 0 .277.044.366.133.09.09.134.21.134.366a.46.46 0 0 1-.142.334.306.306 0 0 1-.081.053.416.416 0 0 1 .172.146zm-2.553-.35a1.099 1.099 0 0 0-.014-.153.382.382 0 0 0-.03-.104.317.317 0 0 0-.05-.078.299.299 0 0 0-.108-.082.31.31 0 0 0-.139-.03c-.049 0-.095.01-.138.03a.33.33 0 0 0-.189.264 1.348 1.348 0 0 0-.013.154 4.52 4.52 0 0 0-.004.23c0 .092 0 .167.004.228.002.061.008.112.014.154a.428.428 0 0 0 .03.105.35.35 0 0 0 .158.16c.043.02.09.03.138.03a.314.314 0 0 0 .248-.113.336.336 0 0 0 .08-.182c.007-.042.011-.093.013-.154a4.9 4.9 0 0 0 .004-.229c0-.092 0-.169-.004-.23zm.253.467c-.002.07-.007.135-.016.193a.632.632 0 0 1-.047.161.601.601 0 0 1-.288.286.57.57 0 0 1-.243.05.56.56 0 0 1-.434-.195.536.536 0 0 1-.094-.14.693.693 0 0 1-.047-.162 1.296 1.296 0 0 1-.018-.193l-.001-.237.001-.236c.002-.071.008-.136.018-.194a.686.686 0 0 1 .047-.16.594.594 0 0 1 .287-.285.56.56 0 0 1 .241-.052.57.57 0 0 1 .438.195c.04.045.072.091.093.141a.627.627 0 0 1 .047.161c.009.058.014.123.016.194a10.255 10.255 0 0 1 0 .473zm-1.89-.82a.289.289 0 0 0-.213-.08H19.3v.607h.363a.295.295 0 0 0 .213-.078.302.302 0 0 0 .08-.224.303.303 0 0 0-.08-.225zm.294.446a.494.494 0 0 1-.275.29.546.546 0 0 1-.218.042H19.3v.716h-.25V8.389h.627c.08 0 .154.014.218.042a.498.498 0 0 1 .275.29.633.633 0 0 1 .037.22c0 .081-.012.155-.037.222zm-1.667.691a.572.572 0 0 1-.55.373.609.609 0 0 1-.235-.046.568.568 0 0 1-.19-.128.587.587 0 0 1-.123-.199.686.686 0 0 1-.046-.257V8.39h.252v1.195c0 .123.03.22.093.29.062.07.144.104.25.104a.32.32 0 0 0 .249-.105.42.42 0 0 0 .094-.289V8.39h.251v1.208a.7.7 0 0 1-.045.257zm-1.93-1.14a.282.282 0 0 0-.205-.077h-.372v.57h.372a.287.287 0 0 0 .204-.073.277.277 0 0 0 .078-.21.281.281 0 0 0-.078-.21zm-.002.692l.381.805h-.293l-.349-.768h-.314v.768h-.251V8.389h.642c.079 0 .15.014.213.04a.48.48 0 0 1 .265.28.604.604 0 0 1 .036.212.47.47 0 0 1-.33.484zm-1.902.056v-.236h.605v.279c0 .118-.01.216-.034.297a.575.575 0 0 1-.115.217.573.573 0 0 1-.456.208.557.557 0 0 1-.24-.05.616.616 0 0 1-.195-.145.525.525 0 0 1-.093-.14.693.693 0 0 1-.047-.162 1.342 1.342 0 0 1-.018-.193 10.17 10.17 0 0 1 0-.473c.002-.071.007-.136.018-.194a.686.686 0 0 1 .047-.16.595.595 0 0 1 .288-.285.555.555 0 0 1 .24-.052.58.58 0 0 1 .416.167c.05.051.091.111.122.18a.83.83 0 0 1 .065.22h-.254a.447.447 0 0 0-.12-.235.317.317 0 0 0-.229-.083c-.049 0-.095.01-.137.031a.299.299 0 0 0-.107.082.318.318 0 0 0-.05.078.392.392 0 0 0-.03.104 1.388 1.388 0 0 0-.016.154 5.315 5.315 0 0 0 0 .46c.004.06.008.112.016.155a.366.366 0 0 0 .08.183.314.314 0 0 0 .244.11.352.352 0 0 0 .152-.034.35.35 0 0 0 .184-.223.624.624 0 0 0 .018-.158v-.102h-.354z" fill="#AA2436"/><path d="M52.805 4.119l-.458 2.766h-1.033l.443-2.697c.028-.155.056-.38.056-.482 0-.172-.076-.257-.197-.257-.323 0-.59.592-.688.833-.274.696-.442 1.64-.604 2.603h-1.006l.443-2.697c.007-.07.05-.335.05-.482 0-.172-.079-.257-.197-.257-.289 0-.528.48-.654.755-.288.679-.457 1.65-.64 2.681h-.999l.697-4.244h.942l-.183 1.125c.155-.343.611-1.21 1.315-1.21.337 0 .717.231.717.817 0 .119-.015.24-.035.368.19-.378.64-1.186 1.356-1.186.351 0 .752.224.752.85 0 .215-.042.5-.077.714zm-6.939-.92c-.596 0-.941 1.693-.941 2.5v.01c0 .386.176.618.4.618.64 0 .921-2.028.921-2.51 0-.308-.104-.618-.38-.618zm-.618 3.772c-.822 0-1.391-.627-1.391-1.692V5.27c0-1.151.724-2.715 2.073-2.715.78 0 1.385.567 1.385 1.59 0 1.15-.647 2.826-2.067 2.826zm-1.271-3.574a1.039 1.039 0 0 0-.479-.128c-.808 0-1.398 1.348-1.398 2.275 0 .345.183.662.456.662.282 0 .69-.301.887-.43l.273.602c-.45.3-.934.593-1.512.593-.744 0-1.208-.558-1.208-1.434 0-1.238.864-2.982 2.362-2.982.246 0 .52.043.815.19l-.196.652zm-4.158 3.66l-.555-1.022.837-.688.562 1.022-.844.688zM18.38 3.209c-.773 0-1.251 1.648-1.251 2.413v.009c0 .3.147.455.295.455.247 0 .471-.386.612-.73.169-.378.414-1.1.597-2.104a.747.747 0 0 0-.253-.043zm.66 3.676H18.1l.197-1.22c-.302.653-.738 1.306-1.357 1.306-.612 0-.878-.602-.878-1.246 0-1.245.78-3.17 2.439-3.17.45 0 .885.155 1.202.3l-.661 4.03zm-3.138-2.75l-.45 2.75h-1.033l.442-2.68c.015-.086.057-.361.057-.499 0-.214-.126-.266-.204-.266-.31 0-.583.558-.674.79-.274.696-.437 1.52-.64 2.655H12.4l.69-4.244h.949l-.19 1.16c.217-.49.682-1.246 1.384-1.246.338 0 .752.215.752.859 0 .199-.042.472-.084.722zm-4.21 2.75h-1.033l.688-4.244h1.04l-.695 4.244zm.267-4.827l-.514-.946.773-.619.521.938-.78.627zm-1.153 1.339a1.03 1.03 0 0 0-.478-.128c-.808 0-1.399 1.348-1.399 2.275 0 .345.183.662.457.662.281 0 .689-.301.886-.43l.274.602c-.45.3-.935.593-1.511.593-.746 0-1.21-.558-1.21-1.434 0-1.238.865-2.982 2.362-2.982.246 0 .52.043.816.19l-.197.652zM6.482 1.275c-.429 0-.499.447-.577.902l-.077.464h2.004l-.696 4.244H6.123l.584-3.573h-.984L5.3 5.88C5.083 7.203 4.9 8.508 3.572 8.508c-.232 0-.359-.034-.457-.06l.105-.635c.078.017.168.026.282.026.506 0 .653-.473.836-1.822l.373-2.705h-.556l.112-.67h.528l.077-.465c.099-.592.232-1.572 1.434-1.572.07 0 .302 0 .576.077l-.126.636c-.07-.017-.17-.043-.274-.043zm.956.653l-.47-.867.709-.568.464.859-.703.576zM2.511 3.199c-.598 0-.942 1.693-.942 2.5v.01c0 .386.175.618.4.618.64 0 .921-2.028.921-2.51 0-.308-.105-.618-.38-.618zm-.62 3.772C1.07 6.971.5 6.344.5 5.28V5.27c0-1.151.724-2.715 2.073-2.715.781 0 1.386.567 1.386 1.59 0 1.15-.648 2.826-2.067 2.826z" fill="#ABAEB2"/><path d="M35.924 2.641l-.113.67h-.646l-.366 2.276c-.028.164-.049.318-.049.421 0 .147.105.198.182.198.134 0 .268-.051.422-.128l.176.626a2.48 2.48 0 0 1-1.033.25c-.485 0-.801-.284-.801-.773 0-.164.028-.344.062-.576l.381-2.293h-.542l.113-.67h.598l.182-1.126h.97l-.183 1.125h.647" fill="#AA2436"/><path d="M21.748 5.253c-.19.437-.45.833-.696.833-.224 0-.26-.283-.26-.43v-.008c0-.644.415-2.415 1.237-2.415.12 0 .204.018.275.052-.12.68-.303 1.4-.556 1.968zm.956-4.596l-.33 2.002a1.478 1.478 0 0 0-.485-.078c-1.357 0-2.186 1.778-2.186 3.119 0 .686.253 1.271.893 1.271.59 0 1.04-.524 1.385-1.331l-.204 1.245h.941l1.02-6.228h-1.034zm10.923 2.74a1.033 1.033 0 0 0-.477-.129c-.81 0-1.4 1.349-1.4 2.276 0 .344.183.662.457.662.281 0 .69-.3.885-.43l.275.602c-.45.3-.935.593-1.511.593-.746 0-1.21-.559-1.21-1.435 0-1.237.866-2.98 2.361-2.98.247 0 .522.042.817.188l-.197.653zm-3.668.094c0-.17-.084-.292-.232-.292-.268 0-.654.404-.92 1.212.407-.069 1.152-.224 1.152-.91v-.01zm.064 1.083c-.415.223-.886.326-1.335.394a2.45 2.45 0 0 0-.078.595c0 .308.112.643.443.643.23 0 .513-.138.99-.463l.282.6c-.647.447-1.09.628-1.553.628-.816 0-1.238-.602-1.238-1.427 0-1.331 1.076-2.989 2.37-2.989.596 0 .871.396.871.842 0 .644-.429.988-.752 1.177zm-2.166-.937c-.043-.009-.1-.025-.162-.025-.36 0-.648.412-.88.936-.288.644-.49 1.503-.639 2.337h-.998l.696-4.244h.956l-.267 1.64c.238-.669.633-1.726 1.3-1.726.07 0 .113.017.162.026l-.168 1.056zm-3.389 3.248h-1.033l.689-4.244h1.04l-.696 4.244zm.267-4.827l-.513-.946.773-.619.521.937-.78.628zm13.223 1.15c-.773 0-1.252 1.649-1.252 2.414v.008c0 .301.148.456.296.456.246 0 .47-.386.612-.73.169-.378.414-1.1.597-2.105a.742.742 0 0 0-.253-.043zm.66 3.677h-.94l.196-1.22c-.302.653-.739 1.306-1.358 1.306-.61 0-.877-.602-.877-1.246 0-1.245.78-3.17 2.438-3.17.45 0 .887.155 1.203.301l-.662 4.03z" fill="#AA2436"/></g></svg>