<svg width="45" height="11" viewBox="0 0 45 11" xmlns="http://www.w3.org/2000/svg"><g fill-rule="nonzero" fill="none"><path d="M44.97 1.424h-4.275c-.475 0-.9.35-.95.825-.075.65-.575 1.025-1.175 1.05-.65 0-1.175-.525-1.175-1.175S37.92.95 38.57.95c.425 0 .8.225 1 .575.025.025.05.025.075 0 .125-.15.275-.275.45-.35.025 0 .025-.05.025-.075a1.84 1.84 0 0 0-1.55-.825c-1.025 0-1.85.825-1.875 1.875 0 1.025.825 1.875 1.875 1.875.95-.025 1.75-.65 1.85-1.65a.272.272 0 0 1 .275-.225h3.65v.5c0 .275-.075.675-.425.675s-.425-.4-.425-.675V2.5a.054.054 0 0 0-.05-.05h-.6a.054.054 0 0 0-.05.05v.125c0 .275-.075.675-.425.675s-.425-.4-.425-.675V2.5a.054.054 0 0 0-.05-.05h-.6a.054.054 0 0 0-.05.05v.125c0 .675.375 1.35 1.1 1.35.3 0 .575-.125.75-.35.2.225.45.35.75.35.75 0 1.1-.7 1.1-1.35v-1.15c.075-.025.05-.05.025-.05" fill="#E9004C"/><path d="M12.745 2.05c-1.15 0-1.925.824-1.925 2.05 0 1.224.825 2.05 2 2.05.575 0 1.1-.126 1.575-.526.025-.025.025-.05 0-.05l-.375-.525c-.025-.025-.05-.025-.075 0-.325.25-.7.375-1.075.375-.75 0-1.2-.55-1.2-1.25 0-.675.325-1.325 1.075-1.325.55 0 .9.35.975.95h-1.625c-.025 0-.05.025-.05.025a2.211 2.211 0 0 0 0 .575c0 .025.025.025.05.025h2.425c.025 0 .05-.025.05-.05V4.1c0-1.225-.75-2.05-1.825-2.05zm-4.2 0c-.55 0-.95.224-1.225.574v-.45a.054.054 0 0 0-.05-.05h-.75a.054.054 0 0 0-.05.05V7.7c0 .025.025.05.05.05h.75c.025 0 .05-.025.05-.05V3.874c0-.6.55-1.025 1.125-1.025.725 0 1.175.575 1.175 1.25s-.45 1.25-1.175 1.25c-.25 0-.5-.075-.675-.2-.025-.025-.075 0-.075.025v.7c0 .025.025.05.05.075.225.125.475.2.8.2 1.075 0 1.95-.85 1.95-2.05 0-1.2-.875-2.05-1.95-2.05zm8.575 0c-.4 0-.875.124-1.175.574v-.45a.054.054 0 0 0-.05-.05h-.75a.054.054 0 0 0-.05.05v3.8c0 .025.025.05.05.05h.75c.025 0 .05-.025.05-.05v-2.1c0-.675.45-1.025 1-1.025.575 0 .9.375.9 1.025V6c0 .025.025.05.05.05h.75c.025 0 .05-.025.05-.05V3.6c0-.925-.65-1.55-1.575-1.55zM3.245.25a.054.054 0 0 0-.05.05v.8c0 .024.025.05.05.05 1.025.1 1.775.924 1.775 2.05 0 1.224-.85 2.074-2 2.074s-2-.85-2-2.075c0-1.125.725-1.95 1.775-2.05.025 0 .05-.025.05-.05V.3c-.05-.025-.075-.05-.1-.05C1.12.374.02 1.574.02 3.174c0 1.7 1.225 2.95 2.975 2.95s2.975-1.25 2.975-2.95c0-1.6-1.125-2.8-2.725-2.925zm32.75 5.7L34.42 3.973l1.55-1.75c.025-.025 0-.075-.025-.075h-.925c-.025 0-.05 0-.075.025l-1.25 1.45h-.35V.4a.054.054 0 0 0-.05-.05h-.75a.054.054 0 0 0-.05.05v5.575c0 .025.025.05.05.05h.75c.025 0 .05-.025.05-.05v-1.6h.35l1.275 1.6c.025.025.05.025.075.025h.925c.05.025.05-.025.025-.05zm-5.7-3.9c-.4 0-.875.124-1.175.574v-.45a.054.054 0 0 0-.05-.05h-.75a.054.054 0 0 0-.05.05v3.8c0 .025.025.05.05.05h.75c.025 0 .05-.025.05-.05v-2.1c0-.675.45-1.025 1-1.025.575 0 .9.375.9 1.025V6c0 .025.025.05.05.05h.75c.025 0 .05-.025.05-.05V3.6c0-.925-.65-1.55-1.575-1.55zm-2.7.1h-.75a.054.054 0 0 0-.05.05v.424c-.275-.35-.65-.575-1.225-.575-1.075 0-1.95.85-1.95 2.05 0 1.2.85 2.05 1.95 2.05.325 0 .575-.075.8-.2.025-.025.05-.05.05-.075v-.7c0-.025-.05-.05-.075-.025-.175.125-.425.2-.675.2-.725 0-1.175-.575-1.175-1.25s.45-1.25 1.175-1.25c.575 0 1.125.425 1.125 1.025v2.1c0 .025.025.05.05.05h.75c.025 0 .05-.025.05-.05v-3.8c0-.025-.025-.025-.05-.025zm-6.2-.1a1.58 1.58 0 0 0-.8.2c-.025.024-.05.05-.05.074V3c0 .025.05.05.075.025.175-.125.425-.2.675-.2.725 0 1.175.575 1.175 1.25s-.45 1.25-1.175 1.25c-.575 0-1.125-.425-1.125-1.025V.4a.054.054 0 0 0-.05-.05h-.75a.054.054 0 0 0-.05.05v5.575c0 .025.025.05.05.05h.75c.025 0 .05-.025.05-.05V5.55c.275.35.65.575 1.225.575 1.075 0 1.95-.85 1.95-2.05-.025-1.175-.875-2.025-1.95-2.025zm20.7 6.274a.44.44 0 0 0-.375.2V8.35h-.2v1.3h.2v-.725c0-.25.15-.4.35-.4a.73.73 0 0 1 .225.05l.05-.2a.74.74 0 0 0-.25-.05zm-1.6.175c.225 0 .375.15.4.4h-.825c.05-.225.2-.4.425-.4zm.025-.175c-.375 0-.65.275-.65.675s.275.675.65.675c.2 0 .375-.05.525-.2l-.1-.15a.59.59 0 0 1-.4.175.441.441 0 0 1-.45-.425h1.05V9c-.025-.4-.275-.675-.625-.675zm-1.7.2c.275 0 .475.2.475.475a.46.46 0 0 1-.475.475.475.475 0 0 1-.475-.475c.025-.275.2-.475.475-.475zm-.025-.2c-.375 0-.65.275-.65.675s.275.675.65.675c.225 0 .375-.075.475-.225v.2h.2V7.674h-.2v.875a.58.58 0 0 0-.475-.225zm-1.55 0c-.15 0-.325.05-.45.2V8.35h-.2v1.3h.2v-.725c0-.25.175-.4.4-.4.25 0 .375.15.375.4v.75h.2v-.8c.025-.35-.2-.55-.525-.55zm-1.775.2c.275 0 .475.2.475.475a.46.46 0 0 1-.475.475.475.475 0 0 1-.475-.475c0-.275.2-.475.475-.475zm.65 1.125v-1.3h-.2v.2a.58.58 0 0 0-.475-.225c-.375 0-.65.275-.65.675s.275.675.65.675c.225 0 .375-.075.475-.225v.2h.2zm-1.6-1.1v-.175h-.55V7.95h-.2v.425h-.275v.175h.275v.65c0 .325.175.475.45.475.15 0 .275-.05.375-.125l-.1-.15a.524.524 0 0 1-.275.1c-.15 0-.25-.1-.25-.3v-.65h.55zm-1.875-.225c-.15 0-.325.05-.45.2V8.35h-.175v1.3h.2v-.725c0-.25.175-.4.4-.4.25 0 .375.15.375.4v.75h.2v-.8c0-.35-.225-.55-.55-.55zm-1.775.2c.275 0 .475.2.475.475a.46.46 0 0 1-.475.475.475.475 0 0 1-.475-.475c.025-.275.2-.475.475-.475zm.675 1.125v-1.3h-.2v.2a.58.58 0 0 0-.475-.225c-.375 0-.65.275-.65.675s.275.675.65.675c.225 0 .375-.075.475-.225v.2h.2zM29.72 8.1l.125-.175c-.175-.125-.4-.2-.7-.2-.4 0-.725.2-.725.575 0 .325.25.475.575.5l.2.025c.3.025.475.125.475.325 0 .225-.225.35-.525.35-.25 0-.5-.1-.625-.225l-.125.175c.175.15.475.25.75.25.425 0 .75-.2.75-.575 0-.325-.275-.475-.6-.5L29.12 8.6c-.3-.025-.45-.125-.45-.3 0-.225.2-.35.5-.35.225-.025.4.05.55.15zm-3.075.425c.275 0 .475.2.475.475a.46.46 0 0 1-.475.475A.46.46 0 0 1 26.17 9c0-.275.2-.475.475-.475zm0-.2c-.4 0-.675.3-.675.675 0 .375.3.675.675.675.4 0 .675-.3.675-.675 0-.375-.3-.675-.675-.675zm-1.65.2c.275 0 .475.225.475.475 0 .275-.175.475-.475.475-.275.025-.475-.2-.475-.475 0-.275.2-.475.475-.475zm.025-.2c-.225 0-.375.075-.475.225v-.2h-.2v1.85h.2v-.75c.1.125.25.225.475.225.375 0 .65-.275.65-.675 0-.375-.275-.675-.65-.675zm-1.15.8v-.75h-.2v.75c0 .275-.15.4-.375.4s-.375-.125-.375-.4v-.75h-.2v.75c0 .375.275.575.6.575.275-.025.55-.2.55-.575zm-1.7-.8a.44.44 0 0 0-.375.2V8.35h-.2v1.3h.2v-.725c0-.25.15-.4.35-.4.075 0 .15.025.225.05l.05-.2c-.075-.025-.15-.05-.25-.05zM20.245 7.7c-.575 0-1 .4-1 1 0 .625.475 1 .975 1 .575 0 .925-.425.925-1v-.05h-.85v.2h.6c-.025.4-.275.625-.7.625-.425 0-.75-.325-.75-.775 0-.475.325-.775.75-.775.25 0 .45.1.575.275l.175-.15c-.125-.225-.4-.35-.7-.35z" fill="#00263D"/></g></svg>