<svg width="40" height="10" viewBox="0 0 40 10" xmlns="http://www.w3.org/2000/svg"><g fill-rule="nonzero" fill="none"><path d="M14.206 2.273H12c-.15 0-.28.11-.303.259l-.892 5.657a.184.184 0 0 0 .182.212h1.053c.151 0 .28-.11.303-.259l.24-1.526a.306.306 0 0 1 .303-.259h.699c1.453 0 2.292-.703 2.51-2.097.1-.61.005-1.088-.28-1.424-.314-.368-.87-.563-1.609-.563zm.255 2.066c-.12.792-.726.792-1.31.792h-.333l.233-1.479a.184.184 0 0 1 .182-.155h.152c.399 0 .775 0 .969.227.116.136.151.337.107.615zM20.8 4.314h-1.056a.184.184 0 0 0-.181.155l-.047.295-.074-.107c-.229-.332-.739-.443-1.248-.443-1.167 0-2.164.884-2.358 2.125-.101.619.042 1.21.393 1.623.322.38.783.537 1.33.537.942 0 1.463-.605 1.463-.605l-.047.294a.184.184 0 0 0 .181.213h.952c.151 0 .279-.11.303-.26l.57-3.615a.183.183 0 0 0-.18-.212zM19.329 6.37a1.177 1.177 0 0 1-1.192 1.008c-.306 0-.552-.098-.709-.284-.156-.186-.215-.45-.166-.743a1.183 1.183 0 0 1 1.184-1.016c.3 0 .544.1.705.287.16.19.224.456.178.748zM26.427 4.314h-1.061a.308.308 0 0 0-.254.134l-1.464 2.157-.621-2.073a.307.307 0 0 0-.294-.218H21.69a.184.184 0 0 0-.175.243l1.17 3.431-1.1 1.552c-.086.123 0 .29.15.29h1.06c.101 0 .195-.048.252-.13l3.531-5.098a.184.184 0 0 0-.15-.288z" fill="#253B80"/><path d="M29.942 2.273h-2.206c-.15 0-.28.11-.303.259l-.892 5.657a.184.184 0 0 0 .181.212h1.132a.215.215 0 0 0 .212-.181l.253-1.604a.306.306 0 0 1 .303-.259h.698c1.453 0 2.292-.703 2.511-2.097.1-.61.004-1.088-.281-1.424-.314-.368-.87-.563-1.608-.563zm.255 2.066c-.12.792-.725.792-1.31.792h-.333l.234-1.479a.183.183 0 0 1 .18-.155h.154c.398 0 .774 0 .968.227.116.136.15.337.107.615zM36.536 4.314h-1.055a.183.183 0 0 0-.182.155l-.047.295-.074-.107c-.228-.332-.738-.443-1.247-.443-1.168 0-2.164.884-2.359 2.125-.1.619.043 1.21.394 1.623.322.38.782.537 1.33.537.941 0 1.463-.605 1.463-.605l-.047.294a.184.184 0 0 0 .181.213h.952c.15 0 .279-.11.302-.26l.572-3.615a.184.184 0 0 0-.183-.212zM35.064 6.37a1.177 1.177 0 0 1-1.192 1.008c-.306 0-.552-.098-.71-.284-.156-.186-.214-.45-.165-.743a1.183 1.183 0 0 1 1.184-1.016c.3 0 .543.1.704.287.162.19.226.456.179.748zM37.782 2.428l-.906 5.76a.184.184 0 0 0 .182.213h.91c.151 0 .28-.11.303-.259l.893-5.657a.184.184 0 0 0-.182-.212h-1.019a.184.184 0 0 0-.181.155z" fill="#179BD7"/><path d="M2.643 9.5l.17-1.071-.377-.009H.642L1.889.513A.102.102 0 0 1 1.99.427h3.026c1.005 0 1.698.208 2.06.62.17.194.277.397.33.62.055.233.056.512.002.852l-.004.025v.218l.17.096c.143.076.256.163.343.262.145.166.24.376.279.625.041.257.027.562-.04.907a3.194 3.194 0 0 1-.371 1.027 2.112 2.112 0 0 1-.589.645c-.224.16-.491.28-.793.358a3.954 3.954 0 0 1-.99.115h-.236a.713.713 0 0 0-.7.598l-.018.096-.298 1.888-.014.07c-.004.022-.01.033-.019.04a.05.05 0 0 1-.03.011H2.642z" fill="#253B80"/><path d="M7.734 2.57l-.03.177c-.4 2.048-1.765 2.756-3.508 2.756h-.888a.431.431 0 0 0-.426.365l-.455 2.883-.128.817a.227.227 0 0 0 .224.262h1.574a.379.379 0 0 0 .375-.319l.015-.08.296-1.881.02-.103a.379.379 0 0 1 .374-.32h.235c1.526 0 2.72-.62 3.069-2.412.146-.749.07-1.374-.316-1.814a1.505 1.505 0 0 0-.43-.332z" fill="#179BD7"/><path d="M7.317 2.403a3.147 3.147 0 0 0-.388-.086 4.93 4.93 0 0 0-.783-.058H3.775a.377.377 0 0 0-.374.32l-.505 3.196-.014.093a.431.431 0 0 1 .426-.365h.888c1.743 0 3.108-.708 3.507-2.756.012-.061.022-.12.031-.178a2.127 2.127 0 0 0-.417-.166z" fill="#222D65"/><path d="M3.4 2.58a.377.377 0 0 1 .375-.32h2.371c.281 0 .544.018.783.057a3.596 3.596 0 0 1 .388.086l.09.028c.117.039.227.085.328.138.118-.757-.001-1.272-.41-1.74C6.872.317 6.058.097 5.015.097H1.991a.432.432 0 0 0-.428.365l-1.26 7.99a.26.26 0 0 0 .256.3h1.868l.47-2.976.504-3.196z" fill="#253B80"/></g></svg>