<svg width="37" height="10" viewBox="0 0 37 10" xmlns="http://www.w3.org/2000/svg"><g fill="#E51759" fill-rule="evenodd"><path d="M36.196 2.406c-.576 0-1.043.377-1.32.775h-.06v-.696l-.13-.069-1.756.238v.587l.684.158v3.574l-.674.158v.546h2.72v-.546l-.785-.158V3.796c.318-.189.695-.288 1.171-.288.12 0 .299.01.418.04V2.446a.956.956 0 0 0-.268-.04M32.032 7.132c-.258 0-.426-.06-.426-.358V3.995c0-1.082-.546-1.589-1.738-1.589-.734 0-1.489.189-1.915.367v.656c.317-.05.883-.1 1.31-.1.933 0 1.092.249 1.092.944V4.7l-1.162.237c-1.032.2-1.697.517-1.697 1.46 0 .853.625 1.41 1.549 1.41.664 0 1.122-.278 1.39-.586h.049c.1.407.397.566.864.566.387 0 .678-.073.903-.11v-.545h-.219zm-1.677-.408a1.33 1.33 0 0 1-.814.298c-.546 0-.784-.288-.784-.784 0-.477.198-.754.784-.793l.814-.06v1.34zM26.126.262L24.26.49v.586l.745.159v5.737l-.685.16v.546h2.61V7.13l-.675-.159V.332zM23 2.495l-.13-.069-1.776.179v.575l.655.16v3.285c-.258.11-.536.238-1.042.238-.675 0-.844-.287-.844-.903V2.495l-.129-.069-1.797.179v.575l.685.16v2.957c0 .924.427 1.49 1.48 1.49.714 0 1.26-.259 1.647-.636h.06v.392l.13.134h1.736v-.545L23 6.97V2.495zM3.345.487H.5v.615l.803.178v5.6L.5 7.058v.614h3.123v-.614L2.67 6.88V4.669c.277.05.605.078.962.078 1.516 0 2.424-.673 2.424-2.1 0-1.23-.77-2.16-2.712-2.16m.03 3.547c-.268 0-.516-.02-.704-.04V1.29h.753c.813 0 1.236.544 1.236 1.426 0 .862-.354 1.318-1.286 1.318M8.847 2.406c-1.41 0-2.542 1.043-2.542 2.72 0 1.629.973 2.68 2.561 2.68 1.4 0 2.542-1.051 2.542-2.74 0-1.647-.993-2.66-2.561-2.66m.03 4.646c-.666 0-1.261-.476-1.261-1.995 0-1.479.566-1.906 1.22-1.906.656 0 1.252.466 1.252 1.995 0 1.47-.566 1.906-1.212 1.906M15.336 2.405c-.703 0-1.199.277-1.565.574h-.06v-.485l-.128-.07-1.743.238v.585l.684.158v5.566l-.664.139v.534h2.704V9.11l-.783-.15V7.724c.238.05.466.07.861.07 1.546 0 2.635-.912 2.635-2.902 0-1.962-.98-2.486-1.941-2.486m-.683 4.654c-.486 0-.694-.128-.872-.247V3.543c.198-.089.545-.208.951-.208.792 0 1.248.447 1.248 1.754 0 1.525-.525 1.97-1.327 1.97"/></g></svg>