<svg width="61" height="10" viewBox="0 0 61 10" xmlns="http://www.w3.org/2000/svg" xmlns:xlink="http://www.w3.org/1999/xlink"><defs><path id="a" d="M0 .053h60.558V10.43H0z"/><path id="c" d="M0 0h60.558v10.377H0z"/></defs><g fill="none" fill-rule="evenodd"><g transform="translate(.303 -.53)"><mask id="b" fill="#fff"><use xlink:href="#a"/></mask><path d="M23.594 6.39H20.3c-.397 0-.701.11-.913.33-.211.22-.317.529-.317.925v.99c0 .193.02.363.06.508.04.145.134.28.284.403.123.105.27.187.443.244.172.057.332.086.482.086h2.05c.406 0 .708-.106.906-.317.199-.211.298-.515.298-.911V6.39zm.555 2.165c0 .265-.022.498-.066.7-.044.203-.154.41-.33.62a1.463 1.463 0 0 1-.622.437c-.23.079-.48.118-.754.118h-2.01c-.538 0-.981-.156-1.33-.468-.348-.313-.522-.746-.522-1.3V7.657c0-.555.166-.997.496-1.327.33-.33.774-.495 1.33-.495h3.266v-.357c0-.158-.024-.317-.073-.475a1.165 1.165 0 0 0-.231-.423c-.141-.176-.298-.285-.47-.33a2.324 2.324 0 0 0-.575-.066h-3.73v-.554h3.532c.308 0 .597.03.866.092s.518.212.747.449c.177.203.3.42.37.654.071.233.106.477.106.732v2.997zm-8.014-4.37v6.245h-.556V1.466h.556V3.63h1.878v.554h-1.878zm-1.958 6.245V5.36c0-.175-.037-.352-.112-.528a1.112 1.112 0 0 0-.324-.435 1.355 1.355 0 0 0-.49-.172 3.395 3.395 0 0 0-.502-.04h-1.574c-.167 0-.34.013-.515.04-.177.026-.34.084-.49.172a.925.925 0 0 0-.33.422c-.071.176-.106.357-.106.541v5.07h-.556V5.373c0-.272.051-.536.153-.792.1-.255.27-.47.509-.646.202-.133.416-.216.64-.251a4.5 4.5 0 0 1 .695-.053h1.574c.3 0 .573.029.82.086.247.057.456.151.628.283.172.132.305.31.397.535.093.225.139.504.139.838v5.057h-.556zM8.041 5.453c0-.493-.139-.827-.417-1.004-.277-.176-.645-.264-1.104-.264H5c-.468 0-.832.097-1.092.29-.26.195-.39.538-.39 1.03v2.047c.379-.158.754-.321 1.124-.489.37-.167.74-.33 1.111-.488.38-.167.754-.33 1.124-.488.37-.159.754-.326 1.15-.502v-.08c0-.008.003-.015.007-.02.005-.004.007-.014.007-.032zm.569.502l-5.092 2.23v.093c0 .018.002.036.007.053a.22.22 0 0 1 .006.053c.01.229.035.458.08.686a.936.936 0 0 0 .343.568c.16.106.329.172.51.198.18.027.359.04.535.04h3.598v.554H5.092a4.1 4.1 0 0 1-.926-.092 1.551 1.551 0 0 1-.668-.323 1.377 1.377 0 0 1-.403-.608c-.089-.25-.133-.565-.133-.944V5.625c0-.696.153-1.202.457-1.519.304-.317.813-.475 1.527-.475H6.68c.282 0 .546.026.793.08.247.052.476.188.688.408.203.212.328.418.377.62.048.204.073.437.073.7v.516zm-6.758-1.77c-.459 0-.79.121-.992.363-.203.243-.305.588-.305 1.037v4.845H0V5.585c0-.66.152-1.15.456-1.472.305-.321.792-.482 1.462-.482h.529v.554h-.595z" fill="#900E27" fill-rule="nonzero" mask="url(#b)"/></g><g transform="translate(0 .074)"><mask id="d" fill="#fff"><use xlink:href="#c"/></mask><path d="M29.94 6.353c0 .159-.074.238-.224.238h-.265c-.159 0-.277.044-.357.132a.494.494 0 0 0-.119.343v2.456c0 .15-.08.224-.238.224h-.529c-.15 0-.225-.074-.225-.224V7.066c0-.14-.04-.255-.119-.343-.08-.088-.198-.132-.357-.132h-2.394c-.15 0-.224-.08-.224-.238v-.528c0-.158.03-.308.092-.449l1.997-5.664c.053-.176.167-.264.344-.264h.45c.079 0 .132.024.158.073.027.048.04.103.04.165l-1.997 5.558c-.044.15-.038.275.02.376.057.102.174.152.35.152h1.164c.317 0 .476-.158.476-.475v-.343c0-.07.018-.163.053-.278.035-.114.07-.215.106-.303v.013l.225-.475c.079-.159.176-.238.29-.238h.08c.159 0 .238.08.238.238v1.386c0 .317.159.475.476.475h.265c.15 0 .224.08.224.238v.343z" fill="#000" fill-rule="nonzero" mask="url(#d)"/></g><path d="M60.292 5.042c0-.23-.022-.43-.066-.601-.044-.172-.163-.354-.357-.548v.013a1.21 1.21 0 0 0-.337-.178 1.609 1.609 0 0 0-.443-.046h-2.037c-.397 0-.683.11-.86.33-.176.22-.264.541-.264.964v3.142c0 .431.095.737.284.917.19.181.496.271.92.271h1.904c.194 0 .355-.009.483-.026a.64.64 0 0 0 .35-.172c.194-.132.313-.277.357-.436a2.08 2.08 0 0 0 .066-.554V5.042zm.57 2.93c0 .335-.047.617-.14.846-.092.229-.267.47-.522.726a1.914 1.914 0 0 1-.55.27 2.282 2.282 0 0 1-.614.073h-1.905c-.202 0-.39-.022-.561-.066a2.093 2.093 0 0 1-.602-.29c-.247-.23-.412-.456-.496-.68a2.278 2.278 0 0 1-.126-.8v-2.97c0-.343.042-.631.126-.865.084-.233.244-.468.483-.706.22-.132.416-.231.588-.297.172-.066.39-.099.655-.099h1.838c.132 0 .25.007.35.02.102.013.197.037.285.072.088.036.174.078.258.126.083.048.174.103.27.165.256.246.43.502.523.766.093.264.14.55.14.858v2.852zm-8.598 1.915c-.238 0-.46-.013-.667-.04-.208-.026-.412-.136-.615-.33a2.843 2.843 0 0 1-.304-.35 1.449 1.449 0 0 1-.186-.343 1.732 1.732 0 0 1-.092-.37 3.144 3.144 0 0 1-.026-.429V4.923c0-.247.026-.473.079-.68.053-.207.159-.398.317-.575.212-.228.439-.378.681-.449.243-.07.483-.105.72-.105h2.646v.568h-2.592c-.423 0-.745.085-.965.257-.221.172-.331.487-.331.944v3.09c0 .193.033.387.099.58.066.194.17.357.31.49.177.122.347.197.51.223.163.027.342.04.536.04h2.473v.581h-2.593zm-3.24 0V4.883c0-.202-.046-.391-.138-.568a1.55 1.55 0 0 0-.311-.422v.013a1.122 1.122 0 0 0-.483-.178 3.379 3.379 0 0 0-.509-.046h-1.534c-.177 0-.355.017-.536.052-.18.036-.328.093-.443.172-.273.23-.41.555-.41.977v5.004h-.555V4.883c0-.273.041-.543.125-.812.084-.268.258-.473.523-.614.202-.15.41-.244.621-.284.212-.04.437-.059.675-.059h1.534c.29 0 .56.03.807.092.246.062.46.163.641.304.18.14.32.324.417.548.097.224.145.5.145.825v5.004h-.569zm-6.427-4.08H39.33c-.405 0-.71.121-.912.363-.203.243-.304.557-.304.945v1.003c0 .194.022.363.066.508.044.145.127.27.251.376.123.115.265.194.423.238.159.044.326.066.503.066h2.01c.82 0 1.23-.396 1.23-1.188v-2.31zm.569 2.218c0 .256-.033.487-.1.694a2.12 2.12 0 0 1-.323.614c-.204.22-.42.367-.649.442-.229.075-.471.112-.727.112h-2.01c-.556 0-.997-.152-1.323-.455-.326-.304-.49-.742-.49-1.314V7.115c0-.59.155-1.048.464-1.374.308-.325.758-.488 1.349-.488h3.24v-.277c0-.397-.097-.705-.29-.925a.813.813 0 0 0-.464-.303 2.57 2.57 0 0 0-.595-.066h-3.703v-.568h3.505c.352 0 .659.026.919.079.26.053.491.203.694.449.159.203.282.427.37.673.088.247.133.502.133.766v2.944zM36.01 5.121c0-.502-.126-.867-.377-1.096-.252-.229-.633-.343-1.144-.343h-3.015v4.29c0 .256.041.467.125.634.084.168.2.304.35.41.15.105.325.18.523.224.198.044.417.066.655.066h1.362c.23 0 .447-.013.655-.04.207-.026.398-.123.575-.29a.991.991 0 0 0 .245-.449c.03-.15.046-.317.046-.502V5.121zm.555 2.799c0 .15-.004.286-.013.41a1.77 1.77 0 0 1-.185.672c-.053.106-.124.22-.211.344a1.77 1.77 0 0 1-.371.31c-.123.075-.254.13-.39.165-.137.035-.28.055-.43.06-.15.004-.309.006-.476.006h-1.494c-.635 0-1.138-.143-1.508-.429-.37-.286-.556-.781-.556-1.485V.962h.543v2.152h3.015c.679 0 1.194.16 1.547.482.353.321.53.83.53 1.525V7.92z" fill="#000" fill-rule="nonzero"/></g></svg>