<svg width="32" height="9" viewBox="0 0 32 9" xmlns="http://www.w3.org/2000/svg"><g fill="none" fill-rule="evenodd"><g fill="#007659"><path d="M9 2.27h-.03a1.92 1.92 0 0 0-.238-.04 2.569 2.569 0 0 0-.274-.013c-.17 0-.333.037-.491.112-.158.075-.31.172-.456.29v2.313h-.55v-3.26h.55v.482c.218-.175.41-.299.578-.372a1.27 1.27 0 0 1 .51-.11c.096 0 .165.003.208.008.043.005.107.014.192.028v.563M12.226 4.932h-.55V4.57a2.673 2.673 0 0 1-.532.335c-.17.078-.357.116-.562.116-.344 0-.61-.104-.802-.313-.191-.209-.287-.516-.287-.92V1.673h.55v1.856c0 .166.008.307.024.425a.77.77 0 0 0 .1.302.475.475 0 0 0 .204.187.91.91 0 0 0 .366.058c.143 0 .298-.037.467-.11.168-.075.326-.169.472-.284V1.673h.55v3.259M15.335 2.27h-.03a1.944 1.944 0 0 0-.238-.04 2.58 2.58 0 0 0-.273-.013c-.17 0-.334.037-.492.112-.158.075-.31.172-.456.29v2.313h-.55v-3.26h.55v.482c.218-.175.41-.299.578-.372.166-.072.336-.11.51-.11.095 0 .165.003.208.008.042.005.107.014.193.028v.563M17.76 4.129v-.913c-.166.01-.362.024-.588.044a3.005 3.005 0 0 0-.537.084.882.882 0 0 0-.38.21.523.523 0 0 0-.146.392c0 .189.057.33.17.425.111.095.283.142.513.142.192 0 .367-.037.526-.113a2.4 2.4 0 0 0 .442-.271m.55.803h-.55v-.35l-.197.14a1.666 1.666 0 0 1-.554.255c-.119.03-.257.044-.417.044-.292 0-.541-.097-.745-.292a.988.988 0 0 1-.306-.745c0-.248.053-.448.16-.601a1.05 1.05 0 0 1 .452-.361c.198-.088.436-.147.713-.179.278-.031.575-.055.894-.07v-.085a.673.673 0 0 0-.065-.312.478.478 0 0 0-.188-.194.763.763 0 0 0-.28-.091 2.256 2.256 0 0 0-.82.035c-.178.039-.361.095-.55.169h-.028v-.557c.107-.03.26-.061.463-.097.203-.034.403-.052.599-.052.23 0 .43.019.6.057.17.038.318.103.442.195.123.09.217.205.281.347.064.142.096.318.096.53v2.214M19.362 4.932h.55V.387h-.55zM23.833 1.673l-1.32 3.259h-.552l-1.31-3.26h.593l1.013 2.594 1.001-2.593h.575M25.7.034l-.796 1.095h-.435L24.99.034h.71zm-1.154 4.898h.55v-3.26h-.55v3.26zM28.185 4.129v-.913c-.166.01-.362.024-.588.044a3.034 3.034 0 0 0-.536.084.886.886 0 0 0-.381.21.527.527 0 0 0-.144.392c0 .189.055.33.167.425.113.095.285.142.515.142.192 0 .367-.037.526-.113.158-.075.306-.166.441-.271m.55.803h-.55v-.35l-.196.14a1.637 1.637 0 0 1-.555.255c-.118.03-.257.044-.415.044-.294 0-.543-.097-.746-.292a.987.987 0 0 1-.306-.745c0-.248.053-.448.16-.601.105-.154.255-.274.452-.361a2.43 2.43 0 0 1 .713-.179c.277-.031.575-.055.893-.07v-.085a.659.659 0 0 0-.065-.312.478.478 0 0 0-.188-.194.759.759 0 0 0-.28-.091 2.41 2.41 0 0 0-.34-.024c-.144 0-.304.02-.48.059-.178.039-.36.095-.55.169h-.028v-.557a5.42 5.42 0 0 1 .465-.097c.202-.034.401-.052.597-.052.231 0 .43.019.6.057.17.038.318.103.443.195.123.09.216.205.28.347.064.142.097.318.097.53v2.214"/></g><path d="M3.221 5.082h-.23s-.064-.81-1.003-1.664c-.003-.002-.394.007-.393.008.786.551 1.129 1.657 1.129 1.657h-.287s-.117-.624-.638-1.18C1.711 3.81.05 2.162.05 2.162h.9v-.948l1.437 1.448.003-2.36.639.57.624-.556.004 2.36L5.09 1.226v.948h.9s-1.719 1.863-1.737 1.88c-.626.577-.58 1.028-.58 1.028h-.205c-.041-1.248-1.156-2.1-1.257-2.179-.006-.006-.003.332-.003.332s1.007.924 1.012 1.846zm.847-1.658l-.574.59.12.258.813-.848h-.36zm-.241-.512c-.016.021-.634.658-.643.664a2.27 2.27 0 0 0 .154.196c.01-.014.492-.529.492-.529s-.005-.315-.003-.331zm-.426-.601l-.231.232v.613l.23-.232v-.613zm0-.697l-.231.233v.3l.23-.23v-.303zm0-.696l-.231.233v.3l.23-.23V.919zm.703 1.756v.322l.243-.245V2.43l-.243.244zm.8.239h-.318l-.22.218h.322l.215-.218zm-.291-.767v.322l.243-.245v-.321l-.243.244zm.809.263h-.318l-.22.218h.323l.215-.218zm-2.783-.106v.614l.23.23v-.611l-.23-.233zm0-.696v.303l.23.23v-.3l-.23-.233zm0-.697v.304l.23.23v-.3L2.64.91zm-.704 1.757l-.243-.244v.321l.243.244v-.32zm-.8.238l.216.22.322-.002-.22-.218h-.317zm.292-.766l-.243-.244v.321l.243.245v-.322zm-.81.263l.216.218h.321l-.22-.218H.618z" fill="#007659"/><path d="M23.833 7.842c-7.323 1.343-16.639.7-20.808-1.436a7.05 7.05 0 0 1-.798-.472c5.495 2.624 14.11 2.512 19.8 1.469 4.543-.833 8.769-2.85 9.195-4.56 1.327 1.87-1.48 3.915-7.389 5" fill="#C4DA88"/></g></svg>