<svg width="51" height="10" viewBox="0 0 51 10" xmlns="http://www.w3.org/2000/svg"><g fill="none" fill-rule="evenodd"><path d="M.58 3.284a3.178 3.178 0 1 1 6.357 0 3.179 3.179 0 0 1-6.358 0" fill="#0097CB"/><path d="M.58 3.284a3.178 3.178 0 1 1 6.357 0 3.179 3.179 0 0 1-6.358 0z" stroke="#0097CB" stroke-width=".04"/><path d="M3.27 3.561h.503c.11 0 .245 0 .343.056.098.055.166.17.166.28a.362.362 0 0 1-.153.303c-.107.07-.263.063-.387.063h-.471v-.702zm0-1.155h.412c.116 0 .294-.014.392.041a.303.303 0 0 1 .144.264.33.33 0 0 1-.123.263c-.101.077-.242.07-.361.07H3.27v-.638zm-.68-.519v2.916h1.305c.25 0 .536 0 .749-.157.204-.15.356-.375.356-.63 0-.378-.246-.654-.608-.726v-.01c.307-.075.528-.297.528-.629a.716.716 0 0 0-.358-.637c-.2-.127-.437-.127-.667-.127H2.59z" fill="#FFFFFE"/><path d="M14.039 3.38c-.5-1.416-1.665-1.915-3.093-1.915-.749 0-1.45.166-2.044.666-.583.487-.88 1.153-.88 1.915 0 1.782 1.426 2.21 2.878 2.509.498.105 1.427.236 1.427.915 0 .677-.726.878-1.272.878-.845 0-1.463-.296-1.7-1.152l-1.76.404c.367 1.594 1.76 2.26 3.292 2.26.82 0 1.713-.156 2.367-.666a2.607 2.607 0 0 0 1.01-2.046c0-.808-.404-1.486-1.07-1.925-.57-.382-1.462-.548-2.129-.69-.463-.084-1.176-.226-1.176-.822 0-.628.62-.759 1.129-.759.724 0 1.166.272 1.403.963l1.618-.535M20.219 9.74a2.875 2.875 0 0 1-.12-.903V6.018c0-.725.061-1.39-.559-1.889-.487-.405-1.295-.548-1.913-.548-1.272 0-2.7.429-2.877 1.89l1.652.156c0-.594.487-.88 1.047-.88.26 0 .557.083.712.286.178.225.154.534.154.795v.142c-.736.073-1.7.12-2.389.381-.795.298-1.355.905-1.355 1.796 0 1.14.832 1.713 1.902 1.713.904 0 1.427-.346 1.926-1.059-.01.31.013.63.083.94h1.737zM18.315 7.09c0 .428.014.785-.236 1.165-.203.31-.523.5-.88.5-.487 0-.773-.322-.773-.797 0-.88 1.223-1.034 1.89-1.106v.238zM22.95 6.34c0-.643.12-1.557.963-1.557.963 0 .963 1.26.963 1.937 0 .654 0 1.914-.987 1.914a.845.845 0 0 1-.737-.416c-.19-.297-.203-.678-.203-1.01V6.34zm-1.772 3.4h.953c.105-.32.177-.666.391-.928.44.726.856 1.048 1.724 1.048 1.819 0 2.448-1.56 2.448-3.14 0-1.427-.522-3.139-2.246-3.139-.677 0-1.176.286-1.474.88l-.048-2.877h-1.748V9.74zM32.816 9.74a2.894 2.894 0 0 1-.12-.903V6.018c0-.725.06-1.39-.558-1.889-.488-.405-1.296-.548-1.915-.548-1.272 0-2.698.429-2.876 1.89L29 5.627c0-.594.487-.88 1.046-.88.262 0 .558.083.713.286.178.225.156.534.156.795v.142c-.738.073-1.701.12-2.391.381-.797.298-1.355.905-1.355 1.796 0 1.14.833 1.713 1.901 1.713.904 0 1.427-.346 1.927-1.059-.012.31.012.63.083.94h1.737zM30.914 7.09c0 .428.012.785-.239 1.165-.202.31-.523.5-.88.5-.486 0-.772-.322-.772-.797 0-.88 1.224-1.034 1.89-1.106v.238zM38.935 9.74V1.585h-1.747v2.759c-.38-.56-.833-.762-1.51-.762-1.76 0-2.212 1.772-2.212 3.21 0 1.403.477 3.069 2.175 3.069.774 0 1.273-.417 1.606-1.059l.024.94h1.664zm-1.747-2.522c0 .299-.013.62-.156.893-.142.274-.44.487-.76.487-.868 0-.963-1.105-.963-1.76 0-.724.035-2.031 1.035-2.031.796 0 .844.998.844 1.58v.831zM45.47 7.017c.012-.82-.118-1.676-.616-2.366-.5-.689-1.369-1.07-2.212-1.07-1.878 0-2.937 1.439-2.937 3.223 0 1.794 1.177 3.056 2.984 3.056 2.045 0 2.747-1.785 2.747-2.082l-1.617-.119c0 .559-.536.952-1.07.952-.763 0-1.165-.583-1.165-1.296l.01-.298h3.877zm-3.886-1.033c.059-.69.357-1.26 1.13-1.26.76 0 .974.605 1.01 1.26h-2.14zM46.242 9.74h1.747V1.585h-1.747zM48.855 9.74h1.747V1.585h-1.747z" fill="#161617"/></g></svg>