<svg width="75" height="10" viewBox="0 0 75 10" xmlns="http://www.w3.org/2000/svg"><g fill-rule="nonzero" fill="none"><path d="M13.22 1.55a.777.777 0 0 0-.778-.766.763.763 0 0 0-.778.767c0 .455.333.788.778.788a.768.768 0 0 0 .777-.788zm13.818 6.633l-.033-.3h-.233c-.5 0-.5-.256-.5-1.145V.484c-.6 0-1.1.067-2.022.256v.289c.044 0 .178-.023.311-.023.378 0 .378.434.378 1.411v.911c-.211-.033-.41-.067-.734-.067-.921 0-3.187.367-3.187 2.911 0 1.689 1.221 2.477 2.455 2.477.71 0 1.244-.355 1.521-.51l.29.51c.588-.111 1.2-.244 1.754-.466zM6.721 3.06c0-.177-.1-1.666-.145-1.91H.4C.356 1.395.255 2.884.255 3.06h.4c.29-1.2.411-1.488 1.667-1.488h.444v5.299c0 1.133 0 1.2-.722 1.288l-.267.034v.288H5.2v-.288l-.267-.034c-.722-.089-.722-.155-.722-1.288v-5.3h.444c1.256 0 1.378.29 1.667 1.49h.4zm7.153 5.421v-.288l-.233-.023c-.4-.033-.455-.155-.455-.744V3.26a7.395 7.395 0 0 0-2.022.4v.322c.045-.011.19-.067.356-.067.333 0 .333.5.333.89v2.62c0 .59-.056.712-.456.745l-.233.023v.288h2.71zM10.631 3.75c-.156-.167-.433-.489-.9-.489-.566 0-1.033.533-1.255.767 0-.334-.056-.567-.09-.767-.799.122-1.032.2-1.865.478v.289c.066-.023.188-.067.355-.067.333 0 .333.5.333.889v2.577c0 .589-.055.711-.455.744l-.233.023v.288h2.933v-.288l-.445-.056c-.467-.055-.467-.2-.467-.989V4.45c.145-.178.278-.222.445-.222.156 0 .8.267.977.311.356-.244.511-.434.667-.79zm26.783 3.3c0-1.7-2.5-1.512-2.5-2.678 0-.389.278-.689.622-.689.822 0 1.067.9 1.1 1.267h.445c0-.455-.011-.945-.123-1.378a2.896 2.896 0 0 0-1.333-.31c-1.977 0-1.977 1.366-1.977 1.455 0 1.777 2.5 1.455 2.5 2.776 0 .4-.267.734-.734.734-.833 0-1.333-.89-1.4-1.5h-.444c0 .666.09 1.134.2 1.578.4.2.877.344 1.533.344 1.5 0 2.11-.744 2.11-1.6zm-4.533-1.2c0-1.79-1.31-2.589-2.765-2.589-1.4 0-2.822.844-2.822 2.756 0 1.866 1.322 2.632 2.744 2.632 1.422 0 2.843-.822 2.843-2.799zm-12.752 0c0-1.79-1.311-2.589-2.767-2.589-1.399 0-2.82.844-2.82 2.756 0 1.866 1.321 2.632 2.743 2.632s2.844-.822 2.844-2.799zm4.81 1.955c-.122.1-.355.2-.645.2-.888 0-1.855-.867-1.855-2.367 0-1.121.567-1.955 1.544-1.955.534 0 .745.2.956.389v3.733zm6.52-1.722c0 .877-.244 2.144-1.277 2.144-1.066 0-1.466-1.278-1.466-2.444 0-.922.277-2.1 1.289-2.1 1.121 0 1.455 1.234 1.455 2.4zm-12.752 0c0 .877-.245 2.144-1.278 2.144-1.066 0-1.466-1.278-1.466-2.444 0-.922.278-2.1 1.288-2.1 1.123 0 1.456 1.234 1.456 2.4z" fill="#003168"/><path d="M48.518 5.438c0-1.355-.577-2.666-1.344-3.443-.489-.489-.933-.789-1.589-1.078l-.066.122c.31.19.567.39.866.69.855.821 1.422 2.243 1.422 3.41 0 .177 0 .533-.022.788-.1-.5-.411-1.033-.844-1.466-.123-.123-.3-.311-.433-.378 0 .255-.1.845-.223 1.189.167.133.256.233.411.377.356.367.589.834.589 1.223 0 .222-.1.455-.278.632-.177.178-.544.311-.91.311-.434 0-1.078-.233-1.411-.477.677-.689 1.088-1.433 1.344-2.366.111-.4.167-.8.167-1.2 0-.722-.178-1.41-.49-1.955-.5-.867-1.254-1.355-2.243-1.355-1.178 0-2.277.577-3.1 1.41-.944.956-1.41 2.122-1.41 3.322 0 .211.01.411.044.644h.134c.01-.355.055-.688.155-1.1.189-.744.7-1.566 1.344-2.21.467-.467 1.155-.922 1.633-1.11-.367.3-.722.854-.9 1.477a2.416 2.416 0 0 0-.089.544c.223-.133.778-.333 1.133-.389.078-.511.267-1.077.645-1.455.189-.189.41-.31.688-.31.422 0 .756.31.967.665.211.367.344 1.023.289 1.467a4.888 4.888 0 0 0-1.356-.2c-.444 0-.888.067-1.366.2-.777.21-1.489.61-2 1.121-.544.545-.966 1.3-.966 2.078 0 .81.411 1.489.955 2.044.911.91 2.21 1.378 3.488 1.378 1.034 0 1.955-.356 2.789-.967l-.067-.111a4.348 4.348 0 0 1-2.155.544c-1.188 0-2.322-.367-3.199-1.033.266.09.566.133.788.133.389 0 1.1-.11 1.445-.322a4.48 4.48 0 0 1-.923-.778 3.152 3.152 0 0 1-1.11.234c-.344 0-.723-.078-.967-.333a.921.921 0 0 1-.233-.6c0-.466.255-.856.566-1.178.223-.233.523-.444.756-.555.255.944.688 1.7 1.366 2.377.844.833 1.944 1.3 2.91 1.3.734.011 1.356-.2 1.878-.722.556-.567.922-1.566.922-2.589m-3.666-.777a4.724 4.724 0 0 1-1.188 1.889c-.511-.545-.856-1.256-1.033-1.967.3-.067.61-.1.921-.1.445 0 .878.066 1.3.178" fill="#00927B"/><path d="M74.258 8.482v-.288c-.444 0-.544-.111-2.31-2.911 1.232-1.267 1.243-1.433 1.91-1.533l.211-.033v-.29h-2.455v.29l.356.044c.155.022.344.056.344.144 0 .167-.111.323-.5.778l-.367.422c-.41.467-.644.489-1.044.489V.484c-.6 0-1.1.067-2.021.255v.29c.044 0 .177-.023.31-.023.378 0 .378.434.378 1.41v5.01c0 .59-.067.712-.455.745l-.233.023v.288h2.71v-.288l-.233-.023c-.4-.033-.456-.155-.456-.744v-1.41h.122c.467 0 .478.3 1.055 1.165.578.89.645 1.3 1.834 1.3h.844zm-18.53-2.088c0-1.366-1.188-1.81-1.877-1.91V4.46c.589-.177 1.522-.589 1.522-1.777 0-1.533-1.844-1.533-2.377-1.533h-3.31v.289l.266.033c.522.066.522.066.522 1.3v4.065c0 1.256.011 1.256-.522 1.322l-.266.034v.288h2.888c1.655 0 3.154-.466 3.154-2.088zm12.22 2.088v-.288l-.233-.023c-.4-.033-.456-.155-.456-.744V5.239c0-1.5-.677-1.978-1.677-1.978-.945 0-1.478.4-1.755.644v-.644c-.578.034-1.167.122-2 .4v.322c.045-.011.19-.067.356-.067.333 0 .333.5.333.89v2.62c0 .59-.056.712-.433.745l-.233.023v.288h2.688v-.288l-.234-.023c-.4-.033-.455-.155-.455-.744V4.328c.178-.19.466-.423.922-.423 1.155 0 1.155 1.067 1.155 1.944v1.578c0 .589-.055.711-.455.744l-.233.023v.288h2.71zm-6.465-.11l-.033-.145-.09.011c-.71 0-.71-.822-.71-1.622V5.25c0-1.267-.245-1.989-1.644-1.989-1.123 0-1.889.633-2.388 1.178.088.267.144.355.3.566h.11c.145-.333.467-1.1 1.322-1.1.789 0 .967.59.967 1.245v.266c-.922.245-2.877.623-2.877 2.022 0 .711.588 1.21 1.454 1.21.778 0 1.234-.343 1.545-.565.177.277.378.566 1.089.566.488 0 .81-.2.955-.278zM53.93 2.95c0 1.2-.755 1.434-1.6 1.434h-.41V1.65a1.99 1.99 0 0 1 .566-.078c.855 0 1.444.522 1.444 1.377zm.355 3.6c0 .877-.444 1.51-1.465 1.51-.301 0-.612-.066-.9-.177V4.805h.477c1.344 0 1.888.867 1.888 1.745zm5.077 1.188c-.089.067-.3.267-.677.267-.5 0-.823-.4-.823-.934 0-.821.7-1.154 1.333-1.154l.123.01v1.211c0 .211.033.49.044.6z" fill="#003168"/></g></svg>