<svg width="39" height="11" viewBox="0 0 39 11" xmlns="http://www.w3.org/2000/svg"><g fill="none" fill-rule="evenodd"><path d="M12.518 4.306c.09.13.177.261.26.396l-2.55.437 2.29-.833z" fill="#4AA241"/><path d="M12.518 4.306c.09.13.177.261.26.396l-2.55.437 2.29-.833z" stroke="#4AA241" stroke-width=".112"/><path d="M12.06 3.708c.12.143.234.29.345.44L9.257 5.23l2.803-1.522z" fill="#4AA241"/><path d="M12.06 3.708c.12.143.234.29.345.44L9.257 5.23l2.803-1.522z" stroke="#4AA241" stroke-width=".112"/><path d="M11.266 2.878c.214.195.419.402.614.62L8.222 5.513l3.044-2.634z" fill="#4AA241"/><path d="M11.266 2.878c.214.195.419.402.614.62L8.222 5.513l3.044-2.634z" stroke="#4AA241" stroke-width=".112"/><path d="M10.327 2.144c.269.18.527.376.774.588L7.66 5.702l2.667-3.558z" fill="#4AA241"/><path d="M10.327 2.144c.269.18.527.376.774.588L7.66 5.702l2.667-3.558z" stroke="#4AA241" stroke-width=".112"/><path d="M8.992 1.433c.399.164.782.361 1.149.59l-2.963 3.96 1.814-4.55z" fill="#4AA241"/><path d="M8.992 1.433c.399.164.782.361 1.149.59l-2.963 3.96 1.814-4.55z" stroke="#4AA241" stroke-width=".112"/><path d="M7.305.974c.477.069.94.185 1.386.345L6.77 6.417 7.305.974z" fill="#4AA241"/><path d="M7.305.974c.477.069.94.185 1.386.345L6.77 6.417 7.305.974z" stroke="#4AA241" stroke-width=".112"/><path d="M5.068 1.005A7.148 7.148 0 0 1 7.035.94l-.6 6.443-1.367-6.378z" fill="#4AA241"/><path d="M5.068 1.005A7.148 7.148 0 0 1 7.035.94l-.6 6.443-1.367-6.378z" stroke="#4AA241" stroke-width=".112"/><path d="M2.697 1.862a7.298 7.298 0 0 1 2.077-.8l1.515 6.906-3.592-6.106z" fill="#4AA241"/><path d="M2.697 1.862a7.298 7.298 0 0 1 2.077-.8l1.515 6.906-3.592-6.106z" stroke="#4AA241" stroke-width=".112"/><path d="M.323 3.935a8.197 8.197 0 0 1 2.09-1.903L6.77 9.185.323 3.935z" fill="#4AA241"/><path d="M.323 3.935a8.197 8.197 0 0 1 2.09-1.903L6.77 9.185.323 3.935z" stroke="#4AA241" stroke-width=".112"/><path fill="#DA322A" fill-rule="nonzero" d="M.214 10.683v-.415h38.779v.415z"/><path d="M18.598 3.228v2.763c0 .675-.199 1.202-.598 1.58-.399.378-.957.567-1.673.567-.713 0-1.269-.189-1.669-.567-.399-.378-.598-.905-.598-1.58V3.228h1.208v2.714c0 .384.092.678.274.881.183.204.449.305.796.305.345 0 .608-.1.788-.303.181-.203.271-.497.271-.883V3.228h1.201M19.66 8.054V4.783h1.02v.412c.16-.166.328-.286.504-.362.175-.076.378-.114.604-.114.356 0 .63.109.82.326.19.217.285.53.285.94v2.069h-1.026V6.126c0-.232-.038-.402-.112-.51-.074-.108-.19-.162-.348-.162a.666.666 0 0 0-.397.131 1.189 1.189 0 0 0-.33.386v2.083h-1.02M23.877 8.054h1.025V4.783h-1.025v3.27zm-.036-4.33c0-.154.053-.285.16-.392a.526.526 0 0 1 .388-.16.538.538 0 0 1 .549.552.538.538 0 0 1-.55.55.524.524 0 0 1-.387-.161.53.53 0 0 1-.16-.389zM28.644 7.906a2.16 2.16 0 0 1-.485.16 2.801 2.801 0 0 1-.554.051c-.584 0-1.046-.152-1.387-.457-.341-.304-.51-.716-.51-1.237 0-.515.168-.93.506-1.241.336-.313.786-.47 1.349-.47.177 0 .352.018.52.054.17.035.338.088.505.159v.804a3.306 3.306 0 0 0-.475-.16 1.678 1.678 0 0 0-.397-.052c-.293 0-.522.08-.687.24-.164.16-.247.382-.247.665 0 .287.084.51.253.668.168.157.41.236.723.236.135 0 .274-.018.419-.053.144-.037.3-.092.467-.166v.8M31.185 7.272v-.8c-.35.123-.584.232-.701.325a.415.415 0 0 0-.177.333c0 .105.032.19.096.25a.36.36 0 0 0 .264.095.663.663 0 0 0 .244-.052c.087-.034.179-.085.274-.15zm.052.48a1.65 1.65 0 0 1-.479.276c-.165.06-.343.09-.533.09-.314 0-.55-.077-.71-.23-.16-.153-.241-.38-.241-.682 0-.262.119-.478.356-.648.236-.169.755-.37 1.555-.603a.58.58 0 0 0 .007-.093c0-.156-.052-.271-.155-.346-.105-.074-.265-.112-.483-.112-.183 0-.37.045-.563.134-.192.09-.379.22-.562.39l.013-.813a2.19 2.19 0 0 1 .65-.298c.237-.065.503-.098.798-.098.469 0 .809.09 1.02.272.21.181.315.471.315.87v1.303c0 .077.01.13.032.16.02.03.054.045.102.045a.602.602 0 0 0 .136-.017c.047-.012.11-.034.188-.066v.573a3.2 3.2 0 0 1-.493.196 1.468 1.468 0 0 1-.407.062.688.688 0 0 1-.383-.091.367.367 0 0 1-.163-.275zM32.885 8.768a.605.605 0 0 0 .374-.226c.083-.114.124-.268.124-.46V4.782h1.026v3.27c0 .516-.095.9-.286 1.153-.191.252-.498.403-.922.452l-.316-.89zm.463-5.044c0-.156.053-.288.158-.393a.526.526 0 0 1 .39-.16c.154 0 .285.054.39.16a.536.536 0 0 1 .158.393.533.533 0 0 1-.16.391.532.532 0 0 1-.389.159.531.531 0 0 1-.387-.159.533.533 0 0 1-.16-.39zM37.116 7.272v-.8c-.35.123-.584.232-.701.325a.415.415 0 0 0-.177.333c0 .105.032.19.096.25a.361.361 0 0 0 .264.095.665.665 0 0 0 .244-.052c.087-.034.178-.085.274-.15zm.051.48a1.655 1.655 0 0 1-.478.276c-.166.06-.344.09-.534.09-.313 0-.55-.077-.71-.23-.16-.153-.24-.38-.24-.682 0-.262.118-.478.355-.648.237-.169.756-.37 1.556-.603a.36.36 0 0 0 .007-.093c0-.156-.052-.271-.156-.346-.104-.074-.265-.112-.482-.112-.183 0-.37.045-.563.134-.192.09-.38.22-.563.39l.014-.813a2.19 2.19 0 0 1 .65-.298c.237-.065.503-.098.798-.098.47 0 .808.09 1.019.272.21.181.316.471.316.87v1.303c0 .077.01.13.031.16.02.03.055.045.103.045a.598.598 0 0 0 .136-.017c.047-.012.109-.034.187-.066v.573c-.186.09-.35.155-.493.196a1.464 1.464 0 0 1-.406.062.69.69 0 0 1-.383-.091.37.37 0 0 1-.164-.275z" fill="#1A1919"/><path d="M23.592 3.542c0-.437.365-.79.815-.79.45 0 .815.353.815.79 0 .436-.365.789-.815.789a.802.802 0 0 1-.815-.79z" fill="#DA322A"/><path d="M23.592 3.542c0-.437.365-.79.815-.79.45 0 .815.353.815.79 0 .436-.365.789-.815.789a.802.802 0 0 1-.815-.79z" stroke="#DA322A" stroke-width=".219"/><path d="M33.098 3.581c0-.436.365-.79.815-.79.45 0 .814.354.814.79 0 .437-.364.79-.814.79a.802.802 0 0 1-.815-.79z" fill="#4AA241"/><path d="M33.098 3.581c0-.436.365-.79.815-.79.45 0 .814.354.814.79 0 .437-.364.79-.814.79a.802.802 0 0 1-.815-.79z" stroke="#4AA241" stroke-width=".219"/></g></svg>