<svg width="42" height="10" viewBox="0 0 42 10" xmlns="http://www.w3.org/2000/svg" xmlns:xlink="http://www.w3.org/1999/xlink"><defs><path id="a" d="M.1.01h2.357v2.35H.1V.01z"/></defs><g fill="none" fill-rule="evenodd"><path fill="#152A69" d="M15.943 1.783v1.715h3.928l-3.928 4.457v2.028h6.3V8.27h-4.014l3.928-4.543V1.783zM23.4 9.988h2.029v-6.59H23.4zM34.4 1.783v8.2h2.029V6.655h.028l2.229 3.328h2.557L38.557 6.37l2.629-2.972h-2.5l-2.258 2.6V1.784zM32.657 4.126a1.8 1.8 0 0 0-.743-.657 2.8 2.8 0 0 0-1.242-.243 2.33 2.33 0 0 0-.672.1c-.2.056-.392.138-.571.243-.153.095-.293.21-.415.343a1.64 1.64 0 0 0-.271.386h-.029v-.9h-1.957v6.585h2.029V6.698c0-.21.014-.42.043-.629a1.56 1.56 0 0 1 .17-.529.971.971 0 0 1 .372-.385c.198-.104.42-.154.643-.143a.871.871 0 0 1 .915.586c.07.178.114.365.128.557.01.2.014.395.014.585v3.243h2.03V6.355c0-.412-.034-.823-.101-1.229a2.657 2.657 0 0 0-.343-1"/><g transform="translate(23.143 .13)"><mask id="b" fill="#fff"><use xlink:href="#a"/></mask><path d="M1.271.01C.96.007.661.13.443.353A1.143 1.143 0 0 0 .1 1.18c-.003.312.12.611.343.829a1.171 1.171 0 0 0 1.671 0c.223-.218.347-.517.343-.829.004-.31-.12-.61-.343-.828A1.143 1.143 0 0 0 1.271.01" fill="#152A69" mask="url(#b)"/></g><path d="M5.957 5.24h.014l1.686 4.743h1.814l2.429-8.2H9.843L8.486 6.54h-.029L6.786 1.783H5.114L3.457 6.54H3.43L2.057 1.783H0l2.429 8.2h1.828L5.943 5.24h.014zm6.786-1.842h2.028v6.585h-2.014l-.014-6.585zm-.157-2.072c-.004-.311.12-.61.343-.828a1.171 1.171 0 0 1 1.656-.015l.015.015c.222.218.346.517.343.828.003.311-.12.61-.343.829a1.171 1.171 0 0 1-1.657.015l-.014-.015a1.143 1.143 0 0 1-.343-.829z" fill="#00C6C5"/></g></svg>