<svg width="63" height="64" viewBox="0 0 63 64" xmlns="http://www.w3.org/2000/svg" xmlns:xlink="http://www.w3.org/1999/xlink"><defs><path d="M.107 32.06C.107 14.634 14.162.504 31.496.504c17.336 0 31.385 14.13 31.385 31.554 0 17.425-14.05 31.55-31.385 31.55C14.162 63.61.107 49.485.107 32.06z" id="a"/><path d="M55.925 12.247A31.529 31.529 0 0 1 62.88 32.06c0 17.425-14.05 31.55-31.385 31.55a31.158 31.158 0 0 1-19.707-6.992l44.136-44.37z" id="c"/></defs><g fill="none" fill-rule="evenodd"><mask id="b" fill="#fff"><use xlink:href="#a"/></mask><path fill="#F4F4F4" fill-rule="nonzero" mask="url(#b)" d="M-6.66 70.697h76.309v-77.28h-76.31z"/><mask id="d" fill="#fff"><use xlink:href="#c"/></mask><path fill-opacity=".12" fill="#666" fill-rule="nonzero" mask="url(#d)" d="M-8.014 94.963H98.074V-12.252H-8.014z"/><g fill-rule="nonzero" fill="#D92A5B"><path d="M40.623 27.18l-.145-.08-2.103.259v.662l.839.18v6.488l-.772.18v.618h2.942v-.618l-.76-.18v-7.51M36.954 29.627l-.146-.079-2.003.202v.65l.739.18v3.717c-.291.123-.605.269-1.175.269-.761 0-.952-.325-.952-1.021v-3.918l-.145-.079-2.026.202v.65l.773.18v3.346c0 1.044.48 1.684 1.667 1.684.806 0 1.422-.293 1.858-.718h.067v.443l.146.152h1.958v-.617l-.761-.184v-5.06M21.032 34.78c-.75 0-1.421-.54-1.421-2.258 0-1.672.638-2.155 1.376-2.155.74 0 1.41.528 1.41 2.257 0 1.661-.637 2.155-1.365 2.155m-.034-5.253c-1.588 0-2.864 1.179-2.864 3.075 0 1.842 1.097 3.032 2.887 3.032 1.578 0 2.865-1.19 2.865-3.1 0-1.862-1.12-3.007-2.888-3.007M51.83 29.526c-.65 0-1.176.426-1.49.876h-.066v-.787l-.146-.078-1.98.269v.663l.772.179v4.042l-.761.18v.617h3.066v-.618l-.884-.18v-3.591c.358-.214.783-.326 1.32-.326.135 0 .336.01.47.044v-1.245a1.074 1.074 0 0 0-.302-.045M45.245 34.409c-.18.157-.537.337-.918.337-.615 0-.884-.326-.884-.887 0-.54.224-.854.884-.898l.918-.068v1.516zm1.89.46c-.29 0-.48-.067-.48-.404v-3.143c0-1.224-.615-1.796-1.959-1.796-.828 0-1.678.212-2.16.415v.741c.359-.056.997-.113 1.478-.113 1.052 0 1.231.281 1.231 1.067v.483l-1.31.269c-1.163.225-1.913.584-1.913 1.651 0 .965.705 1.594 1.746 1.594.749 0 1.264-.315 1.567-.663h.055c.112.46.449.64.974.64.436 0 .765-.082 1.018-.123v-.618h-.246zM14.83 31.366c-.302 0-.581-.022-.793-.044v-3.059h.848c.917 0 1.394.615 1.394 1.613 0 .975-.399 1.49-1.45 1.49m-.033-4.01H11.59v.694l.905.202v6.332l-.905.202v.694h3.52v-.694l-1.072-.202v-2.5c.312.056.681.09 1.084.09 1.71 0 2.733-.763 2.733-2.377 0-1.39-.868-2.442-3.058-2.442M27.544 34.788c-.547 0-.782-.146-.983-.28v-3.696c.224-.101.614-.236 1.072-.236.893 0 1.407.505 1.407 1.983 0 1.724-.592 2.229-1.496 2.229m.77-5.264c-.793 0-1.351.313-1.764.65h-.067v-.55l-.145-.078-1.965.269v.66l.77.18v6.295l-.748.157v.604h3.048v-.604l-.882-.169v-1.4c.268.056.525.078.971.078 1.743 0 2.97-1.03 2.97-3.28 0-2.219-1.105-2.812-2.188-2.812"/></g></g></svg>