<svg width="63" height="63" viewBox="0 0 63 63" xmlns="http://www.w3.org/2000/svg" xmlns:xlink="http://www.w3.org/1999/xlink"><defs><path d="M.429 31.586C.429 14.423 14.264.504 31.327.504c17.065 0 30.895 13.919 30.895 31.082 0 17.164-13.83 31.078-30.895 31.078C14.264 62.664.429 48.75.429 31.586z" id="a"/><path d="M57.11 14.456a31.071 31.071 0 0 1 5.112 17.13c0 17.164-13.83 31.078-30.895 31.078A30.627 30.627 0 0 1 14.3 57.523l42.81-43.067z" id="c"/></defs><g fill="none" fill-rule="evenodd"><mask id="b" fill="#fff"><use xlink:href="#a"/></mask><path fill="#F4F4F4" fill-rule="nonzero" mask="url(#b)" d="M-6.233 69.645h75.117V-6.477H-6.233z"/><mask id="d" fill="#fff"><use xlink:href="#c"/></mask><path fill-opacity=".12" fill="#666" fill-rule="nonzero" mask="url(#d)" d="M-6.233 96.34h104.43V-9.27H-6.233z"/><g transform="translate(13 16.958)" fill-rule="nonzero"><path d="M37.054 10.254c-1.518-4.3-5.06-5.819-9.396-5.819-2.277 0-4.409.506-6.216 2.024-1.77 1.481-2.674 3.505-2.674 5.818 0 5.42 4.335 6.722 8.745 7.626 1.517.325 4.336.722 4.336 2.782s-2.204 2.674-3.867 2.674c-2.566 0-4.445-.904-5.168-3.506l-5.348 1.23c1.12 4.842 5.348 6.865 10.01 6.865 2.494 0 5.204-.47 7.192-2.024 1.915-1.48 3.073-3.794 3.073-6.215 0-2.457-1.23-4.517-3.253-5.854-1.735-1.157-4.446-1.662-6.469-2.096-1.41-.254-3.577-.687-3.577-2.494 0-1.915 1.879-2.312 3.433-2.312 2.204 0 3.541.831 4.264 2.927l4.915-1.626" fill="#0079AD"/><ellipse fill="#25221F" cx="8.579" cy="8.574" rx="8.445" ry="8.445"/><path d="M7.284 9.311h1.334c.293 0 .654 0 .915.148.259.147.44.451.44.745 0 .316-.148.632-.407.802-.282.19-.7.17-1.028.17H7.285V9.31h-.001zm0-3.071h1.095c.305 0 .78-.034 1.04.113a.804.804 0 0 1 .384.7c0 .261-.114.542-.329.701-.27.203-.643.18-.959.18H7.283V6.24h.001zM5.477 4.86v7.747h3.467c.666 0 1.423 0 1.988-.418.541-.394.948-.993.948-1.671 0-1.005-.654-1.739-1.614-1.93v-.022c.813-.204 1.4-.791 1.4-1.672 0-.734-.328-1.298-.95-1.693-.53-.34-1.162-.34-1.772-.34H5.477z" fill="#FFF"/></g></g></svg>