<svg width="63" height="63" viewBox="0 0 63 63" xmlns="http://www.w3.org/2000/svg" xmlns:xlink="http://www.w3.org/1999/xlink"><defs><path d="M.429 31.191C.429 14.028 14.264.11 31.327.11c17.065 0 30.895 13.92 30.895 31.082 0 17.164-13.83 31.078-30.895 31.078C14.264 62.27.429 48.355.429 31.191z" id="a"/><path d="M57.11 14.062a31.071 31.071 0 0 1 5.112 17.13c0 17.163-13.83 31.077-30.895 31.077A30.627 30.627 0 0 1 14.3 57.13l42.81-43.067z" id="c"/></defs><g fill="none" fill-rule="evenodd"><mask id="b" fill="#fff"><use xlink:href="#a"/></mask><path fill="#F4F4F4" fill-rule="nonzero" mask="url(#b)" d="M-6.233 69.25h75.117V-6.872H-6.233z"/><mask id="d" fill="#fff"><use xlink:href="#c"/></mask><path fill-opacity=".12" fill="#666" fill-rule="nonzero" mask="url(#d)" d="M-6.233 95.946h104.43V-9.664H-6.233z"/><path d="M38.413 29.845s0 .38-.165.788c5.56 1.143 9.496 3.837 9.496 6.994 0 4.245-7.019 7.728-15.717 7.755-.055.027-.11 0-.165 0-8.615 0-15.606-3.375-15.606-7.592 0-3.156 4.266-5.714 9.413-7.075 0 1.742 5.863 7.266 6 9.497 0 0 .028.19.028.408 0 .109 0 .218-.028.326 1.266-.653 1.266-2.694 1.266-2.694 0-4.843-5.697-6.993-5.697-11.755 0-1.85.881-3.21 1.679-3.592v1.334c0 3.455 6.166 7.32 6.166 10.476v1.034c1.43-.544 1.43-3.13 1.43-3.13 0-4.353-5.724-6.775-5.724-11.754 0-1.85.88-3.211 1.679-3.592v1.333c0 3.456 5.945 7.293 5.945 11.239z" fill="#FE0000" fill-rule="nonzero"/></g></svg>