<?xml version="1.0" standalone="no"?>
<!DOCTYPE svg PUBLIC "-//W3C//DTD SVG 1.1//EN" "http://www.w3.org/Graphics/SVG/1.1/DTD/svg11.dtd" >
<svg xmlns="http://www.w3.org/2000/svg">
<metadata>Generated by IcoMoon</metadata>
<defs>
<font id="icomoon" horiz-adv-x="1024">
<font-face units-per-em="1024" ascent="960" descent="-64" />
<missing-glyph horiz-adv-x="1024" />
<glyph unicode="&#x20;" d="" horiz-adv-x="512" />
<glyph unicode="&#xe600;" d="M518.571 925.867h-12.885c-185.498 0-325.427-118.801-325.427-288.546 0-225.997 306.398-518.793 319.437-528.998l11.588-9.865 11.793 8.602c13.090 9.967 320.956 302.797 320.956 528.23-0.017 168.243-142.967 290.577-325.461 290.577zM511.488 146.295c-55.876 46.097-292.983 307.251-292.983 491.025 0 147.968 123.563 250.231 287.181 250.231h12.885c163.703 0 287.181-103.27 287.181-252.535 0-183.091-238.182-442.88-294.263-488.721zM512.119 703.164c-60.689 0-109.875-49.237-109.875-109.875 0-60.74 49.186-109.995 109.875-109.995 60.706 0 109.978 49.271 109.978 109.995 0 60.638-49.289 109.875-109.978 109.875zM512.119 791.125c-109.21 0-197.871-88.627-197.871-197.837 0-109.329 88.644-197.922 197.871-197.922 109.278 0 197.888 88.593 197.888 197.922 0 109.21-88.61 197.837-197.888 197.837zM512.119 420.932c-95.010 0-172.305 77.295-172.305 172.356 0 94.993 77.278 172.271 172.305 172.271 95.113 0 172.322-77.261 172.322-172.271 0-95.061-77.21-172.356-172.322-172.356zM200.977 69.171l-18.978-50.739-11.981-32h60.16l11.964 32.137 18.859 50.466zM865.843 297.062h-123.597c-11.179-14.097-22.067-27.273-32.99-40.533h-0.341c-5.444-6.4-10.82-12.732-16.043-19.098l9.011-24.132h-29.713c-14.541-16.64-28.297-32-41.591-46.404l88.644-0.068 19.354-51.831-156.979 0.239c-22.63-23.194-39.185-38.895-47.462-46.404-2.492-2.27-5.086-4.54-5.905-5.308l-16.486-12.066-16.333 13.961c-0.495 0.461-2.543 2.372-3.823 3.396-6.844 6.093-23.364 21.726-47.479 46.507l-165.82 0.171 19.251 51.661 97.758-0.171c-13.090 14.438-26.88 29.798-41.421 46.507h-38.997l11.981 31.898c-1.775 1.997-3.379 3.994-5.12 6.007l-2.697 3.14c-12.237 14.763-24.252 26.692-36.745 42.53h-110.78l-171.52-277.897c0-34.167 17.015-57.429 51.149-57.429h921.754c34.116 0 51.098 23.262 51.098 57.429l-158.157 277.897zM200.994 245.965h65.997l-12.1-32.461-73.711 0.171 19.814 32.29zM152.764 167.202l84.753-0.034-19.268-51.593h-97.109l31.625 51.627zM476.314 18.927l-234.172-0.358-11.964-32.137h-60.16l11.981 32-120.491-0.273 31.232 51.132 383.573-0.478v-49.886zM749.824 245.965h80.367l19.063-32.768-87.245 0.102-12.186 32.666zM536.354 18.995l0.051 49.835 219.597-0.273 18.313-49.033-237.961-0.529zM779.383 166.827l96.939-0.171 30.242-51.797-107.827 0.137-19.354 51.831zM834.389 19.541l-18.364 48.93 117.606-0.137 28.262-48.606-127.505-0.188z" />
<glyph unicode="&#xe601;" d="M928.259 61.246c-11.553 33.21-40.957 72.332-49.698 85.35-31.981 47.609-64.282 94.225-83.211 148.588-18.929 54.43-30.145 111.757-40.469 168.292-9.364 51.348-16.336 103.185-22.415 155.005-18.289 155.796-106.048 228.65-191.853 254.232 0.573 3.789 1.196 7.511 1.196 11.418 0 41.867-34.002 75.869-75.852 75.869s-75.835-34.002-75.835-75.869c0-3.739 0.573-7.292 1.112-10.879-85.906-25.059-173.917-97.863-192.392-254.771-14.652-124.741-26.659-274.71-90.638-385.356-19.249-33.295-41.648-64.872-62.295-97.274-15.746-24.723-89.022-126.762-9.566-126.762 6.416 0 221.055 0 439.702 0 20.933-43.113 64.754-73.090 116.018-73.090 51.146 0 95.084 29.977 116.051 73.090 78.546 0 145.557 0 187.188 0 39.677 0 42.759 23.948 32.958 52.157zM74.825 73.17c39.341 55.474 80.685 112.279 107.867 175.635 28.764 67.027 44.814 140.656 58.859 211.961 10.812 54.902 18.424 110.78 25.295 166.305 23.072 185.908 158.676 200.374 199.717 200.374 41.463 0 178.464-14.466 201.486-200.442 20.26-163.678 40.486-357.484 143.536-493.256 14.719-19.384 30.769-39.509 44.006-59.365-98.823-1.785-196.955-1.027-295.24-1.145-133.128-0.202-266.239-0.034-399.367-0.067-8.37-0.017-56.35-0.084-86.159 0z" horiz-adv-x="933" />
<glyph unicode="&#xe602;" d="M511.983 960c-282.756 0-511.983-229.26-511.983-512 0-282.773 229.227-512 511.983-512 17.804 0 35.394 0.908 52.719 2.676-5.615 18.349-3.749 38.995 5.748 59.326l173.832 369.218c14.154 30.357 38.35 47.748 66.378 47.748 27.714 0 51.745-16.186 65.883-44.577l84.348-168.679c40.2 73.067 63.108 157.002 63.108 246.289 0 282.74-229.26 512-512.017 512zM518.54 211.935c-29.713-1.024-54.982 22.545-56.023 52.257-1.024 29.679 22.528 54.999 52.241 56.039s54.982-22.545 56.023-52.257-22.545-54.999-52.241-56.039zM562.82 420.385c-15.046-23.684-8.638-55.841-52.207-57.361-28.391-1.007-43.058 21.62-43.801 42.744-2.742 78.534 112.161 100.418 109.898 165.095-1.239 35.642-25.749 55.973-65.338 54.586-84.497-2.973-48.475-88.939-112.491-91.186-23.090-0.809-43.404 12.387-44.329 38.78-2.263 64.71 69.682 124.713 150.214 127.554 84.48 2.94 169.026-33.131 172.28-126.2 3.006-85.818-94.191-122.269-114.226-154.013zM789.19 346.492l-142.286-302.097 142.286 301.964c3.32 7.135 7.333 12.123 11.611 15.327-4.261-3.138-8.291-8.043-11.611-15.195zM615.738-53.479v0c-3.006 3.799-4.674 8.456-4.691 13.907 0.017-5.467 1.685-10.108 4.691-13.907zM1018.186-20.513l-185.972 370.325c-6.028 12.090-13.824 16.45-21.57 16.45-7.862 0-15.657-7.069-21.471-19.522l-173.915-366.328c-11.512-24.675 1.338-38.516 28.589-38.516h346.839c27.285 0 39.639 13.196 27.499 37.591zM646.194-25.071l164.897 353.363 175.831-353.363h-340.728zM792.774 189.638h33.032v-115.613h-33.032v115.613zM792.774 51.613h33.032v-33.032h-33.032v33.032z" />
<glyph unicode="&#xe603;" d="M731.863 586.192h171.944c-18.007 46.101-45.811 92.134-81.142 138.217h-145.010c20.84-46.067 40.178-92.116 54.208-138.217zM369.353 202.262h115.909v138.2h-162.352c8.432-46.050 23.998-92.116 46.442-138.2zM485.263 35.473v120.74h-90.102c25.824-46.101 59.755-81.756 90.102-120.74zM315.401 418.89c0.171-10.804 0.802-16.966 1.639-32.327h168.206v153.562h-157.18c-8.415-30.74-13.296-79.128-12.665-121.235zM339.979 586.192h145.284v138.217h-86.535c-22.052-46.067-43.216-92.116-58.748-138.217zM485.263 770.51v89.010c0-16.949-33.010-42.977-59.243-89.010h59.243zM215.809 156.212c55.505-61.445 126.884-97.237 206.78-114.151-31.866 36.918-58.697 68.050-80.681 114.151h-126.099zM346.414 724.409h-145.045c-35.331-46.067-63.135-92.099-81.176-138.217h171.944c14.064 46.101 33.436 92.151 54.277 138.217zM428.785 855.082c-67.112-13.125-128.318-38.54-179.522-84.572h122.515c20.106 30.654 40.178 62.486 57.007 84.572zM708.667 418.89c0.563 42.107-4.267 90.495-12.699 121.235h-165.185v-153.562h176.211c0.87 15.361 1.468 21.523 1.673 32.327zM269.881 418.6c-0.563 42.244 3.772 90.785 11.401 121.525h-174.248c-6.674-30.74-10.309-60.506-10.309-92.116 0-20.908 1.86-46.084 4.83-61.428h169.845c-0.768 15.344-1.365 21.267-1.519 32.020zM276.708 340.463h-165.987c13.398-46.050 36.338-92.116 66.275-138.2h141.614c-20.294 46.084-34.273 92.151-41.902 138.2zM705.424 202.262h141.58c29.972 46.067 52.911 92.134 66.344 138.2h-166.055c-7.595-46.050-21.557-92.116-41.868-138.2zM530.783 156.212v-120.74c45.469 38.984 72.232 74.639 98.073 120.74h-98.073zM916.983 540.125h-174.214c7.629-30.74 11.965-79.281 11.401-121.525-0.137-10.753-0.734-16.693-1.536-32.037h169.845c2.97 15.344 4.83 40.52 4.83 61.428 0 31.627-3.636 61.394-10.326 92.134zM601.445 42.061c79.947 16.914 151.274 52.723 206.814 114.151h-126.184c-21.915-46.101-48.815-77.233-80.63-114.151zM877.112 811.508c-198.024 198.98-522.932 197.819-724.284-2.594-201.352-200.448-204.117-525.407-6.059-724.387 160.372-161.14 410.249-194.781 610.338-83.105h200.294v199.321c112.649 199.611 80.288 449.591-80.288 610.765zM517.709-12.745c-1.877 0-9.49 0-11.384 0-251.362 0-455.104 206.285-455.104 460.753 0 254.4 203.759 460.719 455.104 460.719 1.741 0 9.695 0 11.384 0 251.396 0 455.104-206.319 455.104-460.719 0-254.468-203.708-460.753-455.104-460.753zM774.738 770.51c-51.136 46.033-112.376 71.464-179.488 84.572 16.863-22.086 36.901-53.918 57.042-84.572h122.446zM530.783 859.52v-89.010h67.231c-26.2 46.033-52.109 72.061-67.231 89.010zM701.123 340.463h-170.34v-138.2h123.948c22.427 46.084 37.994 92.151 46.391 138.2zM625.324 724.409h-94.54v-138.217h153.271c-15.532 46.101-36.731 92.151-58.731 138.217z" />
<glyph unicode="&#xe604;" d="M762.569 204.361h-18.286c-15.067 0-26.606-10.642-26.606-25.71v-157.147h73.143v157.111c0 15.104-13.147 25.746-28.251 25.746z" />
<glyph unicode="&#xe605;" d="M754.816 404.041c-130.286 0-236.251-105.984-236.251-236.251s105.966-236.251 236.251-236.251c130.249 0 236.251 105.984 236.251 236.251s-106.002 236.251-236.251 236.251zM754.816-18.121c-101.778 0-184.576 83.419-184.576 185.911 0 102.51 82.779 185.911 184.576 185.911 101.742 0 184.576-83.401 184.576-185.911s-82.816-185.911-184.576-185.911z" />
<glyph unicode="&#xe606;" d="M805.998 277.504c0-29.034-23.537-52.571-52.571-52.571s-52.571 23.537-52.571 52.571c0 29.034 23.537 52.571 52.571 52.571s52.571-23.537 52.571-52.571z" />
<glyph unicode="&#xe607;" d="M695.899 960.018h-627.109c-24.649 0-41.362-9.216-41.362-34.523v-881.92h470.949c-20.791 38.473-32.603 82.487-32.603 129.262 0 150.437 121.929 272.366 272.347 272.366 1.097 0 2.121-0.165 3.2-0.183v480.475c-0.018 25.307-20.809 34.523-45.422 34.523zM421.175 374.619h-270.208v63.616h270.19v-63.616zM522.752 501.888h-371.785v63.616h371.785v-63.616zM522.752 629.157h-371.785v63.616h371.785v-63.616zM624.329 756.425h-473.362v63.634h473.344v-63.634z" />
<glyph unicode="&#xe608;" d="M260.197 808.918h402.885v151.082h-553.967v-1024h553.967v151.082h-402.885v721.836zM612.721 36.721v-50.361h-453.246v923.279h453.246v-50.361h-402.885v-822.557h402.885zM902.379 480.869l-241.949 146.432c-15.847 9.501-30.921 2.166-30.921-16.3v-87.46h-218.23v-134.295h218.23v-73.090c0-18.466 15.075-25.801 30.921-16.3l240.875 146.432c15.847 9.518 16.904 25.080 1.074 34.581z" />
<glyph unicode="&#xe609;" d="M264.224 322.16h-104.224v-52.848l86.192 2.4zM289.968 418.16h-129.968v-48h117.088zM326.32 494.16l18.368 20h-184.688v-48h146.56c5.76 16 12.688 20.896 19.76 28zM441.376 610.16h-281.376v-48h234.944zM540.048 706.16h-380.048v-52.848l326.528 2.4zM1010.16 790.624l-135.12 136.4c-22.624 22.624-50.128 22.624-72.752 0l-82.288-79.568v13.824c0 32-5.728 52.88-37.712 52.88h-624.032c-32 0-58.256-20.848-58.256-52.848v-907.152h720.016v485.936c0-0.944 287.424 283.504 287.392 283.536 22.624 22.624 25.36 44.368 2.752 66.992zM672.016 799.408l-328.208-332.32c-8.4-8.368-15.424-22.192-18.8-33.936l-53.664-207.008h-111.344v-48h144v10.128l205.904 53.344c11.712 3.376 26.384 12.528 34.768 20.976 0 0 63.344 56.496 127.344 129.904v-390.336h-624.016v864h624.016v-66.752zM545.040 338.192l-40.512-40.56-96.848-27.84-52.096 52.064 27.84 97.024 41.408 41.44 120.208-122.128z" />
<glyph unicode="&#xe60a;" d="M815.787 347.068c84.804 0 153.6 68.762 153.6 153.6 0 73.66-51.9 135.202-121.139 150.101-19.302 171.998-161.365 308.804-340.002 309.231-179.78-0.427-322.645-139.025-340.412-312.593-62.601-19.405-108.1-77.739-108.1-146.739 0-84.838 68.796-153.6 153.6-153.6 5.069 0 10.069 0.307 15.002 0.768 21.47-47.838 50.842-91.341 86.63-128.87-0.034 0-0.102 1.655-0.205 1.621-115.831-54.135-205.193-158.089-243.456-277.555h48.299c38.741 119.467 123.392 198.554 231.168 243.354 16.657 6.861 33.775 11.844 51.388 16.555-14.763 10.803-28.638 22.153-41.779 34.645 0.068 0.068 0.137-0.119 0.205-0.085-55.774 53.333-95.727 121.634-114.534 197.837-5.427 27.631-8.329 56.149-8.329 85.385 0 20.275 1.57 40.124 4.233 59.682l91.665 75.349 444.843-73.489c1.007-5.769 2.065-11.537 2.697-17.408 0.836-11.23 1.263-21.197 1.263-30.396 0-9.796-0.461-20.207-1.331-31.761-3.533-46.234-14.626-90.368-32.102-131.209-6.366-14.763-13.705-29.030-21.675-42.871 0 0-102.605-114.5-105.54-116.77l-66.765-7.902c-8.533 16.367-25.463 27.665-45.193 27.665-28.297 0-51.2-22.938-51.2-51.2s22.903-51.2 51.2-51.2c17.801 0 33.434 9.097 42.598 22.869l97.57 11.571 162.065 183.603c1.263-0.017 2.475-0.188 3.738-0.188zM508.587 854.306c-87.962 0-167.646-35.533-225.519-92.996 10.735 17.459 23.074 33.707 37.171 48.162 48.913 50.159 115.046 80.23 188.023 80.265 72.96-0.034 139.059-30.106 188.092-80.265 9.062-9.335 16.759-21.572 23.535-35.072-56.371 49.664-130.236 79.906-211.302 79.906zM768.444 180.036l-30.874-32.649c73.028-49.306 129.468-119.023 159.027-204.356h48.299c-21.47 68.267-59.034 130.15-108.339 181.077-20.668 21.367-43.571 38.895-68.113 55.927z" />
<glyph unicode="&#xe60b;" d="M409.216-66.784h-125.168v298.064h129.712c60.8 0 82-49.568 51.2-95.296l-14.56-21.584c102.032-52.992 68.848-181.184-41.184-181.184zM394.336 100.128l24.848 37.088c6.288 9.312 7.616 15.152 7.616 21.664 0 18.208-16 33.488-34.448 33.488h-38.208v-219.136h21.168c35.424 0 62.304 19.104 62.304 63.968 0 36.944-17.344 56.656-43.28 62.928zM157.152-66.784h-125.152v298.064h129.712c60.8 0 82-49.568 51.2-95.296l-14.544-21.584c102.016-52.992 68.848-181.184-41.216-181.184zM142.288 100.128l24.848 37.088c6.288 9.312 7.616 15.152 7.616 21.664 0 18.208-16.016 33.488-34.448 33.488h-38.208v-219.136h21.168c35.424 0 62.304 19.104 62.304 63.968 0 36.944-17.344 56.656-43.28 62.928zM705.264 231.28h47.008l-90.816-297.968-71.504 0.064-97.408 297.856 52.624 0.048c20.336 0 25.664-5.248 36.304-39.008l56.384-187.312 67.408 226.32zM901.632 200.832c-8.4 24.864-14.064 30.352-36.096 30.352l-56.944 0.048-91.184-297.92h46.464l19.552 64.304h108.384l19.648-64.304h80.544l-90.368 267.52zM796.464 41.248l40.688 135.904 41.232-135.904h-81.92zM685.584 492.016c74.416 87.856 123.824 214.288 73.36 320.352-43.92 92.352-131.104 147.632-234.688 147.632-5.504 0-10.976-0.48-16.464-0.752-105.392-5.968-190.096-72.736-226.064-169.536-37.088-99.808 8.928-210.352 75.152-292.688-78.848-42.144-176.896-151.84-196.16-233.536h49.536c82.8 175.056 218.592 219.424 218.592 219.424l-33.744 40.864c-58.128 72.256-92.496 159.28-73.104 232.912l74.080 52.992 332.576-56.752c18.848-83.2-29.824-174.304-80.56-234.192l-34.656-38.816c0 0 119.76-29.68 209.616-216.416h49.696c-22.32 81.68-113.056 186.080-187.168 228.512zM486.096 473.552l24.544-36.080-24.544-173.968h73.6l-24.544 173.968 24.544 36.080z" />
<glyph unicode="&#xe60c;" d="M726.352 36.592c-35.824-18.064-74.4-31.104-115.008-39.664 25.376 29.424 47.856 55.632 67.584 86.928-9.376-1.664-18.992-2.544-28.72-2.544 0 0-16.992 0.352-17.008 0.352-5.6 0-13.040 0.4-18.48 1.008-22.128-32.88-43.712-62.064-85.856-93.12v132.208c-16.864 22.944-38.608 53.168-46.176 87.296h-4.384v-34.128h-124.832c-24.928 51.2-42.208 102.384-51.6 153.6h142.72v51.2h-149.2c-0.96 17.056-1.68 23.904-1.84 35.952-0.688 46.784 4.704 100.576 14.048 134.704h170.704v-119.456h4c7.312 34.128 21.28 61.92 46.576 83.136v36.336h187.52c1.312-4.8 2.544-10.064 3.68-15.584 22.896-10.112 42.592-25.184 57.744-44.208-2.192 22.496-5.392 43.44-9.456 59.792h193.584c7.456-34.128 11.504-67.2 11.504-102.4 0-16.768-1.104-35.92-2.944-51.728 17.808-7.232 33.568-17.68 46.928-30.496 4.24 26.768 6.56 54.224 6.56 82.224 0 282.768-226.4 512-505.68 512h-12.64c-279.28 0-505.68-229.232-505.68-512s226.4-512 505.68-512h12.64c81.888 0 159.136 19.824 227.552 54.8-8.4 13.904-14.992 29.264-19.52 45.792zM947.328 601.6h-191.072c-15.616 51.2-37.072 102.4-60.224 153.6h161.12c39.264-51.2 70.128-102.4 90.176-153.6zM803.92 806.4h-136.080c-22.368 34.128-44.64 69.488-63.376 94.016 74.528-14.528 142.592-42.816 199.456-94.016zM528.864 905.328c16.848-18.784 49.584-47.728 78.72-98.944h-78.72v98.944zM528.864 755.2h109.024c24.448-51.2 48.032-102.4 65.28-153.6h-174.304v153.6zM478.288 601.6h-157.456c17.248 51.2 40.784 102.4 65.28 153.6h92.176v-153.6zM478.288 806.4h-61.856c29.136 51.2 61.856 80.144 61.856 98.944v-98.944zM419.52 900.416c-18.736-24.528-41.024-59.888-63.376-94.016h-136.096c56.864 51.2 124.944 79.488 199.472 94.016zM166.448 755.2l162.944 1.408c-23.152-51.2-46.064-103.824-61.664-155.008h-191.088c20.048 51.2 50.576 102.4 89.808 153.6zM50.576 448c0 35.2 4.048 68.272 11.456 102.4l194.592 0.992c-8.528-34.128-14.304-89.040-13.648-136.016 0.176-11.936 0.8-18.56 1.68-35.632h-188.72c-3.296 17.056-5.36 45.024-5.36 68.256zM139.76 174.944c-33.296 51.2-58.736 102.384-73.648 153.6h184.416c8.496-51.2 24-102.384 46.56-153.6h-157.328zM182.88 123.728h140.112c24.4-51.2 54.224-85.776 89.616-126.816-88.784 18.768-168.064 58.56-229.728 126.816zM478.288-10.448c-33.712 43.36-67.424 82.992-96.128 134.192h96.128v-134.192zM981.392 161.824c-19.52 17.408-45.040 30.176-73.088 30.176h-27.664c-30.528 0-55.392 28.832-55.392 59.76 0 30.56 24.336 59.696 54.384 59.696 0 0 28.352 0 28.672 0 38.528 0 55.392-34.144 55.392-68.272h55.36c0 51.2-35.072 112.752-102.496 112.752v40.864h-33.712v-40.848c-67.424-0.592-111.376-50.544-111.376-112.16 0-9.392 0.464-18.496 2.64-27.248 3.344-13.456 8.672-25.872 16.336-36.912 5.040-7.296 10.688-12 17.264-17.904 19.232-17.136 44.080-20.944 71.616-20.944h28.992c30.544 0 55.392-30.16 55.392-61.088 0-30.912-24.848-58.368-55.392-58.368-0.448 0-28.688 0-28.688 0l-0.304 0.032c-29.92 0.736-54.080 34.112-54.080 68.24h-55.36c0-68.272 45.536-124.352 112.96-125.088v-28.512h33.712v30.064c67.424 0 104.896 48.672 104.896 110.592-0.016 33.552-17.024 64.64-40.064 85.168zM635.648 448h14.512c33.44 0 53.872-17.056 54.064-51.2h55.776c-0.336 59.728-47.52 110.944-109.84 110.944h-14.512c-60.288 0-106.784-50.96-106.784-116.304v-11.696h-33.712v-34.144h33.712v-51.2h-33.712v-34.144h33.712v-8.672c0-65.232 44.976-118.768 105.232-118.768l16.048-0.336c34.944 0 65.6 15.36 85.792 39.92-4.832 10.048-8.72 20.592-11.472 31.648-3.136 12.624-4.704 25.536-4.704 39.28 0 0.112 0.016-0.144 0.016-0.144h-14.144c-0.208-34.144-20.64-56.032-54.064-56.032l-17.296 0.528c-31.792 0-54.864 28.896-54.864 64.064v8.496h59.008v34.16h-59.008v51.2h59.008v34.144h-59.008v11.552c0.016 35.248 24.432 56.704 56.24 56.704z" />
<glyph unicode="&#xe60d;" d="M672 800c-57.664 0-112.048-13.952-160.080-38.544-48 24.544-102.304 38.544-159.92 38.544-109.312 0-206.976-49.824-271.536-128h-0.464v-0.576c-49.984-60.768-80-138.592-80-223.424 0-194.4 157.6-352 352-352 57.616 0 111.904 14.016 159.904 38.544 48.032-24.592 102.432-38.544 160.096-38.544 194.4 0 352 157.6 352 352s-157.6 352-352 352zM266.928 756.16c-19.44-21.504-36.64-50.128-50.688-84.16h-92.384c38.912 39.616 88.064 68.96 143.072 84.16zM323.344 400h-113.456c-1.12 15.776-1.888 31.728-1.888 48 0 21.76 1.056 43.152 3.040 64h114.864c-3.808-20.768-5.904-42.128-5.904-64 0-16.304 1.2-32.304 3.344-48zM96.608 640h107.904c-9.552-29.28-16.96-61.568-21.84-96h-135.92c11.056 35.040 28.224 67.296 49.856 96zM32 448c0 21.92 2.24 43.312 6.448 64h140.496c-1.904-20.768-2.944-42.128-2.944-64 0-16.304 0.608-32.304 1.664-48h-141.664c-2.368 15.696-4 31.648-4 48zM85.024 272c-19.2 29.024-33.552 61.424-42.496 96h138.096c3.968-34.192 10.432-66.432 18.976-96h-114.576zM109.312 240h100.72c15.072-41.072 34.48-75.36 56.896-100.16-62.144 17.168-116.72 52.528-157.616 100.16zM336 130.544c-28.576 8.096-56.96 37.12-79.824 82.864-4.24 8.464-8.144 17.392-11.856 26.592h91.68v-109.456zM336 272h-102.928c-9.232 29.6-15.984 61.904-20.128 96h116.304c1.984-8.512 4.176-16.944 6.752-25.184v-70.816zM336 553.184c-0.944-3.024-1.76-6.112-2.64-9.184h-118.432c5.104 34.416 13.088 66.672 23.472 96h97.6v-86.816zM336 672h-84.624c1.616 3.52 3.104 7.2 4.8 10.592 22.864 45.728 51.248 74.752 79.824 82.848v-93.44zM478 741.68c-6.672-4.416-13.168-9.040-19.504-13.904-6.96 10.624-14.304 20.176-22.016 28.656 14.256-3.952 28.096-8.96 41.52-14.752zM368 765.424c22.976-6.56 45.76-26.88 65.728-58.384-11.856-10.912-22.992-22.608-33.264-35.040h-32.464v93.424zM368 640h9.024c-3.12-4.8-6.128-9.664-9.024-14.624v14.624zM368 130.576v140.048c17.792-30.416 39.968-57.952 65.728-81.664-19.968-31.536-42.752-51.808-65.728-58.384zM436.528 139.648c7.68 8.464 15.040 17.968 21.984 28.544 6.32-4.832 12.8-9.456 19.456-13.84-13.392-5.808-27.216-10.736-41.44-14.704zM672 128c-176.448 0-320 143.552-320 320s143.552 320 320 320c176.448 0 320-143.552 320-320s-143.552-320-320-320zM679.728 323.664l-15.12 0.32c-30.176 0-50.784 26.864-50.784 59.84v10.928h52.24v29.408h-52.24v47.072h52.24v29.408h-52.24v13.952c0 33.056 20.608 56.448 50.784 56.448h13.792c31.712 0 51.12-17.648 51.312-52.96h52.944c-0.32 58.848-45.088 103.344-104.256 103.344h-13.792c-57.2 0-101.008-45.44-101.008-106.688v-14.112h-33.776v-29.424h33.776v-47.072h-33.776v-29.408h33.776v-11.072c0-61.152 42.512-111.36 99.712-111.36l15.12-0.288c59.168 0 105.232 45.744 105.568 104.608h-52.976c-0.144-29.424-19.552-52.944-51.296-52.944z" />
<glyph unicode="&#xe60e;" d="M866.944 178.16c-7.44 22.16-11.664 27.344-32.72 27.344h-51.536l-82.432-269.44h42l17.68 58h97.936l17.808-58h72.976l-81.712 242.096zM771.712 33.776l36.848 122.944 37.312-122.944h-74.16zM458.656 99.872l13.184 19.536c27.84 41.312 8.688 86.128-46.32 86.128h-117.472v-269.536h113.28c99.616 0 129.424 116 37.328 163.872zM371.488-28v198.432h34.608c16.688 0 31.040-13.776 31.040-30.336 0-5.904-1.088-11.312-6.784-19.504l-22.432-33.68c23.488-5.632 39.184-23.504 39.184-56.944 0-40.656-24.336-57.968-56.48-57.968h-19.136zM230.544 99.872l13.152 19.536c27.888 41.312 8.784 86.128-46.384 86.128h-117.312v-269.536h113.28c99.52 0 129.664 116 37.264 163.872zM162.592-28h-18.992v198.432h34.416c16.688 0 31.2-13.776 31.2-30.336 0-5.904-1.056-11.312-6.864-19.504l-22.608-33.68c23.6-5.632 39.232-23.504 39.232-56.944 0.016-40.656-24.272-57.968-56.384-57.968zM577.184 170.432c-9.632 30.368-14.464 35.088-32.88 35.088h-47.536l88.128-269.472h64.72l82.128 269.472h-42.624l-60.8-204.672-51.136 169.584zM678.688 894.848c11.44-4.656 22.496-10.336 33.088-16.992 34.528-21.712 61.44-52.4 77.84-88.784 19.904-44.048 23.248-96.16 9.632-150.64-10.592-42.576-30.752-83.408-58.224-118.128-9.44-11.936-12.88-27.552-9.344-42.336 3.568-14.8 13.68-27.12 27.536-33.472 29.248-13.456 57.312-27.936 79.088-49.52 20.992-20.816 36.32-48.688 47.248-88.368h-59.056c0.784-3.44 9.712-49.6 9.712-49.6h110.912l-5.664 29.376c-12.912 64.288-34.624 110.816-68.256 144.128-27.216 26.992-59.248 43.232-93.312 58.896 31.568 39.824 55.152 87.568 67.472 136.96 16.336 65.44 11.968 128.784-12.592 183.104-20.368 45.248-53.744 83.408-96.592 110.352-39.952 25.12-85.52 38.928-132.176 40.176 27.872-17.968 52.336-39.936 72.688-65.152zM436.816 959.824c49.040 0 97.12-13.92 139.024-40.256 42.848-26.928 76.256-65.088 96.624-110.336 24.56-54.32 28.912-117.632 12.56-183.072-12.32-49.376-35.904-97.056-67.44-136.88 34.064-15.664 66.064-31.728 93.28-58.704 33.664-33.344 55.344-80.032 68.256-144.32l5.664-29.248h-704.192l5.616 29.216c26.896 134.16 95.44 168.768 168.96 201.968-28.768 36.928-50.976 80.976-63.6 126.304-17.056 61.184-16.176 121.728 2.56 174.864 33.504 95.376 124.848 163.76 227.264 169.984 5.104 0.304 10.288 0.48 15.424 0.48z" />
<glyph unicode="&#xe60f;" d="M512 960c-282.768 0-512-229.232-512-512s229.232-512 512-512c89.936 0 174.416 23.264 247.872 64h200.128v200.128c40.736 73.456 64 157.936 64 247.872 0 282.768-229.232 512-512 512zM904.032 231.152l-8.032-14.464v-152.688h-152.688l-14.464-8.032c-66.032-36.608-141.024-55.968-216.848-55.968-247.024 0-448 200.976-448 448s200.976 448 448 448 448-200.976 448-448c0-75.824-19.36-150.816-55.968-216.848zM864 448c0 84.832-30.016 162.656-80 223.424v0.576h-0.464c-61.392 74.336-152.736 122.944-255.536 127.552v0.448h-32v-0.448c-102.8-4.608-194.144-53.216-255.536-127.552h-0.464v-0.576c-49.984-60.768-80-138.592-80-223.424 0-189.024 149.024-343.216 336-351.6v-0.4h32v0.4c186.976 8.384 336 162.576 336 351.6zM778.976 272h-114.56c8.528 29.568 15.008 61.808 18.976 96h138.096c-8.96-34.576-23.312-66.976-42.512-96zM832 448c0-16.352-1.632-32.304-4-48h-141.664c1.072 15.696 1.664 31.696 1.664 48 0 21.872-1.040 43.232-2.96 64h140.496c4.224-20.688 6.464-42.096 6.464-64zM767.392 640c21.648-28.72 38.8-60.976 49.856-96h-135.936c-4.88 34.432-12.288 66.72-21.824 96h107.904zM740.144 672h-92.368c-14.048 34.032-31.248 62.656-50.704 84.16 55.008-15.2 104.144-44.528 143.072-84.16zM528 589.936v50.064h97.6c10.4-29.312 18.368-61.584 23.488-96h-121.088v45.936zM496 589.936v-45.936h-121.072c5.104 34.416 13.088 66.688 23.472 96h97.6v-50.064zM496 512v-112h-126.112c-1.12 15.776-1.888 31.728-1.888 48 0 21.76 1.056 43.152 3.040 64h124.96zM496 368v-96h-102.928c-9.232 29.6-15.984 61.904-20.128 96h123.056zM528 302.432v65.568h123.056c-4.16-34.096-10.912-66.4-20.144-96h-102.912v30.432zM528 400v112h124.96c1.984-20.848 3.040-42.24 3.040-64 0-16.272-0.768-32.224-1.872-48h-126.128zM607.824 682.592c1.696-3.392 3.184-7.072 4.8-10.592h-84.624v93.44c28.56-8.096 56.976-37.12 79.824-82.848zM496 765.44v-93.44h-84.624c1.616 3.52 3.104 7.2 4.8 10.592 22.864 45.728 51.248 74.752 79.824 82.848zM426.928 756.16c-19.44-21.504-36.656-50.128-50.688-84.16h-92.368c38.896 39.632 88.048 68.96 143.056 84.16zM256.608 640h107.904c-9.552-29.28-16.96-61.568-21.84-96h-135.92c11.056 35.024 28.224 67.28 49.856 96zM192 448c0 21.904 2.24 43.312 6.448 64h140.496c-1.904-20.768-2.944-42.128-2.944-64 0-16.304 0.608-32.304 1.664-48h-141.664c-2.368 15.696-4 31.648-4 48zM245.024 272c-19.2 29.024-33.552 61.424-42.496 96h138.096c3.968-34.192 10.432-66.432 18.976-96h-114.576zM269.312 240h100.72c15.072-41.072 34.48-75.36 56.896-100.16-62.144 17.168-116.72 52.528-157.616 100.16zM416.176 213.408c-4.24 8.464-8.144 17.392-11.856 26.592h91.68v-109.456c-28.576 8.096-56.96 37.12-79.824 82.864zM528 130.544v109.456h91.68c-3.712-9.2-7.632-18.128-11.856-26.592-22.848-45.744-51.264-74.768-79.824-82.864zM597.056 139.84c22.416 24.8 41.824 59.072 56.912 100.16h100.72c-40.896-47.632-95.472-82.992-157.632-100.16z" />
<glyph unicode="&#xe610;" d="M0 224c0-50.576 13.072-98.112 36-139.424v-112.576h112.576c41.328-22.928 88.832-36 139.424-36 159.056 0 288 128.944 288 288 0 159.040-128.944 288-288 288s-288-128.96-288-288zM616 960c-225.344 0-408-182.672-408-408 0-6.16 0.192-12.288 0.464-18.368 20.608 5.28 41.984 8.528 63.984 9.6-0.080 2.928-0.448 5.792-0.448 8.768 0 189.68 154.32 344 344 344s344-154.32 344-344c0-58.24-14.864-115.792-42.976-166.464l-8.032-14.48v-112.048h-112.032l-14.48-8.032c-50.688-28.112-108.24-42.976-166.48-42.976-2.976 0-5.84 0.368-8.784 0.432-1.056-21.984-4.32-43.36-9.6-63.968 6.096-0.272 12.224-0.464 18.384-0.464 71.664 0 138.992 18.528 197.52 51.008h159.488v159.488c32.464 58.512 50.992 125.84 50.992 197.504 0 225.328-182.656 408-408 408z" />
<glyph unicode="&#xe611;" d="M928 960h-832c-52.944 0-96-43.056-96-96v-832c0-52.944 43.056-96 96-96h832c52.944 0 96 43.056 96 96v832c0 52.944-43.056 96-96 96zM960 32c0-17.648-14.352-32-32-32h-832c-17.648 0-32 14.352-32 32v832c0 17.648 14.352 32 32 32h832c17.648 0 32-14.352 32-32v-832zM765.568 492.512h-67.072v68.352h-39.248v-68.352h-67.504v-38.16h0.448v-1.44h67.056v-67.088h39.248v67.088h68.688v39.264h-1.616zM566.624 691.744h-127.536c-16.912 0-35.056-2-54.384-5.952-19.552-4.576-38.384-14.368-56.496-29.344-26.4-25.6-39.6-54.128-39.6-85.568 0-26 9.296-48.816 27.936-68.368 17.792-21.024 43.664-31.76 77.616-32.16 6.4 0 13.248 0.4 20.496 1.248-1.216-3.344-2.496-7.008-3.904-10.992-1.6-3.776-2.4-8.496-2.4-14.144 0-9.408 2.096-17.472 6.32-24.16 3.6-6.944 7.68-13.424 12.288-19.504-14.88-0.368-33.568-2.256-56.064-5.6-22.752-3.952-44.432-11.824-65.088-23.664-18.368-11.040-31.088-23.808-38.128-38.352-7.216-14.56-10.848-27.728-10.848-39.584 0-24.336 11.12-45.2 33.376-62.672 22.016-18.688 55.344-28.256 100.032-28.656 53.344 0.832 94.176 13.632 122.464 38.384 27.312 23.92 40.944 51.424 40.944 82.432-0.4 21.872-5.376 39.568-14.944 53.104-10.128 13.312-21.904 25.488-35.344 36.544l-21.664 17.792c-3.088 3.12-6.336 6.752-9.632 10.912-3.904 4.384-5.84 9.888-5.84 16.576 0 6.88 1.888 12.896 5.68 18.096 3.216 5.008 6.736 9.488 10.56 13.424 6.624 5.84 12.912 11.552 18.784 17.184 5.328 5.632 10.368 11.744 15.12 18.432 9.68 13.744 14.72 32.064 15.088 54.96 0 12.512-1.408 23.44-4.224 32.8-3.408 9.376-7.28 17.472-11.68 24.352-4.608 7.28-9.344 13.424-14.128 18.432-5.008 4.752-9.504 8.416-13.536 10.912h39.344l39.392 23.136zM496.72 342.56c10.56-12.080 15.84-26.224 15.84-42.464 0-19.968-7.728-36.336-23.152-49.040-15.824-12.896-38.784-19.568-68.816-19.984-33.504 0.416-59.904 7.904-79.2 22.512-20.304 14.56-30.416 33.088-30.416 55.584 0 11.424 2.32 21.232 6.976 29.344 4.080 7.728 9.056 14.192 14.928 19.376 6.112 4.992 12.080 8.848 17.984 11.568 5.872 2.496 10.448 4.368 13.696 5.616 13.792 4.208 27.296 7.184 40.48 9.040 13.408 1.296 21.728 1.712 24.992 1.296 5.472 0 10.24-0.24 14.288-0.64 23.776-16.672 41.248-30.72 52.4-42.208zM476.016 530.96c-1.552-8.56-5.008-16.896-10.384-25.024-11.216-11.472-25.184-17.52-41.968-18.144-13.296 0-25.104 4.064-35.44 12.192-10.336 8.144-18.784 18.048-25.296 29.728-13.52 25.040-20.256 49.136-20.256 72.288-0.416 17.52 4.208 33.376 13.856 47.568 11.44 13.552 25.808 20.56 43.12 20.976 13.024-0.416 24.592-4.288 34.656-11.568 9.84-7.728 17.776-17.728 23.792-30.048 12.864-25.664 19.296-51.12 19.296-76.368 0.016-5.84-0.448-13.056-1.376-21.6z" />
<glyph unicode="&#xe612;" d="M928 960h-832c-52.944 0-96-43.056-96-96v-832c0-52.944 43.056-96 96-96h832c52.944 0 96 43.056 96 96v832c0 52.944-43.056 96-96 96zM960 32c0-17.664-14.352-32-32-32h-832c-17.648 0-32 14.336-32 32v832c0 17.648 14.352 32 32 32h832c17.648 0 32-14.352 32-32v-832zM304.912 525.728h94.784v-285.2h-94.784v285.2zM352.928 663.232c-32.416 0-53.632-21.312-53.632-49.28 0-27.36 20.576-49.296 52.384-49.296h0.608c33.040 0 53.632 21.936 53.632 49.296-0.608 27.984-20.576 49.28-52.992 49.28zM632.384 532.448c-50.352 0-72.848-27.68-85.456-47.12v-0.944h-0.64c0.192 0.304 0.432 0.64 0.64 0.944v40.416h-94.8c1.264-26.736 0-285.2 0-285.2h94.8v159.28c0 8.528 0.624 17.024 3.136 23.12 6.832 17.024 22.416 34.672 48.624 34.672 34.32 0 48.032-26.16 48.032-64.48v-152.592h94.8v163.536c0.016 87.6-46.768 128.368-109.136 128.368z" />
<glyph unicode="&#xe613;" d="M753.856 648.368c-20.304-12.048-42.784-20.784-66.704-25.504-19.168 20.4-46.464 33.168-76.672 33.168-58.016 0-105.040-47.024-105.040-105.040 0-8.224 0.928-16.256 2.72-23.936-87.312 4.384-164.704 46.208-216.496 109.744-9.056-15.504-14.24-33.552-14.24-52.8 0-36.448 18.544-68.592 46.736-87.44-17.216 0.544-33.424 5.264-47.6 13.136 0-0.432 0-0.88 0-1.312 0-50.912 36.224-93.36 84.272-103.008-8.832-2.384-18.112-3.68-27.664-3.68-6.784 0-13.344 0.672-19.76 1.888 13.36-41.728 52.16-72.096 98.128-72.96-35.952-28.16-81.232-44.976-130.448-44.976-8.48 0-16.848 0.496-25.056 1.472 46.48-29.792 101.68-47.184 161.024-47.184 193.2 0 298.864 160.064 298.864 298.88 0 4.544-0.112 9.072-0.32 13.584 20.528 14.816 38.336 33.312 52.416 54.384-18.832-8.352-39.072-14.016-60.336-16.544 21.68 13.008 38.336 33.6 46.176 58.128zM928 960h-832c-52.944 0-96-43.056-96-96v-832c0-52.944 43.056-96 96-96h832c52.944 0 96 43.056 96 96v832c0 52.944-43.056 96-96 96zM960 32c0-17.648-14.352-32-32-32h-832c-17.648 0-32 14.352-32 32v832c0 17.664 14.352 32 32 32h832c17.648 0 32-14.336 32-32v-832z" />
<glyph unicode="&#xe614;" d="M928 960h-832c-52.944 0-96-43.056-96-96v-832c0-52.944 43.056-96 96-96h832c52.944 0 96 43.056 96 96v832c0 52.944-43.056 96-96 96zM960 32c0-17.664-14.352-32-32-32h-832c-17.648 0-32 14.336-32 32v832c0 17.648 14.352 32 32 32h832c17.648 0 32-14.352 32-32v-832zM464.064 579.808v-69.696h-81.568v-94.48h81.568v-242.528h97.632v242.528h81.424l12.192 94.48h-93.616v60.336c0 27.36 7.616 46 46.864 46l50.032 0.048v84.528c-8.64 1.136-38.352 3.712-72.944 3.712-72.144 0-121.584-44.032-121.584-124.928z" />
<glyph unicode="&#xe615;" d="M928 960h-832c-52.944 0-96-43.056-96-96v-832c0-52.944 43.056-96 96-96h832c52.944 0 96 43.056 96 96v832c0 52.944-43.056 96-96 96zM960 32c0-17.648-14.352-32-32-32h-832c-17.648 0-32 14.352-32 32v832c0 17.648 14.352 32 32 32h832c17.648 0 32-14.352 32-32v-832zM756.928 678.864l-0.032-0.048v0.048c0 0-3.856 0.544-6.448 0.544-14.928 0-29.712-8.768-29.712-31.136-8.848-112.24-18.080-224.8-33.216-331.888l-0.064-0.080c0.016 0 0.032 0 0.064 0h0.032c9.168 1.584 16.288-0.8 23.2-3.6l-0.032 0.080c17.2 108.768 58.064 271.712 68.528 317.84 1.488 6.48 3.728 14.144 3.728 19.6 0 16.464-10.448 26.032-26.048 28.64zM614.4 684.272l0.016 0.032c-22.368-5.072-42.576-5.264-62.608 0-17.68-32.928-82.848-139.408-124.336-207.6-42.048 69.664-91.856 150.112-124.304 207.6-25.728-5.504-36.496-5.824-62.16 0 50.944-76.784 132.576-223.008 160.336-270.992l-3.712-200.144c0 0 17.904 3.008 29.888 3.008 13.264 0 29.776-3.008 29.776-3.008l-3.696 200.144c51.808 90.912 137.36 239.248 160.864 270.992-0.032-0.016-0.048-0.016-0.064-0.032zM685.584 271.264c-19.552 0-29.296-14.928-29.296-30.96 0-18.912 15.088-28.608 33.76-28.608 13.52 0 28.256 8.208 28.256 30.48 0 17.904-14 29.088-32.72 29.088z" />
<glyph unicode="&#xe616;" d="M635.104 478l180.864 120.592c0 14.288-13.456 24.496-21.040 24.496h-206.448v-118.928l42.016-26.176c1.104-0.304 3.52-0.32 4.608 0.016zM638.72 433.728c0 0-6.496-3.92-11.888 0l-38.352 26.064v-161.648h194.816c17.312 0 32.72 9.984 32.72 33.776v218.592c-0.016 0-183.744-120.704-177.296-116.784zM388.992 382.512c12.88 0 23.056 5.712 30.592 17.168 7.552 11.472 11.312 27.392 11.312 47.728 0 21.216-3.648 37.728-10.976 49.536-7.312 11.776-17.312 17.68-30 17.68-13.072 0-23.488-6.096-31.184-18.208-7.68-12.144-11.536-28.208-11.536-48.176 0-20.288 3.84-36.32 11.536-48.096 7.712-11.776 17.808-17.632 30.256-17.632zM208 218.208l357.872-74.208v608l-357.872-68.496v-465.296zM330.688 524.336c15.152 20 35.248 30 60.272 30 23.616 0 42.736-9.552 57.296-28.688 14.592-19.136 21.904-44.336 21.904-75.664 0-32.192-7.568-58.112-22.688-77.808-15.12-19.664-34.848-29.536-59.184-29.536-23.696 0-43.008 9.536-57.936 28.624-14.928 19.072-22.384 43.904-22.384 74.56-0.016 32.384 7.568 58.544 22.72 78.512zM928 960h-832c-52.944 0-96-43.056-96-96v-832c0-52.944 43.056-96 96-96h832c52.944 0 96 43.056 96 96v832c0 52.944-43.056 96-96 96zM960 32c0-17.648-14.352-32-32-32h-832c-17.648 0-32 14.352-32 32v832c0 17.648 14.352 32 32 32h832c17.648 0 32-14.352 32-32v-832z" />
<glyph unicode="&#xe617;" d="M928 960h-832c-52.944 0-96-43.056-96-96v-832c0-52.944 43.056-96 96-96h832c52.944 0 96 43.056 96 96v832c0 52.944-43.056 96-96 96zM960 32c0-17.648-14.352-32-32-32h-832c-17.648 0-32 14.352-32 32v832c0 17.648 14.352 32 32 32h832c17.648 0 32-14.352 32-32v-832zM800 688h-576c-17.664 0-32-14.336-32-32v-416c0-17.664 14.336-32 32-32h576c17.664 0 32 14.336 32 32v416c0 17.664-14.336 32-32 32zM767.216 672l-255.216-199.392-255.216 199.392h510.432zM768 591.392v-318.352l-211.52 153.104 211.52 165.248zM256 591.392l211.52-165.248-211.52-153.12v318.368zM251.568 224c2.752 4.72 4.432 10.144 4.432 16v13.28l224.64 162.592 11.392-8.896c0.016-0.016 0.032-0.016 0.048-0.032l0.224-0.176c0.128-0.096 0.272-0.128 0.384-0.208 2.448-1.872 5.152-3.232 7.968-4.32 0.768-0.288 1.504-0.544 2.272-0.784 2.944-0.88 5.936-1.472 8.992-1.472 0.016 0 0.048-0.016 0.064-0.016h0.032c0.016 0 0.048 0.016 0.064 0.016 3.056 0 6.064 0.592 8.992 1.472 0.768 0.24 1.504 0.496 2.272 0.784 2.816 1.072 5.52 2.432 7.984 4.32 0.112 0.096 0.272 0.112 0.368 0.208l0.208 0.16c0.032 0.032 0.048 0.032 0.064 0.064l11.392 8.88 224.64-162.592v-13.28c0-5.856 1.68-11.28 4.432-16h-520.864z" />
<glyph unicode="&#xe618;" d="M928 960h-832c-52.944 0-96-43.056-96-96v-832c0-52.944 43.056-96 96-96h832c52.944 0 96 43.056 96 96v832c0 52.944-43.056 96-96 96zM960 32c0-17.648-14.352-32-32-32h-832c-17.648 0-32 14.352-32 32v832c0 17.648 14.352 32 32 32h832c17.648 0 32-14.352 32-32v-832zM512 512c-52.944 0-96-43.056-96-96s43.056-96 96-96 96 43.056 96 96-43.056 96-96 96zM512 384c-17.648 0-32 14.352-32 32s14.352 32 32 32 32-14.352 32-32-14.352-32-32-32zM512 640v-64c88.224 0 160-71.776 160-160h64c0 123.52-100.48 224-224 224zM512 768v-64c158.8 0 288-129.2 288-288h64c0 194.096-157.904 352-352 352z" />
<glyph unicode="&#xe619;" d="M512.208 208h-0.416zM745.072 679.392c-24.256 3.76-140.64 8.608-233.072 8.608s-208.816-4.848-233.072-8.608c-42.112-7.168-64.992-27.072-77.168-78.672-4.096-17.376-9.76-112.448-9.76-148.736v-7.952c0-36.288 5.664-131.376 9.744-148.72 12.192-51.616 35.056-71.504 77.168-78.688 24.288-3.76 140.64-8.608 233.088-8.624 92.432 0.016 208.816 4.848 233.072 8.624 42.112 7.168 64.992 27.072 77.152 78.688 4.112 17.344 9.76 112.432 9.76 148.72v7.952c0 36.288-5.664 131.36-9.76 148.736-12.16 51.6-35.040 71.504-77.152 78.672zM448 352v192l160-93.696-160-98.304zM928 960h-832c-52.944 0-96-43.056-96-96v-832c0-52.944 43.056-96 96-96h832c52.944 0 96 43.056 96 96v832c0 52.944-43.056 96-96 96zM960 32c0-17.648-14.352-32-32-32h-832c-17.648 0-32 14.352-32 32v832c0 17.648 14.352 32 32 32h832c17.648 0 32-14.352 32-32v-832z" />
<glyph unicode="&#xe61a;" d="M928 960h-832c-52.944 0-96-43.056-96-96v-832c0-52.944 43.056-96 96-96h832c52.944 0 96 43.056 96 96v832c0 52.944-43.056 96-96 96zM960 32c0-17.648-14.352-32-32-32h-832c-17.648 0-32 14.352-32 32v832c0 17.648 14.352 32 32 32h832c17.648 0 32-14.352 32-32v-832zM368 704h40c22.096 0 40-17.904 40-40v-432c0-22.096-17.904-40-40-40h-40v-32h288v32h-40c-22.096 0-40 17.904-40 40v432c0 22.096 17.904 40 40 40h40v32h-288v-32z" />
<glyph unicode="&#xe61b;" d="M350.327 192c102.383 0 309.641 0 309.641 0s108.032-13.363 108.032 89.071v64.529h-512v-64.529c0 0-8.038-89.071 94.327-89.071zM404.924 613.973c0-42.415-34.385-76.8-76.8-76.8s-76.8 34.385-76.8 76.8c0 42.415 34.385 76.8 76.8 76.8s76.8-34.385 76.8-76.8zM763.341 613.973c0-42.415-34.385-76.8-76.8-76.8s-76.8 34.385-76.8 76.8c0 42.415 34.385 76.8 76.8 76.8s76.8-34.385 76.8-76.8zM968.141 960h-921.6c-34.15 0-46.541-30.293-46.541-64.427v-959.573h1024v959.573c0 34.133-21.726 64.427-55.859 64.427zM972.8-12.8h-921.6v921.6h921.6v-921.6z" />
<glyph unicode="&#xe61c;" d="M456.335 808.884v0l191.152-713.443-76.8-20.598c-24.912 30.787-62.699 49.605-103.978 49.605-11.667 0-23.351-1.544-34.682-4.583-52.392-14-89.441-57.512-97.565-108.292l-76.095-20.396-191.219 713.443 73.426 19.674c24.794-33.574 64.546-54.658 108.074-54.658 11.717 0 23.434 1.544 34.816 4.583 54.776 14.689 92.596 61.406 98.64 114.789l74.232 19.876zM456.368 859.279c-4.331 0-8.712-0.554-13.077-1.746l-114.033-30.519c0.134-0.453 0.386-0.856 0.52-1.343 12.003-44.787-14.588-90.783-59.342-102.82-7.286-1.93-14.588-2.854-21.789-2.854-37.065 0-70.975 24.727-81.030 62.229-0.134 0.453-0.101 0.957-0.235 1.41l-113.278-30.367c-26.859-7.218-42.79-34.816-35.571-61.709l191.152-713.443c6.026-22.494 26.389-37.351 48.615-37.351 4.297 0 8.696 0.554 13.043 1.746l113.58 30.418c-9.115 43.31 16.82 86.687 60.097 98.287 7.252 1.93 14.521 2.854 21.672 2.854 35.538 0 68.037-22.881 79.486-57.932l114.335 30.619c26.859 7.218 42.807 34.816 35.605 61.709l-191.169 713.459c-6.026 22.528-26.372 37.351-48.581 37.351v0zM253.281 481.54c-16.3-4.365-25.969-21.084-21.605-37.384s21.118-25.969 37.418-21.605c16.3 4.398 25.953 21.151 21.588 37.435s-21.101 25.953-37.401 21.554zM447.757 369.286c-16.3-4.365-25.969-21.118-21.605-37.418 4.365-16.266 21.118-25.936 37.418-21.571s25.953 21.118 21.588 37.418c-4.365 16.25-21.101 25.919-37.401 21.571zM432.598 767.773l-21.37-5.708c-14.689-56.656-58.62-104.062-119.086-120.261s-122.192 2.887-163.252 44.586l-20.598-5.506 173.778-648.595 24.257 6.497c16.266 53.836 59.14 98.035 116.988 113.546 57.797 15.478 117.021-1.343 158.032-39.835l25.012 6.681-173.761 648.595zM278.562 387.181c-35.84-9.569-72.67 11.667-82.273 47.507-9.585 35.84 11.667 72.687 47.507 82.256 35.84 9.602 72.67-11.667 82.273-47.473 9.602-35.823-11.667-72.687-47.507-82.289zM325.128 235.679l-38.593-10.29 104.901 320.915 1.242 4.365c1.628 3.71 4.549 6.849 8.545 8.662 0.856 0.386 1.729 0.722 2.602 0.957 7.873 2.098 16.334-1.763 19.775-9.434 1.427-3.156 1.779-6.53 1.242-9.736l-1.041-3.576-98.673-301.862zM473.054 274.91c-35.84-9.602-72.687 11.667-82.289 47.507-9.602 35.806 11.667 72.654 47.507 82.256s72.687-11.667 82.273-47.507-11.667-72.637-47.49-82.256zM788.463 589.111c2.082 2.518 3.458 5.607 3.794 9.082 0.873 8.326-4.516 15.931-12.372 18.029-0.89 0.269-1.779 0.42-2.736 0.52-4.365 0.42-8.461-0.89-11.717-3.24l-3.307-3.139-133.607-119.875 9.72-36.293 150.226 134.916zM779.398 382.028c9.585 35.806-11.65 72.654-47.49 82.256s-72.687-11.667-82.289-47.473c-0.285-1.041-0.285-2.098-0.504-3.122l15.948-59.543c8.36-9.149 19.238-16.199 32.063-19.641 35.823-9.585 72.67 11.7 82.273 47.524zM743.995 391.512c-4.365-16.3-21.101-25.969-37.401-21.605s-25.969 21.118-21.605 37.418 21.118 25.936 37.418 21.571 25.953-21.101 21.588-37.384zM962.661 854.008l-114 30.552c-0.134-0.453-0.118-0.957-0.252-1.41-10.055-37.502-43.948-62.229-81.014-62.229-7.202 0-14.504 0.923-21.789 2.887-44.771 12.003-71.344 57.999-59.342 102.786 0.134 0.487 0.369 0.89 0.487 1.343l-113.244 30.334c-4.365 1.175-8.746 1.729-13.060 1.729-22.226 0-42.588-14.856-48.615-37.351l-11.449-42.655c17.693-10.979 31.324-28.236 36.998-49.37l0.974-3.643 22.142 82.625 73.359-19.641c6.010-53.315 43.847-100.134 98.707-114.822 11.382-3.055 23.099-4.583 34.816-4.583 43.646 0 83.481 21.185 108.158 54.625l74.064-19.842-191.135-713.476-27.245 7.319c0.772-17.475-4.113-34.329-13.178-48.598l27.396-7.353c4.365-1.175 8.746-1.746 13.043-1.746 22.226 0 42.588 14.856 48.615 37.351l191.169 713.443c7.202 26.893-8.763 54.507-35.605 61.725zM667.111 576.487c9.602 35.84-11.65 72.687-47.49 82.289-12.288 3.273-24.643 2.719-36.025-0.588l9.451-35.286c5.355 1.712 11.247 1.998 17.089 0.453 16.3-4.365 25.953-21.118 21.588-37.384-3.055-11.415-12.187-19.406-22.948-21.806l9.434-35.252c22.981 5.708 42.353 23.082 48.9 47.574z" />
<glyph unicode="&#xe61d;" d="M693.333 80.060l71.629 71.595-62.259 408.166 148.241 136.294c23.501 23.467 38.502 90.436 21.504 107.469-17.033 16.998-83.968 1.997-107.469-21.504l-136.192-148.241-408.235 62.259-71.629-71.629 360.755-120.269-191.727-208.572-147.575 35.14-35.823-35.806 143.275-85.965 85.965-143.275 35.84 35.806-35.089 147.337 208.589 191.795 120.201-360.602zM967.373 960h-921.6c-34.15 0-45.773-28.996-45.773-63.13v-960.87h1024v960.87c0 34.133-22.494 63.13-56.627 63.13zM972.8-12.8h-921.6v921.6h921.6v-921.6z" />
<glyph unicode="&#xe61e;" d="M968.636 960h-921.6c-28.297 0-47.036-28.092-47.036-56.405v-967.595h1024v967.595c0 28.314-27.068 56.405-55.364 56.405zM256 340.873v465.527h102.4v-358.4h307.2v358.4h102.4v-716.8h-102.4v256h-307.2v-256h-102.4v251.273z" />
<glyph unicode="&#xe61f;" d="M958.836 904.145c-25.954 0-48.165-15.248-58.647-37.236h-43.753c-65.462 0-111.709-43.213-111.709-111.709v-428.218c0-37.646-21.169-55.855-55.855-55.855h-688.873v-55.855h688.873c65.462 0 111.709 43.25 111.709 111.709v428.218c0 37.683 21.169 55.855 55.855 55.855h43.753c10.482-21.951 32.712-37.236 58.647-37.236 35.989 0 65.164 29.193 65.164 65.164 0 36.008-29.175 65.164-65.164 65.164zM242.036 84.945c0-51.413-41.678-93.091-93.091-93.091s-93.091 41.678-93.091 93.091c0 51.413 41.678 93.091 93.091 93.091s93.091-41.678 93.091-93.091zM670.255 84.945c0-51.413-41.678-93.091-93.091-93.091s-93.091 41.678-93.091 93.091c0 51.413 41.678 93.091 93.091 93.091s93.091-41.678 93.091-93.091zM670.255 717.964c0 45.95-29.677 74.473-74.473 74.473h-130.327v55.855c0 30.85-25.004 55.855-55.855 55.855h-111.709c-30.85 0-55.855-25.004-55.855-55.855v-55.855h-111.709c-44.795 0-74.473-28.523-74.473-74.473v-390.982h614.4v390.982zM297.891 829.673c0 10.314 8.322 18.618 18.618 18.618h74.473c10.296 0 18.618-8.304 18.618-18.618v-37.236h-111.709v37.236zM111.709 382.836v335.127c0 15.137 2.327 18.618 17.222 18.618h57.251v-353.745h-74.473zM242.036 382.836v353.745h223.418v-353.745h-223.418zM614.4 382.836h-93.091v353.745h74.473c14.895 0 18.618-3.482 18.618-18.618v-335.127z" />
<glyph unicode="&#xe620;" d="M642.478 330.407c-9.415 9.349-25.422 8.903-35.2-0.099-1.123-0.975-2.263-1.966-3.386-3.122l-94.038-94.038-212.458 212.425 94.204 94.204c1.123 1.090 2.164 2.296 3.898 4.262 8.87 9.779 8.49 24.81-0.842 34.127l-172.847 172.897c-9.234 9.201-24.563 9.168-34.391 0.611-1.388-1.189-2.775-2.445-4.196-3.832l-152.331-152.315c-41.18-41.197-41.18-108.244 0-149.441l481.177-481.16c0.776-0.743 1.586-1.454 2.412-2.098 41.296-37.067 105.915-35.613 145.311 3.783l152.315 152.348c1.222 1.222 2.395 2.511 4.196 4.543 8.705 9.779 8.292 24.711-0.975 34.028l-172.847 172.88zM624.754 1.66c-21.259-21.259-56.327-21.705-78.164-1.024-0.446 0.413-0.942 0.842-1.388 1.222l-479.261 479.228c-21.87 21.903-21.87 57.517-0.017 79.403l138.175 138.175 138.126-138.175-97.392-97.392c-9.68-9.68-9.68-25.405 0-35.068l247.477-247.444c9.68-9.68 25.356-9.68 35.035 0l97.458 97.375 138.076-138.093-138.126-138.208zM743.322 960c-154.826 0-280.81-124.564-280.81-277.655 0-122.367 81.303-230.232 198.929-265.614l81.881-84.739 81.848 84.722c117.627 35.399 198.962 143.263 198.962 265.63 0 153.075-125.952 277.655-280.81 277.655zM803.101 461.974l-4.163-1.090-55.617-57.566-55.65 57.566-4.163 1.090c-100.91 26.594-171.443 117.214-171.443 220.37 0 125.77 103.751 228.101 231.256 228.101s231.256-102.314 231.256-228.101c0-103.157-70.533-193.776-171.476-220.37z" />
<glyph unicode="&#xe621;" d="M640 840.725h-256v-256h-256v-256h256v-256h256v256h256v256h-256v256zM768 704v256h-512v-256h-256v-512h256v-256h512v277.333h256v490.667h-256zM960 277.333h-256v-277.333h-384v256h-256v384h256v256h384v-256h256v-362.667z" />
<glyph unicode="&#xe622;" d="M816.060 145.562v102.4h-85.333v-102.4h-102.4v-85.333h102.4v-102.4h85.333v102.4h102.4v85.333zM751.206 859.767c5.069 9.54 8.226 20.241 8.226 31.795 0 37.7-30.566 68.267-68.267 68.267s-68.267-30.566-68.267-68.267 30.566-68.267 68.267-68.267c6.741 0 13.107 1.263 19.234 3.106 24.593-31.403 49.033-70.263 49.033-107.298 0-40.431-39.731-129.792-87.671-215.125h-273.306c-49.545 85.333-91.29 177.971-91.29 219.392 0 36.693 25.242 75.708 50.773 106.359 8.038-3.294 16.794-5.803 26.027-5.803 37.7 0 68.267 30.259 68.267 67.959s-30.566 68.113-68.267 68.113-68.267-30.635-68.267-68.335c0-9.626 2.031-18.807 5.632-27.136-30.72-36.062-62.635-88.866-62.635-143.599 0-83.268 147.763-367.991 250.163-425.062v-189.372c0-91.665-67.669-110.933-122.163-110.933-74.633 0-112.299 36.301-112.299 110.933 0 37.393 10.752 64.102 22.852 92.331 12.971 30.225 27.324 64.529 27.324 112.469 0 30.037-21.726 57.327-46.541 78.899 2.167 7.492 3.618 15.292 3.618 23.501 0 47.138-38.229 85.333-85.367 85.333s-85.35-38.195-85.35-85.333 38.178-85.333 85.316-85.333c20.087 0 38.315 7.236 52.873 18.859 14.131-12.902 23.91-25.839 23.91-35.925 0-37.393-11.435-64.068-23.535-92.297-12.971-30.259-27.665-64.563-27.665-112.503 0-103.031 61.833-162.133 164.864-162.133 106.871 0 173.363 60.604 173.363 162.133v185.071c102.4 45.568 253.303 343.569 253.303 429.073 0 52.599-33.57 103.287-62.157 139.127zM605.474 400.828l0.358 0.734h-139.503c-11.844 17.067-24.098 34.133-36.318 51.2h211.046c-11.93-17.067-23.927-36.301-35.584-51.934z" />
<glyph unicode="&#xe623;" d="M612.919 806.77v-102.153h-102.153v-102.153h102.153v-102.153h102.153v102.153h102.153v102.153h-102.153v102.153h-102.153zM968.667 960h-919.378c-28.109 0-49.289-27.598-49.289-55.69v-324.66l51.077 21.52v307.753h919.378v-466.21c17.026-7.168 34.051-17.962 51.077-31.48v493.076c0 28.092-24.772 55.69-52.864 55.69zM51.077 296.005h-51.077v-153.23h153.23v51.077h-102.153v102.153zM408.613 446.766v187.281c0 5.584-6.793 12.275-11.526 17.026-5.023 5.023-15.051 7.559-21.588 7.559-6.521 0-14.54-2.588-19.528-7.559l-63.931-58.619-213.023-89.997c-20.345-6.742-35.141-26.015-35.141-48.659 0-27.752 23.768-55.639 56.491-55.639h155.017v-53.545l153.23 102.153zM917.59 347.081h-60.883c-8.581 34.051-32.383 51.077-64.442 51.077h-385.441l-151.442-104.622v-306.459c0-28.194 22.848-51.077 51.077-51.077 28.177 0 51.077 22.882 51.077 51.077v159.376l408.613-0.034v-159.342c0-28.194 22.882-51.077 51.077-51.077s51.077 22.882 51.077 51.077v257.852h102.153v48.608c0 28.007-24.976 53.545-52.864 53.545z" horiz-adv-x="1022" />
<glyph unicode="&#xe624;" d="M921.6 507.733h-6.468l-197.291 197.291c-4.779 4.779-11.281 7.509-18.108 7.509h-51.2c-14.165 0-25.6-11.435-25.6-25.6s11.435-25.6 25.6-25.6h40.636l153.6-153.6h-177.169c-51.695 0-94.362-36.011-101.205-85.333l-104.738-0.034c-6.861 49.425-49.596 85.333-101.308 85.333h-177.084l153.6 153.6h40.602c14.131 0 25.6 11.486 25.6 25.6 0 14.148-11.469 25.6-25.6 25.6h-51.2c-6.793 0-13.295-2.679-18.108-7.475l-197.291-197.325h-6.468c-56.491 0-102.4-39.748-102.4-96.239v-142.694h0.137c1.297-54.938 46.592-85.333 102.263-85.333h255.966c51.695 0 94.993 34.133 101.871 85.333v102.4l103.492 0.034v-102.4c6.997-51.2 50.159-85.333 101.871-85.333h256c55.637 0 101.035 30.379 102.229 85.333h0.171v142.677c0 56.491-45.892 96.256-102.4 96.256zM409.6 354.099v-76.8c0-28.245-22.938-42.667-51.234-42.667h-255.966c-28.297 0-51.2 14.421-51.2 42.667v128c0 28.279 22.903 51.2 51.2 51.2h255.966c28.297 0 51.234-22.921 51.234-51.2v-51.2zM972.8 277.333c0-28.331-22.869-42.667-51.2-42.667h-256c-28.331 0-51.2 14.336-51.2 42.667v128c0 28.331 22.869 51.2 51.2 51.2h256c28.331 0 51.2-22.869 51.2-51.2v-128z" />
<glyph unicode="&#xe625;" d="M435.2 885.777c0 40.448-32.495 74.223-72.926 74.223h-68.301c-40.465 0-63.573-33.775-63.573-74.223v-130.577h204.8v130.577zM891.307 297.489c0 56.474-45.926 99.311-102.4 99.311h-46.49v79.411c0 40.397-32.512 74.189-72.943 74.189h-17.101c-40.448 0-63.556-33.775-63.556-74.189v-79.411h-55.876c-56.491 0-97.741-44.885-97.741-101.342v-359.458h456.141l-0.034 361.489zM486.4-12.8v308.258c0 28.245 18.227 50.142 46.541 50.142h255.966c28.297 0 51.2-22.938 51.2-51.2l0.034-307.2h-353.741zM264.533 499.2h273.084v130.611c0 40.431-49.579 74.189-90.010 74.189h-256c-40.482 0-63.607-33.758-63.607-74.189v-693.811h256v102.4h-119.467v51.2h119.467v51.2h-119.467v51.2h119.467v51.2h-119.467v256zM242.807 551.441c0-9.438-7.646-17.067-17.067-17.067-9.455 0-17.067 7.629-17.067 17.067 0 37.649 30.601 68.267 68.267 68.267 9.421 0 17.067-7.646 17.067-17.067 0-9.438-7.646-17.067-17.067-17.067-18.842 0-34.133-15.326-34.133-34.133zM793.617 277.333c0 9.438-7.646 17.067-17.067 17.067h-221.867c-9.438 0-17.067-7.629-17.067-17.067v-221.867c0-9.438 7.629-17.067 17.067-17.067h221.867c9.421 0 17.067 7.629 17.067 17.067v221.867zM660.941 252.826c22.118 0 40.038-17.92 40.038-40.038 0-12.032-5.376-18.773-13.756-22.494 0.222-1.399 0.427-2.765 0.427-4.215 0-14.746-11.981-26.709-26.709-26.709-14.763 0-26.692 11.964-26.692 26.709 0 1.451 0.205 2.816 0.41 4.215-8.38 3.738-13.79 10.462-13.79 22.494 0 22.135 17.937 40.038 40.073 40.038zM693.777 114.432l33.553-14.967c3.004 6.724 10.906 9.728 17.647 6.741 6.724-3.021 9.728-10.906 6.724-17.63l-10.889-24.388c-3.021-6.758-10.889-9.745-17.647-6.758-6.741 3.004-9.728 10.906-6.741 17.63l-55.535 24.815-55.637-24.593c2.97-6.758-0.068-14.609-6.775-17.596-6.775-2.987-14.643 0.051-17.63 6.793l-10.82 24.422c-2.97 6.758 0.068 14.626 6.827 17.63 6.741 2.97 14.592-0.102 17.596-6.827l33.604 14.865-33.536 14.967c-3.021-6.741-10.906-9.745-17.63-6.741-6.758 3.004-9.762 10.923-6.758 17.63l10.889 24.388c3.021 6.741 10.94 9.745 17.63 6.758 6.758-3.021 9.762-10.906 6.758-17.63l55.535-24.815 55.62 24.593c-2.97 6.758 0.068 14.609 6.793 17.613 6.758 2.987 14.626-0.068 17.613-6.793l10.82-24.439c2.987-6.741-0.068-14.626-6.81-17.613s-14.626 0.068-17.613 6.81v0l-33.587-14.865z" />
<glyph unicode="&#xe626;" d="M413.935 673.434c8.738 0.836 20.070 8.841 23.774 16.794l53.504 114.091c0.631 1.348 1.297 2.492 1.997 3.618-91.631-7.049-168.772-65.638-202.342-146.978 1.707 0.444 3.533 0.802 5.564 1.007l117.504 11.469zM585.796 690.227c3.703-7.97 15.002-15.974 23.74-16.794l117.504-11.486c2.065-0.205 3.908-0.546 5.598-1.007-33.57 81.374-110.729 139.93-202.394 146.978 0.7-1.126 1.399-2.27 2.031-3.618l53.521-114.074zM282.897 623.275c-1.161 1.143-2.133 2.287-3.038 3.396-4.437-18.21-7.066-37.154-7.066-56.73 0-72.892 32.734-138.052 84.207-181.862 0 1.826 0.034 3.703 0.393 5.854l20.139 117.299c1.502 8.875-3.004 22.733-9.438 29.013l-85.197 83.029zM937.387 765.798c0.102 5.342 0.222 10.701 0.307 16.094 0.256 15.582 0.444 31.351 0.58 47.292 0.051 5.444 0.137 10.82 0.171 16.299 0.137 20.821 0.222 41.865 0.222 63.283 0 0.085 0 0.171 0 0.273v0c0 0.017 0 0.034 0 0.068 0 26.129-26.129 51.968-51.2 51.968-68.267 0-375.467 0-375.467 0v0c-0.358 0-307.2 0-375.467 0v-1.604c-17.067 0-51.2-23.962-51.2-50.108 0-22.443 0.085-44.612 0.256-66.423 0.017-2.577 0.051-5.171 0.068-7.731 0.154-18.927 0.393-37.632 0.717-56.030 0.051-3.447 0.119-6.912 0.171-10.359 0.358-18.483 0.785-36.71 1.297-54.63 0.068-2.065 0.119-4.164 0.188-6.212 6.554-214.033 27.136-386.901 82.637-497.903 63.71-127.42 180.241-201.83 259.209-239.889 0.307-0.154 0.597-0.307 0.905-0.444 0.7-0.341 1.348-0.631 2.031-0.956 46.421-22.238 79.189-31.727 79.189-31.727s238.933 67.686 341.333 272.486c55.33 110.677 75.964 283.187 82.569 496.486 0.137 3.806 0.239 7.663 0.341 11.503 0.444 15.872 0.819 31.966 1.143 48.265zM807.526 234.172c-77.193-154.402-245.658-224.512-295.526-242.313-24.064 8.585-75.895 29.235-131.755 65.826-59.682 39.117-123.904 96.171-163.789 175.957-24.747 49.493-41.865 114.842-53.794 190.191-8.107 51.012-13.773 106.82-17.715 165.683-0.068 1.109-0.154 2.219-0.222 3.328-3.823 58.18-5.973 119.296-7.083 181.675-0.051 2.765-0.085 5.53-0.137 8.311-0.307 18.039-0.512 36.181-0.666 54.391-0.017 2.679-0.051 5.359-0.068 8.055-0.154 20.514-0.222 42.172-0.239 62.771 0.563 0.717 1.399 1.826 2.15 1.826 0.017 0 0.034 0 0.051 0h746.53c0.768 0 1.638-1.092 2.202-1.826 0-19.524-0.085-39.543-0.222-58.982-0.034-5.495-0.102-11.23-0.137-16.708-0.137-15.053-0.324-30.191-0.546-45.124-0.085-5.035-0.171-10.155-0.256-15.189-0.751-40.619-1.911-80.742-3.738-119.808 0-0.324-0.034-0.666-0.051-1.007-0.887-19.234-1.963-38.212-3.191-56.9-0.119-1.894-0.256-3.789-0.375-5.683-3.908-58.129-9.54-113.306-17.527-163.84-11.93-75.52-29.065-141.005-53.897-190.635zM740.608 623.275l-85.197-83.029c-6.468-6.281-10.974-20.156-9.472-29.047l20.173-117.265c0.358-2.15 0.358-4.011 0.393-5.854 51.439 43.81 84.173 108.988 84.173 181.862 0 19.575-2.594 38.519-7.031 56.73-0.905-1.126-1.877-2.253-3.038-3.396zM527.002 424.772c-7.595 4.011-22.938 4.011-30.532 0l-105.335-55.398c-1.894-0.99-3.738-1.468-5.598-2.048 36.659-22.886 79.804-36.318 126.208-36.318 46.336 0 89.395 13.38 126.037 36.198-1.792 0.563-3.601 1.212-5.461 2.167l-105.318 55.398z" />
<glyph unicode="&#xe627;" d="M710.076 960c-95.232 0-175.241-65.826-198.059-151.159h-320.393c-33.263 0-59.87-16.862-72.926-42.308-13.090-25.429-9.506-56.678 9.83-83.763l194.935-275.627c17.306-24.201 40.431-44.407 74.564-55.040v-362.462h-153.6v-51.2h409.566v51.2h-153.583v365.995c34.116 11.196 52.804 29.201 68.301 50.927l104.226 144.828c11.793-2.133 24.303-3.43 36.727-3.43 112.896 0 205.005 93.082 205.005 206.012s-91.682 206.029-204.595 206.029zM652.919 610.27l-124.314-174.012c-16.367-22.921-52.804-41.626-80.964-41.626-28.143 0-64.597 18.773-80.947 41.677l-196.506 274.927c-6.229 8.738-8.67 19.268-7.731 25.958 0.273 11.179 10.564 20.446 29.167 20.446h512c18.534 0 28.826-9.301 29.201-20.463 0.905-6.707-1.536-15.991-7.748-24.713l-72.158-102.195zM710.076 599.159c-0.734 0-1.434 0.102-2.167 0.102l58.829 82.347c19.337 27.085 22.903 59.477 9.796 84.924-13.073 25.429-39.663 42.308-72.926 42.308h-138.189c21.094 51.2 77.824 99.959 144.657 99.959 84.838 0 153.6-70.007 153.6-154.812s-68.762-154.829-153.6-154.829zM382.123 464.862c13.261-18.551 42.735-34.953 65.502-34.953 22.801 0 52.258 14.524 65.502 33.075l76.083 106.172 24.542 36.625 33.655 49.442h-399.599l134.315-190.362z" />
<glyph unicode="&#xe628;" d="M399.701 523.486c1.007 58.231-4.437 92.894-7.663 113.596-0.137 0.973-0.307 1.997-0.461 3.004 7.834 15.138 7.526 30.635 3.174 43.537 1.963 17.937-4.693 38.127-25.361 53.76l-1.792 1.399-1.929 1.195-5.274 3.209-5.239 1.86-0.597 0.239 1.57 0.171c-4.335 1.434-14.797 3.499-31.863 4.267v5.478h-34.133v-5.461c-34.133-0.768-31.778-2.833-36.079-4.267l-1.604-0.171-1.109-0.239-5.495-1.86-5.393-3.209-2.031-1.195-1.792-1.399c-20.668-15.633-27.341-35.84-25.327-53.76-4.403-12.902-4.71-28.399 3.106-43.537-0.154-1.007-0.307-2.031-0.478-3.004-3.209-20.702-8.619-55.364-7.612-113.596 0.341-19.831-0.836-21.367-8.567-30.071-23.381-26.214-44.151-57.003-44.151-145.306v-326.827c0-90.436 71.97-85.299 99.226-85.299h100.284c27.255 0 107.691-5.137 107.691 85.299v326.827c0 88.286-24.986 119.091-48.316 145.289-7.748 8.704-13.158 10.24-12.783 30.071zM265.899 657.527c-1.86 5.837-9.301 6.195-5.427 12.595 0.905 1.502 2.406 2.594 4.659 4.693l0.137-0.239c3.874 3.533 3.84 5.734 2.56 7.629-1.263 2.065-3.908 3.635-5.274 5.53-1.126 2.099-0.597 4.693 4.898 8.892 0.137 0.068 2.423 0.137 2.645 0.205 2.15 0.734 2.97 1.263 20.036 1.587v5.581h34.133v-5.564c0-0.341 13.653-0.87 15.77-1.57 0.239-0.102-0.631-0.171-0.495-0.273 5.495-4.164 5.495-6.793 4.352-8.926-1.348-1.86-4.25-3.533-5.513-5.598-1.263-1.894-1.434-4.233 2.475-7.799l0.034-0.102c2.27-2.099 3.738-3.84 4.659-5.308 3.84-6.434-3.635-5.495-5.495-11.332-3.721-11.537 5.82-38.861 8.073-90.061h-90.334c2.27 51.2 11.81 78.524 8.107 90.061zM409.6 345.6h-123.699c-18.876 0-29.901-20.395-29.901-39.27v-187.733c0-18.825 11.025-28.996 29.901-28.996h123.699v-68.301c0-32.836-17.237-34.099-56.508-34.099h-100.267c-39.253 0-48.026 1.263-48.026 34.099v326.827c0 137.796 51.2 87.33 51.2 176.23 0 1.331 0 8.977 0 8.977h102.4c0 0 0-7.629 0-8.96 0-88.9 51.2-38.434 51.2-176.23v-2.543zM810.769 546.85c-22.972 50.005-42.769 93.167-42.769 149.675v178.637c0 12.595 17.067 23.637 17.067 28.501v17.067c0 18.859-19.507 39.27-38.366 39.27h-119.467c-18.876 0-29.901-20.412-29.901-39.27v-17.067c0-4.864 17.067-15.906 17.067-28.501v-178.637c0-56.508-19.797-99.669-42.735-149.675-27.972-60.928-59.665-129.98-59.665-232.158v-303.906c0-44.049 35.328-74.786 79.428-74.786h198.537c44.066 0 80.435 30.737 80.435 74.803v303.889c0 102.178-31.693 171.23-59.631 232.158zM819.2 10.803c0-15.804-13.431-23.603-29.235-23.603h-198.537c-15.77 0-28.228 7.799-28.228 23.603v303.889c0 173.431 102.4 239.462 102.4 381.833v58.675h51.2v-58.675c0-142.37 102.4-208.401 102.4-381.833v-303.889zM768 362.667c0 18.842-15.292 34.133-34.133 34.133h-85.333c-18.842 0-34.133-15.292-34.133-34.133v-238.933c0-18.859 15.292-34.133 34.133-34.133h85.333c18.842 0 34.133 15.275 34.133 34.133v238.933z" />
<glyph unicode="&#xe629;" d="M699.221 960h-68.301c-40.448 0-67.721-37.444-67.721-77.875v-536.525h51.2v-409.6h153.6v946.125c0 40.431-28.348 77.875-68.779 77.875zM435.2 957.372c-14.131 0-25.6-11.469-25.6-25.6v-187.767c0-14.131-11.469-25.6-25.6-25.6-14.165 0-25.6 11.469-25.6 25.6v187.767c0 14.131-11.469 25.6-25.6 25.6s-25.6-11.469-25.6-25.6v-187.767c0-14.131-11.469-25.6-25.6-25.6-14.165 0-25.6 11.469-25.6 25.6v187.767c0 14.131-11.469 25.6-25.6 25.6s-25.6-11.469-25.6-25.6v-281.6c0-28.279 21.282-48.572 49.545-48.572h153.6c28.279 0 52.855 20.514 52.855 48.759v281.412c0 14.131-11.469 25.6-25.6 25.6zM256-64h153.6v614.4h-153.6v-614.4zM51.2 752.555c0 28.245 21.214 53.845 49.493 53.845h52.907v51.2h-52.907c-56.457 0-100.693-48.572-100.693-105.045v-714.155h204.8v51.2h-153.6v662.955zM1023.13 753.903c0 56.422-46.78 103.697-103.253 103.697h-100.676v-51.2h100.676c28.297 0 51.2-22.938 51.2-51.183l0.034-665.617h-151.91v-51.2h204.8v48.503l-0.87 666.999z" />
<glyph unicode="&#xe62a;" d="M966.107 201.143h-966.107v-49.243c0-30.19 21.632-60.471 51.803-60.471h914.286c30.19 0 57.911 30.281 57.911 60.471v49.243h-57.893zM196.078 256h493.714c30.318 0 59.922 30.135 59.922 60.471v49.243h33.536c60.471 0 112.75 52.718 112.75 113.207v164.571c0 60.507-54.29 106.222-114.779 106.222h-31.506v54.857h-603.429v-488.101c0-30.336 19.474-60.471 49.792-60.471zM749.714 694.857h31.506c30.171 0 59.922-21.175 59.922-51.365v-164.571c0-30.135-27.721-58.35-57.893-58.35h-33.536v274.286zM201.143 725.778c0 15.141 12.27 27.429 27.429 27.429 15.141 0 27.429-12.288 27.429-27.429v-274.286c0-15.141-12.288-27.429-27.429-27.429-15.159 0-27.429 12.288-27.429 27.429v274.286z" />
<glyph unicode="&#xe62b;" d="M399.221 439.322c-14.371 0-26.034-11.663-26.034-26.034v-347.119c0-14.371 11.663-26.034 26.034-26.034s26.034 11.663 26.034 26.034v347.119c0 14.371-11.646 26.034-26.034 26.034zM503.357 439.322c-14.371 0-26.034-11.663-26.034-26.034v-347.119c0-14.371 11.663-26.034 26.034-26.034s26.034 11.663 26.034 26.034v347.119c0 14.371-11.646 26.034-26.034 26.034zM607.492 439.322c-14.371 0-26.034-11.663-26.034-26.034v-347.119c0-14.371 11.663-26.034 26.034-26.034s26.034 11.663 26.034 26.034v347.119c0 14.371-11.663 26.034-26.034 26.034zM841.797 369.898h-34.712c-6.144 0-17.356 0-17.356 0v102.174c0 42.817-41.585 71.385-83.343 71.385h-78.952c5.346 13.225 8.14 27.422 8.14 42.001 0 41.689-22.511 78.813-57.379 98.443-11.906 39.329-48.458 68.035-91.605 68.035-4.999 0-9.962-0.399-14.857-1.145-23.934 22.528-55.921 35.649-89.505 35.649-62.967 0-115.677-44.778-127.913-104.17-1.076-0.677-2.152-1.319-3.228-2.031-12.305-2.239-24.073-6.508-34.885-12.618-7.654 1.927-15.499 2.916-23.413 2.916-33.445 0-64.894-17.755-82.076-46.375-2.603-4.304-4.842-8.747-6.682-13.364-31.657-8.921-59.461-29.627-76.696-58.333-17.929-29.835-23.17-64.946-14.753-98.807 6.283-25.149 19.508-47.364 38.114-64.477 0.104-38.877 20.272-75.967 54.827-96.742 17.582-10.535 37.714-16.141 58.194-16.141 18.831 0 37.055 4.877 53.248 13.52v-353.818h572.746v156.203h52.068c28.741 0 52.068 23.292 52.068 52.068v173.559c0.017 28.741-23.309 52.068-52.050 52.068zM216.984 472.073v-112.744l-0.816-1.354c-11.455-19.057-31.692-29.592-52.432-29.592-10.709 0-21.539 2.812-31.362 8.713-23.795 14.267-34.92 42.887-27.11 69.493l1.996 6.699-7.428 4.096c-0.364 0.139-0.677 0.347-1.024 0.503-37.124 22.302-49.152 69.215-26.832 106.34 14.128 23.5 39.884 36.586 67.358 36.586 0.347 0 0.642 0 0.989 0l9.251 1.284-0.417 9.997c-0.434 8.609 1.718 17.46 6.161 24.888 8.175 13.59 22.649 21.33 37.471 21.33 7.637 0 15.377-1.927 22.407-6.144 0.434-0.278 0.868-0.538 1.284-0.85l6.786-4.582 5.103 5.189c11.646 11.871 27.075 17.929 42.713 18.102 7.237 6.751 16.176 11.837 26.225 14.44l6.769 1.77-0.243 6.977-0.069 1.493c-0.069 0.364-0.069 0.746-0.069 1.111 0 43.32 35.233 78.536 78.518 78.536 27.735 0 53.717-14.943 67.758-38.981l4.686-8.036 7.706 5.155c7.185 4.808 15.551 7.359 24.229 7.359 24.055 0 43.615-19.595 43.615-43.633 0-0.538-0.052-1.076-0.087-1.597l-0.451-8.175 7.064-1.701c27.527-6.613 46.757-31.015 46.757-59.323 0-16.297-6.508-31.050-16.957-42.001h-281.426c-41.776 0.035-68.122-28.533-68.122-71.35zM737.662-11.932h-468.61v484.005c0 11.802 3.193 16.332 7.394 18.137 2.204 0.781 4.981 1.18 8.661 1.18h435.2c13.885 0 17.356-5.224 17.356-19.317v-484.005zM841.797 161.627c0-9.598-7.758-17.356-17.356-17.356h-34.712v173.559h34.712c9.598 0 17.356-7.758 17.356-17.356v-138.847zM991.753 960h-175.139c-13.972 0-26.884-11.316-26.884-25.253v-224.707c-6.994 0.538-14.215 0.399-21.99-1.024-34.868-6.404-66.213-30.408-61.44-67.601 5.068-39.12 34.573-53.699 66.855-49.898 35.528 4.165 68.643 30.685 68.643 71.229v227.831h121.492v-104.448c0 0.538-15.655 0.399-23.431-1.024-34.851-6.404-66.942-30.408-62.204-67.601 5.085-39.12 35.701-53.699 67.966-49.898 35.528 4.2 69.736 30.685 69.736 71.246v195.896c0 13.937-9.667 25.253-23.604 25.253z" />
<glyph unicode="&#xe62c;" d="M788.984 473.18v12.422c16.787 3.895 33.574 20.816 33.574 41.111 0 20.329-16.787 37.25-33.574 41.111v0.856c0 27.816-26.792 55.581-54.625 55.581h-201.443c-27.799 0-46.097-27.766-46.097-55.581v-95.501h-117.508v486.82h-205.706c-27.799 0-46.097-27.732-46.097-55.581v-436.459c0-27.799 18.298-45.14 46.097-45.14h205.706v-441.68c0-27.799 18.298-45.14 46.097-45.14h436.459c27.833 0 54.625 17.341 54.625 45.14v492.040h-117.508zM318.951 473.18h-151.082v436.459h151.082v-436.459zM537.18 573.902h201.443v-100.721h-201.443v100.721zM856.131-13.639h-436.459v436.459h436.459v-436.459zM633.638 652.615c37.082 0 67.148 30.065 67.148 67.148 0 0 0 0.353-0.101 0.957-0.386 28.42-23.804 43.679-43.763 61.809-23.283 21.185-37.636 76.364-23.283 105.119 0 0-67.148-83.934-67.148-167.869 0-37.099 30.065-67.164 67.148-67.164z" />
<glyph unicode="&#xe62d;" d="M877.705 706.645h-278.511c18.842 17.067 36.369 34.731 50.893 59.87 17.527 30.379 28.194 62.635 29.969 92.006 2.475 41.335-12.766 74.325-41.865 91.136-11.895 6.861-25.685 10.342-39.885 10.342-29.696 0-60.826-16.026-88.064-43.298-27.273 27.273-58.436 43.145-88.098 43.145-14.234 0-28.041-3.652-39.936-10.496-29.065-16.794-44.339-50.193-41.865-91.529 1.775-29.372 12.442-60.877 30.003-91.324 14.507-25.139 32.068-42.786 50.859-59.853h-260.301c-56.474 0-109.705-48.759-109.705-105.233v-150.767h409.6v-460.783h-358.4v409.6h-51.2v-460.8h921.6v460.8h-51.2v-409.6h-358.4v460.783h409.6v150.767c0 56.474-38.639 105.233-95.095 105.233zM877.705 655.445c28.262 0 43.895-25.771 43.895-54.033v-99.567h-358.4v153.6h314.505zM598.306 908.612c5.205 0 10.035-1.161 14.302-3.652 24.474-14.131 21.436-65.314-6.861-114.278-8.533-14.797-18.398-27.648-28.706-38.059 0.734 7.1 1.092 14.421 0.631 22.135-1.775 29.372-12.407 62.327-30.003 92.757-1.707 2.987-3.635 5.649-5.427 8.516 18.79 20.326 39.356 32.58 56.064 32.58zM510.208 828.484c21.538-44.561 22.272-88.030 0-100.864-22.272 12.834-21.504 56.269 0 100.864zM414.669 790.682c-28.262 48.981-31.334 100.147-6.861 114.278 4.267 2.492 9.097 3.652 14.336 3.652 16.674 0 37.274-12.271 56.064-32.597-1.792-2.867-3.738-5.53-5.461-8.533-17.596-30.43-28.228-63.369-30.003-92.774-0.461-7.697-0.102-15.002 0.631-22.084-10.274 10.428-20.173 23.262-28.706 38.059zM102.4 601.412c0 28.262 30.225 54.033 58.505 54.033h299.895v-153.6h-358.4v99.567z" />
<glyph unicode="&#xe62e;" d="M51.2 87.228v200.636c0 28.228 9.097 55.364 34.56 55.364h117.794l-11.264 34.679 22.733 16.521h-129.263c-53.658 0-85.76-50.091-85.76-106.564v-251.836h303.377l-16.64 51.2h-235.537zM915.132 394.428h-106.155l22.733-16.521-11.264-34.679h94.686c25.463 0 57.668-27.136 57.668-55.364v-200.636h-235.537l-16.657-51.2h303.394v251.836c0 56.474-55.194 106.564-108.868 106.564zM512 568.013l-279.586-203.127 106.803-328.687h345.566l106.803 328.687-279.586 203.127zM529.067 221.286l84.975-116.821h-84.975v116.821zM494.933 104.465h-86.374l86.374 117.316v-117.316zM694.374 351.147l-165.308-53.879v173.961l165.308-120.081zM494.933 297.267l-165.257 53.914 165.257 120.047v-173.961zM319.198 318.72l165.069-53.862-102.383-139.042-62.686 192.905zM641.69 124.467l-102.059 140.339 165.154 53.811-63.095-194.15zM512 652.8c9.438 0 17.067 7.629 17.067 17.067v170.667c0 9.438-7.629 17.067-17.067 17.067s-17.067-7.629-17.067-17.067v-170.667c0-9.438 7.629-17.067 17.067-17.067zM381.867 648.363c3.226-8.892 13.039-13.466 21.862-10.24 8.875 3.226 13.431 13.073 10.172 21.828l-23.364 64.171c-3.174 8.892-13.005 13.466-21.828 10.24-8.875-3.226-13.397-13.039-10.172-21.862l23.33-64.137zM608.768 637.525c8.96-2.901 18.603 2.031 21.538 11.008l21.026 64.905c2.97 8.96-1.929 18.603-10.906 21.504s-18.569-1.963-21.504-10.974l-21.026-64.939c-3.004-8.926 1.911-18.603 10.871-21.504zM277.367 584.533c6.673-6.673 17.459-6.673 24.132 0s6.673 17.459 0 24.132l-84.497 84.497c-6.639 6.673-17.425 6.673-24.132 0-6.673-6.707-6.673-17.459 0-24.132l84.497-84.497zM718.165 584.533l84.463 84.497c6.707 6.673 6.707 17.425 0 24.132-6.673 6.673-17.425 6.673-24.098 0l-84.497-84.497c-6.673-6.673-6.673-17.459 0-24.132s17.459-6.673 24.132 0z" />
<glyph unicode="&#xe62f;" d="M800.716 490.244v352.968c0 14.371-8.487 26.034-22.858 26.034-97.228 0-183.47-33.167-245.586-86.294-30.841 101.619-144.141 177.048-275.89 177.048-14.371 0-28.412-11.646-28.412-26.034v-443.722c0-122.012 121.492-222.416 260.339-233.229v-325.302h52.068v325.285c156.203 10.813 260.339 111.217 260.339 233.246zM514.343 307.99c-129.198 0-234.305 81.746-234.305 182.255v416.49c104.136-10.205 199.958-83.17 206.709-170.331-31.397-41.776-47.937-90.772-47.937-143.152 0-14.371 12.462-26.034 26.832-26.034s26.416 11.663 26.416 26.034c0 40.040 13.833 77.668 37.628 110.228 5.224 3.176 6.144 8.123 8.071 14.006 47.26 54.81 124.095 92.594 210.875 98.807v-326.031c0.017-100.526-105.090-182.272-234.288-182.272zM643.020 50.619c11.993-1.163 23.517-1.736 34.608-1.736 261.224 0 276.949 312.389 276.949 312.389-344.706-26.919-311.556-310.654-311.556-310.654zM104.899 361.255c-11.108 0-22.615-0.555-34.608-1.736 0 0-33.15-283.752 311.539-310.654 0 0-15.707 312.389-276.931 312.389z" />
<glyph unicode="&#xe630;" d="M669.731 495.351c35.31 52.966 105.931 211.862 105.931 247.172s-15.325 70.621-68.29 88.276c-30.243 10.099-85.945 31.656-121.256 48.34v80.861h-141.241v-80.861c-52.966-16.684-95.673-38.241-125.917-48.34-52.966-17.655-71.768-52.966-71.768-88.276s70.038-194.207 105.348-247.172 37.341-123.586-15.625-176.552c-70.621-70.621-68.59-141.241-68.59-141.241s0-158.897 0-194.207c0-52.966 247.172-52.966 247.172-52.966s247.172 0 247.172 52.966c0 35.31 0 194.207 0 194.207s-2.33 70.621-72.951 141.241c-52.983 52.966-55.296 123.586-19.986 176.552z" />
<glyph unicode="&#xe631;" d="M219.015 808.223l152.449-152.449-25.406-25.406-152.449 152.449 25.406 25.406zM295.276 579.551l-152.449 152.449 25.406 25.406 152.449-152.449-25.406-25.406zM979.465 424.556c-11.929 1.186-221.507-235.772-337.058-297.715-52.35-28.079-108.454-25.151-156.205-13.546-1.060 10.024-2.569 20.803-5.12 32.786-3.234 47.984 2.497 81.686 9.054 119.269 6.036 34.511 12.881 73.656 12.881 128.772 0 3.862-0.377 7.204-0.521 10.851l0.108 0.036c-0.072 1.868-0.252 3.575-0.359 5.389-0.377 5.91-0.952 11.569-1.689 16.923-0.377 2.605-0.737 5.174-1.186 7.653-0.737 4.114-1.581 0.216-2.533 4.006-0.772 3.018-1.545 1.060-2.425 1.060h-0.018c-8.947 35.93-23.893 55.727-39.505 68.356 13.438 20.875 11.048 50.931-7.186 69.165-21.055 21.073-55.152 22.079-76.207 1.024s-21.055-54.667 0-75.722c15.091-15.091 36.882-18.935 55.781-12.36 12.288-7.833 25.187-21.468 32.84-45.828l-101.34-30.522-304.883 304.99 177.817 177.907 304.883-304.811-22.169-93.112c11.965-21.091 20.732-47.625 23.552-81.219 12.252 7.599 21.504 19.959 24.881 34.044l28.977 130.623c4.312 18.216-3.862 34.582-17.121 47.805l-304.883 304.865c-21.019 21.037-55.152 21.037-76.207 0l-177.817-177.835c-21.055-21.037-21.055-55.17 0-76.207l304.865-304.883c13.258-13.276 35.229-15.701 53.643-11.066 0.449-28.906 8.174-75.65 40.78-140.845 15.899-31.798 25.115-60.254 30.415-84.309 0.359-4.851 0.808-9.863 1.293-14.947-38.14 13.546-66.452 28.959-75.327 29.444-21.432 1.186-74.986-20.947-147.797-47.894 0 0-123.832-52.026-165.852-67.368-9.126-3.341-17.713-6.881-24.702-9.773-6.988-2.91-12.917-7.869-18.18-13.060-5.3-5.174-6.593-11.372-9.539-18.198-2.946-6.863-0.952-14.372-0.952-22.241v-39.038h521.054c139.192 0 215.992 116.736 264.947 165.69 26.947 26.947 67.368 15.971 71.86-1.994l35.93-163.678h107.789c0 0 17.965 292.379 17.965 381.377 0 53.859-44.535 106.137-44.535 106.137zM410.66 376.338l56.428 17.606c0-51.901-6.288-87.759-12.36-122.413-2.030-11.605-4.042-23.067-5.713-34.834-0.629 1.276-1.15 2.497-1.796 3.791-35.139 70.261-37.852 115.586-36.559 135.851z" />
<glyph unicode="&#xe632;" d="M435.2 800.358c0 73.984-62.464 159.642-154.163 159.642h-1.399c-20.634 0-49.237-31.642-49.237-54.221v-304.179h204.8v198.758zM435.2 550.4h-204.8v-153.6h-51.2v-460.8h307.2v460.8h-51.2v153.6zM384 396.8h-102.4v102.4h102.4v-102.4zM742.4 396.8v256h51.2v51.2h-51.2v51.2h51.2v51.2h-51.2v51.2h51.2v51.2h-51.2v51.2h-51.2v-51.2h-51.2v-51.2h51.2v-51.2h-51.2v-51.2h51.2v-51.2h-51.2v-51.2h51.2v-256h-102.4v-395.315c0-34.509 24.030-65.485 55.825-65.485h140.766c31.829 0 57.6 28.092 57.6 62.601l0.034 398.199h-100.625z" />
<glyph unicode="&#xe633;" d="M721.024 590.848c-7.424-11.755-11.883-25.579-11.883-40.533 0-42.176 34.176-76.331 76.331-76.331s76.331 34.176 76.331 76.331-34.176 76.352-76.331 76.352c-3.669 0-7.168-0.576-10.667-1.088l-166.869 255.872c-9.664 14.827-29.504 18.965-44.288 9.451-14.827-9.621-19.051-29.461-9.408-44.288l166.784-255.765zM972.053 594.773h-74.411c5.76-21.333 6.336-40.171 1.451-60.459-0.299-1.216-0.619-3.541-0.96-3.541h58.176l-109.504-458.987c-1.131-5.077-10.219-10.325-15.424-10.325h-639.125c-5.205 0-14.251 5.248-15.381 10.325l-109.504 458.987h73.536c-0.341 0 8.533 2.325 8.256 3.541-4.885 20.288-5.717 39.125 0 60.459h-97.579c-35.157 0-57.749-30.080-50.091-64.427l112.875-469.269c7.616-34.368 42.709-63.616 77.867-63.616h639.147c35.2 0 70.251 26.901 77.909 61.269l112.875 475.008c7.637 34.325-14.891 61.035-50.112 61.035zM366.379 594.773c6.251-21.333 6.549-42.667 0.789-64h315.307c-5.717 21.333-6.251 42.667 0 64h-316.096zM254.165 473.984c42.176 0 76.331 34.176 76.331 76.331 0 1.707-0.384 3.328-0.491 4.992-0.085 1.536-0.256 3.093-0.448 4.629-1.451 11.456-5.248 22.123-11.2 31.424l166.507 255.253c9.621 14.827 5.419 34.667-9.408 44.288-14.784 9.493-34.624 5.376-44.288-9.451l-166.848-255.808c-3.328 0.448-6.656 1.024-10.133 1.024-42.176 0-76.331-34.176-76.331-76.352s34.155-76.331 76.309-76.331z" />
<glyph unicode="&#xe634;" d="M388.741 126.957c-47.104 0-85.333-38.229-85.333-85.333 0-47.142 38.229-85.333 85.333-85.333 47.142 0 85.333 38.191 85.333 85.333 0 47.123-38.191 85.333-85.333 85.333zM768 126.957c-47.142 0-85.333-38.229-85.333-85.333 0-47.142 38.191-85.333 85.333-85.333 47.104 0 85.333 38.191 85.333 85.333 0 47.123-38.229 85.333-85.333 85.333zM615.253 766.255c150.926 0 160.009 174.782 160.009 174.782-199.111-15.038-179.959-173.777-179.959-173.777 6.884-0.664 13.577-1.005 19.949-1.005zM525.615 335.967c17.787 0 32.199 3.337 47.938 10.638 15.739-7.301 35.935-10.638 53.703-10.638 92.141 0 179.807 140.041 179.807 244.148 0 95.156-65.327 163.631-158.663 163.631-25.335 0-52.698-4.001-74.847-15-22.073 10.999-43.71 15-69.12 15-93.279 0-164.39-68.475-164.39-163.631 0-104.107 93.468-244.148 185.572-244.148zM493.701 689.702c32.673 0 51.902-0.74 67.641-16.005l12.193-11.814 12.231 11.776c16.555 16.043 45.435 16.043 73.406 16.043 58.008 0 98.551-45.075 98.551-109.587 0-89.372-80.156-190.066-122.88-190.066l-10.069-0.038c-19.627 0-31.327 1.479-36.959 9.292l-14.222 19.74-14.26-19.74c-5.367-7.49-11.548-9.292-31.46-9.292l-9.823 0.038c-44.696 0-128.626 100.712-128.626 190.066-0.019 63.507 43.823 109.587 104.277 109.587zM982.774 701.402h-147.854c9.785-18.963 17.218-37.926 22.111-56.889h111.749l-86.073-368.261c-1.005-4.513-9.083-10.999-13.71-10.999h-568.851c-4.627 0-12.705 6.485-13.71 10.999l-86.073 368.261h90.207c5.196 18.963 13.103 37.926 23.381 56.889h-126.217l-36.030 151.704c-2.882 13.047-11.814 18.963-25.145 18.963h-98.114c-15.701 0-28.444-12.743-28.444-28.444s12.743-28.444 28.444-28.444h66.37l136.078-551.253c6.808-30.549 37.964-55.561 69.253-55.561h568.851c31.289 0 62.445 22.187 69.253 52.736l89.069 383.374c6.789 30.53-13.236 56.927-44.544 56.927z" />
<glyph unicode="&#xe635;" d="M582.602 664.244c255.389 0 270.731 295.756 270.731 295.756-336.95-25.474-304.559-294.104-304.559-294.104 11.713-1.132 23.013-1.653 33.828-1.653zM638.707 626.104c-42.882 0-89.232-6.773-126.707-25.402-37.367 18.63-73.962 25.402-116.952 25.402-157.894 0-278.276-115.856-278.276-276.911 0-176.182 158.253-413.193 314.134-413.193 30.073 0 54.488 5.677 81.094 17.965 26.624-12.288 60.847-17.965 90.884-17.965 155.917 0 304.344 237.011 304.344 413.193 0 161.055-110.556 276.911-268.522 276.911zM615.711-2.219c-40.637 0-81.722-2.461-103.711 28.043-22.007-30.486-53.23-28.043-93.939-28.043-94.945 0-247.395 187.733-247.395 351.412 0 127.443 92.591 215.094 206.219 215.094 54.524 0 99.094-0.449 135.114-35.445 36.145 34.978 90.381 35.445 144.833 35.445 113.736 0 196.5-87.651 196.5-215.094 0-163.678-142.659-351.412-237.622-351.412z" />
<glyph unicode="&#xe636;" d="M1009.231 530.59c-11.225 12.721-27.353 16.857-44.308 16.857h-19.692c0 118.154-133.573 231.798-315.609 264.468 0.295 3.525 0.532 6.774 0.532 10.358 0 65.26-52.894 118.036-118.154 118.036s-118.154-52.972-118.154-118.233c0-3.604 0.236-6.597 0.532-10.122-182.036-32.65-315.609-146.334-315.609-264.487h-19.692c-16.955 0-33.083-2.914-44.268-15.655-11.225-12.702-16.463-27.431-14.356-44.229l59.077-475.884c3.702-29.538 28.81-55.001 58.624-55.001h787.692c29.814 0 54.922 26.545 58.624 56.103l59.077 475.077c2.107 16.798-3.131 30.011-14.316 42.713zM452.923 821.996c0 32.61 26.466 59.077 59.077 59.077s59.077-26.466 59.077-59.077c0-0.886-0.236-1.713-0.276-2.599v0c-0.689-15.655-7.463-29.735-17.959-39.916-0.315-0.315-0.65-0.532-1.004-0.827-2.304-2.166-4.805-4.234-7.503-6.006-0.965-0.63-2.048-1.083-3.033-1.654-2.186-1.26-4.391-2.58-6.735-3.564-1.89-0.788-3.879-1.241-5.849-1.831-1.694-0.492-3.269-1.162-5.002-1.497-3.801-0.748-7.719-1.182-11.717-1.182s-7.916 0.414-11.737 1.201c-1.733 0.354-3.348 1.004-5.002 1.497-1.969 0.591-3.998 1.063-5.849 1.831-2.343 0.985-4.529 2.284-6.774 3.564-0.965 0.571-2.048 1.024-2.993 1.654-2.698 1.772-5.199 3.82-7.503 6.006-0.354 0.295-0.689 0.512-1.004 0.827-10.496 10.201-17.27 24.261-17.959 39.916v0c-0.020 0.866-0.256 1.694-0.256 2.58zM203.618 669.42c6.814-2.265 13.47-5.75 19.692-9.984 12.761-9.078 27.195-14.513 42.26-14.513s29.46 5.238 42.26 14.316c12.465 8.507 26.506 13.489 41.078 13.489 14.612 0 28.613-5.041 41.118-13.548 12.761-9.078 27.274-14.395 42.299-14.395 15.006 0 27.609 5.317 40.389 14.375 12.564 8.487 19.594 13.076 39.286 13.076 1.654 0.138 3.308 0.433 4.962 0.433 14.572 0 28.574-5.022 41.118-13.529 12.761-9.078 27.195-14.375 42.26-14.375s29.46 5.317 42.26 14.375c12.465 8.507 26.506 13.529 41.078 13.529 14.612 0 28.613-5.022 41.118-13.529 12.761-9.078 27.274-14.375 42.299-14.375 15.006 0 27.609 5.317 40.389 14.375 5.573 3.781 10.082 6.873 15.124 8.507 40.133-34.521 63.547-80.798 63.547-120.182h-748.308c0 39.385 24.34 87.099 65.772 121.954zM905.846 15.774h-112.994v382.838c0 16.305-13.233 29.538-29.538 29.538s-29.538-13.233-29.538-29.538v-382.838h-433.231v382.838c0 16.305-13.233 29.538-29.538 29.538s-29.538-13.233-29.538-29.538v-382.838h-123.313l-59.077 472.615h905.846l-59.077-472.615z" />
<glyph unicode="&#xe637;" d="M670.003 486.263h204.8l-34.133 136.533h-136.533zM908.937 349.73h-78.66c-2.338 0-5.035 17.664-8.073 25.6 11.964 31.061 18.466 76.8 18.466 76.8h-136.533c0 0 6.502-45.739 18.466-76.8-3.072-7.936-5.734-25.6-8.073-25.6h-317.594c-40.465 0-51.2-17.067-51.2-51.2h38.263v-358.4h51.2v358.4h443.733v-358.4h51.2v358.4h30.003c0 34.133-10.803 51.2-51.2 51.2zM128 513.468l68.267 68.267v262.929h68.267v-194.662l220.006 224.666 202.53-200.67h85.333l-289.911 286.003-155.102-151.535c0 68.267 6.963 104.465-67.004 104.465h-68.267c-68.915 0-64.119-41.062-64.119-109.329v-204.8l-68.267-68.267v-402.671h273.067v68.267h-204.8v317.338z" />
<glyph unicode="&#xe638;" d="M919.569 843.366c0 62.771-50.842 116.634-110.797 116.634h-601.566c-60.006 0-104.806-56.644-104.806-119.415v-904.585h819.2v45.619l-2.031 861.747zM153.6-12.8v665.6h712.772l0.034-665.6h-712.806zM870.4 704h-716.8v136.585c0 34.56 21.76 68.215 53.606 68.215h601.566c31.829 0 61.628-33.655 61.628-68.215v-136.585zM508.006 596.019c-141.158 0-256-114.842-256-256s114.842-256 256-256c141.141 0 256 114.842 256 256s-114.876 256-256 256zM508.006 135.219c-113.101 0-204.8 91.699-204.8 204.8s91.699 204.8 204.8 204.8 204.8-91.699 204.8-204.8-91.699-204.8-204.8-204.8zM508.006 519.219c-98.133 0-178.005-79.309-179.098-177.186-0.358 0-0.7-0.085-1.058-0.085l0.973-1.997c0.034-98.799 80.401-179.132 179.2-179.132s179.2 80.367 179.2 179.2c-0.017 98.799-80.418 179.2-179.217 179.2zM626.432 353.314c-9.967-7.168-21.129-11.366-32.768-11.366-11.605 0-22.767 4.198-32.734 11.366-10.24 7.578-21.692 12.066-33.741 12.066-11.998 0-23.501-4.489-33.707-12.066-9.967-7.168-21.129-11.366-32.734-11.366-11.639 0-22.801 4.198-32.768 11.366-10.206 7.578-21.726 12.066-33.741 12.066-11.964 0-23.501-4.489-33.707-12.066-1.826-1.314-3.772-2.441-5.666-3.55 5.035 80.265 71.561 143.855 153.105 143.855 76.203 0 139.264-55.535 151.33-128.307-11.674-0.188-22.903-4.557-32.87-11.998zM815.172 800.785c0-28.277-22.923-51.2-51.2-51.2s-51.2 22.923-51.2 51.2c0 28.277 22.923 51.2 51.2 51.2s51.2-22.923 51.2-51.2zM204.8 755.2h256v102.4h-256v-102.4zM238.933 823.467h187.733v-34.133h-187.733v34.133zM678.673 800.819c0-18.851-15.282-34.133-34.133-34.133s-34.133 15.282-34.133 34.133c0 18.851 15.282 34.133 34.133 34.133s34.133-15.282 34.133-34.133z" />
<glyph unicode="&#xe639;" d="M965.367 574.748l-55.486 219.553c-4.096 60.435-53.4 108.809-113.474 108.809h-568.851c-60.037 0-109.416-48.887-113.512-109.34l-55.372-218.548-17.939-70.334h942.554l-17.92 69.86zM113.816 561.778l56.851 224.806c0 32.901 25.486 59.639 56.889 59.639h568.851c31.441 0 56.889-26.738 56.889-59.639l56.927-224.806h-796.407zM1023.962 416.332c0 38.4-28.634 69.594-64 69.594h-895.962c-35.328 0-64-31.194-64-69.594l0.038-328.628h56.851v-39.898c0-31.403 25.486-54.917 56.927-54.917h56.851c31.441 0 56.889 23.514 56.889 54.917v39.898h568.889v-39.898c0-31.403 25.486-54.917 56.927-54.917h56.851c31.441 0 56.889 23.514 56.889 54.917v39.898h56.889l-0.038 328.628zM142.26 218.472c-47.142 0-85.333 38.229-85.333 85.333s38.191 85.333 85.333 85.333c47.104 0 85.333-38.229 85.333-85.333s-38.229-85.333-85.333-85.333zM881.816 218.472c-47.142 0-85.333 38.229-85.333 85.333s38.191 85.333 85.333 85.333c47.104 0 85.333-38.229 85.333-85.333s-38.229-85.333-85.333-85.333z" />
<glyph unicode="&#xe63a;" d="M58.754 752.497c0 27.766 30.519 43.596 58.334 43.596h143.108v50.361h-148.866c-55.531-0.017-102.937-32.348-102.937-87.896v-717.908h151.082v50.361h-100.721v661.487zM917.084 846.437h-10.727c5.338-16.787 8.847-33.574 10.324-50.361h0.386c27.833 0 48.162-15.813 48.162-43.596v-661.47h-151.082v-50.361h201.459v711.848c0 55.531-42.991 93.939-98.522 93.939zM865.935 802.858c-2.098 17.274-6.631 34.228-13.614 50.361-2.652 6.060-5.506 12.019-8.813 17.828-31.744 55.514-93.872 88.954-160.818 88.954-13.48 0-27.111-2.484-40.759-5.271l78.663-139.314-6.916-12.557-25.835-46.97-1.863-6.782-9.25-20.161h-83.867l-9.468 20.161-28.454 52.073-42.32 76.229c-6.715-7.873-12.758-15.897-18.063-24.391-10.072-15.998-17.509-32.869-22.461-50.26-4.717-16.552-7.050-33.423-7.050-50.277 0-30.267 7.504-60.248 23.048-87.292 19.574-33.322 48.531-60.953 83.8-76.229 30.921-9.098 40.826-38.073 40.826-71.949v-513.847c0-2.031 0-6.094 0-6.094 0-25.18 32.533-57.143 58.334-57.143h50.361c25.801 0 46.399 28.554 46.399 53.735 0.252 2.048-4.012 7.487-4.012 9.518v578.124c0 21.974 20.564 41.934 35.806 55.262 48.514 45.19 73.51 107.453 66.325 166.291zM696.236-2.913c-13.9 0-25.18 11.281-25.18 25.18 0 13.866 11.281 25.18 25.18 25.18s25.18-11.314 25.18-25.18c0-13.9-11.281-25.18-25.18-25.18zM411.279 399.973v100.721c0 27.799-16.787 50.361-50.361 50.361v377.705c0 13.883-11.281 25.18-25.18 25.18s-25.18-11.298-25.18-25.18v-377.705c-33.574 0-50.361-22.562-50.361-50.361v-100.721c-33.574 0-50.361-22.562-50.361-50.361v-302.164c0-27.799 26.523-53.768 54.356-53.768 0-27.799 26.523-53.735 54.339-53.735h50.361c27.816 0 46.382 25.936 46.382 53.735 27.799 0 46.365 25.969 46.365 53.768v302.164c0 27.799-16.787 50.361-50.361 50.361z" />
<glyph unicode="&#xe63b;" d="M68.267-64h631.467v51.2h-631.467v-51.2zM953.105 690.295c1.007 7.629-1.007 15.599-6.861 21.47l-5.035 5.035c-1.673 1.929-3.43 3.703-5.359 5.359l-146.466 146.466c-10.001 10.001-26.231 10.001-36.198 0-10.001-10.001-10.001-26.197 0-36.198l112.964-112.964c-9.097-9.267-13.79-21.931-13.79-35.925 0-28.297 18.057-51.2 52.19-51.2v-542.737h-119.467v355.038c-0.017 28.262-24.951 54.562-53.214 54.562h-32.137v394.803c0 34.526-27.802 65.997-59.631 65.997h-516.215c-31.812 0-55.62-31.471-55.62-65.963v-855.637h631.467v409.6h34.133v-358.4h-2.031c0-34.133 22.938-51.2 51.2-51.2h119.501c28.262 0 53.197 19.558 53.197 47.838v596.958c0 0.137-0.956 0.239-0.956 0.341 0 2.338-1.382 4.523-1.673 6.758zM631.467 533.333c0-18.859-15.292-34.133-34.133-34.133h-426.667c-18.842 0-34.133 15.275-34.133 34.133v341.333c0 18.842 15.292 34.133 34.133 34.133h426.667c18.842 0 34.133-15.292 34.133-34.133v-341.333z" />
<glyph unicode="&#xe63c;" d="M1002.976 657.952c-69.44-13.552-152.336-14.080-239.264 1.376-86.912 15.536-164.592 44.752-225.28 81.536-10.944 6.624-22.56 2.496-25.888-9.92-6.432-23.904-11.968-48.544-16.368-73.92-44.496-255.568 35.408-483.392 178.496-508.976 143.088-25.504 295.168 160.96 339.68 416.48 4.416 25.36 7.568 50.496 9.568 75.12 1.056 12.864-8.448 20.752-20.944 18.304zM593.632 532.864c3.872 22.368 24.896 37.264 47.008 33.328 22.080-3.904 36.816-25.248 32.896-47.584-3.888-22.336-24.896-37.2-46.976-33.296-22.112 3.952-36.816 25.248-32.928 47.552zM815.824 313.92c-7.28-41.776-42.4-36.288-42.4-36.288s-103.92 18.544-155.216 27.664c-51.344 9.168-38.192 50.672-38.192 50.672l5.488 31.248 235.744-42.128-5.424-31.168zM850.512 486.992c-4.128-23.696-26.528-39.616-50.016-35.376-23.52 4.176-39.2 26.8-35.072 50.624 4.16 23.76 26.528 39.664 50.032 35.488 23.472-4.224 39.184-26.912 35.056-50.736zM201.536 290.608l228.88 40.88-4.384 25.104c0 0-0.464 47.808-50.256 38.912-49.824-8.848-150.672-26.896-150.672-26.896s-35.024-12.368-27.968-52.864l4.4-25.136zM222.816 498.304c-3.904 22.416-25.056 37.424-47.216 33.488-22.16-4-36.976-25.36-33.024-47.792 3.904-22.416 25.008-37.424 47.216-33.456 22.16 3.952 36.928 25.328 33.024 47.76zM364.16 481.664c22.16 3.968 36.976 25.328 33.024 47.776-3.904 22.416-25.008 37.424-47.216 33.424-22.16-3.92-36.976-25.296-33.040-47.76 3.92-22.432 25.072-37.408 47.232-33.44zM457.872 287.68c-28.96-59.040-68.672-95.728-114.736-103.936-6.672-1.2-13.472-1.808-20.288-1.808-117.888 0-240 170.8-278 388.88-2.704 15.808-5.008 31.68-6.784 47.52 30.016-4.48 61.632-6.768 94.304-6.768 43.824 0 88.944 4.096 134.128 12.144 59.92 10.704 116.56 28.208 167.888 50.784 2.688 14.672 5.776 29.248 9.184 43.84-53.008-26.080-115.168-46.832-183.296-59.008-44.080-7.84-87.12-11.584-127.904-11.584-39.632 0-77.088 3.536-111.36 10.208-1.488 0.288-2.992 0.448-4.416 0.448-10.24 0-17.424-7.504-16.512-18.752 1.984-24.624 5.152-49.744 9.584-75.12 41.776-239.808 178.304-418.784 313.184-418.784 8.848 0 17.664 0.768 26.464 2.32 51.28 9.136 94.256 44.512 126.48 97.632-6.496 13.344-12.464 27.36-17.92 41.984z" />
<glyph unicode="&#xe63d;" d="M224.95 342.059c0 26.069-15.933 48.406-33.289 58.368v267.785l54.376-27.735c6.804 13.364 12.409 25.461 21.834 34.885 9.823 9.823 34.781 35.961 230.14 35.961 72.704 0 244.875-3.662 278.615-37.385 6.508-6.508 11.958-15.395 17.044-25.687l190.742 90.303-471.422 221.444-469.599-224.308 96.204-43.025v-292.222c-17.356-9.962-42.678-32.299-42.678-58.368 0-35.354 28.672-64.026 64.026-64.026s64.009 28.655 64.009 64.009zM692.675 198.040c65.588 81.33 113.161 192.061 100.335 295.867 0.469-0.069 1.076-0.243 1.076-0.243s-12.271 125.397-42.644 155.769c-30.338 30.338-421.628 46.444-461.39 6.647-39.762-39.762-50.263-149.938-50.263-149.938h0.035c-15.36-104.136 30.72-215.214 93.566-297.22-86.207-48.406-193.362-171.39-214.433-275.525h54.168c90.476 208.271 238.922 254.143 238.922 254.143l-36.881 47.972c-63.349 82.805-100.873 183.053-80.063 267.455 54.984 6.439 142.336 14.839 222.243 14.839 66.977 0 138.917-6.543 192.738-12.809l29.661-5.328c20.619-95.596-32.612-200.166-88.064-268.982l-37.871-46.618c0 0 130.916-42.401 229.116-250.672h54.341c-24.42 104.136-123.574 215.89-204.592 264.643zM474.615 176.38l26.815-42.314-26.815-200.669h80.445l-26.78 200.669 26.78 42.314h-80.445z" />
<glyph unicode="&#xe63e;" d="M1001.536 700.784h-99.008c-13.312 0-23.312-13.856-23.312-27.136v-212.992c-16.096 9.552-29.552 15.744-38.368 15.744-21.792 0-40.848-9.456-55.584-28.336l-160.256-228.224c-13.552-19.344-22.496-42.688-28.72-69.424-5.872-25.392-6.656-49.040-6.656-70.336v-71.008c0-40.944 29.040-73.072 70.128-73.072h141.504c41.104 0 77.936 32.144 77.936 73.072v48.144c0 8.512-0.192 16.128 3.008 23.344 4.672 10.544 5.376 13.424 5.376 13.424 0.944 0.96 1.728 2.016 2.48 3.136 30.928 45.088 53.984 79.328 70.704 104.624 18.24 27.792 31.328 49.36 40.4 65.888 10.224 18.576 16.24 33.888 19.248 46.848 2.944 12.416 3.568 25.6 3.568 39.184v320c0.016 13.264-9.12 27.12-22.448 27.12zM975.728 353.664c0-9.92-0.224-19.44-2.272-28.272-1.376-5.856-4.256-16.624-14.208-34.672-8.448-15.472-21.12-35.936-38.64-62.56-16.352-24.832-39.056-58.368-69.392-102.592-4.896-5.664-7.824-13.68-13.136-25.584-5.872-13.28-7.152-27.664-7.152-42.784v-48.144c0-14.416-15.168-24.992-29.664-24.992h-141.504c-14.48 0-21.904 10.576-21.904 24.992v71.008c0 17.664 0.432 37.68 5.488 59.504 4.832 20.688 10.208 38.4 20.24 52.672l160.080 227.28c4.56 5.792 9.2 8.4 15.344 8.8 9.392-3.248 40.192-21.024 40.192-30.672v-0.976c0-1.12-1.68-2.656-2.688-4.256l-69.36-111.36c-7.008-11.328-3.504-26.144 7.84-33.088 3.968-2.432 8.336-3.6 12.672-3.6 8.064 0 15.984 4.080 20.544 11.424l68.24 110.144c4.416 5.664 7.456 12.176 9.184 19.472 0.224 0.848 0.496 1.712 0.688 2.56 0.88 4.016 1.12 7.424 1.024 10.048 0.032 2.192 0.224 4.528-0.224 6.864 0 0.368 0.32 0.72 0.32 1.088v246.752h48.288v-299.056zM427.744 150.416c-6.256 26.736-15.184 50.080-28.752 69.424l-160.208 228.256c-14.736 18.88-33.808 28.336-55.648 28.336-8.832 0-22.256-6.208-38.336-15.744v212.976c0 13.28-10 27.136-23.328 27.136h-99.008c-13.312-0.016-22.464-13.872-22.464-27.136v-319.984c0-13.6 0.672-26.768 3.552-39.184 3.008-12.96 9.040-28.272 19.264-46.848 9.072-16.528 22.144-38.096 40.4-65.888 16.688-25.296 39.776-59.536 70.736-104.624 0.768-1.136 1.552-2.192 2.496-3.152 0 0 0.656-2.88 5.376-13.424 3.168-7.216 2.992-14.832 2.992-23.344v-48.144c0-40.944 36.864-73.072 77.936-73.072h141.488c41.104 0 70.176 32.144 70.176 73.072v71.008c-0.016 21.296-0.8 44.944-6.672 70.336zM386.144 9.072c0-14.416-7.424-24.992-21.92-24.992h-141.488c-14.448 0-29.664 10.576-29.664 24.992v48.144c0 15.104-1.264 29.504-7.168 42.784-5.28 11.888-8.24 19.904-13.136 25.584-30.32 44.224-53.008 77.76-69.376 102.592-17.536 26.624-30.176 47.088-38.656 62.56-9.936 18.048-12.816 28.816-14.176 34.672-2.064 8.832-2.288 18.336-2.288 28.272v299.040h48.256v-246.752c0-0.368 0.352-0.72 0.32-1.088-0.416-2.336-0.256-4.672-0.192-6.864-0.096-2.624 0.128-6.032 1.008-10.048 0.192-0.848 0.464-1.712 0.72-2.56 1.696-7.296 4.768-13.792 9.136-19.472l68.256-110.144c4.544-7.344 12.464-11.424 20.544-11.424 4.336 0 8.736 1.152 12.688 3.6 11.312 6.96 14.832 21.76 7.856 33.088l-69.424 111.36c-0.976 1.6-2.672 3.12-2.672 4.256v0.976c0 9.648 30.8 27.424 40.192 30.672 6.128-0.384 10.768-3.008 15.328-8.8l160.096-227.248c10.016-14.272 15.424-31.984 20.24-52.672 5.056-21.808 5.472-41.84 5.472-59.504v-71.024zM868.48 803.376c-0.256 2.096-0.528 4.192-0.848 6.304-0.688 4.672-1.52 9.328-2.656 14.16l-0.592 2.768c-2.992 12.24-7.12 23.888-12.32 34.64-19.104 39.472-53.008 70.24-95.456 86.624-20.496 7.92-43.2 12.112-65.632 12.144-11.936 0-23.664-1.216-34.816-3.472-31.92-6.528-60.592-22.512-82.928-46.224l-36.72-38.992-23.76-25.040-0.752 0.784-0.88-0.912-60.368 64.128c-22.352 23.712-51.024 39.696-83.008 46.224-11.104 2.272-22.8 3.488-34.704 3.488-22.48-0.032-45.2-4.224-65.68-12.144-42.448-16.368-76.336-47.136-95.424-86.656-5.216-10.72-9.36-22.368-12.608-35.728l-0.416-1.872c-1.024-4.592-1.856-9.264-2.576-13.888-0.288-2.128-0.576-4.224-0.8-6.48-3.824-32.816 0.16-68.096 11.632-104.32 42.96-125.536 123.936-183.552 319.664-323.584l25.168-18.096 25.2 18.096c195.68 140.032 276.688 198.048 319.504 323.024 11.6 36.768 15.584 72.064 11.776 105.024zM513.168 683.392v-28.24h-42.544v-28.224h42.544v-28.272h-42.544v-5.344c0-23.056 13.136-36.992 34.32-36.992h14.048c22.272 0 33.344 14.112 33.472 28.24h37.184c-0.24-42.352-29.12-70.608-70.672-70.608h-14.048c-40.16 0-76.832 36.464-76.832 79.28v5.44h-28.352v28.272h28.352v28.224h-28.352v28.24h28.352v8.272c0 42.88 36.672 76.464 76.832 76.464h14.048c41.536 0 70.432-28.24 70.672-70.576h-37.184c-0.128 14.080-10.96 28.224-33.264 28.224h-14.016c-21.168 0-34.56-11.040-34.56-34.208v-8.176h42.544z" />
<glyph unicode="&#xe63f;" d="M202.868 240.766c-85.398 0-154.566-69.207-154.566-154.566s69.168-154.566 154.566-154.566c85.359 0 154.566 69.207 154.566 154.566s-69.207 154.566-154.566 154.566zM202.868-10.404c-53.364 0-96.604 43.24-96.604 96.604s43.24 96.604 96.604 96.604 96.604-43.24 96.604-96.604-43.24-96.604-96.604-96.604zM921.735 251.72l-200.897-17.949-14.896 67.932-16.519 75.506-12.423 56.629c-0.27 1.314-0.831 5.139-1.198 6.376l-41.501 192.377h46.949l23.958-26.74 54.639-55.953 81.959-82.635c22.644-22.644 59.392-22.953 81.997-0.348 22.644 22.683 22.644 59.141 0 81.804l-177.616 177.422c-12.597 12.597-29.503 20.596-45.925 19.205-1.584 0.116-3.091 3.13-4.714 3.13h-129.101l-0.232-2.608c36.787 38.158 54.523 99.367 31.435 149.543-19.475 42.409-66.251 67.101-112.35 64.377-44.457-2.647-85.958-29.020-101.125-71.255-17.582-48.978 2.145-101.434 37.115-140.075h-305.365c-32.014 0-57.962-25.967-57.962-57.962 0-32.034 25.948-57.962 57.962-57.962h281.001l53.847-248.774-3.69-14.606-20.673-75.1-31.010-112.041c-5.931-21.427 1.179-43.394 16.268-57.692 0.522-0.522 0.869-1.237 1.391-1.778l40.979-41.057 136.617-136.636c22.644-22.644 59.392-22.605 81.997 0 22.644 22.683 22.644 59.315 0 81.959l-156.498 156.479 21.987 79.061 11.998 43.201 34.642 7.554 7.96-36.265 24.789-113.239c1.43-6.608 4.154-12.558 7.516-18.007 10.414-20.596 32.498-33.927 56.861-31.744l250.146 22.335c31.918 2.821 55.431 31.010 52.61 62.87-2.898 31.995-31.010 55.489-62.928 52.668z" />
<glyph unicode="&#xe640;" d="M971.127 547.806h-15.394v-51.2h17.067v-460.8h-307.2v51.2h-307.2v-51.2h-307.2v460.8h17.067v51.2h-18.739c-34.133 0-49.527-28.126-49.527-62.259v-500.958h1024v500.958c0 34.133-18.739 62.259-52.873 62.259zM510.327 98.133c225.86 0 409.6 183.757 409.6 409.6s-183.74 409.6-409.6 409.6-409.6-183.757-409.6-409.6 183.74-409.6 409.6-409.6zM868.727 507.733c0-124.194-63.198-233.574-159.13-297.865 54.767 74.103 88.474 179.337 88.474 297.865s-33.707 223.727-88.474 297.865c95.932-64.29 159.13-173.67 159.13-297.865zM610.731 771.072c-4.864 24.542-11.059 50.33-19.934 73.335 90.965-49.937 156.075-181.606 156.075-336.674 0-155.051-65.092-286.72-156.075-336.674 8.875 23.006 15.070 48.777 19.934 73.301 14.029 70.861 21.76 164.403 21.76 263.373s-7.731 192.512-21.76 263.339zM510.327 866.133c39.202 0 70.963-160.461 70.963-358.4s-31.761-358.4-70.963-358.4c-39.168 0-70.963 160.461-70.963 358.4s31.795 358.4 70.963 358.4zM429.875 844.407c-8.875-23.006-15.070-48.777-19.934-73.335-14.029-70.81-21.76-164.369-21.76-263.339s7.731-192.495 21.76-263.373c4.864-24.525 11.059-50.295 19.934-73.301-90.965 49.937-156.075 181.606-156.075 336.674s65.092 286.737 156.075 336.674zM311.108 805.632c-54.767-74.138-88.508-179.354-88.508-297.899 0-118.528 33.741-223.761 88.508-297.882-95.983 64.307-159.181 173.687-159.181 297.882s63.198 233.591 159.181 297.899z" />
<glyph unicode="&#xe641;" d="M426.667 174.933h187.733v119.467h136.533v187.733h-136.533v136.533h-187.733v-136.533h-136.533v-187.733h136.533zM968.567 755.2h-302.967v102.4h-307.2v-102.4h-311.433c-34.133 0-46.967-23.006-46.967-57.139v-659.661h1024v659.661c0 34.133-21.299 57.139-55.433 57.139zM409.6 806.4h204.8v-51.2h-204.8v51.2zM972.8 89.6h-921.6v614.4h921.6v-614.4z" />
<glyph unicode="&#xe642;" d="M512 960c-282.3 0-512-229.666-512-512 0-155.972 52.292-287.232 151.228-379.665 91.307-85.333 219.443-132.335 360.772-132.335 282.334 0 512 229.7 512 512 0 282.334-229.666 512-512 512zM512 908.8c254.498 0 460.8-206.302 460.8-460.8 0-2.594-0.171-5.205-0.205-7.799-62.942-26.931-286.259-108.237-459.537 8.329-169.728 114.193-397.961 33.365-461.67 7.031 4.045 250.999 208.674 453.239 460.612 453.239z" />
<glyph unicode="&#xe643;" d="M934.828 787.834c-19.238 44.368-55.766 73.392-100.268 79.62-8.36 1.175-17.055 1.763-25.869 1.763-5.053 0-10.156-0.353-15.242-0.722 0.034 2.602 0.067 5.12 0.101 7.739 0 1.679 0.034 3.324 0.034 5.002 0.101 14.756 0.168 29.73 0.168 44.922-0.017 17.727-17.71 33.842-34.732 33.842-46.298 0-254.556 0-254.556 0-0.269 0-208.308 0-254.556 0-16.988 0-34.715-16.149-34.715-33.876 0-15.175 0.067-30.116 0.168-44.855 0-0.101 0-0.201 0-0.319-2.568 0.101-5.17 0.369-7.722 0.369-8.796 0-17.492-0.604-25.852-1.763-44.502-6.245-81.064-35.269-100.302-79.637-26.036-60.013-16.048-136.897 25.415-195.886 49.27-70.052 105.556-118.784 161.221-141.194 1.612-3.592 3.206-7.185 4.919-10.593 42.102-84.169 118.146-180.459 171.562-206.831v-158.401l-139.734-105.019v-26.59c0-11.012 8.78-19.439 19.842-19.439h359.273c11.012 0 20.094 8.427 20.094 19.439v26.59l-139.734 105.019v158.116c51.939 25.6 125.348 117.475 168.037 199.949 60.752 18.986 123.115 70.119 177.051 146.852 41.464 58.989 51.418 135.89 25.399 195.903zM148.094 633.008c-31.61 44.955-39.6 102.601-20.413 146.885 7.118 16.401 24.509 44.67 61.087 49.807 6.043 0.839 12.389 1.276 18.868 1.276 2.736 0 5.573-0.235 8.393-0.386 0.235-12.355 0.504-24.542 0.873-36.528 0.034-1.393 0.084-2.803 0.118-4.18 3.089-100.721 10.777-187.946 27.732-257.091-33.087 22.998-66.359 57.092-96.659 100.218zM581.598 334.689c-6.060-4.532-13.144-6.715-20.161-6.715-10.19 0-20.262 4.616-26.859 13.379-11.146 14.84-8.158 35.874 6.648 47.020 98.354 73.98 119.909 354.002 119.875 455.68 0 18.533 15.024 33.574 33.574 33.574v0c18.55 0 33.574-15.024 33.574-33.557 0.050-40.842-3.895-402.012-146.65-509.381zM868.201 620.905c-34.195-48.665-72.167-85.831-109.383-108.527 20.749 72.049 29.713 166.593 33.087 277.403 0.067 1.41 0.101 2.837 0.134 4.247 0.235 7.839 0.386 15.914 0.588 23.921 5.439 0.554 10.844 0.923 16.065 0.923 6.463 0 12.825-0.436 18.885-1.276 36.562-5.137 53.936-33.406 61.054-49.79 19.204-44.284 11.214-101.947-20.43-146.902z" />
<glyph unicode="&#xe644;" d="M594.112 279.424c-24.704 39.104-47.648 81.28-65.376 120.16 37.344 83.2 46.592 140.544 27.392 170.4-6.368 10.048-19.296 22.016-44.128 22.016-24.544 0-37.344-11.84-43.808-21.792-19.328-29.792-10.784-87.104 25.44-170.432-17.984-38.24-41.184-79.776-66.016-118.24-99.008-14.304-155.616-54.656-155.616-111.264 0-46.848 22.144-53.856 35.36-53.888h0.032c41.984 0 103.36 81.984 138.88 135.296 41.152 4.672 86.88 4 128.736-1.728 35.328-54.272 96.896-137.984 140.032-137.984 13.792 0 36.928 7.552 36.928 58.272 0.032 52.128-58.816 92.704-157.856 109.184zM307.616 148.416c-0.864 1.312-3.616 6.624-3.616 21.856 0 33.44 36.128 60.128 98.432 74.144-49.12-68.928-83.424-95.68-94.816-96zM495.040 552.768c2.176 3.392 6.048 7.232 16.96 7.232 11.168 0 15.072-3.872 17.216-7.264 8.384-13.024 7.072-48.864-17.792-111.936-24 63.104-24.864 98.976-16.384 111.968zM503.136 286.784c-11.648 0-23.168-0.352-34.464-1.056l0.8 1.28-0.704-0.096c15.104 24.672 29.28 50.048 41.824 74.72l0.384-0.832 0.416 0.832c12.352-25.024 26.368-50.784 41.344-75.84l-0.768 0.128 0.8-1.248c-16.352 1.376-32.928 2.112-49.632 2.112zM715.424 144c0 0-0.128 0-0.384 0-11.552 0-46.464 27.136-95.84 97.696 62.272-15.264 100.768-41.856 100.768-71.392 0.032-21.696-4.64-26.272-4.544-26.304zM887.328 695.328l-255.328 255.328c-6.432 6.432-14.912 9.44-23.328 9.248-0.224-0.032-0.416 0.096-0.672 0.096h-448c-17.696 0-32-14.304-32-32v-960c0-17.696 14.304-32 32-32h704c17.696 0 32 14.304 32 32v701.152c1.056 9.344-1.536 19.008-8.672 26.176zM640 852.096l148.128-148.096h-148.128v148.096zM192 0v896h384v-224c0-17.696 14.304-32 32-32h224v-640h-640z" />
<glyph unicode="&#xe645;" d="M627.168 680.144c0-62.89-64.886-113.872-144.928-113.872s-144.928 50.982-144.928 113.872c0 62.89 64.886 113.872 144.928 113.872s144.928-50.982 144.928-113.872zM862.784 406.32c-11.456-2.192-23.328-3.376-35.44-3.376-103.424 0-187.344 83.824-187.344 187.232v0.304c-48 18.416-101.68 28.528-156.992 28.528-245.856 0-445.12-196.24-445.12-442.096 0-34.368 4.064-69.968 11.44-96.912h867.488c7.408 26.944 11.44 62.512 11.44 96.912 0 85.216-23.936 161.744-65.472 229.408zM761.168 256c0 128-105.168 217.68-249.168 217.68v18.64c160 0 267.776-108.32 267.776-236.32h-18.608zM828.192 760.992c-94.688 0-171.36-76.72-171.36-171.52 0-94.688 76.672-171.408 171.36-171.408 94.752 0 171.44 76.72 171.44 171.408 0 94.816-76.688 171.52-171.44 171.52zM868.096 460.032c-13.488-4.384-27.744-6.8-42.72-6.8-75.152 0-136.32 61.008-136.32 136.256 0 4.752 0.336 9.52 0.816 14.016 6.896 68.736 64.976 122.336 135.504 122.336 75.344 0 136.336-61.008 136.336-136.336 0-60.432-39.312-111.568-93.616-129.472zM848.816 528.176c-5.504-5.84-13.152-9.696-21.712-9.696h-12.064l-1.68 0.128-0.32 0.096c-15.104 2-28.384 18.528-28.512 35.392v2.864h28.912v19.216h-28.912v22.432h28.912v19.248h-28.912v2.896c0.128 16.88 13.408 33.344 28.512 35.376h0.32l1.68 0.16 1.648 0.096h10.416c8.56 0 16.24-3.936 21.712-9.76 1.568-1.84 2.816-3.888 3.68-6.144l0.992 0.128c3.008-4.928 4.816-10.64 4.816-16.32h25.664c-0.144 30.176-21.728 54.592-51.136 57.44l-0.208 0.32c0-0.016-2.448-0.016-5.424-0.016l-0.128 0.016h-10.848l-1.968-0.16-3.76-0.208h-0.24c-28.336-2.912-51.44-25.168-51.44-56.24v-7.6h-9.552v-19.248h9.552v-22.432h-9.552v-19.216h9.552v-7.536c0-31.136 23.104-53.408 51.44-56.32h0.24l3.76-0.224 1.968-0.080h10.976c2.976 0 5.424 0 5.424 0l0.208 0.256c29.408 2.864 51.008 27.328 51.136 57.44h-25.664c0-5.68-1.792-11.36-4.816-16.304z" />
<glyph unicode="&#xe646;" d="M112 768v-640h800v640h-800zM432 272v80h208v-80h-208zM640 240v-80h-208v80h208zM640 576v-80h-208v80h208zM432 656v80h208v-80h-208zM880 384h-208v80h208v-80zM640 384h-208v80h208v-80zM144 464h208v-80h-208v80zM352 496h-208v80h208v-80zM144 352h208v-80h-208v80zM672 352h208v-80h-208v80zM880 496h-208v80h208v-80zM672 656v80h208v-80h-208zM352 736v-80h-208v80h208zM144 240h208v-80h-208v80zM672 160v80h208v-80h-208z" />
</font>
</defs>
</svg>
